<svg width="137" height="137" viewBox="0 0 137 137" fill="none" xmlns="http://www.w3.org/2000/svg">
<rect y="-0.000488281" width="137" height="137" rx="17.7155" fill="#FBC22E"/>
<path d="M45.1827 56.1802C44.3623 57.7281 43.7004 59.355 43.207 61.0361L50.1643 61.1603L45.1827 56.1802Z" fill="#3C3C3C"/>
<path d="M43.0156 75.2713C43.4896 77.0689 44.1551 78.8107 45.0003 80.4665L50.3018 75.165L43.0156 75.2713Z" fill="#3C3C3C"/>
<path d="M60.8129 93.727L60.8213 85.5898L55.1641 91.2472C56.942 92.2949 58.8382 93.1272 60.8129 93.727Z" fill="#3C3C3C"/>
<path d="M75.2181 42.9995L75.1484 50.3181L80.4686 44.9987C78.7957 44.1447 77.0352 43.4744 75.2181 42.9995Z" fill="#3C3C3C"/>
<path d="M60.822 43.2671C58.9671 43.8291 57.1806 44.5964 55.4961 45.5551L60.7439 50.8031L60.822 43.2671Z" fill="#3C3C3C"/>
<path d="M75.2822 93.9832C77.2046 93.4758 79.0624 92.7497 80.8193 91.8191L75.168 86.168L75.2822 93.9832Z" fill="#3C3C3C"/>
<path d="M93.7517 60.8919C93.1505 58.8877 92.3096 56.9635 91.2477 55.1606L85.5664 60.8417L93.7517 60.8919Z" fill="#3C3C3C"/>
<path d="M91.4442 81.5026C92.5115 79.6268 93.3414 77.6256 93.9147 75.5449L85.5586 75.6177L91.4442 81.5026Z" fill="#3C3C3C"/>
<path d="M95.6254 41.3747C80.6448 26.3941 56.3567 26.3939 41.3761 41.3745C26.3956 56.355 26.3954 80.6432 41.3759 95.6237C56.3565 110.604 80.6447 110.604 95.6252 95.6239C110.606 80.6434 110.606 56.3552 95.6254 41.3747ZM89.1116 89.1101C77.7285 100.493 59.2728 100.493 47.8897 89.1101C36.5066 77.727 36.5066 59.2713 47.8897 47.8883C59.2728 36.5052 77.7285 36.5052 89.1116 47.8883C94.5779 53.3546 97.6489 60.7686 97.6489 68.4992C97.67 76.234 94.5958 83.6557 89.1116 89.1101Z" fill="#3C3C3C"/>
<path d="M94.4238 63.6841V63.684L82.2149 63.6089C81.4452 63.6042 80.8251 62.9763 80.83 62.2067C80.8322 61.84 80.9789 61.4892 81.2381 61.2298L89.6763 52.7916C87.8223 50.3042 85.5494 48.1582 82.9598 46.4498L74.7088 54.7005C74.1646 55.2447 73.2821 55.2445 72.7379 54.7003C72.4735 54.4359 72.3264 54.076 72.3299 53.702L72.4364 42.4293C69.5082 41.9945 66.5283 42.0487 63.6179 42.5896L63.4982 54.1492C63.4902 54.9188 62.8598 55.5362 62.0901 55.5281C61.7255 55.5243 61.3771 55.3778 61.1193 55.1202L53.1001 47.1009C50.5865 48.9175 48.4086 51.1583 46.6642 53.7225L54.574 61.6329C54.9752 62.0264 55.0933 62.626 54.8714 63.1422C54.6506 63.6521 54.1448 63.979 53.5892 63.9709H53.565L42.5572 63.8005C42.0441 66.6731 42.0048 69.6103 42.4404 72.4956L53.6955 72.3326H53.716C54.4846 72.3314 55.1084 72.9534 55.1097 73.722C55.1102 74.0922 54.9633 74.4474 54.7013 74.7089L46.4506 82.9589C48.159 85.5486 50.305 87.8214 52.7924 89.6757L61.2308 81.2373C61.7752 80.6931 62.6575 80.6932 63.2017 81.2376C63.4634 81.4993 63.61 81.8541 63.6097 82.2241L63.5975 94.407C66.5363 94.9559 69.5463 95.0078 72.5022 94.5606L72.3297 82.7744C72.3184 82.0048 72.9332 81.3718 73.7028 81.3606C74.0794 81.355 74.4423 81.5022 74.7087 81.7686L83.2777 90.3376C85.8423 88.5933 88.0834 86.4153 89.9002 83.9014L81.2381 75.2395C80.6937 74.6955 80.6936 73.813 81.2376 73.2686C81.4961 73.0101 81.8457 72.8634 82.2114 72.8602L94.5209 72.7528C95.0062 69.7464 94.9733 66.6792 94.4238 63.6841ZM74.8876 74.8867C71.3603 78.414 65.6416 78.414 62.1143 74.8867C58.5871 71.3595 58.5871 65.6408 62.1143 62.1135C65.6416 58.5863 71.3603 58.5863 74.8876 62.1135C76.5813 63.8073 77.533 66.1047 77.533 68.5001C77.5394 70.8968 76.5869 73.1966 74.8876 74.8867Z" fill="#3C3C3C"/>
<path d="M68.4991 62.2544C65.05 62.2542 62.2541 65.0502 62.2539 68.4992C62.2537 71.9483 65.0497 74.7444 68.4987 74.7444C71.9477 74.7446 74.7439 71.9486 74.7439 68.4996C74.7439 66.8433 74.0859 65.2547 72.9147 64.0835C71.7462 62.9085 70.1561 62.2499 68.4991 62.2544Z" fill="#3C3C3C"/>
</svg>
