<svg width="75" height="75" viewBox="0 0 75 75" fill="none" xmlns="http://www.w3.org/2000/svg">
<rect width="75" height="75" rx="9.69828" fill="#FBC22E"/>
<path d="M30.8221 48.5H27.5V52.5195H48.5V48.5H45.1779L43.7619 44.4805H32.2381L30.8221 48.5Z" fill="#3C3C3C"/>
<path d="M38 29.4279C40.8995 29.4279 43.25 25.1495 43.25 22.25C43.25 19.3505 40.8995 17 38 17C35.1005 17 32.75 19.3505 32.75 22.25C32.75 25.1495 35.1005 29.4279 38 29.4279Z" fill="#3C3C3C"/>
<path d="M41.4679 30.72C39.3361 32.235 36.5164 32.1854 34.4238 30.6428V42.0195H41.5734V30.6428C41.5383 30.6687 41.5033 30.6948 41.4679 30.72Z" fill="#3C3C3C"/>
<path d="M23.5625 54.9805H52.4375V59H23.5625V54.9805Z" fill="#3C3C3C"/>
</svg>
