<svg width="75" height="75" viewBox="0 0 75 75" fill="none" xmlns="http://www.w3.org/2000/svg">
<rect width="75" height="75" rx="6.46552" fill="#FBC22E"/>
<path d="M36.7969 52.0545C39.2398 52.0545 41.6278 51.33 43.659 49.9728C45.6902 48.6156 47.2734 46.6866 48.2082 44.4296C49.1431 42.1727 49.3877 39.6892 48.9111 37.2932C48.4345 34.8972 47.2581 32.6964 45.5307 30.969C43.8034 29.2416 41.6025 28.0652 39.2065 27.5887C36.8106 27.1121 34.3271 27.3567 32.0701 28.2915C29.8132 29.2264 27.8841 30.8095 26.5269 32.8407C25.1697 34.8719 24.4453 37.26 24.4453 39.7029C24.4499 42.9773 25.7527 46.1163 28.0681 48.4317C30.3835 50.747 33.5225 52.0498 36.7969 52.0545ZM36.7969 28.8044C38.9524 28.8044 41.0595 29.4436 42.8517 30.6412C44.644 31.8387 46.0408 33.5408 46.8657 35.5322C47.6906 37.5237 47.9064 39.715 47.4859 41.8291C47.0654 43.9432 46.0274 45.8851 44.5032 47.4092C42.9791 48.9334 41.0371 49.9714 38.9231 50.3919C36.809 50.8124 34.6177 50.5966 32.6262 49.7717C30.6348 48.9469 28.9327 47.55 27.7352 45.7577C26.5376 43.9655 25.8984 41.8584 25.8984 39.7029C25.9019 36.8135 27.0512 34.0435 29.0943 32.0003C31.1374 29.9572 33.9075 28.8079 36.7969 28.8044Z" fill="#3C3C3C"/>
<path d="M32.205 37.7995C32.1516 37.933 32.0592 38.0472 31.9401 38.1276C31.8209 38.2079 31.6803 38.2505 31.5366 38.25H27.4751C27.3104 39.2117 27.3104 40.1945 27.4751 41.1562H31.5366C31.6803 41.1557 31.8209 41.1984 31.9401 41.2787C32.0592 41.359 32.1516 41.4733 32.205 41.6067C32.2606 41.739 32.2758 41.8849 32.2487 42.0258C32.2215 42.1668 32.1532 42.2965 32.0524 42.3987L29.1752 45.2613C29.7513 46.048 30.4447 46.7415 31.2314 47.3175L34.1013 44.4476C34.2035 44.3468 34.3332 44.2785 34.4742 44.2513C34.6151 44.2242 34.761 44.2394 34.8933 44.295C35.0267 44.3484 35.141 44.4407 35.2213 44.5599C35.3016 44.6791 35.3443 44.8197 35.3437 44.9634V49.0249C36.3055 49.1896 37.2882 49.1896 38.25 49.0249V44.9634C38.2494 44.8197 38.2921 44.6791 38.3724 44.5599C38.4528 44.4407 38.567 44.3484 38.7005 44.295C38.8328 44.2394 38.9786 44.2242 39.1196 44.2513C39.2605 44.2785 39.3902 44.3468 39.4924 44.4476L42.3623 47.3175C43.149 46.7415 43.8425 46.048 44.4185 45.2613L41.5413 42.3987C41.4405 42.2965 41.3722 42.1668 41.3451 42.0258C41.3179 41.8849 41.3331 41.739 41.3887 41.6067C41.4422 41.4733 41.5345 41.359 41.6537 41.2787C41.7729 41.1984 41.9135 41.1557 42.0572 41.1562H46.1187C46.2834 40.1945 46.2834 39.2117 46.1187 38.25H42.0572C41.9135 38.2505 41.7729 38.2079 41.6537 38.1276C41.5345 38.0472 41.4422 37.933 41.3887 37.7995C41.3331 37.6672 41.3179 37.5214 41.3451 37.3804C41.3722 37.2395 41.4405 37.1097 41.5413 37.0076L44.4185 34.1449C43.8401 33.3558 43.1442 32.6599 42.3551 32.0815L39.4924 34.9587C39.355 35.0942 39.1696 35.1699 38.9766 35.1694C38.7847 35.1666 38.6016 35.0891 38.4659 34.9535C38.3303 34.8178 38.2528 34.6346 38.25 34.4428V30.3813C37.2882 30.2166 36.3055 30.2166 35.3437 30.3813V34.4428C35.3409 34.6346 35.2635 34.8178 35.1278 34.9535C34.9922 35.0891 34.809 35.1666 34.6172 35.1694C34.4242 35.1699 34.2388 35.0942 34.1013 34.9587L31.2387 32.0815C30.4495 32.6599 29.7537 33.3558 29.1752 34.1449L32.0524 37.0076C32.1532 37.1097 32.2215 37.2395 32.2487 37.3804C32.2758 37.5214 32.2606 37.6672 32.205 37.7995Z" fill="#3C3C3C"/>
<path d="M17.9277 40.4294C17.9705 41.5941 18.1238 42.7521 18.3855 43.8878L19.7659 43.5173L20.1438 44.9195L18.756 45.2901C19.1061 46.4002 19.5534 47.4773 20.0929 48.5088L21.3353 47.7895L22.0619 49.0537L20.8195 49.7657C21.7327 51.2217 22.84 52.5465 24.1108 53.7037C24.2195 53.8005 24.2964 53.928 24.3314 54.0693C24.3664 54.2106 24.3579 54.3592 24.307 54.4956C24.2559 54.6324 24.1648 54.7506 24.0456 54.8348C23.9263 54.9191 23.7845 54.9654 23.6385 54.9679C22.6908 54.9906 21.7893 55.3821 21.1258 56.0592C20.4623 56.7363 20.0891 57.6455 20.0856 58.5934H51.197C51.0462 58.17 50.7686 57.8034 50.402 57.5434C50.0354 57.2834 49.5976 57.1426 49.1481 57.1403H47.0702C46.912 57.1399 46.7583 57.0878 46.6325 56.9921C46.5066 56.8964 46.4154 56.7622 46.3727 56.6099C46.3284 56.458 46.3358 56.2957 46.3936 56.1485C46.4515 56.0012 46.5565 55.8773 46.6923 55.7962C47.7433 55.15 48.7289 54.403 49.6349 53.5656L48.6105 52.5484L49.6422 51.5167L50.6594 52.5412C51.456 51.6888 52.1689 50.7618 52.7882 49.773L51.5313 49.0537L52.2578 47.7895L53.5148 48.516C54.0593 47.4853 54.5045 46.4051 54.8444 45.2901L53.4494 44.9195L53.8272 43.5173L55.2149 43.8878C55.4716 42.7514 55.6224 41.5936 55.6654 40.4294H54.2341V38.9763H55.6581C55.62 37.8124 55.4741 36.6547 55.2222 35.5178L53.8272 35.8884L53.4494 34.4861L54.8516 34.1155C54.3443 32.4953 53.6209 30.9507 52.701 29.5237H52.6792V29.5019C52.5339 29.2766 52.3959 29.0514 52.2433 28.8334L51.277 31.2529C51.2193 31.3986 51.1161 31.5217 50.9827 31.6039C50.8494 31.6861 50.693 31.7231 50.537 31.7092C50.3809 31.6953 50.2336 31.6313 50.1168 31.5268C50.0001 31.4224 49.9203 31.2829 49.8892 31.1294L49.2498 27.947L46.7941 27.3295C46.6543 27.2947 46.528 27.2192 46.4312 27.1126C46.3344 27.0059 46.2715 26.8729 46.2505 26.7304C46.2295 26.5879 46.2513 26.4424 46.3131 26.3123C46.375 26.1822 46.4741 26.0735 46.5979 25.9998L48.4797 24.8737C46.6606 23.438 44.5913 22.3517 42.3766 21.6695L42.0133 23.05L40.611 22.6722L40.9743 21.2917C39.8403 21.0355 38.6849 20.8847 37.5231 20.8413V22.2653H36.07V20.834C34.9057 20.876 33.7478 21.0268 32.6116 21.2845L32.9821 22.6722L31.5798 23.05L31.2093 21.655C30.0969 22.0018 29.0193 22.4518 27.9906 22.9991L28.7099 24.2416L27.4457 24.9681L26.7337 23.7257C25.751 24.3478 24.8269 25.0579 23.9727 25.8473L24.9827 26.8572L23.9509 27.8889L22.941 26.879C22.1517 27.7332 21.4416 28.6573 20.8195 29.6399L22.0619 30.352L21.3353 31.6162L20.0929 30.8969C19.5455 31.9255 19.0955 33.0031 18.7487 34.1155L20.1438 34.4861L19.7659 35.8884L18.3782 35.5178C18.1206 36.6541 17.9698 37.8119 17.9277 38.9763H19.3591V40.4294H17.9277ZM23.7184 57.8669H22.2653V56.4137H23.7184V57.8669ZM28.0778 55.6872H25.8981V54.2341H28.0778V55.6872ZM31.7106 57.8669H30.2575V56.4137H31.7106V57.8669ZM38.2497 57.8669H33.8903V56.4137H38.2497V57.8669ZM42.6091 55.6872H39.7028V54.2341H42.6091V55.6872ZM44.7888 57.8669H43.3356V56.4137H44.7888V57.8669ZM36.7966 25.8981C39.5269 25.8981 42.1959 26.7078 44.466 28.2246C46.7362 29.7415 48.5056 31.8975 49.5504 34.42C50.5953 36.9425 50.8687 39.7181 50.336 42.396C49.8033 45.0738 48.4886 47.5336 46.558 49.4642C44.6273 51.3948 42.1676 52.7096 39.4897 53.2422C36.8119 53.7749 34.0362 53.5015 31.5137 52.4567C28.9913 51.4118 26.8353 49.6425 25.3184 47.3723C23.8015 45.1021 22.9919 42.4331 22.9919 39.7028C22.9951 36.0426 24.4506 32.5332 27.0388 29.945C29.627 27.3569 33.1363 25.9014 36.7966 25.8981Z" fill="#3C3C3C"/>
<path d="M52.9061 20.4854L52.1432 19.352L51.2495 21.1393C51.2069 21.2245 51.1478 21.3004 51.0757 21.3627C51.0036 21.4249 50.9199 21.4723 50.8293 21.502C50.7388 21.5317 50.6433 21.5432 50.5483 21.5359C50.4534 21.5285 50.3608 21.5023 50.2759 21.459L48.6484 20.6452L49.128 23.5442C49.4985 23.8203 49.8618 24.1182 50.2105 24.4234C50.2971 24.4982 50.3647 24.5926 50.4077 24.6987C50.4506 24.8048 50.4677 24.9196 50.4576 25.0337C50.4465 25.1484 50.4085 25.2588 50.3466 25.356C50.2847 25.4533 50.2008 25.5345 50.1016 25.5931L48.8446 26.3488L50.0507 26.6466C50.185 26.6775 50.3074 26.7468 50.4029 26.8462C50.4984 26.9456 50.5629 27.0707 50.5884 27.2061L50.8354 28.4485L51.373 27.1116C51.4398 26.9362 51.5709 26.7928 51.7395 26.7105C51.9082 26.6282 52.1019 26.6132 52.2812 26.6684C52.4603 26.7287 52.6089 26.8564 52.6954 27.0245C53.0005 27.395 53.2766 27.7873 53.5455 28.1797L56.2337 28.5648L55.1076 27.0608C55.0395 26.9722 54.9934 26.8687 54.9732 26.7588C54.953 26.6488 54.9592 26.5357 54.9913 26.4287C55.0212 26.3212 55.0754 26.222 55.1497 26.1389C55.224 26.0557 55.3165 25.9908 55.42 25.9491L57.5488 25.0991L56.0884 24.3652C55.9207 24.2823 55.792 24.1372 55.7296 23.9608C55.6671 23.7844 55.676 23.5907 55.7542 23.4207L57.8322 18.7344L53.8361 20.7324C53.6776 20.8118 53.4956 20.8304 53.3243 20.7849C53.1531 20.7394 53.0043 20.6329 52.9061 20.4854Z" fill="#3C3C3C"/>
</svg>
