<svg width="75" height="75" viewBox="0 0 75 75" fill="none" xmlns="http://www.w3.org/2000/svg">
<rect width="75" height="75" rx="6.46552" fill="#FBC22E"/>
<g clip-path="url(#clip0)">
<path d="M56.0106 49.4513C57.531 46.6957 58.3891 43.6127 58.502 40.4122H56.3473V38.9645H58.5004C58.385 35.6982 57.4963 32.6262 56.0069 29.9279L54.5773 30.881L53.7743 29.6764L55.2592 28.6865C53.7019 26.2874 51.6527 24.2382 49.2536 22.6809L48.2637 24.1658L47.0591 23.3628L48.0122 21.9332C45.3139 20.4439 42.2419 19.5551 38.9756 19.4397V20.869H37.528V19.4397C34.2616 19.5551 31.1896 20.4438 28.4913 21.9332L29.4444 23.3628L28.2399 24.1658L27.25 22.6809C24.8508 24.2382 22.8016 26.2874 21.2443 28.6865L22.7292 29.6764L21.9262 30.881L20.4966 29.9279C19.0073 32.6262 18.1186 35.6982 18.0031 38.9645H20.1562V40.4122H18.002C18.1149 43.6115 18.9746 46.6939 20.4951 49.4499L21.9262 48.4958L22.7291 49.7003L21.2373 50.6949C21.8657 51.6624 22.5827 52.58 23.3798 53.441H25.223V54.8887H23.06H22.6896C22.0909 54.8887 21.6039 55.3757 21.6039 55.9744C21.6039 56.5731 22.0909 57.0602 22.6896 57.0602H27.0071L28.2399 55.211L29.4444 56.014L28.747 57.0602H53.0901C53.6888 57.0602 54.1759 56.5731 54.1759 55.9744C54.1759 55.4612 53.8182 55.0304 53.3389 54.9173C53.3206 54.9155 53.3015 54.9127 53.2824 54.9095C53.2201 54.8978 53.1559 54.8887 53.0901 54.8887H48.3853V53.441H53.1307C53.9268 52.5809 54.6365 51.66 55.2641 50.6935L53.7744 49.7003L54.5774 48.4958L56.0106 49.4513ZM38.2518 54.8886C29.8705 54.8886 23.0515 48.0699 23.0515 39.6883C23.0515 31.3068 29.8705 24.4881 38.2518 24.4881C46.633 24.4881 53.452 31.3068 53.452 39.6883C53.452 48.0699 46.633 54.8886 38.2518 54.8886Z" fill="#3C3C3C"/>
<path d="M30.6934 28.2112L33.8585 31.3763C34.3384 31.1225 34.8396 30.9108 35.3563 30.744V26.2483C33.6659 26.6122 32.0915 27.2873 30.6934 28.2112Z" fill="#3C3C3C"/>
<path d="M45.9524 41.6793C46.0351 41.3594 46.3236 41.136 46.6536 41.136H51.9275C51.9775 40.66 52.0053 40.1774 52.0053 39.6884C52.0053 39.1994 51.9775 38.7168 51.9275 38.2408H46.6536C46.3236 38.2408 46.0351 38.0174 45.9524 37.6975C45.7574 36.9391 45.452 36.217 45.0449 35.5511C44.871 35.2659 44.9141 34.8983 45.1509 34.6619L48.8637 30.9492C48.3009 30.2671 47.674 29.6401 46.9919 29.0774L43.2791 32.7901C43.1399 32.9297 42.9539 33.0022 42.7674 33.0022C42.6373 33.0022 42.5072 32.9675 42.3899 32.8962C41.7233 32.489 41.0009 32.1833 40.2431 31.9878C39.9236 31.9055 39.7003 31.6171 39.7003 31.287V26.0136C39.2243 25.9636 38.7416 25.9358 38.2526 25.9358C37.7636 25.9358 37.281 25.9636 36.805 26.0136V31.2875C36.805 31.6175 36.5816 31.906 36.2614 31.9883C35.5044 32.1834 34.7826 32.4887 34.1153 32.8962C33.998 32.9676 33.868 33.0023 33.7379 33.0023C33.5512 33.0023 33.3654 32.9298 33.2261 32.7902L29.5134 29.0774C28.8313 29.6402 28.2043 30.2671 27.6416 30.9493L31.3543 34.662C31.5911 34.8984 31.6343 35.266 31.4604 35.5512C31.0532 36.217 30.7478 36.9391 30.5528 37.6976C30.4701 38.0175 30.1816 38.2409 29.8516 38.2409H24.5778C24.5278 38.7169 24.5 39.1995 24.5 39.6885C24.5 40.1775 24.5278 40.6601 24.5778 41.1361H29.8517C30.1817 41.1361 30.4702 41.3595 30.5529 41.6794C30.7479 42.4371 31.0533 43.1595 31.4605 43.8258C31.6343 44.111 31.5912 44.4786 31.3544 44.715L27.6417 48.4276C28.2044 49.1097 28.8313 49.7367 29.5135 50.2995L33.2262 46.5867C33.4623 46.3496 33.8292 46.306 34.1154 46.4807C34.7827 46.8882 35.5044 47.1935 36.2615 47.3886C36.5817 47.4709 36.8051 47.7594 36.8051 48.0894V53.3633C37.2811 53.4133 37.7637 53.4411 38.2527 53.4411C38.7417 53.4411 39.2243 53.4133 39.7003 53.3633V48.0894C39.7003 47.7594 39.9237 47.4709 40.2439 47.3886C41.001 47.1935 41.7227 46.8882 42.39 46.4807C42.6755 46.306 43.0424 46.3496 43.2792 46.5867L46.9919 50.2995C47.674 49.7367 48.301 49.1098 48.8637 48.4276L45.151 44.7149C44.9142 44.4785 44.8711 44.1109 45.045 43.8257C45.4519 43.1594 45.7573 42.437 45.9524 41.6793ZM38.2526 46.2028C34.6604 46.2028 31.7382 43.2803 31.7382 39.6884C31.7382 36.0965 34.6604 33.174 38.2526 33.174C41.8448 33.174 44.767 36.0965 44.767 39.6884C44.767 43.2803 41.8448 46.2028 38.2526 46.2028Z" fill="#3C3C3C"/>
<path d="M26.7753 32.1299C25.8515 33.528 25.1764 35.1024 24.8125 36.7928H29.3079C29.4747 36.2754 29.6868 35.7746 29.9405 35.295L26.7753 32.1299Z" fill="#3C3C3C"/>
<path d="M38.2531 40.412C38.6529 40.412 38.9769 40.0879 38.9769 39.6882C38.9769 39.2884 38.6529 38.9644 38.2531 38.9644C37.8534 38.9644 37.5293 39.2884 37.5293 39.6882C37.5293 40.0879 37.8534 40.412 38.2531 40.412Z" fill="#3C3C3C"/>
<path d="M29.3079 42.5835H24.8125C25.1764 44.2739 25.8515 45.8483 26.7753 47.2464L29.9404 44.0814C29.6867 43.6014 29.4746 43.1006 29.3079 42.5835Z" fill="#3C3C3C"/>
<path d="M38.2503 34.6216C35.4568 34.6216 33.1836 36.8945 33.1836 39.6883C33.1836 42.4822 35.4568 44.7551 38.2503 44.7551C41.0438 44.7551 43.3171 42.4822 43.3171 39.6883C43.3171 36.8945 41.0438 34.6216 38.2503 34.6216ZM38.2503 41.8598C37.053 41.8598 36.0789 40.8857 36.0789 39.6883C36.0789 38.491 37.053 37.5169 38.2503 37.5169C39.4477 37.5169 40.4218 38.491 40.4218 39.6883C40.4218 40.8857 39.4477 41.8598 38.2503 41.8598Z" fill="#3C3C3C"/>
<path d="M33.8585 48L30.6934 51.1651C32.0915 52.0889 33.6659 52.764 35.3563 53.1279V48.6323C34.8396 48.4655 34.3384 48.2538 33.8585 48Z" fill="#3C3C3C"/>
<path d="M47.1951 42.5835C47.0283 43.1006 46.8162 43.6014 46.5625 44.0814L49.7276 47.2464C50.6514 45.8483 51.3265 44.2739 51.6904 42.5835H47.1951Z" fill="#3C3C3C"/>
<path d="M42.6443 48C42.1644 48.2538 41.6632 48.4655 41.1465 48.6323V53.1279C42.8369 52.764 44.4113 52.0889 45.8094 51.1651L42.6443 48Z" fill="#3C3C3C"/>
<path d="M49.7276 32.1299L46.5625 35.295C46.8163 35.7746 47.0283 36.2754 47.1951 36.7928H51.6905C51.3265 35.1025 50.6514 33.528 49.7276 32.1299Z" fill="#3C3C3C"/>
<path d="M41.1465 26.2483V30.7437C41.6632 30.9109 42.1644 31.1226 42.6443 31.3763L45.8094 28.2112C44.4114 27.2873 42.8369 26.6122 41.1465 26.2483Z" fill="#3C3C3C"/>
</g>
<defs>
<clipPath id="clip0">
<rect width="40.5" height="40.5" fill="white" transform="translate(18.002 17.9998)"/>
</clipPath>
</defs>
</svg>
