<svg width="137" height="137" viewBox="0 0 137 137" fill="none" xmlns="http://www.w3.org/2000/svg">
<rect width="137" height="137" rx="6.46552" fill="#FBC22E"/>
<g clip-path="url(#clip0)">
<path d="M97.6365 38.6812V45.3182C97.6365 46.5597 96.6297 47.5658 95.3888 47.5658C94.1473 47.5658 93.1411 46.5597 93.1411 45.3182V38.6812C87.8878 39.7289 83.9164 44.3752 83.9164 49.9323V66.2489H77.932V63.7683C77.932 62.096 76.5711 60.7357 74.8988 60.7357H62.1024C60.4301 60.7357 59.0692 62.096 59.0692 63.7683V66.2489H53.0849V49.9323C53.0849 44.3758 49.114 39.7289 43.8607 38.6812V45.3182C43.8607 46.5597 42.8539 47.5658 41.613 47.5658C40.3716 47.5658 39.3654 46.5597 39.3654 45.3182V38.6812C34.1121 39.7289 30.1406 44.3758 30.1406 49.9323V87.0602C30.1406 92.6173 34.1121 97.2636 39.3654 98.3114V91.6509C39.3654 90.4094 40.3716 89.4033 41.613 89.4033C42.8539 89.4033 43.8607 90.4094 43.8607 91.6509V98.3114C49.114 97.2636 53.0849 92.6173 53.0849 87.0602V70.7442H59.0692V73.2008C59.0692 74.8731 60.4301 76.2334 62.1024 76.2334H74.8988C76.5711 76.2334 77.932 74.8731 77.932 73.2008V70.7442H83.9164V87.0602C83.9164 92.6173 87.8878 97.2636 93.1411 98.3114V91.6509C93.1411 90.4094 94.1473 89.4033 95.3888 89.4033C96.6297 89.4033 97.6365 90.4094 97.6365 91.6509V98.3114C102.889 97.2636 106.861 92.6173 106.861 87.0608V49.9323C106.861 44.3758 102.89 39.7289 97.6365 38.6812V38.6812ZM43.8607 82.384C43.8607 83.6255 42.8539 84.6317 41.613 84.6317C40.3716 84.6317 39.3654 83.6255 39.3654 82.384V73.1177C39.3654 71.8762 40.3716 70.8701 41.613 70.8701C42.8539 70.8701 43.8607 71.8762 43.8607 73.1177V82.384ZM43.8607 63.8514C43.8607 65.0929 42.8539 66.0991 41.613 66.0991C40.3716 66.0991 39.3654 65.0929 39.3654 63.8514V54.5851C39.3654 53.3436 40.3716 52.3374 41.613 52.3374C42.8539 52.3374 43.8607 53.3436 43.8607 54.5851V63.8514ZM97.6365 82.384C97.6365 83.6255 96.6297 84.6317 95.3888 84.6317C94.1473 84.6317 93.1411 83.6255 93.1411 82.384V73.1177C93.1411 71.8762 94.1473 70.8701 95.3888 70.8701C96.6297 70.8701 97.6365 71.8762 97.6365 73.1177V82.384ZM97.6365 63.8514C97.6365 65.0929 96.6297 66.0991 95.3888 66.0991C94.1473 66.0991 93.1411 65.0929 93.1411 63.8514V54.5851C93.1411 53.3436 94.1473 52.3374 95.3888 52.3374C96.6297 52.3374 97.6365 53.3436 97.6365 54.5851V63.8514Z" fill="#3C3C3C"/>
</g>
<defs>
<clipPath id="clip0">
<rect width="76.72" height="76.72" fill="white" transform="translate(30.1406 30.1401)"/>
</clipPath>
</defs>
</svg>
