<svg width="75" height="75" viewBox="0 0 75 75" fill="none" xmlns="http://www.w3.org/2000/svg">
<rect width="75" height="75" rx="9.69828" fill="#FBC22E"/>
<path d="M24.127 29.7388L31.126 36.7379C32.7147 35.467 34.6443 34.641 36.7694 34.4019V24.4961C31.9296 24.7797 27.5352 26.7069 24.127 29.7388Z" fill="#3C3C3C"/>
<path d="M22.3871 31.4788C19.0987 35.1753 17 40.0266 17 45.3517C17 46.0319 17.5503 46.5822 18.2305 46.5822H25.6953C26.3754 46.5822 26.9258 46.0319 26.9258 45.3517C26.9258 42.7421 27.8705 40.3725 29.3861 38.4778L22.3871 31.4788Z" fill="#3C3C3C"/>
<path d="M47.5073 35.7304C47.0927 35.3688 46.4919 35.3219 46.0341 35.6187L35.3552 42.4307C33.9289 43.3415 33.0781 44.8928 33.0781 46.5823C33.0781 49.2968 35.2855 51.5042 38 51.5042C39.9082 51.5042 41.6602 50.3866 42.4628 48.6575L47.8113 37.1748C48.042 36.6797 47.9182 36.0909 47.5073 35.7304Z" fill="#3C3C3C"/>
<path d="M53.6132 31.4788L49.9966 35.0954C50.4521 36.0675 50.5119 37.2055 50.0418 38.214L48.4238 41.6876C48.8404 42.8319 49.0745 44.0618 49.0745 45.3517C49.0745 46.0319 49.6248 46.5822 50.305 46.5822H57.7698C58.4499 46.5822 59.0003 46.0319 59.0003 45.3517C59.0003 40.0266 56.9016 35.1753 53.6132 31.4788Z" fill="#3C3C3C"/>
<path d="M39.2305 24.4961V34.4019C40.2664 34.5184 41.2535 34.7792 42.1797 35.1581L44.7111 33.5432C45.7253 32.886 46.9646 32.745 48.2553 33.3565L51.873 29.7388C48.4647 26.7069 44.0703 24.7797 39.2305 24.4961Z" fill="#3C3C3C"/>
</svg>
