<svg width="137" height="137" viewBox="0 0 137 137" fill="none" xmlns="http://www.w3.org/2000/svg">
<rect width="137" height="137" rx="6.46552" fill="#FBC22E"/>
<path d="M105.117 58.5365H98.1424C97.9134 58.5363 97.6866 58.5813 97.475 58.6689C97.2634 58.7565 97.0711 58.8849 96.9092 59.0469C96.7473 59.2088 96.6188 59.4011 96.5312 59.6127C96.4437 59.8243 96.3987 60.0511 96.3988 60.2801V65.511H89.4243V56.7928C89.4244 56.5638 89.3794 56.337 89.2918 56.1254C89.2042 55.9138 89.0758 55.7215 88.9139 55.5596C88.7519 55.3976 88.5597 55.2692 88.3481 55.1816C88.1364 55.0941 87.9096 55.0491 87.6806 55.0492H82.4497V49.8183C82.4499 49.5893 82.4048 49.3625 82.3173 49.1509C82.2297 48.9392 82.1013 48.747 81.9393 48.585C81.7774 48.4231 81.5851 48.2947 81.3735 48.2071C81.1619 48.1195 80.9351 48.0745 80.7061 48.0746H66.757V44.5874H73.7315C74.194 44.5874 74.6375 44.4037 74.9645 44.0767C75.2915 43.7497 75.4752 43.3062 75.4752 42.8437C75.4752 42.3813 75.2915 41.9378 74.9645 41.6108C74.6375 41.2838 74.194 41.1001 73.7315 41.1001H56.2952C55.8327 41.1001 55.3892 41.2838 55.0622 41.6108C54.7352 41.9378 54.5515 42.3813 54.5515 42.8437C54.5515 43.3062 54.7352 43.7497 55.0622 44.0767C55.3892 44.4037 55.8327 44.5874 56.2952 44.5874H63.2697V48.0746H49.3206C49.0916 48.0745 48.8648 48.1195 48.6532 48.2071C48.4416 48.2947 48.2493 48.4231 48.0874 48.585C47.9254 48.747 47.797 48.9392 47.7094 49.1509C47.6219 49.3625 47.5769 49.5893 47.577 49.8183V55.0492H38.8588C38.6298 55.0491 38.403 55.0941 38.1914 55.1816C37.9798 55.2692 37.7875 55.3976 37.6256 55.5596C37.4636 55.7215 37.3352 55.9138 37.2476 56.1254C37.16 56.337 37.115 56.5638 37.1152 56.7928V70.7419H33.6279V63.7674C33.6279 63.3049 33.4442 62.8614 33.1172 62.5344C32.7902 62.2074 32.3467 62.0237 31.8843 62.0237C31.4218 62.0237 30.9783 62.2074 30.6513 62.5344C30.3243 62.8614 30.1406 63.3049 30.1406 63.7674V81.2037C30.1406 81.6662 30.3243 82.1097 30.6513 82.4367C30.9783 82.7637 31.4218 82.9474 31.8843 82.9474C32.3467 82.9474 32.7902 82.7637 33.1172 82.4367C33.4442 82.1097 33.6279 81.6662 33.6279 81.2037V74.2292H37.1152V88.1783C37.115 88.4073 37.16 88.6341 37.2476 88.8457C37.3352 89.0573 37.4636 89.2496 37.6256 89.4115C37.7875 89.5735 37.9798 89.7019 38.1914 89.7895C38.403 89.8771 38.6298 89.9221 38.8588 89.9219H51.0643V95.1528C51.0641 95.3818 51.1091 95.6086 51.1967 95.8203C51.2843 96.0319 51.4127 96.2241 51.5747 96.3861C51.7366 96.548 51.9289 96.6764 52.1405 96.764C52.3521 96.8516 52.5789 96.8966 52.8079 96.8965H87.6806C87.9096 96.8966 88.1364 96.8516 88.3481 96.764C88.5597 96.6764 88.7519 96.548 88.9139 96.3861C89.0758 96.2241 89.2042 96.0319 89.2918 95.8203C89.3794 95.6086 89.4244 95.3818 89.4243 95.1528V86.4346H96.3988V91.6656C96.3987 91.8946 96.4437 92.1214 96.5312 92.333C96.6188 92.5446 96.7473 92.7369 96.9092 92.8988C97.0711 93.0607 97.2634 93.1892 97.475 93.2767C97.6866 93.3643 97.9134 93.4093 98.1424 93.4092H105.117C105.346 93.4093 105.573 93.3643 105.784 93.2767C105.996 93.1892 106.188 93.0607 106.35 92.8988C106.512 92.7369 106.641 92.5446 106.728 92.333C106.816 92.1214 106.861 91.8946 106.861 91.6656V60.2801C106.861 60.0511 106.816 59.8243 106.728 59.6127C106.641 59.4011 106.512 59.2088 106.35 59.0469C106.188 58.8849 105.996 58.7565 105.784 58.6689C105.573 58.5813 105.346 58.5363 105.117 58.5365ZM103.373 89.9219H99.8861V84.691C99.8862 84.462 99.8412 84.2352 99.7536 84.0236C99.6661 83.812 99.5376 83.6197 99.3757 83.4578C99.2138 83.2958 99.0215 83.1674 98.8099 83.0798C98.5983 82.9922 98.3715 82.9472 98.1424 82.9474H87.6806C87.4516 82.9472 87.2248 82.9922 87.0132 83.0798C86.8016 83.1674 86.6093 83.2958 86.4474 83.4578C86.2854 83.6197 86.157 83.812 86.0694 84.0236C85.9819 84.2352 85.9369 84.462 85.937 84.691V93.4092H54.5515V88.1783C54.5517 87.9493 54.5067 87.7225 54.4191 87.5109C54.3315 87.2992 54.2031 87.107 54.0411 86.945C53.8792 86.7831 53.6869 86.6547 53.4753 86.5671C53.2637 86.4795 53.0369 86.4345 52.8079 86.4346H40.6024V58.5365H49.3206C49.5496 58.5366 49.7764 58.4916 49.988 58.404C50.1997 58.3164 50.3919 58.188 50.5539 58.0261C50.7158 57.8641 50.8442 57.6719 50.9318 57.4602C51.0194 57.2486 51.0644 57.0218 51.0643 56.7928V51.5619H78.9624V56.7928C78.9623 57.0218 79.0073 57.2486 79.0949 57.4602C79.1825 57.6719 79.3109 57.8641 79.4728 58.0261C79.6348 58.188 79.827 58.3164 80.0387 58.404C80.2503 58.4916 80.4771 58.5366 80.7061 58.5365H85.937V67.2546C85.9369 67.4837 85.9819 67.7105 86.0694 67.9221C86.157 68.1337 86.2854 68.3259 86.4474 68.4879C86.6093 68.6498 86.8016 68.7783 87.0132 68.8658C87.2248 68.9534 87.4516 68.9984 87.6806 68.9983H98.1424C98.3715 68.9984 98.5983 68.9534 98.8099 68.8658C99.0215 68.7783 99.2138 68.6498 99.3757 68.4879C99.5376 68.3259 99.6661 68.1337 99.7536 67.9221C99.8412 67.7105 99.8862 67.4837 99.8861 67.2546V62.0237H103.373V89.9219Z" fill="#3C3C3C"/>
<path d="M103.373 89.9219H99.8861V84.691C99.8862 84.462 99.8412 84.2352 99.7536 84.0236C99.6661 83.812 99.5376 83.6197 99.3757 83.4578C99.2138 83.2958 99.0215 83.1674 98.8099 83.0798C98.5983 82.9922 98.3715 82.9472 98.1424 82.9474H87.6806C87.4516 82.9472 87.2248 82.9922 87.0132 83.0798C86.8016 83.1674 86.6093 83.2958 86.4474 83.4578C86.2854 83.6197 86.157 83.812 86.0694 84.0236C85.9819 84.2352 85.9369 84.462 85.937 84.691V93.4092H54.5515V88.1783C54.5517 87.9493 54.5067 87.7225 54.4191 87.5109C54.3315 87.2992 54.2031 87.107 54.0411 86.945C53.8792 86.7831 53.6869 86.6547 53.4753 86.5671C53.2637 86.4795 53.0369 86.4345 52.8079 86.4346H40.6024V58.5365H49.3206C49.5496 58.5366 49.7764 58.4916 49.988 58.404C50.1997 58.3164 50.3919 58.188 50.5539 58.0261C50.7158 57.8641 50.8442 57.6719 50.9318 57.4602C51.0194 57.2486 51.0644 57.0218 51.0643 56.7928V51.5619H78.9624V56.7928C78.9623 57.0218 79.0073 57.2486 79.0949 57.4602C79.1825 57.6719 79.3109 57.8641 79.4728 58.0261C79.6348 58.188 79.827 58.3164 80.0387 58.404C80.2503 58.4916 80.4771 58.5366 80.7061 58.5365H85.937V67.2546C85.9369 67.4837 85.9819 67.7105 86.0694 67.9221C86.157 68.1337 86.2854 68.3259 86.4474 68.4879C86.6093 68.6498 86.8016 68.7783 87.0132 68.8658C87.2248 68.9534 87.4516 68.9984 87.6806 68.9983H98.1424C98.3715 68.9984 98.5983 68.9534 98.8099 68.8658C99.0215 68.7783 99.2138 68.6498 99.3757 68.4879C99.5376 68.3259 99.6661 68.1337 99.7536 67.9221C99.8412 67.7105 99.8862 67.4837 99.8861 67.2546V62.0237H103.373V89.9219Z" fill="#3C3C3C"/>
</svg>
