<svg width="13" height="14" viewBox="0 0 13 14" fill="none" xmlns="http://www.w3.org/2000/svg">
<g clip-path="url(#clip0)">
<path d="M6.53125 3.15039C5.36438 3.15039 4.41504 4.09973 4.41504 5.26651C4.41504 6.43338 5.36438 7.38272 6.53125 7.38272C7.69813 7.38272 8.64737 6.43338 8.64737 5.26651C8.64737 4.09973 7.69803 3.15039 6.53125 3.15039Z" fill="#3C3C3C"/>
<path d="M6.55069 0.604588L6.53108 0.604492C3.96048 0.604492 1.86914 2.69602 1.86914 5.26691C1.86914 6.67637 2.58956 7.77571 3.39225 8.87045L6.52486 13.143C6.52486 13.143 9.48575 9.12309 9.67095 8.87055C10.4736 7.7758 11.1941 6.67647 11.1941 5.267C11.1941 2.70243 9.11296 0.614728 6.55069 0.604588ZM6.53165 8.1176C4.95975 8.1176 3.68096 6.83881 3.68096 5.26691C3.68096 3.6951 4.95975 2.41631 6.53165 2.41631C8.10355 2.41631 9.38234 3.6951 9.38234 5.26691C9.38234 6.83881 8.10345 8.1176 6.53165 8.1176Z" fill="#3C3C3C"/>
</g>
<defs>
<clipPath id="clip0">
<rect width="12.5385" height="12.5385" fill="white" transform="translate(0.25293 0.604492)"/>
</clipPath>
</defs>
</svg>
