<svg width="50" height="50" viewBox="0 0 50 50" fill="none" xmlns="http://www.w3.org/2000/svg">
<rect width="50" height="50" rx="6.46552" fill="#FBC22E"/>
<g clip-path="url(#clip0)">
<path d="M29.3448 26.9309C29.3448 26.8421 29.2893 26.762 29.2062 26.7306L26.4482 25.6965V28.1653L29.2058 27.1313C29.2892 27.0999 29.3448 27.0197 29.3448 26.9309Z" fill="#3C3C3C"/>
<path d="M16.793 24.5171H26.0532L29.545 25.8264C30.0022 25.9978 30.3102 26.4419 30.3102 26.9309C30.3102 27.42 30.0022 27.8641 29.5446 28.0355L26.0532 29.3447H16.793V37.0689H33.2068V36.1034H31.2757V27.4137H33.2068V26.4482H31.2757V17.7586H33.2068V13.8965H30.2214C30.0215 14.457 29.4905 14.862 28.8619 14.862H21.1378C20.5092 14.862 19.9782 14.457 19.7784 13.8965H16.793V24.5171ZM17.7585 31.2758H18.724V32.2413H17.7585V31.2758ZM17.7585 33.2068H19.6895V34.1723H17.7585V33.2068ZM30.3102 36.1034H17.7585V35.1379H30.3102V36.1034ZM20.655 34.1723V33.2068H28.3792V34.1723H20.655ZM30.3102 34.1723H29.3447V33.2068H30.3102V34.1723ZM30.3102 32.2413H19.6895V31.2758H30.3102V32.2413ZM20.1723 17.758H20.278L20.3041 17.6562C20.573 16.5792 21.5356 15.8275 22.6455 15.8275H26.2203C27.14 15.8275 27.9674 16.3388 28.3792 17.1619L28.6901 17.7836C29.6078 17.9328 30.3102 18.7308 30.3102 19.6896V20.1723C30.3102 20.9708 29.6605 21.6206 28.862 21.6206H28.2903C28.0905 22.1811 27.5595 22.5861 26.9309 22.5861C26.3023 22.5861 25.7713 22.1811 25.5714 21.6206H22.4967C22.2969 22.1811 21.7659 22.5861 21.1373 22.5861C20.5087 22.5861 19.9777 22.1811 19.7778 21.6206H19.2068C18.4083 21.6206 17.7585 20.9708 17.7585 20.1723C17.7585 18.8414 18.8413 17.7586 20.1723 17.758Z" fill="#3C3C3C"/>
<path d="M13.8965 25.4827H25.4827V26.4482H13.8965V25.4827Z" fill="#3C3C3C"/>
<path d="M21.138 13.8966H28.8622C29.1287 13.8966 29.345 13.6798 29.345 13.4138V11.4828C29.345 11.2168 29.1287 11 28.8622 11H21.138C20.8716 11 20.6553 11.2168 20.6553 11.4828V13.4138C20.6553 13.6798 20.8716 13.8966 21.138 13.8966ZM27.8967 11.9655C28.1632 11.9655 28.3795 12.1818 28.3795 12.4483C28.3795 12.7148 28.1632 12.9311 27.8967 12.9311C27.6302 12.9311 27.4139 12.7148 27.4139 12.4483C27.4139 12.1818 27.6302 11.9655 27.8967 11.9655ZM22.1036 11.9655C22.3701 11.9655 22.5863 12.1818 22.5863 12.4483C22.5863 12.7148 22.3701 12.9311 22.1036 12.9311C21.8371 12.9311 21.6208 12.7148 21.6208 12.4483C21.6208 12.1818 21.8371 11.9655 22.1036 11.9655Z" fill="#3C3C3C"/>
<path d="M21.1381 21.6206C21.4047 21.6206 21.6208 21.4044 21.6208 21.1378C21.6208 20.8712 21.4047 20.655 21.1381 20.655C20.8714 20.655 20.6553 20.8712 20.6553 21.1378C20.6553 21.4044 20.8714 21.6206 21.1381 21.6206Z" fill="#3C3C3C"/>
<path d="M26.931 21.6206C27.1976 21.6206 27.4138 21.4044 27.4138 21.1378C27.4138 20.8712 27.1976 20.655 26.931 20.655C26.6644 20.655 26.4482 20.8712 26.4482 21.1378C26.4482 21.4044 26.6644 21.6206 26.931 21.6206Z" fill="#3C3C3C"/>
<path d="M19.2068 20.6551H19.7784C19.9783 20.0946 20.5093 19.6896 21.1379 19.6896C21.7664 19.6896 22.2974 20.0946 22.4973 20.6551H25.572C25.7719 20.0946 26.3029 19.6896 26.9315 19.6896C27.56 19.6896 28.091 20.0946 28.2909 20.6551H28.862C29.1285 20.6551 29.3448 20.4383 29.3448 20.1723V19.6895C29.3448 19.1571 28.9117 18.724 28.3793 18.724H28.081L27.5157 17.5934C27.2685 17.0995 26.7727 16.793 26.2204 16.793H22.6456C21.9799 16.793 21.402 17.2443 21.2403 17.8898L21.0322 18.7235H20.1724C19.3739 18.7235 18.7241 19.3738 18.7241 20.1723C18.724 20.4383 18.9403 20.6551 19.2068 20.6551Z" fill="#3C3C3C"/>
<path d="M15.8276 12.9311H19.6896V11.9656H14.8621V24.5173H15.8276V12.9311Z" fill="#3C3C3C"/>
<path d="M32.2415 35.138H39.0001V28.3794H32.2415V35.138ZM33.5483 32.3829L34.1725 33.0071L37.6933 29.4864L38.3759 30.169L34.1725 34.3724L32.8656 33.0656L33.5483 32.3829Z" fill="#3C3C3C"/>
<path d="M34.1724 26.4482H35.1379V27.4137H34.1724V26.4482Z" fill="#3C3C3C"/>
<path d="M34.1724 17.7587H35.1379V11.9656H30.3103V12.9311H34.1724V17.7587Z" fill="#3C3C3C"/>
<path d="M32.2415 18.7241V25.4828H39.0001V18.7241H32.2415ZM34.1725 24.7171L32.8657 23.4102L33.5483 22.7276L34.1725 23.3519L37.6933 19.8311L38.3759 20.5137L34.1725 24.7171Z" fill="#3C3C3C"/>
<path d="M11 26.9309C11 27.7294 11.6498 28.3792 12.4483 28.3792H12.9311V25.4827H12.4483C11.6498 25.4827 11 26.1325 11 26.9309V26.9309Z" fill="#3C3C3C"/>
<path d="M13.8965 27.4138H25.4827V28.3793H13.8965V27.4138Z" fill="#3C3C3C"/>
<path d="M34.1724 38.0346H15.8276V29.345H14.8621V39.0001H35.1379V36.1036H34.1724V38.0346Z" fill="#3C3C3C"/>
</g>
<defs>
<clipPath id="clip0">
<rect width="28" height="28" fill="white" transform="translate(11 11)"/>
</clipPath>
</defs>
</svg>
