<svg width="50" height="50" viewBox="0 0 50 50" fill="none" xmlns="http://www.w3.org/2000/svg">
<rect width="50" height="50" rx="6.46552" fill="#3C3C3C"/>
<g clip-path="url(#clip0)">
<path d="M31.2537 33.2059C31.5878 32.4411 32.1156 31.8003 32.7568 31.3102C32.5424 31.3363 32.331 31.3527 32.1233 31.3527C31.0398 31.3527 30.0495 30.9949 29.2045 30.2861C27.9587 31.3919 26.3576 32.0992 24.5938 32.2146C24.6314 32.5681 24.7188 32.8979 24.8448 33.2059L31.2537 33.2059Z" fill="#FBC22E"/>
<path d="M30.846 24.5143C30.846 20.7867 27.8137 17.7544 24.0861 17.7544C20.3585 17.7544 17.3262 20.7867 17.3262 24.5143C17.3262 28.2419 20.3585 31.2742 24.0861 31.2742C27.8137 31.2742 30.846 28.2419 30.846 24.5143ZM18.7747 24.5143C18.7747 21.581 21.1528 19.203 24.0861 19.203C27.0194 19.203 29.3974 21.581 29.3974 24.5143C29.3974 27.4476 27.0194 29.8256 24.0861 29.8256C21.1528 29.8256 18.7747 27.4476 18.7747 24.5143Z" fill="#FBC22E"/>
<path d="M23.8218 33.2058C23.7242 32.891 23.6581 32.5617 23.6282 32.2169C21.8614 32.1126 20.2555 31.4159 19.0034 30.3179C18.3405 31.1397 18.0962 32.1088 18.2681 33.2058H23.8218Z" fill="#FBC22E"/>
<path d="M36.7812 18.2968L36.0163 19.0616L35.3336 18.3789L36.3558 17.3567C36.1858 17.0216 35.9999 16.6967 35.7995 16.3809L34.5678 17.6127L33.885 16.9299L35.2394 15.575C35.0198 15.2863 34.787 15.0082 34.5412 14.7416L33.1193 16.1641L32.4365 15.4814L33.8585 14.0589C33.5919 13.8136 33.3138 13.5809 33.0251 13.3607L31.6707 14.7156L30.9879 14.0328L32.2197 12.8011C31.9044 12.6007 31.5795 12.4148 31.2444 12.2448L30.2222 13.267L29.5394 12.5843L30.3043 11.8194C29.0377 11.3138 27.662 11.0251 26.2227 11L37.601 22.3779C37.5759 20.939 37.2872 19.5633 36.7812 18.2968Z" fill="#FBC22E"/>
<path d="M16.3863 25.0234C14.4843 25.231 13.5263 26.7211 13.0479 28.0432C13.4254 29.2267 13.9952 30.345 14.7475 31.3681C15.8045 31.5961 16.7378 32.2575 17.2878 33.2059H17.2887C17.1163 31.864 17.4708 30.6482 18.3191 29.6371C17.2115 28.3913 16.5026 26.7892 16.3863 25.0234Z" fill="#FBC22E"/>
<path d="M37.3095 23.4516L25.1494 11.2915C24.8466 11.5204 24.6332 11.8608 24.582 12.2553L36.3457 24.0194C36.7402 23.9683 37.0807 23.7544 37.3095 23.4516Z" fill="#FBC22E"/>
<path d="M24.5477 16.8123C28.4236 17.0431 31.5326 20.1367 31.7866 24.0068C32.6278 23.9165 33.3486 23.5717 33.9372 22.9768L23.8915 12.9307C23.2677 12.9408 22.6559 13.0012 22.0596 13.1069C23.5463 13.961 24.4086 15.2363 24.5477 16.8123Z" fill="#FBC22E"/>
<path d="M33.6863 35.1372L34.9103 32.6887L38.9498 33.1372C38.2536 31.9804 37.0262 31.2744 35.6747 31.2744C34.0441 31.2744 32.5825 32.3097 32.0369 33.8495L31.9234 34.1715H16.6919L16.561 33.8963C16.0825 32.8905 15.0564 32.2401 13.9469 32.2401C12.3491 32.2401 11.0498 33.5394 11.0498 35.1372C11.0498 36.7349 12.3491 38.0343 13.9469 38.0343C15.0565 38.0343 16.0825 37.3843 16.561 36.3781L16.6919 36.1029H31.9229L32.0364 36.425C32.582 37.9652 34.0436 39 35.6741 39C37.0256 39 38.2531 38.2941 38.9493 37.1372L34.9098 37.5857L33.6863 35.1372ZM13.9464 36.5858C13.1463 36.5858 12.4978 35.9373 12.4978 35.1372C12.4978 34.3371 13.1463 33.6886 13.9464 33.6886C14.7465 33.6886 15.3949 34.3371 15.3949 35.1372C15.3949 35.9373 14.7465 36.5858 13.9464 36.5858Z" fill="#FBC22E"/>
<path d="M18.9669 18.7435C20.2103 17.6397 21.8075 16.9328 23.568 16.815C23.4034 15.2651 22.3933 14.1439 20.5512 13.479C18.1166 14.2612 16.0317 15.8276 14.5928 17.8802C16.2456 17.4355 17.7559 17.7281 18.9669 18.7435Z" fill="#FBC22E"/>
<path d="M16.384 24.0535C16.4888 22.2911 17.1831 20.6881 18.2778 19.4375C17.0668 18.4583 15.5608 18.3786 13.7897 19.2086C12.9664 20.7996 12.498 22.6031 12.498 24.5147C12.498 25.2023 12.5623 25.8792 12.6786 26.5426C13.5323 25.0555 14.808 24.1926 16.384 24.0535Z" fill="#FBC22E"/>
<path d="M35.6675 24.7075L34.6197 23.6597C33.8491 24.4414 32.8994 24.8798 31.7883 24.9745C31.6835 26.7373 30.9892 28.3409 29.8945 29.5915C31.1065 30.5716 32.6125 30.6513 34.3841 29.8203C35.1977 28.2429 35.6376 26.4993 35.6675 24.7075Z" fill="#FBC22E"/>
<path d="M24.7076 25.8181L26.1586 27.269L26.8413 26.5863L25.3903 25.1353C25.4806 24.9465 25.5352 24.7375 25.5352 24.5144C25.5352 24.2913 25.4806 24.0823 25.3903 23.8935L26.8422 22.4416L26.1595 21.7588L24.7076 23.2107C24.5188 23.1204 24.3097 23.0659 24.0867 23.0659C23.8636 23.0659 23.6545 23.1204 23.4657 23.2107L22.0128 21.7583L21.3301 22.441L22.783 23.8939C22.6927 24.0827 22.6381 24.2918 22.6381 24.5149C22.6381 24.7379 22.6927 24.947 22.783 25.1358L21.3311 26.5877L22.0138 27.2705L23.4657 25.8185C23.6545 25.9088 23.8636 25.9634 24.0867 25.9634C24.3097 25.9629 24.5188 25.9084 24.7076 25.8181Z" fill="#FBC22E"/>
</g>
<defs>
<clipPath id="clip0">
<rect width="28" height="28" fill="white" transform="translate(11 11)"/>
</clipPath>
</defs>
</svg>
