<svg width="18" height="18" viewBox="0 0 18 18" fill="none" xmlns="http://www.w3.org/2000/svg">
<path d="M11.9373 11.1703L13.177 9.93066L18 14.7537L16.7603 15.9934L11.9373 11.1703Z" fill="#3C3C3C"/>
<path d="M2.00657 1.23968L3.24625 0L8.06915 4.82304L6.82947 6.06272L2.00657 1.23968Z" fill="#3C3C3C"/>
<path d="M11.1761 11.901C10.2226 11.2637 9.29741 10.4987 8.42097 9.6223C7.54343 8.74476 6.77877 7.81971 6.14197 6.86705L1.26029 1.98523L0.7692 2.47632L0.75478 2.49143C-0.181812 3.50493 -0.248967 5.21647 0.565676 7.31049C1.33006 9.27541 2.79716 11.4036 4.69657 13.303C6.61878 15.2252 8.7691 16.7007 10.7516 17.4578C11.699 17.8197 12.5652 17.9997 13.3223 17.9997C14.2598 17.9997 15.0303 17.7234 15.5794 17.1742L16.0144 16.7393L11.1761 11.901Z" fill="#3C3C3C"/>
</svg>
