<svg width="19" height="19" viewBox="0 0 19 19" fill="none" xmlns="http://www.w3.org/2000/svg">
<path d="M12.2617 11.7755L13.535 10.5022L18.489 15.4561L17.2157 16.7295L12.2617 11.7755Z" fill="#FFBA05"/>
<path d="M2.06055 1.57533L3.33387 0.302002L8.28766 5.25593L7.01434 6.52926L2.06055 1.57533Z" fill="#FFBA05"/>
<path d="M11.4794 12.5261C10.5 11.8714 9.54974 11.0858 8.64951 10.1855C7.74815 9.28417 6.96274 8.33401 6.30866 7.35549L1.2945 2.34119L0.790075 2.84561L0.775264 2.86112C-0.186747 3.90213 -0.255724 5.66012 0.581028 7.81097C1.36615 9.82922 2.87307 12.0152 4.82403 13.9661C6.79841 15.9405 9.00709 17.456 11.0434 18.2337C12.0165 18.6054 12.9062 18.7903 13.6838 18.7903C14.6468 18.7903 15.4382 18.5065 16.0023 17.9424L16.449 17.4957L11.4794 12.5261Z" fill="#FFBA05"/>
</svg>
