<svg width="12" height="13" viewBox="0 0 12 13" fill="none" xmlns="http://www.w3.org/2000/svg">
<path d="M7.95801 8.05206L8.78448 7.22559L11.9999 10.441L11.1734 11.2675L7.95801 8.05206Z" fill="#3C3C3C"/>
<path d="M1.33789 1.43096L2.16436 0.604492L5.3797 3.81992L4.55323 4.6464L1.33789 1.43096Z" fill="#3C3C3C"/>
<path d="M7.45089 8.5389C6.81522 8.11399 6.19841 7.60403 5.6141 7.01972C5.02906 6.43468 4.51928 5.81796 4.09474 5.18284L0.840214 1.92822L0.512811 2.25563L0.503198 2.2657C-0.121211 2.94138 -0.165982 4.08243 0.377126 5.47847C0.886724 6.78845 1.86481 8.20729 3.13112 9.47359C4.41262 10.7551 5.8462 11.7388 7.16789 12.2435C7.79954 12.4848 8.37698 12.6048 8.88172 12.6048C9.50677 12.6048 10.0204 12.4206 10.3865 12.0545L10.6765 11.7645L7.45089 8.5389Z" fill="#3C3C3C"/>
</svg>
