<svg width="50" height="50" viewBox="0 0 50 50" fill="none" xmlns="http://www.w3.org/2000/svg">
<rect width="50" height="50" rx="4.31034" fill="#FBC22E"/>
<path d="M21.4437 18.4141L14.5298 31.8186C13.6439 33.5334 13.06 34.9986 15.214 36.1133L19.1308 38.1302C21.2848 39.2449 22.1379 37.915 23.0238 36.2002L29.9377 22.7957C30.8237 21.0809 31.4075 19.6157 29.2536 18.501L25.3367 16.4842C23.1828 15.3695 22.3297 16.6993 21.4437 18.4141Z" fill="#3C3C3C"/>
<path d="M38.5994 9.92448L36.7823 13.4439C36.08 14.8093 35.2087 15.6322 34.207 15.8996C33.2824 16.1415 32.5771 15.8192 32.3368 15.6743L31.0098 14.9913C30.8431 14.9075 30.75 14.9169 30.673 14.9425C30.3358 15.0541 29.9594 15.5635 29.8466 15.8039L29.8401 15.8167L27.8201 19.7239L25.913 18.7413L27.9233 14.8372C28.02 14.6449 28.7255 13.3212 29.997 12.9003C30.652 12.6835 31.3354 12.7459 31.9893 13.0745L33.422 13.8187C33.7266 13.9316 34.2985 13.5606 34.8624 12.4548L36.6794 8.9354L38.5994 9.92448Z" fill="#3C3C3C"/>
<path d="M14.7939 35.484L12.668 39.605L14.8141 40.7121L16.94 36.5912L14.7939 35.484Z" fill="#3C3C3C"/>
<path d="M11.8909 39.0844L11.6211 39.6074L15.4174 41.5659L15.6872 41.0429L11.8909 39.0844Z" fill="#3C3C3C"/>
<path d="M36.1792 8.15696L35.7559 8.97754L39.1194 10.7127L39.5427 9.8921L36.1792 8.15696Z" fill="#3C3C3C"/>
<path d="M15.269 31.337L15.1016 31.6616L22.8746 35.6715L23.042 35.3469L15.269 31.337Z" fill="#FBC22E"/>
<path d="M21.3511 19.5348L21.1836 19.8594L28.9566 23.8693L29.1241 23.5447L21.3511 19.5348Z" fill="#FBC22E"/>
</svg>
