<svg width="14" height="14" viewBox="0 0 14 14" fill="none" xmlns="http://www.w3.org/2000/svg">
<rect width="14" height="14" rx="1.16667" fill="#FFC225"/>
<path d="M7.18254 9.95505C6.97248 10.2402 6.64537 10.4154 6.29169 10.4328C5.93801 10.4504 5.59546 10.3078 5.35848 10.0446L3.23478 7.68791C2.89726 7.31358 2.92724 6.73656 3.30157 6.39904C3.67625 6.06152 4.25292 6.09168 4.59044 6.46619L6.09295 8.13369C6.11521 8.15847 6.14753 8.17175 6.18074 8.17014C6.21414 8.16852 6.24466 8.15182 6.26459 8.12525L9.35292 3.93656C9.65184 3.53082 10.2231 3.44446 10.629 3.74356C11.0346 4.04267 11.1208 4.61394 10.8217 5.01951L7.18254 9.95505Z" fill="#3C3C3C"/>
</svg>
