<svg xmlns="http://www.w3.org/2000/svg" version="1.1" xmlns:xlink="http://www.w3.org/1999/xlink" xmlns:svgjs="http://svgjs.com/svgjs" width="1000" height="1000"><g transform="matrix(11.11111111111111,0,0,11.11111111111111,22.2939639621311,-1.8806050883399053)"><svg xmlns="http://www.w3.org/2000/svg" version="1.1" xmlns:xlink="http://www.w3.org/1999/xlink" xmlns:svgjs="http://svgjs.com/svgjs" width="86" height="90"><svg width="86" height="90" viewBox="0 0 86 90" fill="none" xmlns="http://www.w3.org/2000/svg">
<path d="M58.7159 69.5997C55.128 71.219 51.1684 72.0286 46.8371 72.0286C41.7563 72.0286 37.1387 70.8718 32.9843 68.5582C28.9332 66.3498 25.5902 63.0394 23.3425 59.01C21.0705 54.9552 19.9337 50.3116 19.9322 45.0792C19.9322 40.6809 20.84 36.702 22.6087 33.1222L11.845 21.7831C11.3052 22.5682 10.7878 23.3711 10.3038 24.2008C6.76793 30.2793 5 37.2283 5 45.048C5 57.1335 8.88305 67.0423 16.6492 74.7742C24.4153 82.5061 34.3946 86.372 46.5873 86.372C53.198 86.372 59.081 85.2792 64.2361 83.0934C69.3912 80.9077 74.8652 76.9867 80.6582 71.3305L70.5368 60.7698C66.2427 65.0372 62.3024 67.9805 58.7159 69.5997Z" fill="#FBC22E"></path>
<path d="M27.6312 26.1279C30.7572 22.941 34.6672 20.6333 38.9681 19.4368V61.8003H54.11V19.4123C60.0323 20.9632 65.5093 24.3934 70.541 29.7032L80.9858 19.7558C76.755 14.8286 71.5123 10.8709 65.6144 8.15211C59.7165 5.43333 53.3021 4.01734 46.8078 4.00054C39.3462 3.96299 32.0041 5.87424 25.5079 9.54521C21.1518 11.9455 17.27 15.1199 14.0527 18.9127L24.4819 29.9039C25.4168 28.5537 26.4707 27.29 27.6312 26.1279V26.1279Z" fill="#010101" stroke="#1E1E1C" stroke-width="0.289903" stroke-miterlimit="10"></path>
</svg></svg></g></svg>