<svg width="36" height="36" viewBox="0 0 36 36" fill="none" xmlns="http://www.w3.org/2000/svg">
<rect width="36" height="36" rx="5" fill="#3C3C3C"/>
<path d="M19.7578 18C19.7578 18.9708 18.9708 19.7578 18 19.7578C17.0292 19.7578 16.2422 18.9708 16.2422 18C16.2422 17.0292 17.0292 16.2422 18 16.2422C18.9708 16.2422 19.7578 17.0292 19.7578 18Z" fill="#FFC93D"/>
<path d="M20.9687 12.6875H15.0312C13.7388 12.6875 12.6875 13.7388 12.6875 15.0312V20.9687C12.6875 22.2612 13.7388 23.3125 15.0312 23.3125H20.9687C22.2612 23.3125 23.3125 22.2612 23.3125 20.9687V15.0312C23.3125 13.7388 22.2612 12.6875 20.9687 12.6875ZM18 20.9297C16.3846 20.9297 15.0703 19.6154 15.0703 18C15.0703 16.3846 16.3846 15.0703 18 15.0703C19.6154 15.0703 20.9297 16.3846 20.9297 18C20.9297 19.6154 19.6154 20.9297 18 20.9297ZM21.3594 15.2266C21.0357 15.2266 20.7734 14.9643 20.7734 14.6406C20.7734 14.317 21.0357 14.0547 21.3594 14.0547C21.683 14.0547 21.9453 14.317 21.9453 14.6406C21.9453 14.9643 21.683 15.2266 21.3594 15.2266Z" fill="#FFC93D"/>
<path d="M22.7266 8H13.2734C10.3657 8 8 10.3657 8 13.2734V22.7266C8 25.6343 10.3657 28 13.2734 28H22.7266C25.6343 28 28 25.6343 28 22.7266V13.2734C28 10.3657 25.6343 8 22.7266 8ZM24.4844 20.9688C24.4844 22.9072 22.9072 24.4844 20.9688 24.4844H15.0312C13.0928 24.4844 11.5156 22.9072 11.5156 20.9688V15.0312C11.5156 13.0928 13.0928 11.5156 15.0312 11.5156H20.9688C22.9072 11.5156 24.4844 13.0928 24.4844 15.0312V20.9688Z" fill="#FFC93D"/>
</svg>
