<svg width="185" height="84" viewBox="0 0 185 84" fill="none" xmlns="http://www.w3.org/2000/svg">
<path d="M53.7159 66.5999C50.128 68.2191 46.1684 69.0287 41.8371 69.0287C36.7563 69.0287 32.1387 67.8719 27.9843 65.5583C23.9332 63.35 20.5902 60.0395 18.3425 56.0101C16.0705 51.9553 14.9337 47.3117 14.9322 42.0793C14.9322 37.681 15.84 33.7021 17.6087 30.1224L6.84497 18.7832C6.30522 19.5683 5.78778 20.3712 5.30379 21.2009C1.76793 27.2794 0 34.2284 0 42.0481C0 54.1337 3.88305 64.0424 11.6492 71.7743C19.4153 79.5062 29.3946 83.3722 41.5873 83.3722C48.198 83.3722 54.081 82.2793 59.2361 80.0935C64.3912 77.9078 69.8652 73.9868 75.6582 68.3306L65.5368 57.7699C61.2427 62.0373 57.3024 64.9806 53.7159 66.5999Z" fill="white"/>
<path d="M22.6316 23.1279C25.7577 19.941 29.6677 17.6333 33.9685 16.4368V58.8003H49.1105V16.4123C55.0328 17.9632 60.5098 21.3934 65.5415 26.7032L75.9863 16.7558C71.7555 11.8286 66.5128 7.87088 60.6149 5.15211C54.717 2.43333 48.3026 1.01734 41.8083 1.00054C34.3467 0.962993 27.0046 2.87424 20.5083 6.54521C16.1523 8.94546 12.2705 12.1199 9.05322 15.9127L19.4824 26.9039C20.4173 25.5537 21.4712 24.29 22.6316 23.1279Z" fill="#010101" stroke="#1E1E1C" stroke-width="0.289903" stroke-miterlimit="10"/>
<path d="M75.7896 29.2456H86.9146V31.922H82.8866V41.042H79.8131V31.922H75.7985L75.7896 29.2456Z" fill="#010101" stroke="#1E1E1C" stroke-width="0.289903" stroke-miterlimit="10"/>
<path d="M98.1893 37.721L100.574 41.0665H96.9515L94.7813 38.0243H91.9577V41.0665H88.8843V29.2456H96.2445C99.813 29.2456 100.745 32.0269 100.745 33.4967C100.743 35.1025 100.074 36.9894 98.1893 37.721ZM96.2445 31.922H91.9555V35.3077H96.4786C97.8369 35.3077 97.8525 33.8112 97.8525 33.7465C97.8436 33.209 97.6964 31.922 96.2445 31.922Z" fill="#010101" stroke="#1E1E1C" stroke-width="0.289903" stroke-miterlimit="10"/>
<path d="M112.25 34.797V29.2456H115.323V34.8037C115.323 38.8384 113.028 41.2449 109.187 41.2449C105.347 41.2449 103.049 38.8362 103.049 34.8037V29.2456H106.123V34.8037C106.123 37.402 107.015 38.4637 109.187 38.4637C111.36 38.4637 112.252 37.402 112.252 34.8037L112.25 34.797Z" fill="#010101" stroke="#1E1E1C" stroke-width="0.289903" stroke-miterlimit="10"/>
<path d="M129.454 37.3418C129.454 39.6725 127.204 41.2383 123.85 41.2383C120.39 41.2383 117.188 39.512 117.188 39.512L118.466 36.9493C118.466 36.9493 121.472 38.399 123.64 38.399C125.473 38.399 126.539 38.176 126.539 37.4043C126.539 36.8266 126.274 36.3627 123.122 36.3627C118.952 36.3627 118.075 34.9397 118.075 33.3182C118.075 30.6552 120.239 29.0649 123.859 29.0649C127.108 29.0649 128.924 30.2983 128.924 30.2983L127.858 32.8878C127.858 32.8878 125.792 31.893 123.667 31.893C121.844 31.893 121.024 32.3971 121.024 32.8989C121.024 33.3629 121.298 33.7286 124.369 33.7286C127.44 33.7286 129.454 34.913 129.454 37.3418Z" fill="#010101" stroke="#1E1E1C" stroke-width="0.289903" stroke-miterlimit="10"/>
<path d="M130.904 29.2456H142.025V31.922H138.01V41.042H134.928V31.922H130.913L130.904 29.2456Z" fill="#010101" stroke="#1E1E1C" stroke-width="0.289903" stroke-miterlimit="10"/>
<path d="M156.379 38.5752C155.072 40.2926 152.985 41.2383 150.498 41.2383C146.358 41.2383 143.361 38.8785 143.361 35.1449C143.361 31.4113 146.365 29.0649 150.498 29.0649C152.98 29.0649 155.068 30.0084 156.375 31.7235L153.959 33.2848C153.355 32.3257 152.191 31.8395 150.498 31.8395C147.806 31.8395 146.499 32.6737 146.499 35.136C146.499 37.5983 147.808 38.4458 150.498 38.4458C152.193 38.4458 153.36 37.9596 153.964 36.9961L156.379 38.5752Z" fill="#010101" stroke="#1E1E1C" stroke-width="0.289903" stroke-miterlimit="10"/>
<path d="M165.892 29.2456L170.21 41.0665H167.087L166.394 39.1685H161.409L160.713 41.0665H157.59L161.911 29.2456H165.892ZM163.898 32.3213L162.381 36.4697H165.423L163.898 32.3213Z" fill="#010101" stroke="#1E1E1C" stroke-width="0.289903" stroke-miterlimit="10"/>
<path d="M181.446 37.721L183.83 41.0665H180.208L178.038 38.0243H175.215V41.0665H172.141V29.2456H179.501C183.07 29.2456 184 32.0269 184 33.4967C184.002 35.1025 183.32 36.9894 181.446 37.721ZM179.501 31.922H175.215V35.3077H179.735C181.096 35.3077 181.112 33.8112 181.112 33.7465C181.112 33.209 180.953 31.922 179.501 31.922Z" fill="#010101" stroke="#1E1E1C" stroke-width="0.289903" stroke-miterlimit="10"/>
<path d="M83.8681 52.0736V53.8735H82.9403V52.0736C82.9403 51.4491 82.9403 50.47 82.0972 50.47C81.5184 50.4826 80.9638 50.7044 80.536 51.0944C80.5895 51.418 80.6149 51.7456 80.6118 52.0736V53.8735H79.684V52.0736C79.684 51.4491 79.684 50.47 78.8409 50.47C78.2342 50.47 77.6677 50.916 77.3443 51.4045V53.8735H76.4165V49.7317H77.3243V50.5502C77.5313 50.2903 77.7905 50.0767 78.0851 49.923C78.3798 49.7694 78.7033 49.6791 79.0349 49.6581C79.3153 49.6397 79.5941 49.7116 79.8306 49.8634C80.067 50.0151 80.2486 50.2387 80.3486 50.5012C80.8676 49.9798 81.5671 49.678 82.3024 49.6581C83.2994 49.6536 83.8681 50.2759 83.8681 52.0736Z" fill="#010101" stroke="#1E1E1C" stroke-width="0.289903" stroke-miterlimit="10"/>
<path d="M89.9947 49.7317V53.8735H89.0669V53.055C88.8594 53.3144 88.6001 53.5278 88.3056 53.6814C88.011 53.835 87.6877 53.9255 87.3562 53.9471C86.3681 53.9471 85.7949 53.3271 85.7949 51.5272V49.7295H86.7228V51.5272C86.7228 52.1539 86.7227 53.1308 87.5658 53.1308C88.1725 53.1308 88.739 52.6847 89.0624 52.1963V49.7295L89.9947 49.7317Z" fill="#010101" stroke="#1E1E1C" stroke-width="0.289903" stroke-miterlimit="10"/>
<path d="M92.0601 53.873V48.248H92.9879V53.873H92.0601Z" fill="#010101" stroke="#1E1E1C" stroke-width="0.289903" stroke-miterlimit="10"/>
<path d="M96.2624 50.4516V52.2806C96.2624 52.6776 96.2624 53.2128 96.5836 53.2106C96.8042 53.1914 97.0188 53.1285 97.2148 53.0255L97.2951 53.5429C97.2951 53.5429 96.7487 53.9489 96.3204 53.9489C95.3346 53.9489 95.3346 53.1549 95.3346 52.2806V50.4516H94.6499V49.7312H95.3346V48.5402L96.2624 48.248V49.7312H97.4312V50.4516H96.2624Z" fill="#010101" stroke="#1E1E1C" stroke-width="0.289903" stroke-miterlimit="10"/>
<path d="M99.146 49.1759V48.248H100.074V49.1759H99.146ZM99.146 53.873V49.7312H100.074V53.873H99.146Z" fill="#010101" stroke="#1E1E1C" stroke-width="0.289903" stroke-miterlimit="10"/>
<path d="M109.888 51.5493V53.8688H108.96V53.4361C108.459 53.7591 107.877 53.9353 107.28 53.9447C106.114 53.9447 105.692 53.3268 105.692 52.7068C105.692 52.0868 106.156 51.4667 107.28 51.4667C107.877 51.4776 108.459 51.6553 108.96 51.9797V51.5493C108.96 50.7642 108.842 50.4051 107.876 50.4051C107.272 50.4147 106.682 50.5799 106.161 50.8846L105.737 50.2601C106.364 49.8812 107.077 49.6693 107.809 49.6445C109.422 49.6512 109.888 50.4073 109.888 51.5493ZM108.96 52.6265C108.548 52.2954 108.04 52.1061 107.512 52.0868C106.868 52.0868 106.62 52.3745 106.62 52.7068C106.62 53.0391 107.008 53.3269 107.512 53.3269C108.04 53.3094 108.547 53.1225 108.96 52.7938V52.6265Z" fill="#010101" stroke="#1E1E1C" stroke-width="0.289903" stroke-miterlimit="10"/>
<path d="M116.005 49.7317V53.8735H115.078V53.055C114.87 53.3144 114.611 53.5278 114.316 53.6814C114.022 53.835 113.698 53.9255 113.367 53.9471C112.379 53.9471 111.806 53.3271 111.806 51.5272V49.7295H112.734V51.5272C112.734 52.1539 112.733 53.1308 113.577 53.1308C114.183 53.1308 114.75 52.6847 115.073 52.1963V49.7295L116.005 49.7317Z" fill="#010101" stroke="#1E1E1C" stroke-width="0.289903" stroke-miterlimit="10"/>
<path d="M119.291 50.4516V52.2806C119.291 52.6776 119.291 53.2128 119.612 53.2106C119.833 53.1914 120.047 53.1285 120.243 53.0255L120.323 53.5429C120.323 53.5429 119.775 53.9489 119.349 53.9489C118.363 53.9489 118.363 53.1549 118.363 52.2806V50.4516H117.678V49.7312H118.363V48.5402L119.291 48.248V49.7312H120.459V50.4516H119.291Z" fill="#010101" stroke="#1E1E1C" stroke-width="0.289903" stroke-miterlimit="10"/>
<path d="M126.321 51.8012C126.321 52.6933 125.761 53.949 124.091 53.949C122.42 53.949 121.86 52.7 121.86 51.8012C121.86 50.9023 122.422 49.6533 124.091 49.6533C125.759 49.6533 126.321 50.9046 126.321 51.8012ZM125.453 51.8012C125.453 51.1945 125.085 50.376 124.095 50.376C123.105 50.376 122.737 51.1923 122.737 51.8012C122.737 52.41 123.107 53.2286 124.095 53.2286C125.083 53.2286 125.453 52.41 125.453 51.8012Z" fill="#010101" stroke="#1E1E1C" stroke-width="0.289903" stroke-miterlimit="10"/>
<path d="M135.695 52.7003C135.695 53.4408 134.968 53.9516 133.842 53.9516C133.083 53.9245 132.339 53.7407 131.656 53.4118L131.999 52.7226C131.999 52.7226 133.05 53.1977 133.768 53.1977C134.486 53.1977 134.919 53.0304 134.919 52.6869C134.919 52.3435 134.613 52.1561 133.54 52.1561C132.468 52.1561 131.923 51.8015 131.923 51.0409C131.923 50.1131 132.715 49.6626 133.842 49.6626C134.439 49.6651 135.028 49.7967 135.57 50.0484L135.282 50.7443C134.807 50.5262 134.295 50.3984 133.772 50.3674C133.065 50.3674 132.706 50.6573 132.706 50.9227C132.706 51.1881 132.824 51.4157 134.062 51.4157C135.151 51.4067 135.695 51.9576 135.695 52.7003Z" fill="#010101" stroke="#1E1E1C" stroke-width="0.289903" stroke-miterlimit="10"/>
<path d="M138.189 52.0175C138.232 52.3574 138.4 52.6691 138.66 52.8924C138.92 53.1157 139.254 53.2346 139.596 53.2264C139.846 53.215 140.091 53.1471 140.311 53.0277C140.531 52.9084 140.721 52.7407 140.867 52.5372L141.594 52.9632C141.352 53.2785 141.039 53.5322 140.68 53.7035C140.321 53.8748 139.927 53.9589 139.529 53.949C137.863 53.949 137.299 52.7 137.299 51.8012C137.299 50.9023 137.859 49.6533 139.529 49.6533C141.2 49.6533 141.76 50.9046 141.76 51.8012C141.76 51.8725 141.76 51.9439 141.76 52.0242L138.189 52.0175ZM140.805 51.2971C140.719 51.0261 140.549 50.7894 140.32 50.6214C140.09 50.4535 139.813 50.3629 139.529 50.3629C139.245 50.3629 138.968 50.4535 138.739 50.6214C138.509 50.7894 138.339 51.0261 138.253 51.2971H140.805Z" fill="#010101" stroke="#1E1E1C" stroke-width="0.289903" stroke-miterlimit="10"/>
<path d="M147.282 50.2358L146.811 51.0053C146.687 50.8519 146.53 50.7286 146.351 50.6447C146.173 50.5609 145.978 50.5187 145.78 50.5213C145.334 50.5213 144.85 50.8313 144.523 51.1904V53.8668H143.595V49.725H144.523V50.4544C144.864 50.0462 145.361 49.647 145.91 49.647C146.427 49.6542 146.92 49.8659 147.282 50.2358Z" fill="#010101" stroke="#1E1E1C" stroke-width="0.289903" stroke-miterlimit="10"/>
<path d="M153.257 49.7314L151.742 53.8732H150.208L148.696 49.7314H149.653L150.853 53.0168H151.102L152.305 49.7314H153.257Z" fill="#010101" stroke="#1E1E1C" stroke-width="0.289903" stroke-miterlimit="10"/>
<path d="M154.907 49.1759V48.248H155.833V49.1759H154.907ZM154.907 53.873V49.7312H155.833V53.873H154.907Z" fill="#010101" stroke="#1E1E1C" stroke-width="0.289903" stroke-miterlimit="10"/>
<path d="M161.855 52.9342C161.536 53.4918 160.936 53.949 159.928 53.949C158.264 53.949 157.697 52.7 157.697 51.8012C157.697 50.9023 158.259 49.6533 159.928 49.6533C160.936 49.6533 161.536 50.0994 161.855 50.6704L161.125 51.0986C161.019 50.8733 160.849 50.6844 160.636 50.5558C160.423 50.4272 160.176 50.3646 159.928 50.376C158.94 50.376 158.625 51.1923 158.625 51.8012C158.625 52.41 158.94 53.2286 159.928 53.2286C160.176 53.2408 160.423 53.1786 160.637 53.0499C160.85 52.9212 161.02 52.7318 161.125 52.506L161.855 52.9342Z" fill="#010101" stroke="#1E1E1C" stroke-width="0.289903" stroke-miterlimit="10"/>
<path d="M164.224 52.0175C164.267 52.357 164.435 52.6684 164.694 52.8916C164.954 53.1148 165.287 53.2341 165.629 53.2264C165.879 53.2149 166.124 53.1469 166.344 53.0276C166.565 52.9082 166.756 52.7406 166.902 52.5372L167.627 52.9632C167.385 53.2788 167.072 53.5327 166.713 53.704C166.354 53.8754 165.96 53.9593 165.562 53.949C163.898 53.949 163.332 52.7 163.332 51.8012C163.332 50.9023 163.894 49.6533 165.562 49.6533C167.23 49.6533 167.792 50.9046 167.792 51.8012C167.792 51.8725 167.792 51.9439 167.781 52.0242L164.224 52.0175ZM166.84 51.2971C166.755 51.0252 166.585 50.7876 166.355 50.619C166.125 50.4503 165.848 50.3594 165.563 50.3594C165.278 50.3594 165.001 50.4503 164.771 50.619C164.541 50.7876 164.371 51.0252 164.286 51.2971H166.84Z" fill="#010101" stroke="#1E1E1C" stroke-width="0.289903" stroke-miterlimit="10"/>
</svg>
