<svg width="185" height="84" viewBox="0 0 185 84" fill="none" xmlns="http://www.w3.org/2000/svg">
<path d="M53.7159 66.5997C50.128 68.219 46.1684 69.0286 41.8371 69.0286C36.7563 69.0286 32.1387 67.8718 27.9843 65.5582C23.9332 63.3498 20.5902 60.0394 18.3425 56.01C16.0705 51.9552 14.9337 47.3116 14.9322 42.0792C14.9322 37.6809 15.84 33.702 17.6087 30.1222L6.84497 18.7831C6.30522 19.5682 5.78778 20.3711 5.30379 21.2008C1.76793 27.2793 0 34.2283 0 42.048C0 54.1335 3.88305 64.0423 11.6492 71.7742C19.4153 79.5061 29.3946 83.372 41.5873 83.372C48.198 83.372 54.081 82.2792 59.2361 80.0934C64.3912 77.9076 69.8652 73.9867 75.6582 68.3305L65.5368 57.7698C61.2427 62.0372 57.3024 64.9805 53.7159 66.5997Z" fill="#FBC22E"/>
<path d="M22.6312 23.1279C25.7572 19.941 29.6672 17.6333 33.9681 16.4368V58.8003H49.11V16.4123C55.0323 17.9632 60.5093 21.3934 65.541 26.7032L75.9858 16.7558C71.755 11.8286 66.5123 7.87088 60.6144 5.15211C54.7165 2.43333 48.3021 1.01734 41.8078 1.00054C34.3462 0.962993 27.0041 2.87424 20.5079 6.54521C16.1518 8.94546 12.27 12.1199 9.05273 15.9127L19.4819 26.9039C20.4168 25.5537 21.4707 24.29 22.6312 23.1279Z" fill="#010101" stroke="#1E1E1C" stroke-width="0.289903" stroke-miterlimit="10"/>
<path d="M75.7896 29.2457H86.9146V31.9222H82.8866V41.0421H79.8131V31.9222H75.7985L75.7896 29.2457Z" fill="#010101" stroke="#1E1E1C" stroke-width="0.289903" stroke-miterlimit="10"/>
<path d="M98.1893 37.7211L100.574 41.0666H96.9515L94.7813 38.0244H91.9577V41.0666H88.8843V29.2457H96.2445C99.813 29.2457 100.745 32.027 100.745 33.4968C100.743 35.1027 100.074 36.9895 98.1893 37.7211ZM96.2445 31.9222H91.9555V35.3079H96.4786C97.8369 35.3079 97.8525 33.8113 97.8525 33.7466C97.8436 33.2091 97.6964 31.9222 96.2445 31.9222Z" fill="#010101" stroke="#1E1E1C" stroke-width="0.289903" stroke-miterlimit="10"/>
<path d="M112.25 34.7971V29.2457H115.323V34.8038C115.323 38.8385 113.028 41.2451 109.187 41.2451C105.347 41.2451 103.049 38.8363 103.049 34.8038V29.2457H106.123V34.8038C106.123 37.4022 107.015 38.4638 109.187 38.4638C111.36 38.4638 112.252 37.4022 112.252 34.8038L112.25 34.7971Z" fill="#010101" stroke="#1E1E1C" stroke-width="0.289903" stroke-miterlimit="10"/>
<path d="M129.454 37.3421C129.454 39.6728 127.204 41.2385 123.85 41.2385C120.39 41.2385 117.188 39.5122 117.188 39.5122L118.466 36.9495C118.466 36.9495 121.472 38.3993 123.64 38.3993C125.473 38.3993 126.539 38.1762 126.539 37.4045C126.539 36.8268 126.274 36.3629 123.122 36.3629C118.952 36.3629 118.075 34.94 118.075 33.3185C118.075 30.6554 120.239 29.0652 123.859 29.0652C127.108 29.0652 128.924 30.2986 128.924 30.2986L127.858 32.888C127.858 32.888 125.792 31.8933 123.667 31.8933C121.844 31.8933 121.024 32.3974 121.024 32.8992C121.024 33.3631 121.298 33.7289 124.369 33.7289C127.44 33.7289 129.454 34.9132 129.454 37.3421Z" fill="#010101" stroke="#1E1E1C" stroke-width="0.289903" stroke-miterlimit="10"/>
<path d="M130.904 29.2457H142.025V31.9222H138.01V41.0421H134.928V31.9222H130.913L130.904 29.2457Z" fill="#010101" stroke="#1E1E1C" stroke-width="0.289903" stroke-miterlimit="10"/>
<path d="M156.379 38.5754C155.072 40.2928 152.985 41.2385 150.498 41.2385C146.358 41.2385 143.361 38.8788 143.361 35.1451C143.361 31.4115 146.365 29.0652 150.498 29.0652C152.98 29.0652 155.068 30.0086 156.375 31.7238L153.959 33.285C153.355 32.326 152.191 31.8398 150.498 31.8398C147.806 31.8398 146.499 32.6739 146.499 35.1362C146.499 37.5986 147.808 38.4461 150.498 38.4461C152.193 38.4461 153.36 37.9599 153.964 36.9964L156.379 38.5754Z" fill="#010101" stroke="#1E1E1C" stroke-width="0.289903" stroke-miterlimit="10"/>
<path d="M165.892 29.2457L170.21 41.0666H167.087L166.394 39.1686H161.409L160.713 41.0666H157.59L161.911 29.2457H165.892ZM163.898 32.3214L162.381 36.4699H165.423L163.898 32.3214Z" fill="#010101" stroke="#1E1E1C" stroke-width="0.289903" stroke-miterlimit="10"/>
<path d="M181.446 37.7211L183.83 41.0666H180.208L178.038 38.0244H175.215V41.0666H172.141V29.2457H179.501C183.07 29.2457 184 32.027 184 33.4968C184.002 35.1027 183.32 36.9895 181.446 37.7211ZM179.501 31.9222H175.215V35.3079H179.735C181.096 35.3079 181.112 33.8113 181.112 33.7466C181.112 33.2091 180.953 31.9222 179.501 31.9222Z" fill="#010101" stroke="#1E1E1C" stroke-width="0.289903" stroke-miterlimit="10"/>
<path d="M83.8681 52.0734V53.8734H82.9403V52.0734C82.9403 51.4489 82.9403 50.4698 82.0972 50.4698C81.5184 50.4825 80.9638 50.7043 80.536 51.0943C80.5895 51.4179 80.6149 51.7455 80.6118 52.0734V53.8734H79.684V52.0734C79.684 51.4489 79.684 50.4698 78.8409 50.4698C78.2342 50.4698 77.6677 50.9159 77.3443 51.4043V53.8734H76.4165V49.7316H77.3243V50.5501C77.5313 50.2902 77.7905 50.0766 78.0851 49.9229C78.3798 49.7693 78.7033 49.679 79.0349 49.658C79.3153 49.6396 79.5941 49.7115 79.8306 49.8632C80.067 50.015 80.2486 50.2385 80.3486 50.5011C80.8676 49.9797 81.5671 49.6779 82.3024 49.658C83.2994 49.6535 83.8681 50.2758 83.8681 52.0734Z" fill="#010101" stroke="#1E1E1C" stroke-width="0.289903" stroke-miterlimit="10"/>
<path d="M89.9947 49.7317V53.8735H89.0669V53.055C88.8594 53.3144 88.6001 53.5278 88.3056 53.6814C88.011 53.835 87.6877 53.9255 87.3562 53.9471C86.3681 53.9471 85.7949 53.3271 85.7949 51.5272V49.7295H86.7228V51.5272C86.7228 52.1539 86.7227 53.1308 87.5658 53.1308C88.1725 53.1308 88.739 52.6847 89.0624 52.1963V49.7295L89.9947 49.7317Z" fill="#010101" stroke="#1E1E1C" stroke-width="0.289903" stroke-miterlimit="10"/>
<path d="M92.0601 53.8733V48.2483H92.9879V53.8733H92.0601Z" fill="#010101" stroke="#1E1E1C" stroke-width="0.289903" stroke-miterlimit="10"/>
<path d="M96.2624 50.4519V52.2808C96.2624 52.6778 96.2624 53.2131 96.5836 53.2108C96.8042 53.1916 97.0188 53.1287 97.2148 53.0257L97.2951 53.5432C97.2951 53.5432 96.7487 53.9491 96.3204 53.9491C95.3346 53.9491 95.3346 53.1551 95.3346 52.2808V50.4519H94.6499V49.7315H95.3346V48.5405L96.2624 48.2483V49.7315H97.4312V50.4519H96.2624Z" fill="#010101" stroke="#1E1E1C" stroke-width="0.289903" stroke-miterlimit="10"/>
<path d="M99.146 49.1761V48.2483H100.074V49.1761H99.146ZM99.146 53.8733V49.7315H100.074V53.8733H99.146Z" fill="#010101" stroke="#1E1E1C" stroke-width="0.289903" stroke-miterlimit="10"/>
<path d="M109.888 51.5495V53.8691H108.96V53.4364C108.459 53.7594 107.877 53.9355 107.28 53.9449C106.114 53.9449 105.692 53.3271 105.692 52.7071C105.692 52.087 106.156 51.467 107.28 51.467C107.877 51.4778 108.459 51.6555 108.96 51.98V51.5495C108.96 50.7644 108.842 50.4053 107.876 50.4053C107.272 50.415 106.682 50.5802 106.161 50.8849L105.737 50.2604C106.364 49.8815 107.077 49.6695 107.809 49.6448C109.422 49.6515 109.888 50.4076 109.888 51.5495ZM108.96 52.6268C108.548 52.2957 108.04 52.1064 107.512 52.087C106.868 52.087 106.62 52.3747 106.62 52.7071C106.62 53.0394 107.008 53.3271 107.512 53.3271C108.04 53.3097 108.547 53.1227 108.96 52.794V52.6268Z" fill="#010101" stroke="#1E1E1C" stroke-width="0.289903" stroke-miterlimit="10"/>
<path d="M116.005 49.7317V53.8735H115.078V53.055C114.87 53.3144 114.611 53.5278 114.316 53.6814C114.022 53.835 113.698 53.9255 113.367 53.9471C112.379 53.9471 111.806 53.3271 111.806 51.5272V49.7295H112.734V51.5272C112.734 52.1539 112.733 53.1308 113.577 53.1308C114.183 53.1308 114.75 52.6847 115.073 52.1963V49.7295L116.005 49.7317Z" fill="#010101" stroke="#1E1E1C" stroke-width="0.289903" stroke-miterlimit="10"/>
<path d="M119.291 50.4519V52.2808C119.291 52.6778 119.291 53.2131 119.612 53.2108C119.833 53.1916 120.047 53.1287 120.243 53.0257L120.323 53.5432C120.323 53.5432 119.775 53.9491 119.349 53.9491C118.363 53.9491 118.363 53.1551 118.363 52.2808V50.4519H117.678V49.7315H118.363V48.5405L119.291 48.2483V49.7315H120.459V50.4519H119.291Z" fill="#010101" stroke="#1E1E1C" stroke-width="0.289903" stroke-miterlimit="10"/>
<path d="M126.321 51.8013C126.321 52.6934 125.761 53.9491 124.091 53.9491C122.42 53.9491 121.86 52.7001 121.86 51.8013C121.86 50.9024 122.422 49.6534 124.091 49.6534C125.759 49.6534 126.321 50.9047 126.321 51.8013ZM125.453 51.8013C125.453 51.1946 125.085 50.3761 124.095 50.3761C123.105 50.3761 122.737 51.1924 122.737 51.8013C122.737 52.4102 123.107 53.2287 124.095 53.2287C125.083 53.2287 125.453 52.4102 125.453 51.8013Z" fill="#010101" stroke="#1E1E1C" stroke-width="0.289903" stroke-miterlimit="10"/>
<path d="M135.695 52.7002C135.695 53.4407 134.968 53.9514 133.842 53.9514C133.083 53.9244 132.339 53.7406 131.656 53.4117L131.999 52.7225C131.999 52.7225 133.05 53.1976 133.768 53.1976C134.486 53.1976 134.919 53.0303 134.919 52.6868C134.919 52.3434 134.613 52.156 133.54 52.156C132.468 52.156 131.923 51.8014 131.923 51.0408C131.923 50.113 132.715 49.6625 133.842 49.6625C134.439 49.665 135.028 49.7966 135.57 50.0483L135.282 50.7442C134.807 50.5261 134.295 50.3982 133.772 50.3672C133.065 50.3672 132.706 50.6572 132.706 50.9226C132.706 51.188 132.824 51.4155 134.062 51.4155C135.151 51.4066 135.695 51.9575 135.695 52.7002Z" fill="#010101" stroke="#1E1E1C" stroke-width="0.289903" stroke-miterlimit="10"/>
<path d="M138.189 52.0176C138.232 52.3575 138.4 52.6692 138.66 52.8925C138.92 53.1158 139.254 53.2348 139.596 53.2265C139.846 53.2151 140.091 53.1472 140.311 53.0279C140.531 52.9085 140.721 52.7408 140.867 52.5373L141.594 52.9633C141.352 53.2787 141.039 53.5323 140.68 53.7036C140.321 53.875 139.927 53.9591 139.529 53.9491C137.863 53.9491 137.299 52.7001 137.299 51.8013C137.299 50.9024 137.859 49.6534 139.529 49.6534C141.2 49.6534 141.76 50.9047 141.76 51.8013C141.76 51.8726 141.76 51.944 141.76 52.0243L138.189 52.0176ZM140.805 51.2972C140.719 51.0262 140.549 50.7895 140.32 50.6215C140.09 50.4536 139.813 50.363 139.529 50.363C139.245 50.363 138.968 50.4536 138.739 50.6215C138.509 50.7895 138.339 51.0262 138.253 51.2972H140.805Z" fill="#010101" stroke="#1E1E1C" stroke-width="0.289903" stroke-miterlimit="10"/>
<path d="M147.282 50.2358L146.811 51.0053C146.687 50.8519 146.53 50.7286 146.351 50.6447C146.173 50.5609 145.978 50.5187 145.78 50.5213C145.334 50.5213 144.85 50.8313 144.523 51.1904V53.8668H143.595V49.725H144.523V50.4544C144.864 50.0462 145.361 49.647 145.91 49.647C146.427 49.6542 146.92 49.8659 147.282 50.2358Z" fill="#010101" stroke="#1E1E1C" stroke-width="0.289903" stroke-miterlimit="10"/>
<path d="M153.257 49.7316L151.742 53.8734H150.208L148.696 49.7316H149.653L150.853 53.0169H151.102L152.305 49.7316H153.257Z" fill="#010101" stroke="#1E1E1C" stroke-width="0.289903" stroke-miterlimit="10"/>
<path d="M154.907 49.1761V48.2483H155.833V49.1761H154.907ZM154.907 53.8733V49.7315H155.833V53.8733H154.907Z" fill="#010101" stroke="#1E1E1C" stroke-width="0.289903" stroke-miterlimit="10"/>
<path d="M161.855 52.9343C161.536 53.4919 160.936 53.9491 159.928 53.9491C158.264 53.9491 157.697 52.7001 157.697 51.8013C157.697 50.9024 158.259 49.6534 159.928 49.6534C160.936 49.6534 161.536 50.0995 161.855 50.6705L161.125 51.0987C161.019 50.8734 160.849 50.6846 160.636 50.556C160.423 50.4273 160.176 50.3648 159.928 50.3761C158.94 50.3761 158.625 51.1924 158.625 51.8013C158.625 52.4102 158.94 53.2287 159.928 53.2287C160.176 53.2409 160.423 53.1787 160.637 53.05C160.85 52.9213 161.02 52.7319 161.125 52.5061L161.855 52.9343Z" fill="#010101" stroke="#1E1E1C" stroke-width="0.289903" stroke-miterlimit="10"/>
<path d="M164.224 52.0176C164.267 52.3571 164.435 52.6685 164.694 52.8917C164.954 53.115 165.287 53.2342 165.629 53.2265C165.879 53.215 166.124 53.147 166.344 53.0277C166.565 52.9084 166.756 52.7407 166.902 52.5373L167.627 52.9633C167.385 53.2789 167.072 53.5328 166.713 53.7041C166.354 53.8755 165.96 53.9594 165.562 53.9491C163.898 53.9491 163.332 52.7001 163.332 51.8013C163.332 50.9024 163.894 49.6534 165.562 49.6534C167.23 49.6534 167.792 50.9047 167.792 51.8013C167.792 51.8726 167.792 51.944 167.781 52.0243L164.224 52.0176ZM166.84 51.2972C166.755 51.0253 166.585 50.7878 166.355 50.6191C166.125 50.4504 165.848 50.3595 165.563 50.3595C165.278 50.3595 165.001 50.4504 164.771 50.6191C164.541 50.7878 164.371 51.0253 164.286 51.2972H166.84Z" fill="#010101" stroke="#1E1E1C" stroke-width="0.289903" stroke-miterlimit="10"/>
</svg>
