<svg width="75" height="75" viewBox="0 0 75 75" fill="none" xmlns="http://www.w3.org/2000/svg">
<rect width="75" height="75" rx="6.46552" fill="#FBC22E"/>
<g clip-path="url(#clip0)">
<path d="M25.623 36.95C24.9442 36.95 24.3926 37.5015 24.3926 38.1804C24.3926 38.8593 24.9442 39.4109 25.623 39.4109C26.3019 39.4109 26.8535 38.8593 26.8535 38.1804C26.8535 37.5014 26.3019 36.95 25.623 36.95Z" fill="#3C3C3C"/>
<path d="M58.0736 43.5337L48.4065 20.7141C46.8794 17.1647 42.4683 15.8882 39.2801 18.0801L20.754 31.0752C18.4096 32.6842 17.0098 35.3398 17.0098 38.1805C17.0098 41.2722 18.6812 44.143 21.3717 45.6726L42.432 57.5543C46.7313 59.9967 52.1889 59.309 55.7389 55.7591C58.9676 52.5315 59.8832 47.7322 58.0736 43.5337ZM41.8893 22.2836C42.3698 21.8029 43.1489 21.8029 43.6294 22.2836C44.11 22.7641 44.11 23.5431 43.6294 24.0237C43.1489 24.5042 42.3698 24.5042 41.8893 24.0237C41.4088 23.5431 41.4088 22.764 41.8893 22.2836ZM21.9316 38.1805C21.9316 36.1449 23.5875 34.489 25.623 34.489C27.6586 34.489 29.3144 36.1449 29.3144 38.1805C29.3144 40.216 27.6586 41.8719 25.623 41.8719C23.5875 41.8719 21.9316 40.216 21.9316 38.1805ZM37.6677 52.0149L27.7807 46.4863C31.4824 45.5217 34.2363 42.1797 34.2363 38.1804C34.2363 33.9314 31.1357 30.4132 27.083 29.7148L36.6441 22.8727C36.5721 24.5543 37.1599 26.2541 38.409 27.5032C40.7607 29.8549 44.7041 29.922 47.1099 27.5032C47.5043 27.1088 47.8252 26.6667 48.0928 26.2008L53.0978 38.2042C48.9101 35.9748 43.6019 36.5731 40.0768 40.0982C36.8308 43.3537 36.1068 48.0461 37.6677 52.0149ZM52.2589 52.2779C49.8604 54.6764 45.9565 54.6764 43.558 52.2779C41.1596 49.8795 41.1596 45.9766 43.558 43.5781C45.9553 41.1808 49.8593 41.1784 52.2589 43.5781C54.6598 45.9765 54.6684 49.8685 52.2589 52.2779Z" fill="#3C3C3C"/>
<path d="M50.5185 45.318C49.079 43.8784 46.7371 43.8784 45.2975 45.318C43.8553 46.7602 43.8553 49.0956 45.2975 50.5379C46.737 51.9786 49.079 51.9762 50.5185 50.5379C51.9578 49.0986 51.9636 46.7632 50.5185 45.318ZM48.7783 48.7979C48.2977 49.2784 47.5187 49.2784 47.0382 48.7979C46.5575 48.3173 46.5575 47.5383 47.0382 47.0577C47.5187 46.5772 48.2977 46.5772 48.7783 47.0577C49.2588 47.5383 49.2588 48.3174 48.7783 48.7979Z" fill="#3C3C3C"/>
</g>
<defs>
<clipPath id="clip0">
<rect width="42" height="42" fill="white" transform="translate(17 17)"/>
</clipPath>
</defs>
</svg>
