<svg width="75" height="75" viewBox="0 0 75 75" fill="none" xmlns="http://www.w3.org/2000/svg">
<rect width="75" height="75" rx="6.46552" fill="#FBC22E"/>
<path fill-rule="evenodd" clip-rule="evenodd" d="M56.5455 30.9091H60.9091C61.0524 30.909 61.1943 30.9372 61.3267 30.992C61.4591 31.0468 61.5794 31.1271 61.6807 31.2284C61.782 31.3297 61.8623 31.45 61.9171 31.5824C61.9719 31.7148 62.0001 31.8567 62 32V51.6364C62.0001 51.7796 61.9719 51.9215 61.9171 52.0539C61.8623 52.1863 61.782 52.3066 61.6807 52.4079C61.5794 52.5093 61.4591 52.5896 61.3267 52.6444C61.1943 52.6992 61.0524 52.7274 60.9091 52.7273H56.5455C56.4022 52.7274 56.2603 52.6992 56.1279 52.6444C55.9955 52.5896 55.8752 52.5093 55.7739 52.4079C55.6726 52.3066 55.5922 52.1863 55.5374 52.0539C55.4826 51.9215 55.4545 51.7796 55.4545 51.6364V48.3636H51.0909V53.8182C51.091 53.9615 51.0628 54.1034 51.008 54.2358C50.9533 54.3682 50.8729 54.4884 50.7716 54.5898C50.6703 54.6911 50.55 54.7714 50.4176 54.8262C50.2852 54.881 50.1433 54.9092 50 54.9091H28.1818C28.0385 54.9092 27.8966 54.881 27.7642 54.8262C27.6318 54.7714 27.5116 54.6911 27.4102 54.5898C27.3089 54.4884 27.2286 54.3682 27.1738 54.2358C27.119 54.1034 27.0908 53.9615 27.0909 53.8182V50.5455H19.4545C19.3113 50.5455 19.1694 50.5174 19.037 50.4626C18.9046 50.4078 18.7843 50.3274 18.683 50.2261C18.5816 50.1248 18.5013 50.0045 18.4465 49.8721C18.3917 49.7397 18.3636 49.5978 18.3636 49.4545V40.7273H16.1818V45.0909C16.1818 45.3802 16.0669 45.6577 15.8623 45.8623C15.6577 46.0669 15.3802 46.1818 15.0909 46.1818C14.8016 46.1818 14.5241 46.0669 14.3195 45.8623C14.1149 45.6577 14 45.3802 14 45.0909V34.1818C14 33.8925 14.1149 33.615 14.3195 33.4104C14.5241 33.2058 14.8016 33.0909 15.0909 33.0909C15.3802 33.0909 15.6577 33.2058 15.8623 33.4104C16.0669 33.615 16.1818 33.8925 16.1818 34.1818V38.5455H18.3636V29.8182C18.3636 29.6749 18.3917 29.533 18.4465 29.4006C18.5013 29.2682 18.5816 29.1479 18.683 29.0466C18.7843 28.9453 18.9046 28.8649 19.037 28.8101C19.1694 28.7553 19.3113 28.7272 19.4545 28.7273H24.9091V25.4545C24.909 25.3113 24.9372 25.1694 24.992 25.037C25.0467 24.9046 25.1271 24.7843 25.2284 24.683C25.3297 24.5816 25.45 24.5013 25.5824 24.4465C25.7148 24.3917 25.8567 24.3636 26 24.3636H34.7273V22.1818H30.3636C30.0743 22.1818 29.7968 22.0669 29.5922 21.8623C29.3877 21.6577 29.2727 21.3802 29.2727 21.0909C29.2727 20.8016 29.3877 20.5241 29.5922 20.3195C29.7968 20.1149 30.0743 20 30.3636 20H41.2727C41.5621 20 41.8395 20.1149 42.0441 20.3195C42.2487 20.5241 42.3636 20.8016 42.3636 21.0909C42.3636 21.3802 42.2487 21.6577 42.0441 21.8623C41.8395 22.0669 41.5621 22.1818 41.2727 22.1818H36.9091V24.3636H45.6364C45.7796 24.3636 45.9215 24.3917 46.0539 24.4465C46.1863 24.5013 46.3066 24.5816 46.4079 24.683C46.5093 24.7843 46.5896 24.9046 46.6444 25.037C46.6992 25.1694 46.7274 25.3113 46.7273 25.4545V28.7273H50C50.1433 28.7272 50.2852 28.7553 50.4176 28.8101C50.55 28.8649 50.6703 28.9453 50.7716 29.0466C50.8729 29.1479 50.9533 29.2682 51.008 29.4006C51.0628 29.533 51.091 29.6749 51.0909 29.8182V35.2727H55.4545V32C55.4545 31.8567 55.4826 31.7148 55.5374 31.5824C55.5922 31.45 55.6726 31.3297 55.7739 31.2284C55.8752 31.1271 55.9955 31.0468 56.1279 30.992C56.2603 30.9372 56.4022 30.909 56.5455 30.9091ZM28.5125 38.6562C28.825 38.3833 29.0042 38.0042 29.05 37.5187H28.2625C28.2208 37.8438 28.1219 38.076 27.9656 38.2156C27.8094 38.3552 27.576 38.425 27.2656 38.425C26.926 38.425 26.6677 38.2958 26.4906 38.0375C26.3156 37.7792 26.2281 37.4042 26.2281 36.9125V36.5094C26.2323 36.024 26.326 35.6562 26.5094 35.4062C26.6948 35.1542 26.9594 35.0281 27.3031 35.0281C27.599 35.0281 27.8229 35.101 27.975 35.2469C28.1292 35.3906 28.225 35.626 28.2625 35.9531H29.05C29 35.4552 28.8219 35.0698 28.5156 34.7969C28.2094 34.524 27.8052 34.3875 27.3031 34.3875C26.9302 34.3875 26.601 34.476 26.3156 34.6531C26.0323 34.8302 25.8146 35.0823 25.6625 35.4094C25.5104 35.7365 25.4344 36.1146 25.4344 36.5438V36.9688C25.4406 37.3875 25.5187 37.7552 25.6687 38.0719C25.8187 38.3885 26.0312 38.6333 26.3062 38.8062C26.5833 38.9771 26.9031 39.0625 27.2656 39.0625C27.7844 39.0625 28.2 38.9271 28.5125 38.6562ZM32.5844 39H33.3719V34.45H32.5844V36.3438H30.55V34.45H29.7594V39H30.55V36.9781H32.5844V39ZM35.1 36.9688H36.9688V36.3438H35.1V35.0875H37.2625V34.45H34.3094V39H37.2844V38.3687H35.1V36.9688ZM40.8625 38.6562C41.175 38.3833 41.3542 38.0042 41.4 37.5187H40.6125C40.5708 37.8438 40.4719 38.076 40.3156 38.2156C40.1594 38.3552 39.926 38.425 39.6156 38.425C39.276 38.425 39.0177 38.2958 38.8406 38.0375C38.6656 37.7792 38.5781 37.4042 38.5781 36.9125V36.5094C38.5823 36.024 38.676 35.6562 38.8594 35.4062C39.0448 35.1542 39.3094 35.0281 39.6531 35.0281C39.949 35.0281 40.1729 35.101 40.325 35.2469C40.4792 35.3906 40.575 35.626 40.6125 35.9531H41.4C41.35 35.4552 41.1719 35.0698 40.8656 34.7969C40.5594 34.524 40.1552 34.3875 39.6531 34.3875C39.2802 34.3875 38.951 34.476 38.6656 34.6531C38.3823 34.8302 38.1646 35.0823 38.0125 35.4094C37.8604 35.7365 37.7844 36.1146 37.7844 36.5438V36.9688C37.7906 37.3875 37.8687 37.7552 38.0187 38.0719C38.1688 38.3885 38.3813 38.6333 38.6562 38.8062C38.9333 38.9771 39.2531 39.0625 39.6156 39.0625C40.1344 39.0625 40.55 38.9271 40.8625 38.6562ZM42.9 37.5812L43.4156 37.0344L44.7844 39H45.7219L43.9344 36.4656L45.625 34.45H44.6687L43.3375 36.0438L42.9 36.5844V34.45H42.1094V39H42.9V37.5812ZM25.4094 42.9688H27.2781V42.3438H25.4094V41.0875H27.5719V40.45H24.6187V45H27.5937V44.3687H25.4094V42.9688ZM31.0562 45H31.8469V40.45H31.0625V43.6906L29.0281 40.45H28.2375V45H29.0281V41.7719L31.0562 45ZM35.5844 44.8969C35.876 44.7865 36.1042 44.624 36.2687 44.4094V42.6656H34.5437V43.2656H35.4812V44.1562C35.3104 44.3396 35.0229 44.4312 34.6187 44.4312C34.25 44.4312 33.9615 44.2958 33.7531 44.025C33.5469 43.7521 33.4438 43.3698 33.4438 42.8781V42.5281C33.45 42.0344 33.5448 41.6604 33.7281 41.4062C33.9135 41.15 34.1833 41.0219 34.5375 41.0219C35.0854 41.0219 35.4031 41.2958 35.4906 41.8438H36.2656C36.2052 41.3729 36.026 41.0125 35.7281 40.7625C35.4302 40.5125 35.0281 40.3875 34.5219 40.3875C33.9323 40.3875 33.4729 40.5812 33.1437 40.9688C32.8146 41.3542 32.65 41.8906 32.65 42.5781V42.9344C32.6562 43.3635 32.7385 43.7396 32.8969 44.0625C33.0573 44.3833 33.2844 44.6302 33.5781 44.8031C33.8719 44.976 34.2094 45.0625 34.5906 45.0625C34.9615 45.0625 35.2927 45.0073 35.5844 44.8969ZM37.1844 45H37.9719V40.45H37.1844V45ZM41.7625 45H42.5531V40.45H41.7687V43.6906L39.7344 40.45H38.9438V45H39.7344V41.7719L41.7625 45ZM44.2781 42.9688H46.1469V42.3438H44.2781V41.0875H46.4406V40.45H43.4875V45H46.4625V44.3687H44.2781V42.9688Z" fill="#3C3C3C"/>
</svg>
