<svg width="75" height="75" viewBox="0 0 75 75" fill="none" xmlns="http://www.w3.org/2000/svg">
<rect width="75" height="75" rx="6.46552" fill="#FBC22E"/>
<path fill-rule="evenodd" clip-rule="evenodd" d="M55.5455 30.9091H59.9091C60.0524 30.909 60.1943 30.9372 60.3267 30.992C60.4591 31.0468 60.5794 31.1271 60.6807 31.2284C60.782 31.3297 60.8623 31.45 60.9171 31.5824C60.9719 31.7148 61.0001 31.8567 61 32V51.6364C61.0001 51.7796 60.9719 51.9215 60.9171 52.0539C60.8623 52.1863 60.782 52.3066 60.6807 52.4079C60.5794 52.5093 60.4591 52.5896 60.3267 52.6444C60.1943 52.6992 60.0524 52.7274 59.9091 52.7273H55.5455C55.4022 52.7274 55.2603 52.6992 55.1279 52.6444C54.9955 52.5896 54.8752 52.5093 54.7739 52.4079C54.6726 52.3066 54.5922 52.1863 54.5374 52.0539C54.4826 51.9215 54.4545 51.7796 54.4545 51.6364V48.3636H50.0909V53.8182C50.091 53.9615 50.0628 54.1034 50.008 54.2358C49.9533 54.3682 49.8729 54.4884 49.7716 54.5898C49.6703 54.6911 49.55 54.7714 49.4176 54.8262C49.2852 54.881 49.1433 54.9092 49 54.9091H27.1818C27.0385 54.9092 26.8966 54.881 26.7642 54.8262C26.6318 54.7714 26.5116 54.6911 26.4102 54.5898C26.3089 54.4884 26.2286 54.3682 26.1738 54.2358C26.119 54.1034 26.0908 53.9615 26.0909 53.8182V50.5455H18.4545C18.3113 50.5455 18.1694 50.5174 18.037 50.4626C17.9046 50.4078 17.7843 50.3274 17.683 50.2261C17.5816 50.1248 17.5013 50.0045 17.4465 49.8721C17.3917 49.7397 17.3636 49.5978 17.3636 49.4545V40.7273H15.1818V45.0909C15.1818 45.3802 15.0669 45.6577 14.8623 45.8623C14.6577 46.0669 14.3802 46.1818 14.0909 46.1818C13.8016 46.1818 13.5241 46.0669 13.3195 45.8623C13.1149 45.6577 13 45.3802 13 45.0909V34.1818C13 33.8925 13.1149 33.615 13.3195 33.4104C13.5241 33.2058 13.8016 33.0909 14.0909 33.0909C14.3802 33.0909 14.6577 33.2058 14.8623 33.4104C15.0669 33.615 15.1818 33.8925 15.1818 34.1818V38.5455H17.3636V29.8182C17.3636 29.6749 17.3917 29.533 17.4465 29.4006C17.5013 29.2682 17.5816 29.1479 17.683 29.0466C17.7843 28.9453 17.9046 28.8649 18.037 28.8101C18.1694 28.7553 18.3113 28.7272 18.4545 28.7273H23.9091V25.4545C23.909 25.3113 23.9372 25.1694 23.992 25.037C24.0467 24.9046 24.1271 24.7843 24.2284 24.683C24.3297 24.5816 24.45 24.5013 24.5824 24.4465C24.7148 24.3917 24.8567 24.3636 25 24.3636H33.7273V22.1818H29.3636C29.0743 22.1818 28.7968 22.0669 28.5922 21.8623C28.3877 21.6577 28.2727 21.3802 28.2727 21.0909C28.2727 20.8016 28.3877 20.5241 28.5922 20.3195C28.7968 20.1149 29.0743 20 29.3636 20H40.2727C40.5621 20 40.8395 20.1149 41.0441 20.3195C41.2487 20.5241 41.3636 20.8016 41.3636 21.0909C41.3636 21.3802 41.2487 21.6577 41.0441 21.8623C40.8395 22.0669 40.5621 22.1818 40.2727 22.1818H35.9091V24.3636H44.6364C44.7796 24.3636 44.9215 24.3917 45.0539 24.4465C45.1863 24.5013 45.3066 24.5816 45.4079 24.683C45.5093 24.7843 45.5896 24.9046 45.6444 25.037C45.6992 25.1694 45.7274 25.3113 45.7273 25.4545V28.7273H49C49.1433 28.7272 49.2852 28.7553 49.4176 28.8101C49.55 28.8649 49.6703 28.9453 49.7716 29.0466C49.8729 29.1479 49.9533 29.2682 50.008 29.4006C50.0628 29.533 50.091 29.6749 50.0909 29.8182V35.2727H54.4545V32C54.4545 31.8567 54.4826 31.7148 54.5374 31.5824C54.5922 31.45 54.6726 31.3297 54.7739 31.2284C54.8752 31.1271 54.9955 31.0468 55.1279 30.992C55.2603 30.9372 55.4022 30.909 55.5455 30.9091ZM37.9263 38.4271C38.096 38.4835 38.224 38.6235 38.2653 38.7978C38.3061 38.9717 38.2542 39.1545 38.1278 39.281L32.9689 44.4399C32.7893 44.6194 32.5077 44.6409 32.3024 44.4938C32.0973 44.3456 32.0298 44.0706 32.1427 43.8444L33.9402 40.2493L31.4091 39.4054C31.2394 39.349 31.1114 39.2089 31.0701 39.0346C31.0293 38.8608 31.0812 38.678 31.2076 38.5515L36.3665 33.3926C36.5449 33.2133 36.827 33.1911 37.033 33.3387C37.2381 33.4869 37.3056 33.7619 37.1928 33.9881L35.3952 37.5832L37.9263 38.4271Z" fill="#3C3C3C"/>
</svg>
