<svg width="75" height="75" viewBox="0 0 75 75" fill="none" xmlns="http://www.w3.org/2000/svg">
<rect width="75" height="75" rx="6.46552" fill="#FBC22E"/>
<path d="M32.166 27.6214L21.7953 47.7282C20.4663 50.3004 19.5905 52.4982 22.8215 54.1702L28.6967 57.1955C31.9277 58.8675 33.2073 56.8728 34.5362 54.3005L44.907 34.1938C46.236 31.6216 47.1117 29.4238 43.8808 27.7518L38.0055 24.7265C34.7746 23.0544 33.495 25.0492 32.166 27.6214Z" fill="#3C3C3C"/>
<path d="M57.8991 14.8867L55.1735 20.1658C54.12 22.214 52.813 23.4482 51.3105 23.8494C49.9236 24.2123 48.8657 23.7288 48.5052 23.5115L46.5147 22.4869C46.2647 22.3613 46.1251 22.3754 46.0095 22.4137C45.5038 22.5811 44.939 23.3452 44.7698 23.7058L44.7602 23.725L41.7301 29.5859L38.8694 28.1119L41.885 22.2559C42.03 21.9674 43.0882 19.9818 44.9955 19.3504C45.978 19.0252 47.003 19.1188 47.9839 19.6118L50.133 20.7281C50.5899 20.8975 51.4478 20.3409 52.2935 18.6822L55.0191 13.4031L57.8991 14.8867Z" fill="#3C3C3C"/>
<path d="M22.1903 53.2268L19.0015 59.4082L22.2207 61.0689L25.4095 54.8875L22.1903 53.2268Z" fill="#3C3C3C"/>
<path d="M17.8378 58.6264L17.4331 59.4109L23.1276 62.3485L23.5323 61.564L17.8378 58.6264Z" fill="#3C3C3C"/>
<path d="M54.2697 12.2347L53.6348 13.4656L58.68 16.0683L59.315 14.8374L54.2697 12.2347Z" fill="#3C3C3C"/>
<path d="M22.9031 47.006L22.6519 47.4929L34.3114 53.5078L34.5626 53.0209L22.9031 47.006Z" fill="#FBC22E"/>
<path d="M32.0276 29.3019L31.7764 29.7888L43.4359 35.8037L43.6871 35.3168L32.0276 29.3019Z" fill="#FBC22E"/>
</svg>
