<svg width="75" height="75" viewBox="0 0 75 75" fill="none" xmlns="http://www.w3.org/2000/svg">
<rect width="75" height="75" rx="6.46552" fill="#FBC22E"/>
<g clip-path="url(#clip0)">
<path d="M52.7656 33.6113C52.7656 33.2979 52.646 32.9963 52.4312 32.768L42.5874 22.309C42.3549 22.062 42.0307 21.9219 41.6914 21.9219H29.3867C29.0353 21.9219 28.7006 22.0722 28.4671 22.3348L23.5452 27.8719C23.345 28.0972 23.2344 28.3881 23.2344 28.6895V50.3867C23.2344 51.3312 23.591 52.1941 24.1766 52.8477C23.591 53.5012 23.2344 54.3641 23.2344 55.3086C23.2344 57.344 24.8903 59 26.9258 59H49.0742C51.1097 59 52.7656 57.344 52.7656 55.3086C52.7656 54.3641 52.409 53.5012 51.8234 52.8477C52.4091 52.1941 52.7656 51.3312 52.7656 50.3867V33.6113ZM38 51.6169C35.9646 51.6169 34.3086 49.9609 34.3086 47.9255C34.3086 47.4187 34.4534 46.4953 35.7052 44.3374C36.3375 43.2474 36.9613 42.3422 36.9876 42.3043C37.2173 41.9717 37.5957 41.7731 38 41.7731C38.4043 41.7731 38.7827 41.9716 39.0124 42.3043C39.0387 42.3422 39.6625 43.2474 40.2948 44.3374C41.5466 46.4954 41.6914 47.4187 41.6914 47.9255C41.6914 49.9609 40.0354 51.6169 38 51.6169ZM47.0708 37.1C46.5949 37.5483 45.9893 37.7693 45.3837 37.7693C44.7289 37.7693 44.0763 37.5098 43.5921 36.9954L37.9408 30.9909C37.0083 30.0008 37.0564 28.4434 38.0453 27.5122C39.0366 26.5809 40.5951 26.6278 41.524 27.6167L47.1753 33.6213C48.1077 34.6115 48.0597 36.1687 47.0708 37.1Z" fill="#3C3C3C"/>
<path d="M36.7695 47.9271C36.7695 48.6042 37.3215 49.1562 38 49.1562C38.6782 49.1562 39.2299 48.6047 39.2305 47.9267C39.22 47.5492 38.7085 46.4774 38.0002 45.2844C37.2914 46.4786 36.7795 47.5509 36.7695 47.9271Z" fill="#3C3C3C"/>
<path d="M36.7695 17H29.3867C28.7072 17 28.1562 17.5509 28.1562 18.2305V19.4609H38V18.2305C38 17.5509 37.4491 17 36.7695 17Z" fill="#3C3C3C"/>
</g>
<defs>
<clipPath id="clip0">
<rect width="42" height="42" fill="white" transform="translate(17 17)"/>
</clipPath>
</defs>
</svg>
