<svg width="630" height="125" viewBox="0 0 630 125" fill="none" xmlns="http://www.w3.org/2000/svg">
<mask id="mask0" mask-type="alpha" maskUnits="userSpaceOnUse" x="0" y="0" width="630" height="125">
<path d="M0 20C0 8.95431 8.95431 0 20 0H610C621.046 0 630 8.9543 630 20V125H0V20Z" fill="#FBC22E"/>
</mask>
<g mask="url(#mask0)">
<path d="M478.062 65.2482C470.87 76.8485 459.384 83.2335 445.714 83.2335C422.947 83.2335 406.428 67.2957 406.428 42.0777C406.428 16.8598 422.947 0.992676 445.714 0.992676C459.359 0.992676 470.845 7.36782 478.037 18.9479L464.753 29.5697C461.428 23.0736 455.024 19.7953 445.714 19.7953C430.935 19.7953 423.719 25.4341 423.719 42.0679C423.719 58.7017 430.919 64.4412 445.714 64.4412C455.041 64.4412 461.453 61.1427 464.77 54.6365L478.062 65.2482Z" fill="#FFC93D" stroke="#FFC93D" stroke-width="0.903644" stroke-miterlimit="10"/>
<path d="M530.411 2.16333L554.155 81.973H537.003L533.194 69.1522H505.681L501.855 81.973H484.704L508.473 2.16333L530.411 2.16333ZM519.442 22.9428L511.092 50.9751H527.783L519.442 22.9428Z" fill="#FFC93D" stroke="#FFC93D" stroke-width="0.903644" stroke-miterlimit="10"/>
<path d="M615.945 59.3879L629.081 81.973L609.163 81.973L597.226 61.4154L581.675 61.4154V81.973H564.771V2.16333L605.255 2.16333C624.82 2.16333 630.001 20.9557 630.001 30.8916C630.001 41.7858 626.249 54.5561 615.945 59.3879ZM605.272 20.3505L581.692 20.3505V43.2282L606.561 43.2282C614.04 43.2282 614.122 33.1411 614.122 32.6973C614.098 28.9852 613.236 20.3505 605.247 20.3505H605.272Z" fill="#FFC93D" stroke="#FFC93D" stroke-width="0.903644" stroke-miterlimit="10"/>
<path d="M0 1.1875L61.5432 1.1875V19.4563H39.239L39.239 81.4584H22.2629L22.2629 19.4563L0 19.4563L0 1.1875Z" fill="#FFC93D" stroke="#FFC93D" stroke-width="0.909211" stroke-miterlimit="10"/>
<path d="M123.946 58.7646L137.163 81.4889L117.114 81.4889L105.111 60.8047L89.4566 60.8047L89.4566 81.4889H72.4475L72.4475 1.1875L113.182 1.1875C132.875 1.1875 138.08 20.0957 138.08 30.0928C138.08 41.0541 134.305 53.9031 123.946 58.7646ZM113.206 19.4868L89.4566 19.4868V42.5054L114.47 42.5054C121.996 42.5054 122.087 32.3561 122.087 31.9095C122.07 28.1746 121.244 19.4868 113.182 19.4868H113.206Z" fill="#FFC93D" stroke="#FFC93D" stroke-width="0.909211" stroke-miterlimit="10"/>
<path d="M201.747 38.9836V1.1875L218.723 1.1875V38.9836C218.723 66.3868 206.017 82.7575 184.754 82.7575C163.491 82.7575 150.802 66.3868 150.802 38.9836V1.1875L167.836 1.1875V38.9836C167.836 56.6434 172.792 63.8495 184.795 63.8495C196.798 63.8495 201.755 56.6434 201.755 38.9836H201.747Z" fill="#FFC93D" stroke="#FFC93D" stroke-width="0.909211" stroke-miterlimit="10"/>
<path d="M296.944 56.2681C296.944 72.1112 284.487 82.7577 265.933 82.7577C246.793 82.7577 229.057 71.0252 229.057 71.0252L236.136 53.5987C236.136 53.5987 252.765 63.4536 264.768 63.4536C274.912 63.4536 280.753 61.8907 280.753 56.7044C280.753 52.7665 279.299 49.5999 261.86 49.5999C238.73 49.5999 233.922 39.9376 233.922 28.9154C233.922 10.809 245.892 0 265.933 0C283.917 0 293.945 8.38336 293.945 8.38336L288.055 25.9824C288.055 25.9824 276.622 19.223 264.859 19.223C254.781 19.223 250.237 22.6433 250.237 26.0637C250.237 29.2201 251.757 31.6966 268.733 31.6966C285.875 31.7067 296.944 39.7653 296.944 56.2681Z" fill="#FFC93D" stroke="#FFC93D" stroke-width="0.909211" stroke-miterlimit="10"/>
<path d="M304.958 1.1875L366.501 1.1875V19.4563H344.197V81.4584H327.221V19.4563L304.917 19.4563L304.958 1.1875Z" fill="#FFC93D" stroke="#FFC93D" stroke-width="0.909211" stroke-miterlimit="10"/>
<path d="M50.2956 110.818V122.967H44.0331V110.818C44.0331 106.603 44.0331 99.9941 38.3427 99.9941C34.4361 100.08 30.6927 101.577 27.8048 104.209C28.1662 106.393 28.3375 108.604 28.3167 110.818V122.967H22.0542V110.818C22.0542 106.603 22.0542 99.9941 16.3637 99.9941C12.269 99.9941 8.44533 103.005 6.26249 106.302L6.26249 122.967H0L0 95.0112H6.12701L6.12701 100.536C7.52456 98.7819 9.27399 97.3398 11.2627 96.3027C13.2513 95.2655 15.4351 94.6564 17.6735 94.5144C19.5657 94.3901 21.4478 94.8757 23.0437 95.8998C24.6396 96.924 25.8651 98.433 26.5403 100.205C30.0429 96.686 34.7645 94.6486 39.7277 94.5144C46.4568 94.4843 50.2956 98.6843 50.2956 110.818Z" fill="#FFC93D" stroke="#FFC93D" stroke-width="1.95673" stroke-miterlimit="10"/>
<path d="M91.6488 95.0129V122.968H85.3863V117.443C83.9862 119.195 82.2362 120.635 80.2481 121.672C78.2599 122.709 76.0774 123.319 73.8398 123.465C67.1709 123.465 63.302 119.28 63.302 107.131V94.9978H69.5645V107.131C69.5645 111.362 69.5644 117.955 75.2549 117.955C79.3496 117.955 83.1733 114.945 85.3562 111.648V94.9978L91.6488 95.0129Z" fill="#FFC93D" stroke="#FFC93D" stroke-width="1.95673" stroke-miterlimit="10"/>
<path d="M105.587 122.966V85H111.85V122.966H105.587Z" fill="#FFC93D" stroke="#FFC93D" stroke-width="1.95673" stroke-miterlimit="10"/>
<path d="M133.952 99.8734V112.218C133.952 114.897 133.952 118.51 136.12 118.495C137.609 118.366 139.057 117.941 140.381 117.246L140.922 120.738C140.922 120.738 137.234 123.478 134.344 123.478C127.69 123.478 127.69 118.119 127.69 112.218V99.8734H123.068V95.011H127.69V86.9722L133.952 85V95.011H141.841V99.8734H133.952Z" fill="#FFC93D" stroke="#FFC93D" stroke-width="1.95673" stroke-miterlimit="10"/>
<path d="M153.416 91.2625V85H159.678V91.2625H153.416ZM153.416 122.966V95.011H159.678V122.966H153.416Z" fill="#FFC93D" stroke="#FFC93D" stroke-width="1.95673" stroke-miterlimit="10"/>
<path d="M232.014 107.042V122.531H225.818V119.642C222.471 121.798 218.586 122.975 214.604 123.037C206.815 123.037 204 118.912 204 114.772C204 110.631 207.098 106.491 214.604 106.491C218.589 106.564 222.473 107.75 225.818 109.917V107.042C225.818 101.8 225.029 99.4021 218.58 99.4021C214.551 99.4666 210.606 100.569 207.128 102.604L204.298 98.434C208.483 95.9039 213.246 94.4887 218.134 94.3235C228.901 94.3682 232.014 99.417 232.014 107.042ZM225.818 114.236C223.069 112.025 219.679 110.761 216.153 110.632C211.849 110.632 210.195 112.553 210.195 114.772C210.195 116.991 212.787 118.912 216.153 118.912C219.673 118.796 223.063 117.547 225.818 115.353V114.236Z" fill="#FFC93D" stroke="#FFC93D" stroke-width="1.93581" stroke-miterlimit="10"/>
<path d="M272.865 94.9053V122.562H266.67V117.096C265.284 118.829 263.553 120.253 261.586 121.279C259.619 122.305 257.46 122.909 255.246 123.053C248.649 123.053 244.821 118.913 244.821 106.894V94.8904H251.017V106.894C251.017 111.079 251.017 117.602 256.646 117.602C260.697 117.602 264.48 114.624 266.64 111.362V94.8904L272.865 94.9053Z" fill="#FFC93D" stroke="#FFC93D" stroke-width="1.93581" stroke-miterlimit="10"/>
<path d="M294.801 99.7144V111.927C294.801 114.578 294.801 118.152 296.946 118.137C298.419 118.009 299.852 117.589 301.161 116.901L301.697 120.356C301.697 120.356 298.033 123.067 295.189 123.067C288.606 123.067 288.606 117.765 288.606 111.927V99.7144H284.034V94.9039H288.606V86.9511L294.801 85V94.9039H302.605V99.7144H294.801Z" fill="#FFC93D" stroke="#FFC93D" stroke-width="1.93581" stroke-miterlimit="10"/>
<path d="M341.747 108.725C341.747 114.683 338.008 123.067 326.854 123.067C315.699 123.067 311.96 114.727 311.96 108.725C311.96 102.723 315.714 94.3833 326.854 94.3833C337.994 94.3833 341.747 102.738 341.747 108.725ZM335.953 108.725C335.953 104.674 333.496 99.2086 326.883 99.2086C320.271 99.2086 317.813 104.66 317.813 108.725C317.813 112.791 320.286 118.257 326.883 118.257C333.481 118.257 335.953 112.791 335.953 108.725Z" fill="#FFC93D" stroke="#FFC93D" stroke-width="1.93581" stroke-miterlimit="10"/>
<path d="M409.667 111.494C409.667 116.566 404.687 120.064 396.972 120.064C391.779 119.879 386.682 118.62 382 116.367L384.353 111.647C384.353 111.647 391.548 114.901 396.468 114.901C401.387 114.901 404.35 113.755 404.35 111.402C404.35 109.05 402.258 107.766 394.909 107.766C387.561 107.766 383.833 105.337 383.833 100.128C383.833 93.7724 389.257 90.6865 396.972 90.6865C401.063 90.7035 405.102 91.6051 408.811 93.3294L406.841 98.0959C403.583 96.6018 400.076 95.7263 396.498 95.514C391.655 95.514 389.196 97.5 389.196 99.318C389.196 101.136 390.005 102.694 398.484 102.694C405.939 102.633 409.667 106.407 409.667 111.494Z" fill="#FFC93D" stroke="#FFC93D" stroke-width="1.98573" stroke-miterlimit="10"/>
<path d="M426.746 106.819C427.044 109.147 428.194 111.283 429.975 112.812C431.755 114.341 434.039 115.156 436.386 115.1C438.1 115.022 439.774 114.557 441.282 113.739C442.79 112.921 444.093 111.773 445.094 110.379L450.074 113.297C448.415 115.457 446.268 117.194 443.81 118.368C441.352 119.541 438.651 120.117 435.928 120.049C424.516 120.049 420.65 111.494 420.65 105.337C420.65 99.1807 424.485 90.6255 435.928 90.6255C447.37 90.6255 451.205 99.196 451.205 105.337C451.205 105.826 451.205 106.315 451.205 106.865L426.746 106.819ZM444.666 101.885C444.078 100.028 442.914 98.4072 441.343 97.2567C439.772 96.1061 437.875 95.4859 435.928 95.4859C433.98 95.4859 432.083 96.1061 430.512 97.2567C428.941 98.4072 427.777 100.028 427.189 101.885H444.666Z" fill="#FFC93D" stroke="#FFC93D" stroke-width="1.98573" stroke-miterlimit="10"/>
<path d="M489.032 94.6135L485.808 99.8842C484.96 98.8334 483.883 97.9888 482.661 97.4146C481.438 96.8403 480.101 96.5513 478.75 96.569C475.695 96.569 472.38 98.6926 470.134 101.152V119.485H463.779V91.115H470.134V96.1106C472.471 93.3149 475.878 90.5803 479.637 90.5803C483.178 90.6299 486.556 92.08 489.032 94.6135Z" fill="#FFC93D" stroke="#FFC93D" stroke-width="1.98573" stroke-miterlimit="10"/>
<path d="M529.959 91.1597L519.586 119.529H509.075L498.717 91.1597H505.271L513.49 113.663H515.201L523.436 91.1597H529.959Z" fill="#FFC93D" stroke="#FFC93D" stroke-width="1.98573" stroke-miterlimit="10"/>
<path d="M541.263 87.3554V81H547.603V87.3554H541.263ZM541.263 119.529V91.1593H547.603V119.529H541.263Z" fill="#FFC93D" stroke="#FFC93D" stroke-width="1.98573" stroke-miterlimit="10"/>
<path d="M588.855 113.098C586.67 116.917 582.56 120.049 575.655 120.049C564.258 120.049 560.378 111.494 560.378 105.337C560.378 99.1807 564.228 90.6255 575.655 90.6255C582.56 90.6255 586.67 93.681 588.855 97.592L583.859 100.525C583.133 98.9819 581.967 97.6883 580.507 96.8074C579.047 95.9265 577.359 95.4977 575.655 95.5753C568.887 95.5753 566.733 101.167 566.733 105.337C566.733 109.508 568.887 115.115 575.655 115.115C577.36 115.199 579.05 114.772 580.512 113.891C581.973 113.009 583.138 111.712 583.859 110.165L588.855 113.098Z" fill="#FFC93D" stroke="#FFC93D" stroke-width="1.98573" stroke-miterlimit="10"/>
<path d="M605.079 106.819C605.376 109.145 606.524 111.278 608.302 112.807C610.079 114.336 612.359 115.152 614.703 115.1C616.419 115.021 618.095 114.555 619.605 113.738C621.116 112.921 622.422 111.772 623.427 110.379L628.392 113.297C626.734 115.459 624.588 117.198 622.129 118.371C619.67 119.545 616.969 120.12 614.245 120.049C602.848 120.049 598.968 111.494 598.968 105.337C598.968 99.1807 602.818 90.6255 614.245 90.6255C625.672 90.6255 629.522 99.196 629.522 105.337C629.522 105.826 629.522 106.315 629.446 106.865L605.079 106.819ZM622.999 101.885C622.415 100.022 621.251 98.3951 619.678 97.2399C618.105 96.0846 616.204 95.4617 614.253 95.4617C612.301 95.4617 610.4 96.0846 608.827 97.2399C607.254 98.3951 606.091 100.022 605.506 101.885H622.999Z" fill="#FFC93D" stroke="#FFC93D" stroke-width="1.98573" stroke-miterlimit="10"/>
</g>
</svg>
