<svg width="137" height="137" viewBox="0 0 137 137" fill="none" xmlns="http://www.w3.org/2000/svg">
<rect y="0.000976562" width="137" height="137" rx="11.8103" fill="#FBC22E"/>
<path d="M61.2894 49.9113L41.229 88.8042C38.6583 93.7797 36.9644 98.0309 43.214 101.265L54.5787 107.117C60.8283 110.351 63.3035 106.493 65.8742 101.517L85.9346 62.6244C88.5053 57.6488 90.1992 53.3977 83.9496 50.1634L72.5849 44.3116C66.3353 41.0773 63.8601 44.9358 61.2894 49.9113Z" fill="#3C3C3C"/>
<path d="M111.066 25.2782L105.794 35.4897C103.756 39.4516 101.228 41.839 98.3217 42.615C95.6389 43.3169 93.5926 42.3817 92.8952 41.9613L89.045 39.9795C88.5614 39.7364 88.2913 39.7638 88.0677 39.8378C87.0895 40.1616 85.9972 41.6397 85.6699 42.3372L85.6511 42.3744L79.7901 53.7112L74.2566 50.8601L80.0897 39.5326C80.3701 38.9746 82.417 35.1338 86.1063 33.9125C88.0069 33.2834 89.9896 33.4644 91.8869 34.418L96.044 36.5773C96.9277 36.905 98.5872 35.8285 100.223 32.6199L105.495 22.4085L111.066 25.2782Z" fill="#3C3C3C"/>
<path d="M41.9935 99.4411L35.8252 111.398L42.0522 114.61L48.2205 102.653L41.9935 99.4411Z" fill="#3C3C3C"/>
<path d="M33.5763 109.886L32.7935 111.403L43.8084 117.086L44.5913 115.568L33.5763 109.886Z" fill="#3C3C3C"/>
<path d="M104.043 20.1489L102.815 22.5298L112.574 27.5643L113.802 25.1834L104.043 20.1489Z" fill="#3C3C3C"/>
<path d="M43.3721 87.4072L42.8862 88.3491L65.4395 99.9838L65.9254 99.0419L43.3721 87.4072Z" fill="#FBC22E"/>
<path d="M61.0211 53.1621L60.5352 54.104L83.0884 65.7387L83.5743 64.7968L61.0211 53.1621Z" fill="#FBC22E"/>
</svg>
