<svg width="50" height="50" viewBox="0 0 50 50" fill="none" xmlns="http://www.w3.org/2000/svg">
<rect width="50" height="50" rx="6.46552" fill="#FBC22E"/>
<path d="M30.456 17.4182C27.927 14.0071 25.362 11.2473 25.3364 11.2198C25.2057 11.0796 25.0224 11 24.8308 11C24.639 11 24.4559 11.0796 24.3252 11.2198C24.2994 11.2473 21.7343 14.0071 19.2056 17.4182C15.7513 22.0777 14 25.6945 14 28.1685C14 34.1408 18.8588 39 24.831 39C30.8032 39 35.6623 34.141 35.6623 28.1685C35.6618 25.6943 33.9103 22.0777 30.456 17.4182ZM25.9124 35.4947C25.3447 35.629 24.7596 35.6969 24.173 35.6969C20.005 35.6969 16.6139 32.3059 16.6139 28.1378C16.6139 27.563 16.7908 26.5221 17.6335 24.8254C17.7182 24.6548 17.9134 24.5703 18.0958 24.6246C18.2781 24.6789 18.3952 24.8566 18.3727 25.0457C18.3533 25.2091 18.3436 25.3627 18.3436 25.5026C18.3436 29.9703 21.5211 33.8511 25.899 34.7301C26.0795 34.7662 26.2101 34.9233 26.2134 35.1072C26.2168 35.2913 26.0915 35.4523 25.9124 35.4947Z" fill="#3C3C3C"/>
</svg>
