<svg width="50" height="50" viewBox="0 0 50 50" fill="none" xmlns="http://www.w3.org/2000/svg">
<rect width="50" height="50" rx="6.46552" fill="#FBC22E"/>
<g clip-path="url(#clip0)">
<path d="M33.0978 19.4766C33.0239 19.2292 32.9258 18.9921 32.806 18.7682L34.1668 17.4074L32.6199 15.8608L31.2673 17.2132C31.0331 17.0844 30.7841 16.9802 30.5234 16.9022V14.9922H28.3359V16.9022C28.0845 16.9774 27.8438 17.0771 27.6169 17.1996L26.2008 15.7834L24.6539 17.3301L26.0666 18.743C25.9406 18.9741 25.8383 19.2198 25.7616 19.4766H23.7422V21.6641H25.7616C25.8393 21.9247 25.9438 22.1738 26.0726 22.4081L24.6926 23.7881L26.2394 25.335L27.6276 23.9466C27.8514 24.0665 28.0883 24.1645 28.3359 24.2384V26.2031H30.5234V24.2384C30.7802 24.1617 31.0259 24.0594 31.257 23.9334L32.6971 25.3734L34.2439 23.8266L32.8004 22.3831C32.9229 22.1562 33.0226 21.9155 33.0978 21.6641H35.117V19.4766H33.0978ZM29.4297 22.2109C28.525 22.2109 27.7891 21.475 27.7891 20.5703C27.7891 19.6656 28.525 18.9297 29.4297 18.9297C30.3344 18.9297 31.0703 19.6656 31.0703 20.5703C31.0703 21.475 30.3344 22.2109 29.4297 22.2109Z" fill="#3C3C3C"/>
<path d="M29.4306 11C26.342 11 23.591 12.471 21.8399 14.7489C21.7754 14.8106 21.5515 15.1447 21.5515 15.1447C21.3838 15.3874 12.1607 30.188 12.1417 30.2289C11.3957 31.1904 10.964 32.4076 11.0035 33.7246C11.0896 36.6012 13.4371 38.9319 16.3141 38.9985C17.5508 39.0271 18.6977 38.6405 19.6257 37.9688L34.2378 28.8429C37.0841 27.1826 39.0009 24.0962 39.0009 20.5703C39.0009 15.2932 34.7077 11 29.4306 11V11ZM19.696 33.5932C19.6781 35.3772 18.2263 36.8136 16.4423 36.8125C14.5966 36.8125 13.1049 35.2678 13.192 33.4031C13.27 31.7379 14.6216 30.3863 16.287 30.3083C18.1515 30.2212 19.6962 31.7129 19.6962 33.5586L19.696 33.5932ZM21.8666 33.9901C21.878 33.8478 21.8837 33.7039 21.8837 33.5586C21.8837 30.5583 19.4429 28.1172 16.4423 28.1172C16.2996 28.1172 16.1582 28.1227 16.0185 28.1336L19.9455 21.8456C20.5157 26.1076 23.9012 29.4908 28.1647 30.0567L21.8666 33.9901ZM29.4306 27.9531C25.3598 27.9531 22.0478 24.6411 22.0478 20.5703C22.0478 19.2845 22.3785 18.0746 22.9589 17.0205L23.3885 16.3327C24.7256 14.4321 26.9355 13.1875 29.4306 13.1875C33.5016 13.1875 36.8134 16.4995 36.8134 20.5703C36.8141 24.6035 33.4638 27.9533 29.4306 27.9531Z" fill="#3C3C3C"/>
</g>
<defs>
<clipPath id="clip0">
<rect width="28" height="28" fill="white" transform="translate(11 11)"/>
</clipPath>
</defs>
</svg>
