<svg width="50" height="50" viewBox="0 0 50 50" fill="none" xmlns="http://www.w3.org/2000/svg">
<rect width="50" height="50" rx="6.46552" fill="#FBC22E"/>
<path fill-rule="evenodd" clip-rule="evenodd" d="M9.92023 34.3998L14.4497 39.2589L17.3927 36.5156L18.0306 37.1999L29.3231 26.6738L29.3229 26.6736L30.1454 23.9884L32.6777 21.628L28.7862 17.4532L26.2539 19.8136L23.5495 20.4799L23.5178 20.4458L12.2253 30.9719L12.8633 31.6564L9.92023 34.3998ZM21.4087 35.2667L26.0626 30.9287L27.785 32.7765L27.5969 38.132L21.3158 37.9114L21.4087 35.2667ZM33.4587 20.0533L33.7324 21.3879L37.4094 20.6338L37.1357 19.2992L33.4587 20.0533ZM38.8865 20.3305L38.6128 18.9959L42.2897 18.2418L42.5634 19.5764L38.8865 20.3305ZM30.3088 16.6743L28.9967 16.3076L30.0069 12.6926L31.319 13.0593L30.3088 16.6743ZM30.4956 11.3292L31.8077 11.6959L32.8179 8.08087L31.5058 7.71421L30.4956 11.3292ZM34.4012 15.0903L35.3301 16.0869L32.5845 18.6462L31.6555 17.6497L34.4012 15.0903ZM39.2987 12.3871L38.3698 11.3906L35.6241 13.9499L36.553 14.9465L39.2987 12.3871Z" fill="#3C3C3C"/>
</svg>
