<svg width="50" height="50" viewBox="0 0 50 50" fill="none" xmlns="http://www.w3.org/2000/svg">
<rect width="50" height="50" rx="6.46552" fill="#FBC22E"/>
<g clip-path="url(#clip0)">
<path d="M32.5834 19.1666H33.75C34.715 19.1666 35.5 18.3817 35.5 17.4166V12.75C35.5 11.785 34.715 11 33.75 11H32.5834C31.6183 11 30.8334 11.785 30.8334 12.75V13.9672L26.5854 14.3533C26.3077 13.7531 25.7037 13.3334 25 13.3334C24.2963 13.3334 23.6924 13.753 23.4146 14.3533L19.1666 13.9672V12.75C19.1666 11.785 18.3817 11 17.4166 11H16.25C15.285 11 14.5 11.785 14.5 12.75V17.4166C14.5 18.3817 15.285 19.1666 16.25 19.1666H17.4166C18.3817 19.1666 19.1666 18.3817 19.1666 17.4166V16.1995L23.4146 15.8134C23.5162 16.0331 23.6626 16.2254 23.8411 16.3846L24.2662 22.697C24.0187 22.7645 23.8332 22.9809 23.8332 23.25V26.75C23.8332 27.0091 24.0046 27.2212 24.2381 27.2974L23.8419 32.4481C23.4818 32.7689 23.25 33.2307 23.25 33.75V34.1718L19.1666 33.8005V32.5833C19.1666 31.6183 18.3817 30.8333 17.4166 30.8333H16.25C15.285 30.8333 14.5 31.6183 14.5 32.5833V37.25C14.5 38.215 15.285 39 16.25 39H17.4166C18.3817 39 19.1666 38.215 19.1666 37.25V36.0329L23.25 35.6615V36.0833C23.25 37.0483 24.035 37.8333 25 37.8333C25.965 37.8333 26.75 37.0483 26.75 36.0833V35.6615L30.8334 36.0328V37.25C30.8334 38.215 31.6183 39 32.5834 39H33.75C34.715 39 35.5 38.215 35.5 37.25V32.5834C35.5 31.6183 34.715 30.8334 33.75 30.8334H32.5834C31.6183 30.8334 30.8334 31.6183 30.8334 32.5834V33.8005L26.75 34.1718V33.75C26.75 33.2306 26.5181 32.7686 26.1577 32.4478L25.7577 27.2982C25.9932 27.2232 26.1666 27.0106 26.1666 26.7501V23.2501C26.1666 22.9826 25.9834 22.7669 25.7382 22.6979L26.159 16.3845C26.3374 16.2254 26.4837 16.0331 26.5853 15.8135L30.8333 16.1996V17.4168C30.8334 18.3817 31.6183 19.1666 32.5834 19.1666Z" fill="#3C3C3C"/>
</g>
<defs>
<clipPath id="clip0">
<rect width="28" height="28" fill="white" transform="translate(11 11)"/>
</clipPath>
</defs>
</svg>
