<svg width="50" height="50" viewBox="0 0 50 50" fill="none" xmlns="http://www.w3.org/2000/svg">
<rect width="50" height="50" rx="6.46552" fill="#FBC22E"/>
<path d="M35.6335 14.1172V16.5395C35.6335 16.9926 35.2661 17.3598 34.8132 17.3598C34.3601 17.3598 33.9929 16.9926 33.9929 16.5395V14.1172C32.0756 14.4996 30.6262 16.1953 30.6262 18.2235V24.1784H28.4421V23.2731C28.4421 22.6628 27.9454 22.1663 27.3351 22.1663H22.6649C22.0546 22.1663 21.5579 22.6628 21.5579 23.2731V24.1784H19.3738V18.2235C19.3738 16.1955 17.9246 14.4996 16.0073 14.1172V16.5395C16.0073 16.9926 15.6399 17.3598 15.187 17.3598C14.7339 17.3598 14.3667 16.9926 14.3667 16.5395V14.1172C12.4494 14.4996 11 16.1955 11 18.2235V31.7738C11 33.8019 12.4494 35.4977 14.3667 35.88V33.4492C14.3667 32.9961 14.7339 32.6289 15.187 32.6289C15.6399 32.6289 16.0073 32.9961 16.0073 33.4492V35.88C17.9246 35.4977 19.3738 33.8019 19.3738 31.7738V25.819H21.5579V26.7156C21.5579 27.3259 22.0546 27.8224 22.6649 27.8224H27.3351C27.9454 27.8224 28.4421 27.3259 28.4421 26.7156V25.819H30.6262V31.7738C30.6262 33.8019 32.0756 35.4977 33.9929 35.88V33.4492C33.9929 32.9961 34.3601 32.6289 34.8132 32.6289C35.2661 32.6289 35.6335 32.9961 35.6335 33.4492V35.88C37.5506 35.4977 39 33.8019 39 31.774V18.2235C39 16.1955 37.5508 14.4996 35.6335 14.1172V14.1172ZM16.0073 30.0671C16.0073 30.5202 15.6399 30.8875 15.187 30.8875C14.7339 30.8875 14.3667 30.5202 14.3667 30.0671V26.6853C14.3667 26.2322 14.7339 25.865 15.187 25.865C15.6399 25.865 16.0073 26.2322 16.0073 26.6853V30.0671ZM16.0073 23.3034C16.0073 23.7565 15.6399 24.1237 15.187 24.1237C14.7339 24.1237 14.3667 23.7565 14.3667 23.3034V19.9215C14.3667 19.4684 14.7339 19.1012 15.187 19.1012C15.6399 19.1012 16.0073 19.4684 16.0073 19.9215V23.3034ZM35.6335 30.0671C35.6335 30.5202 35.2661 30.8875 34.8132 30.8875C34.3601 30.8875 33.9929 30.5202 33.9929 30.0671V26.6853C33.9929 26.2322 34.3601 25.865 34.8132 25.865C35.2661 25.865 35.6335 26.2322 35.6335 26.6853V30.0671ZM35.6335 23.3034C35.6335 23.7565 35.2661 24.1237 34.8132 24.1237C34.3601 24.1237 33.9929 23.7565 33.9929 23.3034V19.9215C33.9929 19.4684 34.3601 19.1012 34.8132 19.1012C35.2661 19.1012 35.6335 19.4684 35.6335 19.9215V23.3034Z" fill="#3C3C3C"/>
</svg>
