<svg width="50" height="50" viewBox="0 0 50 50" fill="none" xmlns="http://www.w3.org/2000/svg">
<rect width="50" height="50" rx="6.46552" fill="#FBC22E"/>
<path d="M38.3636 21.3636H35.8182C35.7346 21.3636 35.6518 21.38 35.5746 21.412C35.4974 21.4439 35.4272 21.4908 35.3681 21.5499C35.309 21.609 35.2621 21.6792 35.2302 21.7564C35.1982 21.8336 35.1818 21.9164 35.1818 22V23.9091H32.6364V20.7273C32.6364 20.6437 32.62 20.5609 32.588 20.4837C32.5561 20.4065 32.5092 20.3363 32.4501 20.2772C32.391 20.2181 32.3208 20.1712 32.2436 20.1392C32.1664 20.1073 32.0836 20.0909 32 20.0909H30.0909V18.1818C30.091 18.0982 30.0745 18.0155 30.0426 17.9382C30.0106 17.861 29.9637 17.7908 29.9046 17.7317C29.8455 17.6726 29.7754 17.6258 29.6981 17.5938C29.6209 17.5618 29.5381 17.5454 29.4545 17.5455H24.3636V16.2727H26.9091C27.0779 16.2727 27.2397 16.2057 27.3591 16.0863C27.4784 15.967 27.5455 15.8051 27.5455 15.6364C27.5455 15.4676 27.4784 15.3057 27.3591 15.1864C27.2397 15.067 27.0779 15 26.9091 15H20.5455C20.3767 15 20.2148 15.067 20.0955 15.1864C19.9761 15.3057 19.9091 15.4676 19.9091 15.6364C19.9091 15.8051 19.9761 15.967 20.0955 16.0863C20.2148 16.2057 20.3767 16.2727 20.5455 16.2727H23.0909V17.5455H18C17.9164 17.5454 17.8336 17.5618 17.7564 17.5938C17.6792 17.6258 17.609 17.6726 17.5499 17.7317C17.4908 17.7908 17.4439 17.861 17.412 17.9382C17.38 18.0155 17.3636 18.0982 17.3636 18.1818V20.0909H14.1818C14.0982 20.0909 14.0155 20.1073 13.9382 20.1392C13.861 20.1712 13.7908 20.2181 13.7317 20.2772C13.6726 20.3363 13.6258 20.4065 13.5938 20.4837C13.5618 20.5609 13.5454 20.6437 13.5455 20.7273V25.8182H12.2727V23.2727C12.2727 23.104 12.2057 22.9421 12.0863 22.8227C11.967 22.7034 11.8051 22.6364 11.6364 22.6364C11.4676 22.6364 11.3057 22.7034 11.1864 22.8227C11.067 22.9421 11 23.104 11 23.2727V29.6364C11 29.8051 11.067 29.967 11.1864 30.0863C11.3057 30.2057 11.4676 30.2727 11.6364 30.2727C11.8051 30.2727 11.967 30.2057 12.0863 30.0863C12.2057 29.967 12.2727 29.8051 12.2727 29.6364V27.0909H13.5455V32.1818C13.5454 32.2654 13.5618 32.3482 13.5938 32.4254C13.6258 32.5026 13.6726 32.5728 13.7317 32.6319C13.7908 32.691 13.861 32.7379 13.9382 32.7698C14.0155 32.8018 14.0982 32.8182 14.1818 32.8182H18.6364V34.7273C18.6363 34.8109 18.6527 34.8936 18.6847 34.9709C18.7167 35.0481 18.7635 35.1183 18.8226 35.1774C18.8817 35.2365 18.9519 35.2833 19.0291 35.3153C19.1064 35.3473 19.1891 35.3637 19.2727 35.3636H32C32.0836 35.3637 32.1664 35.3473 32.2436 35.3153C32.3208 35.2833 32.391 35.2365 32.4501 35.1774C32.5092 35.1183 32.5561 35.0481 32.588 34.9709C32.62 34.8936 32.6364 34.8109 32.6364 34.7273V31.5455H35.1818V33.4545C35.1818 33.5381 35.1982 33.6209 35.2302 33.6981C35.2621 33.7754 35.309 33.8455 35.3681 33.9046C35.4272 33.9637 35.4974 34.0106 35.5746 34.0426C35.6518 34.0745 35.7346 34.091 35.8182 34.0909H38.3636C38.4472 34.091 38.53 34.0745 38.6072 34.0426C38.6845 34.0106 38.7546 33.9637 38.8137 33.9046C38.8728 33.8455 38.9197 33.7754 38.9517 33.6981C38.9836 33.6209 39 33.5381 39 33.4545V22C39 21.9164 38.9836 21.8336 38.9517 21.7564C38.9197 21.6792 38.8728 21.609 38.8137 21.5499C38.7546 21.4908 38.6845 21.4439 38.6072 21.412C38.53 21.38 38.4472 21.3636 38.3636 21.3636ZM37.7273 32.8182H36.4545V30.9091C36.4546 30.8255 36.4382 30.7427 36.4062 30.6655C36.3742 30.5883 36.3274 30.5181 36.2683 30.459C36.2092 30.3999 36.139 30.353 36.0618 30.3211C35.9845 30.2891 35.9018 30.2727 35.8182 30.2727H32C31.9164 30.2727 31.8336 30.2891 31.7564 30.3211C31.6792 30.353 31.609 30.3999 31.5499 30.459C31.4908 30.5181 31.4439 30.5883 31.412 30.6655C31.38 30.7427 31.3636 30.8255 31.3636 30.9091V34.0909H19.9091V32.1818C19.9091 32.0982 19.8927 32.0155 19.8608 31.9382C19.8288 31.861 19.7819 31.7908 19.7228 31.7317C19.6637 31.6726 19.5935 31.6258 19.5163 31.5938C19.4391 31.5618 19.3563 31.5454 19.2727 31.5455H14.8182V21.3636H18C18.0836 21.3637 18.1664 21.3473 18.2436 21.3153C18.3208 21.2833 18.391 21.2365 18.4501 21.1774C18.5092 21.1183 18.5561 21.0481 18.588 20.9709C18.62 20.8936 18.6364 20.8109 18.6364 20.7273V18.8182H28.8182V20.7273C28.8181 20.8109 28.8346 20.8936 28.8665 20.9709C28.8985 21.0481 28.9454 21.1183 29.0045 21.1774C29.0636 21.2365 29.1337 21.2833 29.211 21.3153C29.2882 21.3473 29.371 21.3637 29.4545 21.3636H31.3636V24.5455C31.3636 24.629 31.38 24.7118 31.412 24.789C31.4439 24.8663 31.4908 24.9364 31.5499 24.9955C31.609 25.0546 31.6792 25.1015 31.7564 25.1335C31.8336 25.1654 31.9164 25.1819 32 25.1818H35.8182C35.9018 25.1819 35.9845 25.1654 36.0618 25.1335C36.139 25.1015 36.2092 25.0546 36.2683 24.9955C36.3274 24.9364 36.3742 24.8663 36.4062 24.789C36.4382 24.7118 36.4546 24.629 36.4545 24.5455V22.6364H37.7273V32.8182Z" fill="#3C3C3C"/>
<path d="M37.7273 32.8182H36.4545V30.9091C36.4546 30.8255 36.4382 30.7427 36.4062 30.6655C36.3742 30.5883 36.3274 30.5181 36.2683 30.459C36.2092 30.3999 36.139 30.353 36.0618 30.3211C35.9845 30.2891 35.9018 30.2727 35.8182 30.2727H32C31.9164 30.2727 31.8336 30.2891 31.7564 30.3211C31.6792 30.353 31.609 30.3999 31.5499 30.459C31.4908 30.5181 31.4439 30.5883 31.412 30.6655C31.38 30.7427 31.3636 30.8255 31.3636 30.9091V34.0909H19.9091V32.1818C19.9091 32.0982 19.8927 32.0155 19.8608 31.9382C19.8288 31.861 19.7819 31.7908 19.7228 31.7317C19.6637 31.6726 19.5935 31.6258 19.5163 31.5938C19.4391 31.5618 19.3563 31.5454 19.2727 31.5455H14.8182V21.3636H18C18.0836 21.3637 18.1664 21.3473 18.2436 21.3153C18.3208 21.2833 18.391 21.2365 18.4501 21.1774C18.5092 21.1183 18.5561 21.0481 18.588 20.9709C18.62 20.8936 18.6364 20.8109 18.6364 20.7273V18.8182H28.8182V20.7273C28.8181 20.8109 28.8346 20.8936 28.8665 20.9709C28.8985 21.0481 28.9454 21.1183 29.0045 21.1774C29.0636 21.2365 29.1337 21.2833 29.211 21.3153C29.2882 21.3473 29.371 21.3637 29.4545 21.3636H31.3636V24.5455C31.3636 24.629 31.38 24.7118 31.412 24.789C31.4439 24.8663 31.4908 24.9364 31.5499 24.9955C31.609 25.0546 31.6792 25.1015 31.7564 25.1335C31.8336 25.1654 31.9164 25.1819 32 25.1818H35.8182C35.9018 25.1819 35.9845 25.1654 36.0618 25.1335C36.139 25.1015 36.2092 25.0546 36.2683 24.9955C36.3274 24.9364 36.3742 24.8663 36.4062 24.789C36.4382 24.7118 36.4546 24.629 36.4545 24.5455V22.6364H37.7273V32.8182Z" fill="#3C3C3C"/>
</svg>
