<svg width="50" height="50" viewBox="0 0 50 50" fill="none" xmlns="http://www.w3.org/2000/svg">
<rect width="50" height="50" rx="6.46552" fill="#FBC22E"/>
<g clip-path="url(#clip0)">
<path d="M16.7485 24.2998C16.2959 24.2998 15.9282 24.6675 15.9282 25.1201C15.9282 25.5727 16.2959 25.9404 16.7485 25.9404C17.2011 25.9404 17.5688 25.5727 17.5688 25.1201C17.5688 24.6675 17.2011 24.2998 16.7485 24.2998Z" fill="#3C3C3C"/>
<path d="M38.3827 28.6891L31.938 13.476C30.9199 11.1098 27.9792 10.2588 25.8538 11.7201L13.503 20.3835C11.9401 21.4561 11.0068 23.2265 11.0068 25.1203C11.0068 27.1815 12.1211 29.0953 13.9148 30.1151L27.955 38.0362C30.8212 39.6645 34.4596 39.206 36.8262 36.8394C38.9787 34.6876 39.5891 31.4881 38.3827 28.6891ZM27.5932 14.5224C27.9136 14.202 28.4329 14.202 28.7533 14.5224C29.0736 14.8427 29.0736 15.3621 28.7533 15.6825C28.4329 16.0028 27.9136 16.0028 27.5932 15.6825C27.2728 15.3621 27.2729 14.8427 27.5932 14.5224ZM14.2881 25.1203C14.2881 23.7633 15.392 22.6594 16.749 22.6594C18.106 22.6594 19.2099 23.7633 19.2099 25.1203C19.2099 26.4773 18.106 27.5812 16.749 27.5812C15.392 27.5812 14.2881 26.4773 14.2881 25.1203ZM24.7788 34.3433L18.1875 30.6576C20.6553 30.0145 22.4912 27.7865 22.4912 25.1202C22.4912 22.2876 20.4241 19.9421 17.7223 19.4765L24.0964 14.9151C24.0484 16.0362 24.4402 17.1694 25.273 18.0021C26.8408 19.57 29.4697 19.6146 31.0736 18.0021C31.3365 17.7392 31.5504 17.4445 31.7289 17.1339L35.0655 25.1362C32.2737 23.6499 28.735 24.0487 26.3849 26.3988C24.2208 28.5692 23.7382 31.6974 24.7788 34.3433ZM34.5063 34.5186C32.9073 36.1176 30.3046 36.1176 28.7056 34.5186C27.1067 32.9197 27.1067 30.3177 28.7056 28.7187C30.3038 27.1205 32.9065 27.119 34.5063 28.7187C36.1069 30.3177 36.1126 32.9123 34.5063 34.5186Z" fill="#3C3C3C"/>
<path d="M33.3458 29.879C32.3862 28.9192 30.8249 28.9192 29.8651 29.879C28.9037 30.8405 28.9037 32.3974 29.8651 33.3589C30.8248 34.3194 32.3862 34.3178 33.3458 33.3589C34.3054 32.3994 34.3093 30.8425 33.3458 29.879ZM32.1857 32.1989C31.8653 32.5193 31.346 32.5193 31.0256 32.1989C30.7052 31.8785 30.7052 31.3592 31.0256 31.0388C31.346 30.7185 31.8653 30.7185 32.1857 31.0388C32.506 31.3592 32.506 31.8786 32.1857 32.1989Z" fill="#3C3C3C"/>
</g>
<defs>
<clipPath id="clip0">
<rect width="28" height="28" fill="white" transform="translate(11 11)"/>
</clipPath>
</defs>
</svg>
