<svg width="50" height="50" viewBox="0 0 50 50" fill="none" xmlns="http://www.w3.org/2000/svg">
<rect width="50" height="50" rx="6.46552" fill="#FBC22E"/>
<path d="M16.4896 20.5039C16.1902 21.0689 15.9486 21.6626 15.7686 22.2761L18.3077 22.3215L16.4896 20.5039Z" fill="#3C3C3C"/>
<path d="M15.6987 27.4714C15.8717 28.1275 16.1146 28.7632 16.4231 29.3675L18.3579 27.4326L15.6987 27.4714Z" fill="#3C3C3C"/>
<path d="M22.1935 34.2071L22.1965 31.2373L20.1318 33.302C20.7807 33.6844 21.4727 33.9882 22.1935 34.2071Z" fill="#3C3C3C"/>
<path d="M27.4517 15.6934L27.4263 18.3644L29.3679 16.423C28.7574 16.1113 28.1149 15.8667 27.4517 15.6934Z" fill="#3C3C3C"/>
<path d="M22.1982 15.791C21.5212 15.9961 20.8692 16.2762 20.2544 16.626L22.1697 18.5414L22.1982 15.791Z" fill="#3C3C3C"/>
<path d="M27.4748 34.3005C28.1764 34.1153 28.8544 33.8503 29.4956 33.5107L27.4331 31.4482L27.4748 34.3005Z" fill="#3C3C3C"/>
<path d="M34.2158 22.2235C33.9964 21.4921 33.6895 20.7898 33.302 20.1318L31.2285 22.2052L34.2158 22.2235Z" fill="#3C3C3C"/>
<path d="M33.3736 29.7456C33.7632 29.061 34.066 28.3307 34.2753 27.5713L31.2256 27.5979L33.3736 29.7456Z" fill="#3C3C3C"/>
<path d="M34.8995 15.1005C29.4322 9.63319 20.5679 9.63313 15.1005 15.1005C9.63319 20.5678 9.63313 29.4321 15.1005 34.8995C20.5678 40.3668 29.4321 40.3669 34.8995 34.8995C40.3668 29.4322 40.3668 20.5679 34.8995 15.1005ZM32.5222 32.5222C28.3678 36.6767 21.6322 36.6767 17.4778 32.5222C13.3234 28.3678 13.3234 21.6322 17.4778 17.4778C21.6322 13.3234 28.3678 13.3234 32.5222 17.4778C34.5173 19.4728 35.6381 22.1786 35.6381 25C35.6458 27.8229 34.5238 30.5316 32.5222 32.5222Z" fill="#3C3C3C"/>
<path d="M34.4609 23.2425V23.2425L30.005 23.2151C29.7241 23.2133 29.4978 22.9842 29.4996 22.7033C29.5004 22.5695 29.5539 22.4414 29.6486 22.3468L32.7282 19.2671C32.0515 18.3593 31.222 17.5761 30.2769 16.9526L27.2656 19.9638C27.067 20.1624 26.7449 20.1624 26.5463 19.9638C26.4498 19.8673 26.3961 19.7359 26.3974 19.5994L26.4362 15.4853C25.3676 15.3266 24.28 15.3464 23.2178 15.5438L23.1741 19.7626C23.1712 20.0435 22.9411 20.2688 22.6602 20.2659C22.5272 20.2645 22.4 20.211 22.3059 20.117L19.3792 17.1903C18.4618 17.8532 17.667 18.671 17.0303 19.6069L19.9171 22.4939C20.0635 22.6375 20.1066 22.8564 20.0256 23.0447C19.9451 23.2308 19.7605 23.3502 19.5577 23.3472H19.5489L15.5314 23.285C15.3442 24.3334 15.3298 25.4054 15.4888 26.4584L19.5965 26.3989H19.604C19.8845 26.3984 20.1122 26.6255 20.1126 26.906C20.1128 27.0411 20.0592 27.1707 19.9636 27.2662L16.9524 30.2771C17.5759 31.2223 18.3591 32.0518 19.2669 32.7285L22.3466 29.6488C22.5453 29.4502 22.8673 29.4502 23.0659 29.6489C23.1614 29.7444 23.2149 29.8739 23.2148 30.0089L23.2104 34.4552C24.2829 34.6556 25.3815 34.6745 26.4603 34.5113L26.3973 30.2098C26.3932 29.9289 26.6176 29.6979 26.8984 29.6938C27.0359 29.6918 27.1683 29.7455 27.2655 29.8427L30.3929 32.9701C31.3289 32.3335 32.1468 31.5386 32.8099 30.6211L29.6486 27.4598C29.4499 27.2613 29.4498 26.9392 29.6484 26.7405C29.7427 26.6461 29.8703 26.5926 30.0038 26.5915L34.4963 26.5522C34.6734 25.455 34.6614 24.3356 34.4609 23.2425ZM27.3308 27.3311C26.0435 28.6184 23.9564 28.6184 22.6691 27.3311C21.3818 26.0437 21.3818 23.9566 22.6691 22.6693C23.9564 21.382 26.0435 21.382 27.3308 22.6693C27.949 23.2875 28.2963 24.1259 28.2963 25.0002C28.2987 25.8749 27.951 26.7142 27.3308 27.3311Z" fill="#3C3C3C"/>
<path d="M25 22.7207C23.7412 22.7206 22.7208 23.7411 22.7207 24.9998C22.7206 26.2586 23.7411 27.2791 24.9998 27.2791C26.2586 27.2792 27.2791 26.2587 27.2791 25C27.2791 24.3955 27.039 23.8157 26.6115 23.3883C26.185 22.9594 25.6047 22.7191 25 22.7207Z" fill="#3C3C3C"/>
</svg>
