<svg width="50" height="50" viewBox="0 0 50 50" fill="none" xmlns="http://www.w3.org/2000/svg">
<rect width="50" height="50" rx="6.46552" fill="#FBC22E"/>
<path d="M38.9601 23.0046C38.7858 22.1996 38.0736 21.625 37.2499 21.625H27.6249H25V19.875H26.7499C27.7164 19.875 28.4999 19.0914 28.4999 18.125C28.4999 17.1586 27.7164 16.375 26.7499 16.375H19.75C18.7835 16.375 18 17.1586 18 18.125C18 19.0914 18.7835 19.875 19.75 19.875H21.5V21.625H18C17.3445 21.625 16.78 21.9897 16.4802 22.5233C16.404 22.5131 16.3288 22.5 16.25 22.5C13.3549 22.5 11 24.855 11 27.75C11 30.6449 13.355 32.9999 16.25 32.9999C16.3288 32.9999 16.404 32.9868 16.4802 32.9766C16.78 33.5102 17.3445 33.8749 18 33.8749H27.6249C28.5914 33.8749 29.375 33.0914 29.375 32.1249V28.8768L37.9741 24.9681C38.7239 24.6273 39.1345 23.8095 38.9601 23.0046ZM14.5 27.75C14.5 26.7849 15.2657 26 16.25 26V29.5C15.2657 29.5 14.5 28.7151 14.5 27.75Z" fill="#3C3C3C"/>
<path d="M34.7946 28.9826C34.4737 29.4197 32.875 31.6708 32.875 33.0794C32.875 34.4829 34.0525 35.625 35.5 35.625C36.9475 35.625 38.125 34.4829 38.125 33.0794C38.125 31.6708 36.5263 29.4197 36.2053 28.9826C35.8764 28.5331 35.1236 28.5331 34.7946 28.9826Z" fill="#3C3C3C"/>
</svg>
