<svg width="50" height="50" viewBox="0 0 50 50" fill="none" xmlns="http://www.w3.org/2000/svg">
<rect width="50" height="50" rx="6.46552" fill="#FBC22E"/>
<path d="M16.1096 29.0521L15.1375 28.0803L11.7498 31.4673L13.2016 32.9193C12.7188 33.0656 12.2764 33.3292 11.9098 33.6964C11.3228 34.2828 11 35.0632 11 35.8931C11 36.7233 11.3228 37.5032 11.9098 38.0902C12.4969 38.6773 13.2768 39.0001 14.1069 39.0001C14.9369 39.0001 15.7172 38.6773 16.3036 38.0902C16.6708 37.7237 16.9344 37.2812 17.0808 36.7985L18.5328 38.2502L21.9198 34.8626L20.948 33.8904L21.7713 33.0671L18.2061 26.9556L16.1096 29.0521Z" fill="#3C3C3C"/>
<path d="M19.4082 25.7538L22.9734 31.8653L24.1622 30.6765L20.597 24.5649L19.4082 25.7538Z" fill="#3C3C3C"/>
<path d="M21.7988 23.3631L25.3642 29.4747L26.5528 28.2859L22.9876 22.1743L21.7988 23.3631Z" fill="#3C3C3C"/>
<path d="M24.1895 20.9724L27.7548 27.0839L28.943 25.8957L25.3778 19.7842L24.1895 20.9724Z" fill="#3C3C3C"/>
<path d="M26.5801 18.5817L30.1452 24.6933L31.3334 23.5051L27.7682 17.3936L26.5801 18.5817Z" fill="#3C3C3C"/>
<path d="M37.2996 16.0823C37.579 15.9584 37.8405 15.783 38.0697 15.554C38.5689 15.0546 38.8182 14.3985 38.8182 13.7425C38.8182 13.0865 38.5689 12.4304 38.0697 11.9305C37.5856 11.4467 36.9422 11.1803 36.2578 11.1803C35.5731 11.1803 34.9303 11.4467 34.4462 11.9305C34.2172 12.1598 34.0418 12.4212 33.9179 12.7007L32.2173 11L28.8301 14.3876L29.8025 15.3594L28.9704 16.1913L32.5358 22.303L34.6408 20.1978L35.6126 21.1702L39.0002 17.783L37.2996 16.0823Z" fill="#3C3C3C"/>
<path d="M18.7385 24.6055L17.3184 25.4335L18.2064 26.9555L19.4082 25.7537L18.7385 24.6055Z" fill="#3C3C3C"/>
<path d="M22.4412 34.2153L23.8614 33.3867L22.9733 31.8652L21.7715 33.0671L22.4412 34.2153Z" fill="#3C3C3C"/>
<path d="M21.1289 22.2148L19.709 23.0435L20.5968 24.5649L21.7986 23.3631L21.1289 22.2148Z" fill="#3C3C3C"/>
<path d="M24.8318 31.8247L26.252 30.996L25.3642 29.4746L24.1621 30.6765L24.8318 31.8247Z" fill="#3C3C3C"/>
<path d="M23.5196 19.8237L22.0996 20.6526L22.9874 22.174L24.1893 20.972L23.5196 19.8237Z" fill="#3C3C3C"/>
<path d="M27.2227 29.4338L28.6426 28.6056L27.7548 27.0835L26.5527 28.2856L27.2227 29.4338Z" fill="#3C3C3C"/>
<path d="M25.9103 17.4331L24.4897 18.2617L25.3778 19.7838L26.5803 18.5813L25.9103 17.4331Z" fill="#3C3C3C"/>
<path d="M29.6126 27.0436L31.0332 26.2149L30.1454 24.6929L28.9429 25.8954L29.6126 27.0436Z" fill="#3C3C3C"/>
<path d="M28.3003 15.0435L26.8804 15.8715L27.7682 17.3935L28.97 16.1915L28.3003 15.0435Z" fill="#3C3C3C"/>
<path d="M32.0032 24.6533L33.4234 23.8246L32.5356 22.3032L31.3335 23.5051L32.0032 24.6533Z" fill="#3C3C3C"/>
</svg>
