<svg width="50" height="50" viewBox="0 0 50 50" fill="none" xmlns="http://www.w3.org/2000/svg">
<rect width="50" height="50" rx="6.46552" fill="#FBC22E"/>
<path fill-rule="evenodd" clip-rule="evenodd" d="M38.5335 25.0001C38.5335 32.4744 32.4744 38.5335 25.0001 38.5335C17.5259 38.5335 11.4668 32.4744 11.4668 25.0001C11.4668 17.5259 17.5259 11.4668 25.0001 11.4668C32.4744 11.4668 38.5335 17.5259 38.5335 25.0001ZM35.7333 24.9999C35.7333 30.9278 30.9278 35.7333 24.9999 35.7333C19.0721 35.7333 14.2666 30.9278 14.2666 24.9999C14.2666 19.0721 19.0721 14.2666 24.9999 14.2666C30.9278 14.2666 35.7333 19.0721 35.7333 24.9999Z" fill="#3C3C3C"/>
<path d="M17.3432 28.4592C15.4345 24.2283 17.317 19.2512 21.5479 17.3425C22.3296 16.9898 23.1607 16.7589 24.0124 16.6577L24.1206 17.5845C20.0231 18.0732 17.0976 21.791 17.5862 25.8886C17.6763 26.644 17.8812 27.3812 18.194 28.0747L17.3432 28.4592Z" fill="#4398D1"/>
<path d="M32.6563 28.4592L31.8061 28.0747C33.5021 24.3128 31.8274 19.8883 28.0655 18.1922C27.372 17.8796 26.6348 17.6746 25.8794 17.5845L25.9877 16.6577C30.5968 17.2056 33.889 21.3861 33.3411 25.9952C33.2399 26.8467 33.009 27.6776 32.6563 28.4592Z" fill="#DE4C3C"/>
<path d="M18.9333 31.0669C19.4488 31.0669 19.8667 30.649 19.8667 30.1335C19.8667 29.6181 19.4488 29.2002 18.9333 29.2002C18.4179 29.2002 18 29.6181 18 30.1335C18 30.649 18.4179 31.0669 18.9333 31.0669Z" fill="#3C3C3C"/>
<path d="M31.0666 31.0669C31.5821 31.0669 32 30.649 32 30.1335C32 29.6181 31.5821 29.2002 31.0666 29.2002C30.5512 29.2002 30.1333 29.6181 30.1333 30.1335C30.1333 30.649 30.5512 31.0669 31.0666 31.0669Z" fill="#3C3C3C"/>
<path d="M28.3772 24.3243L27.2889 24.616L25.9337 23.8334L27.2889 23.0508L28.3772 23.3424L28.6189 22.4413L27.7943 22.2201L28.0155 21.3955L27.1139 21.1542L26.8222 22.2425L25.467 23.0251V21.4599L26.2636 20.6633L25.6038 20.0034L25.0004 20.6068L24.397 20.0034L23.7371 20.6633L24.5337 21.4599V23.0251L23.1785 22.2425L22.8868 21.1542L21.9852 21.3955L22.2064 22.2201L21.3818 22.4413L21.6236 23.3424L22.7118 23.0508L24.067 23.8334L22.7118 24.616L21.6236 24.3243L21.3818 25.2254L22.2064 25.4466L21.9852 26.2712L22.8868 26.5125L23.1785 25.4242L24.5337 24.6416V26.2068L23.7371 27.0034L24.397 27.6633L25.0004 27.0599L25.6038 27.6633L26.2636 27.0034L25.467 26.2068V24.6416L26.8222 25.4242L27.1139 26.5125L28.0155 26.2712L27.7943 25.4466L28.6189 25.2254L28.3772 24.3243Z" fill="#4398D1"/>
<path d="M24.5337 11.4668H25.467V14.2668H24.5337V11.4668Z" fill="#585859"/>
<path d="M24.5337 35.7334H25.467V38.5334H24.5337V35.7334Z" fill="#585859"/>
<path d="M11.4668 24.5337H14.2668V25.467H11.4668V24.5337Z" fill="#585859"/>
<path d="M35.7334 24.5337H38.5334V25.467H35.7334V24.5337Z" fill="#585859"/>
<path d="M15.1006 15.7611L15.7606 15.1011L17.7402 17.0807L17.0802 17.7407L15.1006 15.7611Z" fill="#585859"/>
<path d="M32.2598 32.9173L32.9197 32.2573L34.8994 34.2369L34.2394 34.8969L32.2598 32.9173Z" fill="#585859"/>
<path d="M15.1011 34.2394L17.0807 32.2598L17.7407 32.9197L15.7611 34.8994L15.1011 34.2394Z" fill="#585859"/>
<path d="M32.2598 17.0802L34.2394 15.1006L34.8993 15.7606L32.9197 17.7402L32.2598 17.0802Z" fill="#585859"/>
<path d="M25 11C17.268 11 11 17.268 11 25C11 32.732 17.268 39 25 39C32.732 39 39 32.732 39 25C38.9913 17.2717 32.7283 11.0088 25 11ZM25.4667 11.945C28.6069 12.0554 31.6014 13.2976 33.8975 15.4427L32.5782 16.7619C30.6328 14.9659 28.1121 13.9202 25.4667 13.8117V11.945ZM24.5333 11.945V13.8117C21.8879 13.9202 19.3672 14.9659 17.4218 16.7619L16.1025 15.4427C18.3987 13.2976 21.3931 12.0554 24.5333 11.945ZM15.4427 16.1025L16.7619 17.4218C14.9659 19.3672 13.9202 21.8879 13.8117 24.5333H11.945C12.0554 21.3931 13.2976 18.3987 15.4427 16.1025ZM11.945 25.4667H13.8117C13.9202 28.1121 14.9659 30.6328 16.7619 32.5782L15.4427 33.8975C13.2976 31.6014 12.0554 28.6069 11.945 25.4667ZM24.5333 38.055C21.3928 37.944 18.3984 36.7008 16.1025 34.555L17.4218 33.2357C19.3669 35.0326 21.8876 36.0792 24.5333 36.1883V38.055ZM14.7333 25C14.7333 19.3299 19.3299 14.7333 25 14.7333C30.6701 14.7333 35.2667 19.3299 35.2667 25C35.2667 30.6701 30.6701 35.2667 25 35.2667C19.3326 35.2603 14.7397 30.6674 14.7333 25ZM25.4667 38.055V36.1883C28.1121 36.0798 30.6328 35.0341 32.5782 33.2381L33.8975 34.5573C31.6014 36.7024 28.6069 37.9446 25.4667 38.055ZM34.5573 33.8975L33.2381 32.5782C35.0341 30.6328 36.0798 28.1121 36.1883 25.4667H38.055C37.9446 28.6069 36.7024 31.6014 34.5573 33.8975ZM36.1883 24.5333C36.0798 21.8879 35.0341 19.3672 33.2381 17.4218L34.5573 16.1025C36.7024 18.3987 37.9446 21.3931 38.055 24.5333H36.1883Z" fill="#3C3C3C"/>
<path d="M25.9335 29.6665H24.0669C23.0359 29.6665 22.2002 30.5022 22.2002 31.5332C22.2002 32.5641 23.0359 33.3998 24.0669 33.3998H25.9335C26.9645 33.3998 27.8002 32.5641 27.8002 31.5332C27.8002 30.5022 26.9645 29.6665 25.9335 29.6665ZM25.9335 32.4665H24.0669C23.5514 32.4665 23.1335 32.0487 23.1335 31.5332C23.1335 31.0177 23.5514 30.5998 24.0669 30.5998H25.9335C26.449 30.5998 26.8669 31.0177 26.8669 31.5332C26.8669 32.0487 26.449 32.4665 25.9335 32.4665Z" fill="#3C3C3C"/>
<path d="M17.5334 25.0003C17.5311 21.2156 20.3623 18.0285 24.1208 17.5845L24.0126 16.6577C19.4035 17.2053 16.111 21.3857 16.6586 25.9948C16.7599 26.8464 16.9908 27.6775 17.3434 28.4592L18.1937 28.0747C17.7561 27.109 17.5309 26.0606 17.5334 25.0003Z" fill="#3C3C3C"/>
<path d="M32.4668 25.0003C32.4693 26.0606 32.2441 27.109 31.8065 28.0747L32.6568 28.4592C34.5655 24.2283 32.683 19.2512 28.4521 17.3425C27.6704 16.9898 26.8393 16.7589 25.9877 16.6577L25.8794 17.5845C29.6379 18.0285 32.4691 21.2156 32.4668 25.0003Z" fill="#3C3C3C"/>
<path d="M18.9332 28.7334C18.16 28.7334 17.5332 29.3602 17.5332 30.1334C17.5332 30.9066 18.16 31.5334 18.9332 31.5334C19.7064 31.5334 20.3332 30.9066 20.3332 30.1334C20.3332 29.3602 19.7064 28.7334 18.9332 28.7334ZM18.9332 30.6001C18.6755 30.6001 18.4665 30.3911 18.4665 30.1334C18.4665 29.8757 18.6755 29.6667 18.9332 29.6667C19.1909 29.6667 19.3999 29.8757 19.3999 30.1334C19.3999 30.3911 19.1909 30.6001 18.9332 30.6001Z" fill="#3C3C3C"/>
<path d="M31.0665 28.7334C30.2933 28.7334 29.6665 29.3602 29.6665 30.1334C29.6665 30.9066 30.2933 31.5334 31.0665 31.5334C31.8397 31.5334 32.4665 30.9066 32.4665 30.1334C32.4665 29.3602 31.8397 28.7334 31.0665 28.7334ZM31.0665 30.6001C30.8088 30.6001 30.5998 30.3911 30.5998 30.1334C30.5998 29.8757 30.8088 29.6667 31.0665 29.6667C31.3242 29.6667 31.5332 29.8757 31.5332 30.1334C31.5332 30.3911 31.3242 30.6001 31.0665 30.6001Z" fill="#3C3C3C"/>
<path d="M28.3772 23.3424L28.6189 22.4413L27.7943 22.2201L28.0155 21.3955L27.1139 21.1542L26.8222 22.2425L25.467 23.0251V21.4599L26.2636 20.6633L25.6038 20.0034L25.0004 20.6068L24.397 20.0034L23.7371 20.6633L24.5337 21.4599V23.0251L23.1785 22.2425L22.8868 21.1542L21.9852 21.3955L22.2064 22.2201L21.3818 22.4413L21.6236 23.3424L22.7118 23.0508L24.067 23.8334L22.7118 24.616L21.6236 24.3243L21.3818 25.2254L22.2064 25.4466L21.9852 26.2712L22.8868 26.5125L23.1785 25.4242L24.5337 24.6416V26.2068L23.7371 27.0034L24.397 27.6633L25.0004 27.0599L25.6038 27.6633L26.2636 27.0034L25.467 26.2068V24.6416L26.8222 25.4242L27.1139 26.5125L28.0155 26.2712L27.7943 25.4466L28.6189 25.2254L28.3772 24.3243L27.2889 24.616L25.9337 23.8334L27.2889 23.0508L28.3772 23.3424Z" fill="#3C3C3C"/>
</svg>
