<svg width="50" height="50" viewBox="0 0 50 50" fill="none" xmlns="http://www.w3.org/2000/svg">
<rect width="50" height="50" rx="6.46552" fill="#FBC22E"/>
<g clip-path="url(#clip0)">
<path fill-rule="evenodd" clip-rule="evenodd" d="M33.0746 15.4497C35.9537 17.2794 37.9479 20.121 38.6898 23.4508C39.4316 26.7805 38.8325 30.2 37.0027 33.0791C34.5719 36.903 30.4301 38.996 26.2031 38.9963C23.8606 38.9965 21.4925 38.354 19.3733 37.0072C15.9643 34.8408 13.7961 31.2048 13.4893 27.1954C13.2847 27.1774 13.0799 27.1334 12.8789 27.0622C11.9831 26.7448 11.365 25.9605 11.266 25.0153L11.0233 22.7004C10.8899 21.4271 11.3326 20.1776 12.2379 19.2724L19.268 12.2422C20.1734 11.337 21.4227 10.8943 22.6962 11.0278L25.011 11.2704C25.9562 11.3694 26.7406 11.9875 27.0579 12.8833C27.1291 13.084 27.1717 13.2887 27.1898 13.493C29.2734 13.6499 31.2968 14.32 33.0746 15.4497ZM26.2049 37.8327C30.0472 37.8328 33.8109 35.9305 36.0203 32.4548C37.6834 29.838 38.228 26.7302 37.5538 23.7039C36.8795 20.6776 35.0671 18.0951 32.4504 16.4321C30.8075 15.3881 28.9347 14.775 27.0085 14.646C26.9011 14.8994 26.7493 15.1367 26.5553 15.3476C28.4976 15.4083 30.4102 15.9901 32.0635 17.0407C37.1289 20.2606 38.6309 27.0016 35.4118 32.0677C33.8518 34.5218 31.4297 36.2215 28.5914 36.8538C27.7974 37.0307 26.997 37.1181 26.2029 37.1181C24.158 37.1182 22.1521 36.5389 20.3846 35.4154C18.6364 34.3042 17.249 32.7302 16.3728 30.8634C15.7368 29.5088 15.3885 28.0449 15.3421 26.5622C15.1318 26.7552 14.8951 26.9063 14.6426 27.0135C14.8948 30.6946 16.873 34.0392 19.9976 36.0249C21.9233 37.2487 24.0762 37.8326 26.2049 37.8327ZM15.3529 22.8612C15.7549 22.8612 16.1328 22.7047 16.417 22.4204C16.7012 22.1362 16.8577 21.7583 16.8577 21.3564C16.8577 20.9544 16.7011 20.5765 16.417 20.2923C16.1327 20.0081 15.7549 19.8516 15.3529 19.8516C14.9509 19.8516 14.573 20.0081 14.2888 20.2923C14.0046 20.5765 13.8481 20.9544 13.8481 21.3564C13.8481 21.7583 14.0046 22.1362 14.2888 22.4204C14.573 22.7047 14.9509 22.8612 15.3529 22.8612ZM15.112 21.1154C15.1763 21.051 15.2619 21.0156 15.353 21.0156C15.4439 21.0156 15.5296 21.051 15.594 21.1154C15.6584 21.1798 15.6938 21.2654 15.6938 21.3564C15.6938 21.4475 15.6584 21.533 15.594 21.5975C15.5296 21.6618 15.444 21.6973 15.353 21.6973C15.2619 21.6973 15.1764 21.6619 15.112 21.5975C15.0476 21.533 15.0121 21.4475 15.0121 21.3564C15.0121 21.2654 15.0475 21.1798 15.112 21.1154ZM22.4165 16.4209C22.1323 16.7052 21.7544 16.8617 21.3524 16.8617C20.9505 16.8617 20.5726 16.7051 20.2883 16.4209C20.0041 16.1367 19.8477 15.7588 19.8477 15.3569C19.8477 14.9549 20.0041 14.577 20.2883 14.2928C20.5725 14.0086 20.9504 13.8521 21.3524 13.8521C21.7544 13.8521 22.1322 14.0086 22.4165 14.2928C22.7006 14.577 22.8572 14.9549 22.8572 15.3569C22.8572 15.7588 22.7007 16.1367 22.4165 16.4209ZM21.3525 15.0161C21.2614 15.0161 21.1758 15.0515 21.1115 15.1159C21.0471 15.1803 21.0116 15.2659 21.0116 15.3569C21.0116 15.448 21.0471 15.5335 21.1115 15.5979C21.1759 15.6623 21.2614 15.6978 21.3525 15.6978C21.4435 15.6978 21.5291 15.6623 21.5935 15.5979C21.6579 15.5335 21.6933 15.448 21.6933 15.3569C21.6933 15.2659 21.6579 15.1803 21.5935 15.1159C21.5291 15.0515 21.4435 15.0161 21.3525 15.0161ZM24.0775 29.605C24.7272 30.0179 25.4644 30.2308 26.2159 30.2308C26.5078 30.2308 26.802 30.1986 27.0939 30.1336C28.1371 29.9012 29.0273 29.2764 29.6006 28.3744C30.1738 27.4724 30.3616 26.4012 30.1292 25.358C29.8967 24.3148 29.272 23.4246 28.3701 22.8513H28.37C26.508 21.6678 24.0303 22.22 22.8469 24.082C21.6635 25.9439 22.2155 28.4216 24.0775 29.605ZM23.8292 24.7062C24.3692 23.8566 25.2891 23.3917 26.2283 23.3917C26.7487 23.3917 27.275 23.5345 27.7457 23.8336C28.3853 24.2401 28.8283 24.8713 28.9931 25.6111C29.1579 26.3509 29.0248 27.1104 28.6182 27.75C28.2118 28.3896 27.5805 28.8327 26.8408 28.9975C26.1012 29.1623 25.3415 29.0292 24.7019 28.6227C23.3815 27.7835 22.9901 26.0266 23.8292 24.7062ZM26.2121 32.0733C25.1146 32.0733 24.0379 31.7623 23.0892 31.1594C20.37 29.4312 19.5638 25.8129 21.292 23.0936C23.0203 20.3744 26.6385 19.5681 29.3578 21.2964C30.6751 22.1337 31.5875 23.4337 31.9269 24.9571C32.2663 26.4806 31.9921 28.045 31.1549 29.3622C30.3178 30.6795 29.0177 31.5919 27.4943 31.9313C27.068 32.0263 26.6385 32.0733 26.2121 32.0733ZM26.231 21.55C24.682 21.55 23.1649 22.3168 22.2743 23.718C20.8904 25.8955 21.5359 28.7931 23.7134 30.1771C24.7684 30.8475 26.0213 31.0671 27.2411 30.7952C28.461 30.5234 29.5021 29.7928 30.1725 28.738C30.843 27.6831 31.0625 26.4303 30.7907 25.2104C30.5189 23.9905 29.7883 22.9493 28.7335 22.2789C27.9571 21.7855 27.0892 21.55 26.231 21.55Z" fill="#3C3C3C"/>
<path d="M32.509 22.1799C32.6292 22.1799 32.7496 22.143 32.8537 22.0667C33.1123 21.8759 33.1679 21.5119 32.9778 21.2526C32.7871 20.9939 32.423 20.9383 32.1637 21.1291C31.905 21.3192 31.8494 21.6832 32.0402 21.9425C32.154 22.0977 32.3306 22.1799 32.509 22.1799Z" fill="#FFC93D"/>
<path d="M33.9396 25.6306C33.9686 25.6306 33.9985 25.6286 34.0282 25.6241C34.3464 25.575 34.5643 25.2781 34.5151 24.9606C34.4666 24.6425 34.1691 24.4246 33.8516 24.4737C33.5341 24.5222 33.3162 24.8197 33.3647 25.1372C33.4093 25.4249 33.657 25.6306 33.9396 25.6306Z" fill="#FFC93D"/>
<path d="M24.715 33.294C24.4007 33.2261 24.091 33.4265 24.0238 33.7408C23.9565 34.0551 24.1563 34.3642 24.4705 34.4321C24.512 34.4405 24.5527 34.445 24.5934 34.445C24.8618 34.445 25.1036 34.2582 25.1618 33.9846C25.229 33.6703 25.0292 33.3612 24.715 33.294Z" fill="#FFC93D"/>
<path d="M28.1694 33.1843C27.8596 33.2709 27.6792 33.5923 27.7659 33.902C27.8383 34.1588 28.0717 34.3269 28.3258 34.3269C28.3783 34.3269 28.4306 34.3198 28.4836 34.3056C28.7927 34.2189 28.9738 33.8975 28.8864 33.5878C28.7998 33.2787 28.4791 33.0976 28.1694 33.1843Z" fill="#FFC93D"/>
<path d="M31.18 31.4846C30.9466 31.7051 30.9356 32.0737 31.1561 32.3078C31.2705 32.4288 31.4251 32.4902 31.5796 32.4902C31.7225 32.4902 31.8661 32.4378 31.9786 32.3318C32.2127 32.1112 32.2237 31.7433 32.0032 31.5092C31.7826 31.2751 31.414 31.2641 31.18 31.4846Z" fill="#FFC93D"/>
<path d="M21.6037 31.7825C21.3561 31.5775 20.9894 31.6112 20.7838 31.8588C20.5788 32.1059 20.6131 32.4732 20.8601 32.6781C20.9688 32.7687 21.1007 32.8126 21.2313 32.8126C21.3988 32.8126 21.5643 32.7409 21.6795 32.6025C21.885 32.3548 21.8508 31.9882 21.6037 31.7825Z" fill="#FFC93D"/>
<path d="M29.3734 19.7283C29.3766 19.7296 29.3799 19.7315 29.3825 19.7328C29.3832 19.7328 29.3832 19.7328 29.3832 19.7328C29.4646 19.7729 29.5513 19.7917 29.6367 19.7917C29.8526 19.7917 30.0602 19.6714 30.161 19.4638C30.3014 19.1748 30.1811 18.8269 29.8921 18.6859C29.8901 18.6852 29.8881 18.684 29.8862 18.6833C29.8849 18.6827 29.8843 18.6827 29.8836 18.682C29.594 18.5417 29.2461 18.6626 29.1058 18.9517C28.966 19.2401 29.0856 19.5873 29.3734 19.7283Z" fill="#FFC93D"/>
<path d="M18.7928 28.6864C18.496 28.8093 18.3557 29.1501 18.4786 29.4469C18.5717 29.6706 18.7883 29.8058 19.0165 29.8058C19.0909 29.8058 19.1666 29.7915 19.2396 29.7612C19.5358 29.6376 19.6768 29.2975 19.5539 29.0007C19.4304 28.7033 19.0896 28.5629 18.7928 28.6864Z" fill="#FFC93D"/>
<path d="M18.3958 26.111C18.4133 26.1129 18.4307 26.1136 18.4482 26.1136C18.7463 26.1136 19.0004 25.8859 19.0276 25.5833C19.056 25.2632 18.8194 24.9806 18.4993 24.9515C18.1792 24.9231 17.8967 25.1598 17.8681 25.4799C17.839 25.7999 18.0757 26.0825 18.3958 26.111Z" fill="#FFC93D"/>
<path d="M25.9756 19.0075C25.982 19.0075 25.9885 19.0075 25.995 19.0069C26.3164 18.9965 26.5686 18.7275 26.5576 18.4062C26.5472 18.0854 26.2788 17.8332 25.9575 17.8436C25.6361 17.8539 25.3839 18.1229 25.3949 18.4443C25.4046 18.7592 25.6632 19.0075 25.9756 19.0075Z" fill="#FFC93D"/>
<path d="M33.4142 29.3192C33.4769 29.3412 33.5409 29.3515 33.6042 29.3515C33.8454 29.3515 34.0712 29.2002 34.1539 28.9597C34.2593 28.6557 34.0983 28.324 33.7943 28.2192C33.4904 28.1138 33.1593 28.2755 33.0539 28.5794C32.9492 28.8827 33.1102 29.2144 33.4142 29.3192Z" fill="#FFC93D"/>
</g>
<defs>
<clipPath id="clip0">
<rect width="28" height="28" fill="white" transform="translate(11 11)"/>
</clipPath>
</defs>
</svg>
