<svg width="50" height="50" viewBox="0 0 50 50" fill="none" xmlns="http://www.w3.org/2000/svg">
<rect width="50" height="50" rx="6.46552" fill="#FBC22E"/>
<g clip-path="url(#clip0)">
<path d="M17.0342 21.409V23.2807C17.0342 23.4303 17.1559 23.5515 17.3055 23.5515H18.061C18.0779 23.4858 18.104 23.4241 18.1276 23.3613C18.1392 23.3304 18.1469 23.2981 18.1599 23.2681C18.2062 23.1619 18.2608 23.0605 18.3245 22.9649C18.339 22.9437 18.3568 22.9253 18.3718 22.9046C18.4244 22.8317 18.4804 22.7622 18.5427 22.6975C18.5712 22.668 18.6021 22.6425 18.632 22.6149C18.6875 22.5642 18.744 22.5159 18.8053 22.472C18.841 22.4459 18.8777 22.4223 18.9154 22.3991C18.9777 22.36 19.0419 22.3257 19.1085 22.2939C19.1486 22.2751 19.1877 22.2562 19.2287 22.2403C19.3026 22.2113 19.3788 22.1891 19.457 22.1688C19.4947 22.1596 19.5304 22.1471 19.5685 22.1398C19.6863 22.1176 19.8065 22.1031 19.9306 22.1031C20.0547 22.1031 20.1749 22.1176 20.2927 22.1398C20.3308 22.1471 20.3666 22.1596 20.4042 22.1688C20.4824 22.1891 20.5587 22.2113 20.6325 22.2403C20.6736 22.2562 20.7127 22.2751 20.7527 22.2939C20.8194 22.3258 20.8836 22.36 20.9458 22.3991C20.9835 22.4223 21.0202 22.4459 21.0559 22.472C21.1172 22.5159 21.1737 22.5642 21.2292 22.6149C21.2591 22.6424 21.29 22.668 21.3185 22.6975C21.3808 22.7622 21.4368 22.8317 21.4894 22.9046C21.5044 22.9254 21.5222 22.9437 21.5367 22.9649C21.6004 23.0605 21.655 23.1619 21.7013 23.2681C21.7144 23.298 21.7221 23.3304 21.7337 23.3613C21.7573 23.4241 21.7834 23.4859 21.8003 23.5515H25.7849C25.8018 23.4858 25.8279 23.4241 25.8516 23.3613C25.8632 23.3304 25.8709 23.2981 25.8839 23.2681C25.9302 23.1619 25.9848 23.0605 26.0485 22.9649C26.063 22.9437 26.0808 22.9253 26.0958 22.9046C26.1484 22.8317 26.2044 22.7622 26.2667 22.6975C26.2952 22.668 26.3261 22.6425 26.356 22.6149C26.4115 22.5642 26.468 22.5159 26.5293 22.472C26.565 22.4459 26.6017 22.4223 26.6394 22.3991C26.7017 22.36 26.7659 22.3257 26.8325 22.2939C26.8726 22.2751 26.9117 22.2562 26.9527 22.2403C27.0266 22.2113 27.1028 22.1891 27.181 22.1688C27.2187 22.1596 27.2544 22.1471 27.2925 22.1398C27.4103 22.1176 27.5305 22.1031 27.6546 22.1031C27.7787 22.1031 27.8989 22.1176 28.0167 22.1398C28.0548 22.1471 28.0906 22.1596 28.1282 22.1688C28.2064 22.1891 28.2827 22.2113 28.3565 22.2403C28.3975 22.2562 28.4366 22.2751 28.4767 22.2939C28.5433 22.3258 28.6075 22.36 28.6698 22.3991C28.7075 22.4223 28.7441 22.4459 28.7799 22.472C28.8412 22.5159 28.8977 22.5642 28.9532 22.6149C28.9831 22.6424 29.014 22.668 29.0425 22.6975C29.1048 22.7622 29.1608 22.8317 29.2134 22.9046C29.2284 22.9254 29.2462 22.9437 29.2607 22.9649C29.3244 23.0605 29.379 23.1619 29.4253 23.2681C29.4383 23.298 29.4461 23.3304 29.4576 23.3613C29.4813 23.4241 29.5073 23.4859 29.5242 23.5515H30.2797C30.4294 23.5515 30.551 23.4303 30.551 23.2807V21.409C30.551 21.2593 30.4294 21.1377 30.2797 21.1377H29.1028H18.4825H17.3055C17.1559 21.1377 17.0342 21.2593 17.0342 21.409Z" fill="#3C3C3C"/>
<path d="M26.6293 18.0224C26.5115 17.8573 26.3194 17.7588 26.1166 17.7588H24.2754V20.1726H28.165L26.6293 18.0224Z" fill="#3C3C3C"/>
<path d="M23.31 17.7588H21.4693C21.266 17.7588 21.0739 17.8573 20.9561 18.0224L19.4204 20.1726H23.31V17.7588H23.31Z" fill="#3C3C3C"/>
<path d="M19.9308 23.0688C19.3983 23.0688 18.9653 23.5019 18.9653 24.0343C18.9653 24.5668 19.3983 24.9999 19.9308 24.9999C20.4633 24.9999 20.8963 24.5668 20.8963 24.0343C20.8963 23.5019 20.4633 23.0688 19.9308 23.0688Z" fill="#3C3C3C"/>
<path d="M27.655 23.0688C27.1225 23.0688 26.6895 23.5019 26.6895 24.0343C26.6895 24.5668 27.1225 24.9999 27.655 24.9999C28.1874 24.9999 28.6205 24.5668 28.6205 24.0343C28.6205 23.5019 28.1874 23.0688 27.655 23.0688Z" fill="#3C3C3C"/>
<path d="M27.1722 11H20.4136V13.4138V13.8966H27.1717L27.1722 11Z" fill="#3C3C3C"/>
<path d="M33.9308 13.8966V25.7521C34.6216 25.9438 35.2699 26.2344 35.8618 26.609V12.4483C35.8618 11.6498 35.212 11 34.4135 11H28.1377V12.931H32.9653C33.4977 12.931 33.9308 13.3641 33.9308 13.8966Z" fill="#3C3C3C"/>
<path d="M26.2203 37.0688H14.6207C14.0882 37.0688 13.6552 36.6358 13.6552 36.1033V13.8966C13.6552 13.3641 14.0882 12.9311 14.6207 12.9311H19.4482V11H13.1724C12.3734 11 11.7241 11.6498 11.7241 12.4483V37.5516C11.7241 38.35 12.3734 38.9998 13.1724 38.9998H28.4024C27.5503 38.5093 26.8093 37.8504 26.2203 37.0688Z" fill="#3C3C3C"/>
<path d="M14.6206 13.8965V36.1033H25.5999C25.065 35.0938 24.7585 33.9444 24.7585 32.724C24.7585 28.7311 28.007 25.4826 31.9999 25.4826C32.3281 25.4826 32.6487 25.5121 32.9654 25.555V13.8965H28.1378C28.1378 14.429 27.7043 14.862 27.1723 14.862H20.4137C19.8812 14.862 19.4482 14.429 19.4482 13.8965H14.6206ZM23.793 34.1722H16.5517C16.2847 34.1722 16.0689 33.9564 16.0689 33.6894C16.0689 33.4224 16.2847 33.2066 16.5517 33.2066H23.793C24.06 33.2066 24.2758 33.4224 24.2758 33.6894C24.2758 33.9564 24.0599 34.1722 23.793 34.1722ZM23.793 31.7584H16.5517C16.2847 31.7584 16.0689 31.5426 16.0689 31.2756C16.0689 31.0087 16.2847 30.7929 16.5517 30.7929H23.793C24.06 30.7929 24.2758 31.0087 24.2758 31.2756C24.2757 31.5426 24.0599 31.7584 23.793 31.7584ZM23.793 29.3447H16.5517C16.2847 29.3447 16.0689 29.1289 16.0689 28.8619C16.0689 28.5949 16.2847 28.3791 16.5517 28.3791H23.793C24.06 28.3791 24.2758 28.5949 24.2758 28.8619C24.2757 29.1289 24.0599 29.3447 23.793 29.3447ZM20.1709 17.4612C20.4697 17.0431 20.9549 16.793 21.469 16.793H26.1165C26.6311 16.793 27.1162 17.0431 27.4151 17.4612L29.3514 20.1723H30.2802C30.9623 20.1723 31.517 20.7275 31.517 21.4091V23.2808C31.517 23.9625 30.9623 24.5171 30.2802 24.5171H29.5175C29.3017 25.3479 28.5525 25.9654 27.655 25.9654C26.7575 25.9654 26.0083 25.348 25.7925 24.5171H21.7934C21.5776 25.3479 20.8284 25.9654 19.9309 25.9654C19.0335 25.9654 18.2842 25.348 18.0684 24.5171H17.3052C16.6235 24.5171 16.0689 23.9624 16.0689 23.2808V21.4091C16.0689 20.7275 16.6236 20.1723 17.3052 20.1723H18.2345L20.1709 17.4612Z" fill="#3C3C3C"/>
<path d="M31.9995 26.4482C28.5391 26.4482 25.7236 29.2636 25.7236 32.7241C25.7236 36.1845 28.539 38.9999 31.9995 38.9999C35.4604 38.9999 38.2753 36.1845 38.2753 32.7241C38.2753 29.2637 35.4604 26.4482 31.9995 26.4482ZM35.2924 30.586L32.2925 34.8965C32.2153 35.0066 32.0955 35.0804 31.9623 35.0988C31.9401 35.1017 31.9179 35.1031 31.8962 35.1031C31.7852 35.1031 31.6765 35.065 31.5901 34.9936L29.2796 33.0968C29.0735 32.9283 29.0435 32.6237 29.2125 32.4176C29.382 32.2124 29.6861 32.182 29.8917 32.351L31.7986 33.9156L34.4996 30.0342C34.6521 29.815 34.9524 29.7605 35.1716 29.914C35.3908 30.0665 35.4444 30.3673 35.2924 30.586Z" fill="#3C3C3C"/>
</g>
<defs>
<clipPath id="clip0">
<rect width="28" height="28" fill="white" transform="translate(11 11)"/>
</clipPath>
</defs>
</svg>
