<svg width="22" height="22" viewBox="0 0 22 22" fill="none" xmlns="http://www.w3.org/2000/svg">
<g clip-path="url(#clip0)">
<path d="M1.93357 9.71098C1.57791 9.71098 1.28905 9.42212 1.28905 9.06646C1.28905 8.71029 1.00069 8.42193 0.644525 8.42193C0.288358 8.42193 0 8.71029 0 9.06646C0 10.1326 0.867423 11 1.93357 11C2.99973 11 3.86715 10.1326 3.86715 9.06646C3.86715 8.22622 3.32837 7.50936 2.5781 7.24299V5.84383H3.86715V2.62121C3.86715 2.26504 3.57879 1.97668 3.22262 1.97668H0.644525C0.288358 1.97668 0 2.26504 0 2.62121V5.19931C0 5.55548 0.288358 5.84383 0.644525 5.84383H1.28905V7.77741C1.28905 8.13357 1.57741 8.42193 1.93357 8.42193C2.28924 8.42193 2.5781 8.71079 2.5781 9.06646C2.5781 9.42212 2.28924 9.71098 1.93357 9.71098Z" fill="#FFBA05"/>
<path d="M17.4853 17.4453C16.7747 17.4453 16.1963 18.0237 16.1963 18.7344C16.1963 19.445 16.7747 20.0234 17.4853 20.0234C18.196 20.0234 18.7744 19.445 18.7744 18.7344C18.7744 18.0237 18.196 17.4453 17.4853 17.4453Z" fill="#FFBA05"/>
<path d="M4.51073 17.4453C3.80007 17.4453 3.22168 18.0237 3.22168 18.7344C3.22168 19.445 3.80007 20.0234 4.51073 20.0234C5.22138 20.0234 5.79978 19.445 5.79978 18.7344C5.79978 18.0237 5.22138 17.4453 4.51073 17.4453Z" fill="#FFBA05"/>
<path d="M7.09081 17.4453C6.38015 17.4453 5.80176 18.0237 5.80176 18.7344C5.80176 19.445 6.38015 20.0234 7.09081 20.0234C7.80146 20.0234 8.37986 19.445 8.37986 18.7344C8.37986 18.0237 7.80146 17.4453 7.09081 17.4453Z" fill="#FFBA05"/>
<path d="M18.7753 13.5783H21.998V12.2892H16.1972C15.8411 12.2892 15.5527 12.0009 15.5527 11.6447V5.84399H14.9082C14.5522 5.84399 14.2637 6.13252 14.2637 6.48852V18.7345H14.9082C14.9082 17.3127 16.0645 16.1564 17.4863 16.1564C18.9081 16.1564 20.0644 17.3127 20.0644 18.7345H21.3534C21.7094 18.7345 21.998 18.446 21.998 18.09V14.8673H18.7753C18.4192 14.8673 18.1308 14.579 18.1308 14.2228C18.1308 13.8666 18.4192 13.5783 18.7753 13.5783Z" fill="#FFBA05"/>
<path d="M16.8438 11.0002H21.7539L19.3539 6.20016C19.2446 5.98196 19.0215 5.84399 18.7775 5.84399H16.8438V11.0002Z" fill="#FFBA05"/>
<path d="M9.02334 13.5782H0.644525C0.288525 13.5782 0 13.8668 0 14.2228V18.0899C0 18.4459 0.288525 18.7344 0.644525 18.7344H1.93357C1.93357 17.3126 3.08986 16.1563 4.51167 16.1563C4.98332 16.1563 5.42005 16.2928 5.80072 16.5148C6.18139 16.2928 6.61813 16.1563 7.08977 16.1563C8.51159 16.1563 9.66787 17.3126 9.66787 18.7344H12.9764V12.2892H9.02334V13.5782Z" fill="#FFBA05"/>
<path d="M16.1967 3.2655C15.3575 3.2655 14.6489 3.80596 14.3818 4.55455H18.0117C17.7446 3.80596 17.036 3.2655 16.1967 3.2655Z" fill="#FFBA05"/>
<path d="M5.15527 8.04432L8.11102 11.0001H12.9755V9.06684L5.15527 3.26611V8.04432Z" fill="#FFBA05"/>
</g>
<defs>
<clipPath id="clip0">
<rect width="21.9998" height="21.9998" fill="white" transform="translate(0 0.00012207)"/>
</clipPath>
</defs>
</svg>
