<svg width="75" height="75" viewBox="0 0 75 75" fill="none" xmlns="http://www.w3.org/2000/svg">
<rect width="75" height="75" rx="6.46552" fill="#FBC22E"/>
<g clip-path="url(#clip0)">
<path fill-rule="evenodd" clip-rule="evenodd" d="M49.6119 23.1744C53.9305 25.9189 56.9219 30.1812 58.0347 35.176C59.1475 40.1706 58.2488 45.2997 55.504 49.6184C51.8579 55.3543 45.6452 58.4938 39.3046 58.4943C35.7909 58.4946 32.2387 57.5308 29.06 55.5106C23.9465 52.261 20.6942 46.8069 20.2339 40.7929C19.9271 40.7658 19.6198 40.6999 19.3184 40.5931C17.9747 40.117 17.0476 38.9404 16.899 37.5226L16.535 34.0504C16.3349 32.1403 16.999 30.2662 18.3568 28.9083L28.902 18.3631C30.2601 17.0052 32.1341 16.3412 34.0442 16.5414L37.5164 16.9053C38.9343 17.0538 40.1108 17.9809 40.5869 19.3247C40.6936 19.6258 40.7575 19.9328 40.7847 20.2392C43.9101 20.4746 46.9452 21.4797 49.6119 23.1744ZM39.3074 56.7488C45.0708 56.749 50.7163 53.8955 54.0305 48.6819C56.525 44.7568 57.3419 40.0951 56.3307 35.5556C55.3193 31.0161 52.6006 27.1424 48.6756 24.6479C46.2113 23.0818 43.4021 22.1623 40.5128 21.9687C40.3516 22.3489 40.1239 22.7048 39.8329 23.0212C42.7464 23.1122 45.6152 23.9849 48.0952 25.5608C55.6933 30.3906 57.9463 40.5022 53.1177 48.1014C50.7777 51.7825 47.1445 54.332 42.8871 55.2804C41.6962 55.5457 40.4955 55.677 39.3044 55.677C36.237 55.6771 33.2282 54.8082 30.5769 53.1228C27.9545 51.456 25.8735 49.095 24.5591 46.2948C23.6053 44.2629 23.0827 42.0671 23.0132 39.843C22.6977 40.1325 22.3426 40.3592 21.9639 40.52C22.3422 46.0417 25.3095 51.0585 29.9964 54.037C32.8849 55.8728 36.1143 56.7487 39.3074 56.7488ZM23.0291 34.2916C23.632 34.2916 24.1989 34.0568 24.6252 33.6304C25.0516 33.204 25.2862 32.6373 25.2862 32.0343C25.2862 31.4314 25.0514 30.8645 24.6252 30.4382C24.1988 30.0119 23.632 29.7771 23.0291 29.7771C22.4261 29.7771 21.8592 30.0119 21.433 30.4382C21.0067 30.8645 20.772 31.4314 20.772 32.0343C20.772 32.6373 21.0067 33.2041 21.433 33.6304C21.8593 34.0568 22.4261 34.2916 23.0291 34.2916ZM22.6677 31.6728C22.7642 31.5763 22.8925 31.5231 23.0292 31.5231C23.1657 31.5231 23.2941 31.5763 23.3907 31.6729C23.4873 31.7695 23.5405 31.8979 23.5405 32.0344C23.5405 32.171 23.4873 32.2993 23.3907 32.3959C23.2942 32.4924 23.1658 32.5457 23.0292 32.5457C22.8926 32.5457 22.7643 32.4925 22.6677 32.3959C22.5711 32.2993 22.5179 32.171 22.5179 32.0344C22.5179 31.8979 22.571 31.7694 22.6677 31.6728ZM33.6247 24.6312C33.1984 25.0576 32.6316 25.2923 32.0286 25.2923C31.4257 25.2923 30.8588 25.0575 30.4325 24.6312C30.0062 24.2049 29.7715 23.638 29.7715 23.0351C29.7715 22.4321 30.0062 21.8653 30.4325 21.439C30.8587 21.0127 31.4256 20.7778 32.0286 20.7778C32.6316 20.7778 33.1983 21.0127 33.6247 21.439C34.0509 21.8653 34.2857 22.4321 34.2857 23.0351C34.2857 23.638 34.0511 24.2048 33.6247 24.6312ZM32.0287 22.5239C31.892 22.5239 31.7637 22.577 31.6672 22.6736C31.5706 22.7702 31.5174 22.8986 31.5174 23.0352C31.5174 23.1717 31.5706 23.3001 31.6672 23.3967C31.7638 23.4933 31.8921 23.5464 32.0287 23.5464C32.1653 23.5464 32.2937 23.4932 32.3902 23.3967C32.4868 23.3001 32.54 23.1717 32.54 23.0352C32.54 22.8986 32.4868 22.7703 32.3902 22.6736C32.2936 22.577 32.1652 22.5239 32.0287 22.5239ZM36.1157 44.4073C37.0903 45.0266 38.1961 45.3459 39.3233 45.3459C39.7613 45.3459 40.2025 45.2977 40.6404 45.2001C42.2051 44.8515 43.5404 43.9143 44.4004 42.5614C45.2603 41.2084 45.5419 39.6015 45.1933 38.0368C44.8446 36.472 43.9075 35.1366 42.5546 34.2768H42.5545C39.7615 32.5014 36.0449 33.3298 34.2699 36.1227C32.4947 38.9156 33.3228 42.6321 36.1157 44.4073ZM35.7434 37.0591C36.5534 35.7847 37.9332 35.0873 39.342 35.0873C40.1225 35.0873 40.9121 35.3014 41.618 35.7501C42.5775 36.3599 43.2419 37.3068 43.4892 38.4164C43.7364 39.5261 43.5367 40.6654 42.9269 41.6248C42.3172 42.5842 41.3703 43.2487 40.2607 43.496C39.1513 43.7432 38.0117 43.5435 37.0523 42.9338C35.0717 41.675 34.4846 39.0396 35.7434 37.0591ZM39.3186 48.1096C37.6723 48.1096 36.0573 47.6433 34.6343 46.7389C30.5554 44.1465 29.3462 38.7191 31.9385 34.6402C34.531 30.5613 39.9583 29.352 44.0372 31.9444C46.0131 33.2003 47.3817 35.1503 47.8908 37.4355C48.3999 39.7206 47.9887 42.0673 46.7328 44.0431C45.4771 46.0191 43.5271 47.3876 41.2419 47.8967C40.6025 48.0392 39.9582 48.1096 39.3186 48.1096ZM39.347 32.3248C37.0235 32.3248 34.7479 33.475 33.412 35.5768C31.3361 38.8431 32.3044 43.1894 35.5706 45.2654C37.1531 46.2711 39.0324 46.6004 40.8621 46.1926C42.692 45.7849 44.2537 44.689 45.2593 43.1067C46.265 41.5244 46.5942 39.6452 46.1866 37.8153C45.7789 35.9854 44.683 34.4238 43.1007 33.4181C41.9361 32.678 40.6342 32.3248 39.347 32.3248Z" fill="#3C3C3C"/>
<path d="M48.764 33.2698C48.9443 33.2698 49.1248 33.2145 49.281 33.1C49.669 32.8139 49.7523 32.2678 49.4672 31.8788C49.1811 31.4909 48.635 31.4074 48.246 31.6936C47.858 31.9787 47.7746 32.5248 48.0608 32.9138C48.2315 33.1466 48.4964 33.2698 48.764 33.2698Z" fill="#FFC93D"/>
<path d="M50.9097 38.4459C50.9532 38.4459 50.9979 38.4429 51.0425 38.4362C51.5198 38.3624 51.8467 37.9172 51.7728 37.441C51.7001 36.9637 51.2539 36.6369 50.7776 36.7106C50.3014 36.7833 49.9745 37.2295 50.0472 37.7058C50.1143 38.1374 50.4858 38.4459 50.9097 38.4459Z" fill="#FFC93D"/>
<path d="M37.072 49.941C36.6006 49.8391 36.1359 50.1398 36.0352 50.6112C35.9343 51.0827 36.234 51.5463 36.7053 51.6482C36.7675 51.6608 36.8286 51.6676 36.8896 51.6676C37.2921 51.6676 37.6549 51.3872 37.7422 50.9769C37.8431 50.5055 37.5434 50.0418 37.072 49.941Z" fill="#FFC93D"/>
<path d="M42.2531 49.7764C41.7884 49.9064 41.5178 50.3885 41.6478 50.8531C41.7564 51.2381 42.1066 51.4903 42.4878 51.4903C42.5665 51.4903 42.6449 51.4797 42.7245 51.4583C43.1881 51.3284 43.4597 50.8463 43.3287 50.3817C43.1988 49.918 42.7177 49.6464 42.2531 49.7764Z" fill="#FFC93D"/>
<path d="M46.7698 47.2269C46.4196 47.5577 46.4031 48.1106 46.7339 48.4617C46.9056 48.6431 47.1374 48.7353 47.3692 48.7353C47.5836 48.7353 47.7989 48.6567 47.9677 48.4976C48.3188 48.1669 48.3353 47.6149 48.0045 47.2638C47.6737 46.9127 47.1208 46.8962 46.7698 47.2269Z" fill="#FFC93D"/>
<path d="M32.4054 47.6738C32.034 47.3663 31.4839 47.4168 31.1754 47.7883C30.8679 48.1588 30.9194 48.7097 31.2899 49.0172C31.4529 49.153 31.6508 49.219 31.8467 49.219C32.0979 49.219 32.3462 49.1113 32.519 48.9037C32.8273 48.5322 32.7759 47.9822 32.4054 47.6738Z" fill="#FFC93D"/>
<path d="M44.0594 29.5924C44.0642 29.5944 44.0691 29.5973 44.073 29.5992C44.074 29.5992 44.074 29.5992 44.074 29.5992C44.1962 29.6594 44.3262 29.6875 44.4543 29.6875C44.7782 29.6875 45.0896 29.5071 45.2408 29.1957C45.4513 28.7621 45.271 28.2403 44.8374 28.0288C44.8345 28.0279 44.8315 28.0259 44.8286 28.025C44.8266 28.024 44.8258 28.024 44.8247 28.023C44.3902 27.8125 43.8684 27.9939 43.6579 28.4275C43.4483 28.8601 43.6277 29.381 44.0594 29.5924Z" fill="#FFC93D"/>
<path d="M28.1885 43.0297C27.7433 43.214 27.5328 43.7251 27.7172 44.1703C27.8567 44.5059 28.1817 44.7087 28.5241 44.7087C28.6356 44.7087 28.7491 44.6873 28.8587 44.6417C29.303 44.4565 29.5144 43.9463 29.3301 43.5011C29.1449 43.0549 28.6337 42.8444 28.1885 43.0297Z" fill="#FFC93D"/>
<path d="M27.594 39.1665C27.6201 39.1694 27.6463 39.1704 27.6725 39.1704C28.1197 39.1704 28.5009 38.8289 28.5416 38.375C28.5843 37.8948 28.2293 37.471 27.7491 37.4273C27.269 37.3846 26.8452 37.7396 26.8025 38.2198C26.7588 38.6999 27.1138 39.1238 27.594 39.1665Z" fill="#FFC93D"/>
<path d="M38.9634 28.5113C38.9731 28.5113 38.9828 28.5113 38.9925 28.5103C39.4745 28.4948 39.8528 28.0913 39.8363 27.6092C39.8208 27.1281 39.4182 26.7498 38.9362 26.7654C38.4541 26.7809 38.0758 27.1844 38.0923 27.6665C38.1069 28.1388 38.4949 28.5113 38.9634 28.5113Z" fill="#FFC93D"/>
<path d="M50.1215 43.9788C50.2156 44.0118 50.3116 44.0273 50.4066 44.0273C50.7684 44.0273 51.107 43.8003 51.2311 43.4395C51.3892 42.9836 51.1477 42.486 50.6917 42.3289C50.2359 42.1708 49.7392 42.4133 49.5811 42.8691C49.4241 43.3241 49.6656 43.8217 50.1215 43.9788Z" fill="#FFC93D"/>
</g>
<defs>
<clipPath id="clip0">
<rect width="42" height="42" fill="white" transform="translate(16.5 16.5)"/>
</clipPath>
</defs>
</svg>
