<svg width="75" height="75" viewBox="0 0 75 75" fill="none" xmlns="http://www.w3.org/2000/svg">
<rect width="75" height="75" rx="9.69828" fill="#FBC22E"/>
<path d="M38 55.7188C33.6684 55.7092 29.4901 54.1149 26.2531 51.2366L19.625 54.1766V56.375H56.375V54.1766L49.7469 51.2366C46.5099 54.1149 42.3316 55.7092 38 55.7188Z" fill="#3C3C3C"/>
<path d="M21.5938 43.25C22.6811 43.25 23.5625 42.6624 23.5625 41.9375C23.5625 41.2126 22.6811 40.625 21.5938 40.625C20.5064 40.625 19.625 41.2126 19.625 41.9375C19.625 42.6624 20.5064 43.25 21.5938 43.25Z" fill="#3C3C3C"/>
<path d="M38 40.625C39.4497 40.625 40.625 39.4497 40.625 38C40.625 36.5503 39.4497 35.375 38 35.375C36.5503 35.375 35.375 36.5503 35.375 38C35.375 39.4497 36.5503 40.625 38 40.625Z" fill="#3C3C3C"/>
<path d="M21.5938 39.3125C22.2346 39.3064 22.8666 39.4621 23.4313 39.7654C23.5129 39.6281 23.5581 39.4722 23.5625 39.3125C23.5519 39.1549 23.5077 39.0014 23.4331 38.8622C23.3584 38.723 23.2548 38.6013 23.1294 38.5054C22.6789 38.1913 22.1429 38.0229 21.5938 38.0229C21.0446 38.0229 20.5086 38.1913 20.0581 38.5054C19.9327 38.6013 19.8291 38.723 19.7544 38.8622C19.6798 39.0014 19.6356 39.1549 19.625 39.3125C19.6294 39.4722 19.6746 39.6281 19.7562 39.7654C20.3209 39.4621 20.9529 39.3064 21.5938 39.3125Z" fill="#3C3C3C"/>
<path d="M30.7812 38.6562C31.1437 38.6562 31.4375 38.3624 31.4375 38C31.4375 37.6376 31.1437 37.3438 30.7812 37.3438C30.4188 37.3438 30.125 37.6376 30.125 38C30.125 38.3624 30.4188 38.6562 30.7812 38.6562Z" fill="#3C3C3C"/>
<path d="M55.9419 35.8804C55.4914 35.5663 54.9554 35.3979 54.4062 35.3979C53.8571 35.3979 53.3211 35.5663 52.8706 35.8804C52.7452 35.9763 52.6416 36.098 52.5669 36.2372C52.4923 36.3764 52.4481 36.5299 52.4375 36.6875C52.4419 36.8472 52.4871 37.0031 52.5688 37.1404C53.1356 36.8429 53.7661 36.6875 54.4062 36.6875C55.0464 36.6875 55.6769 36.8429 56.2437 37.1404C56.3254 37.0031 56.3706 36.8472 56.375 36.6875C56.3644 36.5299 56.3202 36.3764 56.2456 36.2372C56.1709 36.098 56.0673 35.9763 55.9419 35.8804Z" fill="#3C3C3C"/>
<path d="M52.4375 34.0625C52.4419 34.2222 52.4871 34.378 52.5688 34.5153C53.1356 34.2179 53.7661 34.0625 54.4062 34.0625C55.0464 34.0625 55.6769 34.2179 56.2437 34.5153C56.3254 34.378 56.3706 34.2222 56.375 34.0625C56.375 33.3537 55.4759 32.75 54.4062 32.75C53.3366 32.75 52.4375 33.3537 52.4375 34.0625Z" fill="#3C3C3C"/>
<path d="M41.2812 32.0938C41.6437 32.0938 41.9375 31.7999 41.9375 31.4375C41.9375 31.0751 41.6437 30.7812 41.2812 30.7812C40.9188 30.7812 40.625 31.0751 40.625 31.4375C40.625 31.7999 40.9188 32.0938 41.2812 32.0938Z" fill="#3C3C3C"/>
<path d="M54.4062 43.25C55.4936 43.25 56.375 42.6624 56.375 41.9375C56.375 41.2126 55.4936 40.625 54.4062 40.625C53.3189 40.625 52.4375 41.2126 52.4375 41.9375C52.4375 42.6624 53.3189 43.25 54.4062 43.25Z" fill="#3C3C3C"/>
<path d="M34.0625 32.0938C34.4249 32.0938 34.7188 31.7999 34.7188 31.4375C34.7188 31.0751 34.4249 30.7812 34.0625 30.7812C33.7001 30.7812 33.4062 31.0751 33.4062 31.4375C33.4062 31.7999 33.7001 32.0938 34.0625 32.0938Z" fill="#3C3C3C"/>
<path d="M34.0625 45.2188C34.4249 45.2188 34.7188 44.9249 34.7188 44.5625C34.7188 44.2001 34.4249 43.9062 34.0625 43.9062C33.7001 43.9062 33.4062 44.2001 33.4062 44.5625C33.4062 44.9249 33.7001 45.2188 34.0625 45.2188Z" fill="#3C3C3C"/>
<path d="M38 26.8438C35.7935 26.8438 33.6366 27.4981 31.8019 28.7239C29.9673 29.9498 28.5374 31.6921 27.693 33.7307C26.8486 35.7692 26.6277 38.0124 27.0581 40.1765C27.4886 42.3406 28.5511 44.3284 30.1113 45.8887C31.6716 47.4489 33.6594 48.5114 35.8235 48.9419C37.9876 49.3724 40.2308 49.1514 42.2693 48.307C44.3079 47.4626 46.0502 46.0327 47.2761 44.1981C48.5019 42.3634 49.1563 40.2065 49.1563 38C49.1521 35.0425 47.9754 32.2072 45.8841 30.1159C43.7928 28.0246 40.9575 26.8479 38 26.8438ZM41.2813 29.4687C41.6706 29.4687 42.0513 29.5842 42.375 29.8005C42.6988 30.0169 42.9511 30.3243 43.1001 30.6841C43.2492 31.0438 43.2881 31.4397 43.2122 31.8216C43.1362 32.2035 42.9487 32.5543 42.6734 32.8296C42.398 33.105 42.0472 33.2925 41.6653 33.3684C41.2834 33.4444 40.8876 33.4054 40.5278 33.2564C40.1681 33.1074 39.8606 32.855 39.6443 32.5313C39.428 32.2075 39.3125 31.8269 39.3125 31.4375C39.3125 30.9154 39.5199 30.4146 39.8891 30.0454C40.2584 29.6762 40.7591 29.4687 41.2813 29.4687ZM34.0625 29.4687C34.4519 29.4687 34.8325 29.5842 35.1563 29.8005C35.48 30.0169 35.7324 30.3243 35.8814 30.6841C36.0304 31.0438 36.0694 31.4397 35.9934 31.8216C35.9175 32.2035 35.73 32.5543 35.4546 32.8296C35.1793 33.105 34.8285 33.2925 34.4466 33.3684C34.0647 33.4444 33.6688 33.4054 33.3091 33.2564C32.9494 33.1074 32.6419 32.855 32.4255 32.5313C32.2092 32.2075 32.0938 31.8269 32.0938 31.4375C32.0938 30.9154 32.3012 30.4146 32.6704 30.0454C33.0396 29.6762 33.5404 29.4687 34.0625 29.4687ZM28.8125 38C28.8125 37.6106 28.928 37.23 29.1443 36.9062C29.3606 36.5825 29.6681 36.3301 30.0278 36.1811C30.3876 36.0321 30.7834 35.9931 31.1653 36.0691C31.5472 36.145 31.898 36.3325 32.1734 36.6079C32.4487 36.8832 32.6362 37.234 32.7122 37.6159C32.7881 37.9978 32.7492 38.3937 32.6001 38.7534C32.4511 39.1131 32.1988 39.4206 31.875 39.637C31.5513 39.8533 31.1706 39.9687 30.7813 39.9687C30.2591 39.9687 29.7583 39.7613 29.3891 39.3921C29.0199 39.0229 28.8125 38.5221 28.8125 38ZM34.0625 46.5312C33.6731 46.5312 33.2925 46.4158 32.9687 46.1995C32.645 45.9831 32.3926 45.6756 32.2436 45.3159C32.0946 44.9562 32.0556 44.5603 32.1316 44.1784C32.2075 43.7965 32.3951 43.4457 32.6704 43.1704C32.9457 42.895 33.2965 42.7075 33.6784 42.6316C34.0603 42.5556 34.4562 42.5946 34.8159 42.7436C35.1757 42.8926 35.4831 43.145 35.6995 43.4687C35.9158 43.7925 36.0313 44.1731 36.0313 44.5625C36.0313 45.0846 35.8238 45.5854 35.4546 45.9546C35.0854 46.3238 34.5846 46.5312 34.0625 46.5312ZM34.0625 38C34.0625 37.2212 34.2934 36.46 34.7261 35.8124C35.1588 35.1649 35.7737 34.6602 36.4932 34.3622C37.2127 34.0642 38.0044 33.9862 38.7682 34.1382C39.532 34.2901 40.2336 34.6651 40.7842 35.2158C41.3349 35.7664 41.7099 36.468 41.8618 37.2318C42.0138 37.9956 41.9358 38.7873 41.6378 39.5068C41.3398 40.2263 40.8351 40.8413 40.1876 41.2739C39.54 41.7066 38.7788 41.9375 38 41.9375C36.956 41.9365 35.9551 41.5213 35.2169 40.7831C34.4787 40.0449 34.0635 39.044 34.0625 38ZM41.295 46.5312H41.2813C40.7591 46.5331 40.2576 46.3274 39.8871 45.9595C39.5166 45.5916 39.3074 45.0915 39.3056 44.5694C39.3038 44.0472 39.5095 43.5458 39.8774 43.1753C40.2453 42.8048 40.7453 42.5956 41.2675 42.5937C41.7885 42.5972 42.2883 42.8003 42.664 43.1614C42.941 43.4349 43.1308 43.7843 43.2093 44.1656C43.2877 44.5469 43.2514 44.9429 43.1049 45.3035C42.9584 45.6642 42.7083 45.9733 42.3861 46.1918C42.064 46.4103 41.6843 46.5285 41.295 46.5312ZM47.1875 38C47.1875 38.3894 47.072 38.77 46.8557 39.0938C46.6394 39.4175 46.3319 39.6699 45.9722 39.8189C45.6124 39.9679 45.2166 40.0069 44.8347 39.9309C44.4528 39.855 44.102 39.6674 43.8266 39.3921C43.5513 39.1168 43.3638 38.766 43.2878 38.3841C43.2119 38.0022 43.2509 37.6063 43.3999 37.2466C43.5489 36.8868 43.8012 36.5794 44.125 36.363C44.4487 36.1467 44.8294 36.0312 45.2188 36.0312C45.7409 36.0312 46.2417 36.2387 46.6109 36.6079C46.9801 36.9771 47.1875 37.4779 47.1875 38Z" fill="#3C3C3C"/>
<path d="M19.625 21.8234L26.2531 24.7634C29.485 21.8768 33.6667 20.2812 38 20.2812C42.3333 20.2812 46.515 21.8768 49.7469 24.7634L56.375 21.8234V19.625H19.625V21.8234Z" fill="#3C3C3C"/>
<path d="M38.0002 21.5938C34.7735 21.6026 31.6206 22.5597 28.9335 24.346C26.2464 26.1324 24.1437 28.6691 22.8867 31.6409C23.4324 31.7811 23.9192 32.0914 24.2767 32.5267C24.6342 32.9621 24.8438 33.5 24.8752 34.0625C24.8676 34.5359 24.7115 34.995 24.4289 35.375C24.7183 35.7513 24.8752 36.2128 24.8752 36.6875C24.8752 37.1622 24.7183 37.6237 24.4289 38C24.7194 38.3774 24.8763 38.8406 24.8751 39.3169C24.8739 39.7932 24.7147 40.2556 24.4223 40.6316C24.7096 41.007 24.8683 41.4649 24.8752 41.9375C24.8363 42.4969 24.6238 43.0303 24.2674 43.4632C23.9109 43.8961 23.4283 44.207 22.8867 44.3525C24.1348 47.3311 26.2352 49.8745 28.9242 51.6633C31.6131 53.452 34.7706 54.4063 38.0002 54.4063C41.2297 54.4063 44.3872 53.452 47.0762 51.6633C49.7651 49.8745 51.8655 47.3311 53.1136 44.3525C52.572 44.207 52.0894 43.8961 51.7329 43.4632C51.3765 43.0303 51.164 42.4969 51.1252 41.9375C51.132 41.4649 51.2908 41.007 51.578 40.6316C51.2856 40.2556 51.1264 39.7932 51.1252 39.3169C51.124 38.8406 51.2809 38.3774 51.5714 38C51.282 37.6237 51.1251 37.1622 51.1251 36.6875C51.1251 36.2128 51.282 35.7513 51.5714 35.375C51.2888 34.995 51.1327 34.5359 51.1252 34.0625C51.1565 33.5 51.3661 32.9621 51.7236 32.5267C52.0811 32.0914 52.568 31.7811 53.1136 31.6409C51.8566 28.6691 49.7539 26.1324 47.0668 24.346C44.3797 22.5597 41.2268 21.6026 38.0002 21.5938ZM38.0002 50.4688C35.5341 50.4688 33.1234 49.7375 31.0729 48.3674C29.0224 46.9973 27.4243 45.0499 26.4805 42.7716C25.5368 40.4932 25.2899 37.9862 25.771 35.5675C26.2521 33.1488 27.4396 30.927 29.1834 29.1833C30.9272 27.4395 33.1489 26.2519 35.5676 25.7708C37.9863 25.2897 40.4934 25.5366 42.7717 26.4804C45.0501 27.4241 46.9975 29.0223 48.3675 31.0727C49.7376 33.1232 50.4689 35.5339 50.4689 38C50.466 41.306 49.1513 44.4758 46.8136 46.8135C44.4759 49.1512 41.3062 50.4658 38.0002 50.4688Z" fill="#3C3C3C"/>
<path d="M21.5938 34.0625C22.234 34.0613 22.8649 34.2168 23.4313 34.5153C23.5129 34.378 23.5581 34.2222 23.5625 34.0625C23.5625 33.3537 22.6634 32.75 21.5938 32.75C20.5241 32.75 19.625 33.3537 19.625 34.0625C19.6294 34.2222 19.6746 34.378 19.7562 34.5153C20.3226 34.2168 20.9535 34.0613 21.5938 34.0625Z" fill="#3C3C3C"/>
<path d="M21.5938 36.6875C22.234 36.6863 22.8649 36.8418 23.4313 37.1404C23.5129 37.0031 23.5581 36.8472 23.5625 36.6875C23.5519 36.5299 23.5077 36.3764 23.4331 36.2372C23.3584 36.098 23.2548 35.9763 23.1294 35.8804C22.6789 35.5663 22.1429 35.3979 21.5938 35.3979C21.0446 35.3979 20.5086 35.5663 20.0581 35.8804C19.9327 35.9763 19.8291 36.098 19.7544 36.2372C19.6798 36.3764 19.6356 36.5299 19.625 36.6875C19.6294 36.8472 19.6746 37.0031 19.7562 37.1404C20.3226 36.8418 20.9535 36.6863 21.5938 36.6875Z" fill="#3C3C3C"/>
<path d="M55.9419 38.5054C55.4914 38.1913 54.9554 38.0229 54.4062 38.0229C53.8571 38.0229 53.3211 38.1913 52.8706 38.5054C52.7452 38.6013 52.6416 38.723 52.5669 38.8622C52.4923 39.0014 52.4481 39.1549 52.4375 39.3125C52.4419 39.4722 52.4871 39.6281 52.5688 39.7654C53.1356 39.4679 53.7661 39.3125 54.4062 39.3125C55.0464 39.3125 55.6769 39.4679 56.2437 39.7654C56.3254 39.6281 56.3706 39.4722 56.375 39.3125C56.3644 39.1549 56.3202 39.0014 56.2456 38.8622C56.1709 38.723 56.0673 38.6013 55.9419 38.5054Z" fill="#3C3C3C"/>
<path d="M45.2188 38.6562C45.5812 38.6562 45.875 38.3624 45.875 38C45.875 37.6376 45.5812 37.3438 45.2188 37.3438C44.8563 37.3438 44.5625 37.6376 44.5625 38C44.5625 38.3624 44.8563 38.6562 45.2188 38.6562Z" fill="#3C3C3C"/>
<path d="M41.2796 43.9063H41.2751C41.1889 43.9066 41.1036 43.9238 41.0241 43.9571C40.9446 43.9903 40.8724 44.0389 40.8117 44.1001C40.689 44.2236 40.6205 44.3908 40.6211 44.5648C40.6217 44.7389 40.6914 44.9055 40.8149 45.0282C40.9384 45.1508 41.1056 45.2194 41.2796 45.2188H41.2842C41.4583 45.2182 41.625 45.1484 41.7476 45.0249C41.8703 44.9014 41.9388 44.7343 41.9382 44.5602C41.9376 44.3862 41.8679 44.2195 41.7444 44.0968C41.6209 43.9742 41.4537 43.9056 41.2796 43.9063Z" fill="#3C3C3C"/>
</svg>
