<svg width="75" height="75" viewBox="0 0 75 75" fill="none" xmlns="http://www.w3.org/2000/svg">
<rect width="75" height="75" rx="6.46552" fill="#FBC22E"/>
<path d="M59 21.941V19.4705H17V21.941H29.3529V25.6469L24.4118 26.8822V34.294H17V48.0828L19.8155 56.5293H33.9491L36.7647 48.0828V34.294H29.3529V30.5881L34.2941 29.3528V21.941H41.7059V29.3528L46.6471 30.5881V34.294H39.2353V48.0828L42.0508 56.5293H56.1844L59 48.0828V34.294H51.5882V26.8822L46.6471 25.6469V21.941H59ZM25.6471 51.5881H23.1765V49.1175H25.6471V51.5881ZM25.6471 46.6469H23.1765V44.1763H25.6471V46.6469ZM25.6471 41.7058H23.1765V39.2352H25.6471V41.7058ZM30.5882 51.5881H28.1176V49.1175H30.5882V51.5881ZM30.5882 46.6469H28.1176V44.1763H30.5882V46.6469ZM30.5882 39.2352V41.7058H28.1176V39.2352H30.5882ZM47.8824 51.5881H45.4118V49.1175H47.8824V51.5881ZM47.8824 46.6469H45.4118V44.1763H47.8824V46.6469ZM50.3529 39.2352H52.8235V41.7058H50.3529V39.2352ZM50.3529 44.1763H52.8235V46.6469H50.3529V44.1763ZM50.3529 49.1175H52.8235V51.5881H50.3529V49.1175ZM47.8824 39.2352V41.7058H45.4118V39.2352H47.8824Z" fill="#3C3C3C"/>
</svg>
