<svg width="75" height="75" viewBox="0 0 75 75" fill="none" xmlns="http://www.w3.org/2000/svg">
<rect width="75" height="75" rx="9.69828" fill="#FBC22E"/>
<g clip-path="url(#clip0)">
<path d="M17.3604 56.8995C16.8799 57.38 16.8799 58.1591 17.3604 58.6396C17.8409 59.1201 18.62 59.1201 19.1005 58.6396L23.4798 54.2604L21.7396 52.5203L17.3604 56.8995Z" fill="#3C3C3C"/>
<path d="M17.3603 42.9203C16.8801 43.4004 16.8797 44.18 17.3603 44.6604L31.3393 58.6396C31.8197 59.1201 32.5987 59.1203 33.0794 58.6396L34.2061 57.5129L18.4869 41.7937L17.3603 42.9203Z" fill="#3C3C3C"/>
<path d="M58.2421 17.0938C57.7827 16.9034 57.2533 17.0082 56.9013 17.36L45.4805 28.77L57.0021 40.2916L58.6411 38.6523C58.8718 38.4216 59.0014 38.1086 59.0014 37.7823V18.2305C59.0014 17.733 58.7018 17.2843 58.2421 17.0938Z" fill="#3C3C3C"/>
<path d="M43.678 30.448C43.1975 29.9675 42.4184 29.9676 41.9379 30.448L39.9492 32.4367C39.47 32.9168 39.4699 33.6956 39.9501 34.1759L51.5957 45.8213C52.077 46.3026 52.8561 46.301 53.3359 45.8213L55.3245 43.8327C55.8037 43.3526 55.8038 42.5737 55.3236 42.0936L43.678 30.448Z" fill="#3C3C3C"/>
<path d="M29.2891 38.1796L46.0265 54.917C47.9211 52.6622 49.0397 49.898 49.2464 46.9543L34.8803 32.5884L29.2891 38.1796Z" fill="#3C3C3C"/>
<path d="M33.0834 30.9065C29.821 28.4162 25.2761 28.4196 22.0176 30.9065L27.5505 36.4395L33.0834 30.9065Z" fill="#3C3C3C"/>
<path d="M17.3603 35.4463C16.8801 35.9264 16.8797 36.706 17.3603 37.1865L38.185 58.0113C39.5162 59.342 41.6928 59.3279 43.0433 57.9772L44.3252 56.695L20.2185 32.5881L17.3603 35.4463Z" fill="#3C3C3C"/>
</g>
<defs>
<clipPath id="clip0">
<rect width="42" height="42" fill="white" transform="translate(17 17)"/>
</clipPath>
</defs>
</svg>
