<svg width="137" height="137" viewBox="0 0 137 137" fill="none" xmlns="http://www.w3.org/2000/svg">
<rect width="137" height="137" rx="6.46552" fill="#FBC22E"/>
<g clip-path="url(#clip0)">
<path fill-rule="evenodd" clip-rule="evenodd" d="M90.6251 42.3321C98.5138 47.3455 103.978 55.1312 106.011 64.255C108.043 73.3785 106.402 82.7477 101.388 90.6366C94.7277 101.114 83.3792 106.849 71.797 106.85C65.3786 106.85 58.89 105.09 53.0836 101.4C43.7429 95.4637 37.802 85.5009 36.9613 74.5153C36.4008 74.4659 35.8395 74.3454 35.2888 74.1503C32.8343 73.2807 31.1408 71.1315 30.8694 68.5416L30.2046 62.199C29.8391 58.71 31.0521 55.2864 33.5324 52.8061L52.795 33.5435C55.2757 31.0632 58.6988 29.8502 62.1881 30.2159L68.5307 30.8807C71.1205 31.1519 73.2698 32.8454 74.1394 35.3001C74.3343 35.8501 74.451 36.4109 74.5006 36.9706C80.2098 37.4004 85.7538 39.2366 90.6251 42.3321ZM71.8022 103.661C82.33 103.662 92.6425 98.4494 98.6963 88.9259C103.253 81.756 104.745 73.2407 102.898 64.9485C101.05 56.6564 96.0844 49.5803 88.9147 45.0237C84.4133 42.1631 79.2817 40.4834 74.004 40.1298C73.7095 40.8243 73.2937 41.4744 72.7621 42.0524C78.084 42.2186 83.3245 43.8127 87.8545 46.6913C101.734 55.5138 105.849 73.9843 97.029 87.8654C92.7546 94.5897 86.1179 99.2467 78.3411 100.979C76.1656 101.464 73.9725 101.704 71.7967 101.704C66.1936 101.704 60.6975 100.117 55.8544 97.038C51.0642 93.9933 47.263 89.6805 44.862 84.5654C43.1196 80.8538 42.1651 76.8428 42.0381 72.7802C41.4617 73.309 40.8132 73.7231 40.1213 74.0167C40.8123 84.1032 46.2327 93.2672 54.7941 98.7079C60.0704 102.061 65.9695 103.661 71.8022 103.661ZM42.0667 62.6395C43.1681 62.6395 44.2035 62.2107 44.9822 61.4318C45.7611 60.6529 46.1897 59.6177 46.1897 58.5163C46.1897 57.4149 45.7608 56.3795 44.9822 55.6008C44.2034 54.8221 43.1681 54.3931 42.0667 54.3931C40.9652 54.3931 39.9297 54.8221 39.1512 55.6008C38.3725 56.3795 37.9437 57.4149 37.9437 58.5163C37.9437 59.6177 38.3725 60.6531 39.1512 61.4318C39.9299 62.2107 40.9652 62.6395 42.0667 62.6395ZM41.4065 57.8559C41.5828 57.6796 41.8172 57.5826 42.0669 57.5826C42.3162 57.5826 42.5508 57.6796 42.7273 57.8561C42.9037 58.0326 43.0008 58.267 43.0008 58.5165C43.0008 58.7659 42.9037 59.0004 42.7273 59.1768C42.551 59.3531 42.3164 59.4504 42.0669 59.4504C41.8174 59.4504 41.583 59.3533 41.4065 59.1768C41.2301 59.0004 41.133 58.7659 41.133 58.5165C41.133 58.267 41.2299 58.0324 41.4065 57.8559ZM61.4218 44.9932C60.643 45.7721 59.6076 46.2008 58.5062 46.2008C57.4049 46.2008 56.3694 45.7719 55.5907 44.9932C54.812 44.2145 54.3832 43.179 54.3832 42.0776C54.3832 40.9763 54.812 39.9408 55.5907 39.1621C56.3692 38.3834 57.4047 37.9544 58.5062 37.9544C59.6076 37.9544 60.6429 38.3834 61.4218 39.1621C62.2003 39.9408 62.6293 40.9763 62.6293 42.0776C62.6293 43.179 62.2007 44.2143 61.4218 44.9932ZM58.5064 41.1439C58.2568 41.1439 58.0223 41.241 57.8461 41.4173C57.6696 41.5938 57.5725 41.8283 57.5725 42.0778C57.5725 42.3273 57.6696 42.5617 57.8461 42.7382C58.0225 42.9147 58.2569 43.0117 58.5064 43.0117C58.7559 43.0117 58.9905 42.9145 59.1668 42.7382C59.3432 42.5617 59.4403 42.3273 59.4403 42.0778C59.4403 41.8283 59.3432 41.5939 59.1668 41.4175C58.9903 41.241 58.7557 41.1439 58.5064 41.1439ZM65.9712 81.1176C67.7514 82.2489 69.7714 82.8321 71.8304 82.8321C72.6304 82.8321 73.4364 82.7441 74.2362 82.5658C77.0945 81.929 79.5336 80.2171 81.1045 77.7458C82.6752 75.2743 83.1898 72.3391 82.553 69.4808C81.916 66.6225 80.2042 64.1832 77.7329 62.6125H77.7327C72.6308 59.3695 65.8419 60.8826 62.5994 65.9844C59.3568 71.086 60.8694 77.8749 65.9712 81.1176ZM65.291 67.6949C66.7707 65.3669 69.2911 64.093 71.8645 64.093C73.2902 64.093 74.7325 64.4842 76.022 65.3039C77.7747 66.4176 78.9884 68.1473 79.4401 70.1742C79.8917 72.2012 79.5269 74.2824 78.4129 76.0349C77.2992 77.7874 75.5695 79.0013 73.5427 79.4529C71.5161 79.9046 69.4346 79.5397 67.6821 78.426C64.0642 76.1265 62.9917 71.3126 65.291 67.6949ZM71.8233 87.8805C68.8162 87.8805 65.8661 87.0286 63.2667 85.3766C55.816 80.6412 53.6071 70.7272 58.3425 63.2763C63.078 55.8256 72.9919 53.6165 80.4427 58.3521C84.0521 60.6461 86.5519 64.2081 87.482 68.3824C88.412 72.5566 87.6607 76.8432 85.3668 80.4524C83.073 84.0617 79.5109 86.5616 75.3367 87.4916C74.1687 87.7519 72.9917 87.8805 71.8233 87.8805ZM71.8753 59.0468C67.631 59.0468 63.4742 61.1478 61.034 64.9872C57.242 70.9536 59.0108 78.893 64.977 82.685C67.8678 84.522 71.3007 85.1236 74.6428 84.3787C77.9855 83.634 80.8382 81.6322 82.675 78.7418C84.5122 75.8515 85.1136 72.4187 84.3689 69.0762C83.6242 65.7337 81.6224 62.881 78.732 61.044C76.6048 59.6921 74.2266 59.0468 71.8753 59.0468Z" fill="#3C3C3C"/>
<path d="M89.0739 60.773C89.4033 60.773 89.733 60.672 90.0183 60.4629C90.727 59.9402 90.8792 58.9427 90.3585 58.2322C89.8358 57.5235 88.8382 57.3711 88.1277 57.8938C87.419 58.4147 87.2666 59.4122 87.7893 60.1227C88.1012 60.548 88.585 60.773 89.0739 60.773Z" fill="#FFC93D"/>
<path d="M92.9942 70.2278C93.0738 70.2278 93.1555 70.2225 93.237 70.2101C94.1087 70.0754 94.7058 69.2622 94.571 68.3922C94.4381 67.5205 93.6231 66.9234 92.7531 67.058C91.8831 67.1909 91.286 68.0059 91.4189 68.8759C91.5413 69.6644 92.2199 70.2278 92.9942 70.2278Z" fill="#FFC93D"/>
<path d="M67.7206 91.2257C66.8595 91.0396 66.0108 91.5889 65.8267 92.45C65.6424 93.3111 66.1899 94.1581 67.0508 94.3441C67.1644 94.3672 67.276 94.3796 67.3875 94.3796C68.1228 94.3796 68.7854 93.8675 68.9449 93.118C69.1292 92.2569 68.5817 91.4099 67.7206 91.2257Z" fill="#FFC93D"/>
<path d="M77.1846 90.9251C76.3359 91.1625 75.8416 92.0431 76.079 92.8918C76.2775 93.5952 76.9171 94.0559 77.6134 94.0559C77.7571 94.0559 77.9004 94.0364 78.0457 93.9974C78.8926 93.76 79.3887 92.8794 79.1494 92.0307C78.9121 91.1838 78.0333 90.6877 77.1846 90.9251Z" fill="#FFC93D"/>
<path d="M85.4354 86.2681C84.7958 86.8723 84.7657 87.8823 85.3699 88.5237C85.6835 88.8551 86.107 89.0234 86.5304 89.0234C86.922 89.0234 87.3153 88.8799 87.6236 88.5893C88.265 87.9851 88.2951 86.9769 87.6909 86.3355C87.0866 85.6941 86.0767 85.6639 85.4354 86.2681Z" fill="#FFC93D"/>
<path d="M59.1956 87.0842C58.5171 86.5225 57.5123 86.6147 56.9489 87.2933C56.3872 87.9701 56.4811 88.9765 57.1579 89.5382C57.4558 89.7862 57.8172 89.9067 58.175 89.9067C58.6339 89.9067 59.0875 89.7101 59.403 89.3309C59.9663 88.6523 59.8724 87.6476 59.1956 87.0842Z" fill="#FFC93D"/>
<path d="M80.4832 54.0558C80.4921 54.0594 80.5009 54.0647 80.508 54.0682C80.51 54.0682 80.51 54.0682 80.51 54.0682C80.7332 54.1781 80.9706 54.2295 81.2045 54.2295C81.7963 54.2295 82.3651 53.8999 82.6413 53.3312C83.0258 52.5392 82.6964 51.5859 81.9044 51.1997C81.8991 51.1979 81.8936 51.1943 81.8883 51.1926C81.8847 51.1908 81.8831 51.1908 81.8812 51.189C81.0876 50.8045 80.1343 51.1359 79.7498 51.9279C79.3669 52.7181 79.6947 53.6696 80.4832 54.0558Z" fill="#FFC93D"/>
<path d="M51.4927 78.6009C50.6794 78.9375 50.2949 79.8713 50.6317 80.6845C50.8867 81.2976 51.4803 81.6679 52.1057 81.6679C52.3095 81.6679 52.5168 81.6289 52.717 81.5456C53.5285 81.2072 53.9148 80.2752 53.5781 79.462C53.2397 78.647 52.3059 78.2625 51.4927 78.6009Z" fill="#FFC93D"/>
<path d="M50.4036 71.5441C50.4514 71.5494 50.4993 71.5512 50.5471 71.5512C51.3639 71.5512 52.0602 70.9275 52.1347 70.0983C52.2126 69.2212 51.5641 68.4469 50.6871 68.3672C49.81 68.2892 49.0359 68.9377 48.9578 69.8148C48.8781 70.6918 49.5266 71.4661 50.4036 71.5441Z" fill="#FFC93D"/>
<path d="M71.1741 52.0807C71.1918 52.0807 71.2095 52.0807 71.2272 52.079C72.1078 52.0506 72.7989 51.3135 72.7687 50.4329C72.7404 49.5541 72.0049 48.8631 71.1245 48.8915C70.2439 48.9198 69.5529 49.6569 69.583 50.5375C69.6096 51.4003 70.3183 52.0807 71.1741 52.0807Z" fill="#FFC93D"/>
<path d="M91.5551 80.3346C91.727 80.3949 91.9024 80.4232 92.0758 80.4232C92.7367 80.4232 93.3553 80.0086 93.5819 79.3495C93.8707 78.5167 93.4297 77.6078 92.5967 77.3207C91.764 77.0319 90.8568 77.4749 90.568 78.3076C90.2811 79.1386 90.7223 80.0476 91.5551 80.3346Z" fill="#FFC93D"/>
</g>
<defs>
<clipPath id="clip0">
<rect width="76.72" height="76.72" fill="white" transform="translate(30.1406 30.1401)"/>
</clipPath>
</defs>
</svg>
