<svg width="75" height="75" viewBox="0 0 75 75" fill="none" xmlns="http://www.w3.org/2000/svg">
<rect width="75" height="75" rx="6.46552" fill="#FBC22E"/>
<g clip-path="url(#clip0)">
<path d="M40.3115 37.9948C40.3115 39.2382 39.3034 40.2463 38.06 40.2463C36.8167 40.2463 35.8086 39.2382 35.8086 37.9948C35.8086 36.7515 36.8167 35.7434 38.06 35.7434C39.3034 35.7434 40.3115 36.7515 40.3115 37.9948Z" fill="#3C3C3C"/>
<path d="M29.0552 47.0005H47.0666C47.4811 47.0005 47.8171 47.3365 47.8171 47.751V50.7529C47.8171 51.1673 47.4811 51.5034 47.0666 51.5034H29.0552C28.6407 51.5034 28.3047 51.1673 28.3047 50.7529V47.751C28.3047 47.3365 28.6407 47.0005 29.0552 47.0005Z" fill="#3C3C3C"/>
<path d="M53.8212 37.2442H59.0559C58.9467 34.0657 58.1126 30.9546 56.6175 28.1476L52.0853 30.7644C51.853 30.9007 51.5657 30.9022 51.3319 30.7677C51.0985 30.6336 50.9549 30.3848 50.9552 30.1154C50.956 29.8461 51.1007 29.5976 51.3349 29.4646L55.8634 26.85C54.1722 24.1592 51.8966 21.8836 49.2058 20.1925L46.5912 24.721C46.4582 24.9551 46.2098 25.0999 45.9404 25.1006C45.6711 25.101 45.4223 24.9573 45.2882 24.7239C45.154 24.4901 45.1551 24.2028 45.2915 23.9705L47.9082 19.4383C45.1013 17.9432 41.9902 17.1092 38.8116 17V22.2347C38.8116 22.6491 38.4756 22.9851 38.0611 22.9851C37.6467 22.9851 37.3107 22.6491 37.3107 22.2347V17C34.1325 17.1092 31.021 17.9432 28.214 19.4383L30.8312 23.9705C30.9671 24.2028 30.9686 24.4901 30.8345 24.7239C30.7004 24.9573 30.4512 25.101 30.1822 25.1006C29.9129 25.0999 29.6644 24.9551 29.5314 24.721L26.9164 20.1925C24.2256 21.8836 21.9504 24.1592 20.2592 26.85L24.7874 29.4646C25.0216 29.5976 25.1663 29.8461 25.167 30.1154C25.1678 30.3848 25.0238 30.6336 24.7903 30.7677C24.5569 30.9022 24.2692 30.9007 24.0369 30.7644L19.5047 28.1476C18.0096 30.9546 17.176 34.0657 17.0664 37.2442H22.3011C22.7155 37.2442 23.0515 37.5803 23.0515 37.9947C23.0515 38.4092 22.7155 38.7452 22.3011 38.7452H17.0664C17.4721 50.0471 26.7519 59 38.0611 59C49.3707 59 58.6502 50.0471 59.0559 38.7452H53.8212C53.4067 38.7452 53.0707 38.4092 53.0707 37.9947C53.0707 37.5803 53.4067 37.2442 53.8212 37.2442ZM37.3107 34.3174V25.2366C37.3107 24.8221 37.6467 24.4861 38.0611 24.4861C38.4756 24.4861 38.8116 24.8221 38.8116 25.2366V34.3174C40.6992 34.7026 41.9883 36.4545 41.7945 38.371C41.601 40.2876 39.9875 41.7464 38.0611 41.7464C36.1347 41.7464 34.5213 40.2876 34.3278 38.371C34.1343 36.4545 35.4235 34.7026 37.3107 34.3174ZM49.3183 50.7528C49.3183 51.9962 48.3102 53.0043 47.0669 53.0043H29.0554C27.812 53.0043 26.8039 51.9962 26.8039 50.7528V47.7509C26.8039 46.5076 27.812 45.4995 29.0554 45.4995H47.0669C48.3102 45.4995 49.3183 46.5076 49.3183 47.7509V50.7528Z" fill="#3C3C3C"/>
</g>
<defs>
<clipPath id="clip0">
<rect width="42" height="42" fill="white" transform="translate(17 17)"/>
</clipPath>
</defs>
</svg>
