<svg width="75" height="75" viewBox="0 0 75 75" fill="none" xmlns="http://www.w3.org/2000/svg">
<rect width="75" height="75" rx="6.46552" fill="#FBC22E"/>
<g clip-path="url(#clip0)">
<path d="M43.1513 25.4683L37.7466 38.9801V40.4711H42.7475V42.9716H37.7466V47.9725H35.2461V50.473H41.4973C41.8416 42.1779 53.6584 42.1844 53.9997 50.473H59.0006V39.2209H44.9732L46.7235 30.4692H59.0006V25.4683H43.1513Z" fill="#3C3C3C"/>
<path d="M51.4994 36.7204V32.9697H48.7736L48.0234 36.7204H51.4994Z" fill="#3C3C3C"/>
<path d="M54 32.9697H59.001V36.7204H54V32.9697Z" fill="#3C3C3C"/>
<path d="M47.7507 46.7224C45.6792 46.7224 44 48.4016 44 50.4731C44.1976 55.4484 51.3046 55.447 51.5014 50.4731C51.5014 48.4016 49.8222 46.7224 47.7507 46.7224Z" fill="#3C3C3C"/>
<path d="M30.5859 47H18.9997V48.4483H30.5859V47Z" fill="#3C3C3C"/>
<path d="M33.4844 49.8967H21.8982V51.345H33.4844V49.8967Z" fill="#3C3C3C"/>
<path d="M36.3789 52.7932H24.7927V54.2415H36.3789V52.7932Z" fill="#3C3C3C"/>
</g>
<defs>
<clipPath id="clip0">
<rect width="42" height="42" fill="white" transform="translate(17 17)"/>
</clipPath>
</defs>
</svg>
