<svg width="75" height="75" viewBox="0 0 75 75" fill="none" xmlns="http://www.w3.org/2000/svg">
<rect width="75" height="75" rx="9.69828" fill="#FBC22E"/>
<g clip-path="url(#clip0)">
<path d="M45.3828 51.4742C45.3828 51.2888 45.3484 51.1035 45.2695 50.9357C45.059 50.4883 44.6194 50.2227 44.1523 50.2228H32.6278C30.5084 50.2228 29.447 47.6604 30.9456 46.1618L32.2198 44.8876C32.6863 44.4211 32.6863 43.6646 32.2198 43.198L28.11 39.0882C27.643 38.6212 26.8856 38.6217 26.4192 39.0894L23.9038 41.6122C21.3561 44.1672 19.9531 47.5613 19.9531 51.1693V54.0782H45.3828V51.4742Z" fill="#3C3C3C"/>
<path d="M57.7695 59H18.2305C17.5509 59 17 58.4491 17 57.7695C17 57.09 17.5509 56.5391 18.2305 56.5391H57.7695C58.4491 56.5391 59 57.09 59 57.7695C59 58.4491 58.4491 59 57.7695 59Z" fill="#3C3C3C"/>
<path d="M30.1602 37.6616L32.77 35.0518L36.2497 38.5316L33.6399 41.1414L30.1602 37.6616Z" fill="#3C3C3C"/>
<path d="M53.9453 23.1609C54.4259 22.6804 54.4259 21.9013 53.9453 21.4208L49.8849 17.3604C49.4044 16.8799 48.6253 16.8799 48.1448 17.3604L45.8246 19.6806C45.5939 19.9113 45.4642 20.2244 45.4643 20.5507C45.4643 21.0484 45.2705 21.5162 44.9185 21.8681C44.5666 22.22 44.0987 22.4138 43.6011 22.4139C43.2748 22.4139 42.9618 22.5435 42.731 22.7742C42.5002 23.005 42.3705 23.318 42.3706 23.6443C42.3706 24.142 42.1769 24.6098 41.825 24.9617C41.473 25.3137 41.0051 25.5074 40.5075 25.5075C39.828 25.5075 39.2771 26.0584 39.2771 26.738C39.2771 27.2357 39.0833 27.7035 38.7314 28.0554C38.3795 28.4073 37.9116 28.6011 37.414 28.6011C37.0876 28.6011 36.7747 28.7308 36.5439 28.9615L34.2237 31.2817C33.7431 31.7622 33.7431 32.5413 34.2237 33.0218L38.2841 37.0822C38.7646 37.5627 39.5437 37.5627 40.0242 37.0822L42.6344 34.472L40.8943 32.7318C40.4138 32.2513 40.4138 31.4722 40.8943 30.9917C41.3748 30.5112 42.1539 30.5112 42.6344 30.9917L44.3746 32.7318L46.1147 30.9917L44.3746 29.2516C43.894 28.771 43.894 27.992 44.3746 27.5114C44.8551 27.0309 45.6342 27.0309 46.1147 27.5114L47.8548 29.2516L49.595 27.5114L47.8548 25.7713C47.3743 25.2908 47.3743 24.5117 47.8548 24.0312C48.3354 23.5506 49.1144 23.5506 49.595 24.0312L51.3351 25.7713L53.9453 23.1609Z" fill="#3C3C3C"/>
</g>
<defs>
<clipPath id="clip0">
<rect width="42" height="42" fill="white" transform="translate(17 17)"/>
</clipPath>
</defs>
</svg>
