<svg width="75" height="75" viewBox="0 0 75 75" fill="none" xmlns="http://www.w3.org/2000/svg">
<rect width="75" height="75" rx="6.46552" fill="#FBC22E"/>
<path d="M51.5573 46.7632V29.6972C53.9387 29.1851 55.7291 27.0628 55.7291 24.5305C55.7291 21.6166 53.3586 19.2458 50.4444 19.2458C47.5307 19.2458 45.16 21.6166 45.16 24.5305C45.16 27.0628 46.9505 29.1851 49.3321 29.6972V37.8597H37.8666V29.6972C40.2482 29.1851 42.0387 27.0628 42.0387 24.5305C42.0387 21.6166 39.6682 19.2458 36.754 19.2458C33.8401 19.2458 31.4698 21.6166 31.4698 24.5305C31.4698 27.0628 33.2603 29.1851 35.6416 29.6972V37.8597H24.1783V29.6972C26.5599 29.1851 28.3506 27.0628 28.3506 24.5305C28.3506 21.6166 25.9798 19.2458 23.0659 19.2458C20.152 19.2458 17.7812 21.6166 17.7812 24.5305C17.7812 27.0628 19.5717 29.1851 21.9535 29.6972V38.972C21.9535 39.5864 22.4516 40.0844 23.0659 40.0844H35.6416V46.7632C33.2603 47.2754 31.4698 49.3977 31.4698 51.9299C31.4698 54.8439 33.8401 57.2146 36.754 57.2146C39.6682 57.2146 42.0387 54.8439 42.0387 51.9299C42.0387 49.3977 40.2482 47.2754 37.8666 46.7632V40.0844H49.3321V46.7632C46.9507 47.2754 45.16 49.3977 45.16 51.9299C45.16 54.8439 47.5307 57.2146 50.4444 57.2146C53.3586 57.2146 55.7291 54.8439 55.7291 51.9299C55.7291 49.3977 53.9387 47.2754 51.5573 46.7632Z" fill="#3C3C3C"/>
</svg>
