<svg width="75" height="75" viewBox="0 0 75 75" fill="none" xmlns="http://www.w3.org/2000/svg">
<rect width="75" height="75" rx="9.69828" fill="#FBC22E"/>
<path d="M23.6445 57.7695C23.6445 58.4491 24.1955 59 24.875 59H29.7969C30.4764 59 31.0273 58.4491 31.0273 57.7695V56.5391H23.6445V57.7695Z" fill="#3C3C3C"/>
<path d="M44.9727 57.7695C44.9727 58.4491 45.5236 59 46.2031 59H51.125C51.8045 59 52.3555 58.4491 52.3555 57.7695V56.5391H44.9727V57.7695Z" fill="#3C3C3C"/>
<path d="M51.9453 43.0039H45.4982C43.9863 43.0039 42.5829 43.755 41.7442 45.013C41.5556 45.2959 41.24 45.4648 40.8999 45.4648H35.1C34.7599 45.4648 34.4444 45.2959 34.2557 45.0129C33.4171 43.755 32.0136 43.0039 30.5018 43.0039H24.0547C22.0192 43.0039 20.3633 44.6599 20.3633 46.6953V52.8477C20.3633 53.5272 20.9142 54.0781 21.5938 54.0781H54.4062C55.0858 54.0781 55.6367 53.5272 55.6367 52.8477V46.6953C55.6367 44.6599 53.9808 43.0039 51.9453 43.0039ZM27.7461 49.7715H25.2852C24.6056 49.7715 24.0547 49.2206 24.0547 48.541C24.0547 47.8615 24.6056 47.3105 25.2852 47.3105H27.7461C28.4256 47.3105 28.9766 47.8615 28.9766 48.541C28.9766 49.2206 28.4256 49.7715 27.7461 49.7715ZM50.7148 49.7715H48.2539C47.5744 49.7715 47.0234 49.2206 47.0234 48.541C47.0234 47.8615 47.5744 47.3105 48.2539 47.3105H50.7148C51.3944 47.3105 51.9453 47.8615 51.9453 48.541C51.9453 49.2206 51.3944 49.7715 50.7148 49.7715Z" fill="#3C3C3C"/>
<path d="M35.8187 43.0039H40.1817C41.498 41.4502 43.4326 40.543 45.4984 40.543H52.4223L50.9534 36.1365C50.1147 33.6203 47.7691 31.9297 45.1168 31.9297H39.2307V34.3906H40.051C40.7305 34.3906 41.2815 34.9415 41.2815 35.6211C41.2815 36.3006 40.7305 36.8516 40.051 36.8516H35.9494C35.2699 36.8516 34.719 36.3006 34.719 35.6211C34.719 34.9415 35.2699 34.3906 35.9494 34.3906H36.7697V31.9297H30.8836C28.2313 31.9297 25.8857 33.6203 25.047 36.1365L23.5781 40.543H30.5019C32.5678 40.543 34.5023 41.4502 35.8187 43.0039Z" fill="#3C3C3C"/>
<path d="M39.0827 26.6984H37.1276L36 19.573H40L39.0827 26.6984ZM36.748 28.9185C36.748 28.5652 36.8746 28.2763 37.1276 28.0519C37.3854 27.8228 37.7053 27.7082 38.0872 27.7082C38.4692 27.7082 38.7867 27.8228 39.0397 28.0519C39.2975 28.2763 39.4264 28.5652 39.4264 28.9185C39.4264 29.2718 39.2975 29.563 39.0397 29.7922C38.7867 30.0165 38.4692 30.1287 38.0872 30.1287C37.7053 30.1287 37.3854 30.0165 37.1276 29.7922C36.8746 29.563 36.748 29.2718 36.748 28.9185Z" fill="#3C3C3C"/>
</svg>
