<svg width="137" height="137" viewBox="0 0 137 137" fill="none" xmlns="http://www.w3.org/2000/svg">
<rect width="137" height="137" rx="6.46552" fill="#FBC22E"/>
<g clip-path="url(#clip0)">
<path d="M106.751 63.0322C106.274 60.8267 104.322 59.2521 102.065 59.2521H75.6929H68.5006V54.4571H73.2955C75.9435 54.4571 78.0904 52.3102 78.0904 49.6622C78.0904 47.0141 75.9435 44.8672 73.2955 44.8672H54.1155C51.4675 44.8672 49.3206 47.0141 49.3206 49.6622C49.3206 52.3102 51.4675 54.4571 54.1155 54.4571H58.9107V59.2521H49.3206C47.5247 59.2521 45.9777 60.2516 45.1563 61.7135C44.9477 61.6856 44.7415 61.6496 44.5256 61.6496C36.5932 61.6496 30.1406 68.1023 30.1406 76.0346C30.1406 83.9668 36.5933 90.4195 44.5256 90.4195C44.7415 90.4195 44.9477 90.3835 45.1563 90.3557C45.9777 91.8175 47.5247 92.817 49.3206 92.817H75.6929C78.341 92.817 80.4881 90.67 80.4881 88.022V79.1221L104.05 68.4123C106.104 67.4784 107.229 65.2378 106.751 63.0322ZM39.7307 76.0347C39.7307 73.3903 41.8285 71.2397 44.5257 71.2397V80.8297C41.8285 80.8297 39.7307 78.6791 39.7307 76.0347Z" fill="#3C3C3C"/>
<path d="M95.3379 79.4119C94.4586 80.6095 90.0781 86.7776 90.0781 90.6373C90.0781 94.4828 93.3044 97.612 97.2706 97.612C101.237 97.612 104.463 94.4828 104.463 90.6373C104.463 86.7776 100.083 80.6095 99.2033 79.4119C98.302 78.1804 96.2392 78.1804 95.3379 79.4119Z" fill="#3C3C3C"/>
</g>
<defs>
<clipPath id="clip0">
<rect width="76.72" height="76.72" fill="white" transform="translate(30.1406 32.8799)"/>
</clipPath>
</defs>
</svg>
