<svg width="75" height="75" viewBox="0 0 75 75" fill="none" xmlns="http://www.w3.org/2000/svg">
<rect width="75" height="75" rx="6.46552" fill="#FBC22E"/>
<g clip-path="url(#clip0)">
<path d="M43.6098 39.2305C43.0381 42.0352 40.4708 44.1523 37.4999 44.1523C34.5291 44.1523 32.0438 42.0352 31.4721 39.2305H29.011C29.6145 43.3936 33.1723 46.6133 37.4999 46.6133C41.8275 46.6133 45.4674 43.3936 46.0709 39.2305H43.6098Z" fill="#3C3C3C"/>
<path d="M48.5319 39.2305C47.9107 44.7524 43.1853 49.0742 37.5 49.0742C31.8147 49.0742 27.1714 44.7524 26.5501 39.2305H16.5V40.4609C16.5 40.9909 16.8401 41.4619 17.3424 41.6289L22.4052 43.2812C22.6179 43.8844 22.8426 44.4335 23.0829 44.9406L20.7469 49.6342C20.5114 50.1076 20.6051 50.6783 20.9788 51.0521L24.4479 54.5212C24.824 54.8973 25.3936 54.9862 25.8658 54.7531L30.5594 52.4171C31.0665 52.6574 31.6157 52.8821 32.2188 53.0948L33.8711 58.1576C34.0381 58.6599 34.5091 59 35.0391 59H40.043C40.5729 59 41.0439 58.6599 41.2109 58.1576L42.8632 53.0948C43.4665 52.8821 44.0156 52.6574 44.5226 52.4171L49.2162 54.7531C49.6884 54.9874 50.2592 54.8973 50.6341 54.5212L54.1032 51.0521C54.4769 50.6783 54.5706 50.1076 54.3351 49.6342L51.9991 44.9406C52.2395 44.4335 52.4641 43.8843 52.6768 43.2812L57.6576 41.6289C58.1599 41.4619 58.5 40.9909 58.5 40.4609V39.2305H48.5319Z" fill="#3C3C3C"/>
<path d="M34.0352 39.2305C34.5448 40.6596 35.8978 41.6914 37.4999 41.6914C39.102 41.6914 40.537 40.6596 41.0467 39.2305H34.0352Z" fill="#3C3C3C"/>
<path d="M37.5 17C34.7855 17 32.5781 19.2074 32.5781 21.9219C32.5781 24.6364 34.7855 26.8438 37.5 26.8438C40.2145 26.8438 42.5039 24.6364 42.5039 21.9219C42.5039 19.2074 40.2145 17 37.5 17Z" fill="#3C3C3C"/>
<path d="M49.8867 17C47.1722 17 44.9648 19.2074 44.9648 21.9219C44.9648 24.6364 47.1722 26.8438 49.8867 26.8438C52.6012 26.8438 54.8086 24.6364 54.8086 21.9219C54.8086 19.2074 52.6012 17 49.8867 17Z" fill="#3C3C3C"/>
<path d="M25.1953 17C22.4808 17 20.2734 19.2074 20.2734 21.9219C20.2734 24.6364 22.4808 26.8438 25.1953 26.8438C27.9098 26.8438 30.1172 24.6364 30.1172 21.9219C30.1172 19.2074 27.9098 17 25.1953 17Z" fill="#3C3C3C"/>
<path d="M54.0838 27.9827C52.8903 28.8119 51.447 29.3048 49.8866 29.3048C48.3328 29.3048 46.894 28.8172 45.7033 27.9942C45.1636 28.3041 44.6449 28.6525 44.1753 29.0725C46.5682 30.8613 48.2296 33.655 48.581 36.7696H58.4999V35.5391C58.4999 32.3216 56.705 29.4613 54.0838 27.9827Z" fill="#3C3C3C"/>
<path d="M37.5 29.3047C33.168 29.3047 29.5728 32.6011 28.9744 36.7695H46.1075C45.5092 32.6011 41.8319 29.3047 37.5 29.3047Z" fill="#3C3C3C"/>
<path d="M29.3787 27.9942C28.188 28.8172 26.7491 29.3048 25.1953 29.3048C23.635 29.3048 22.1917 28.8119 20.9982 27.9827C18.377 29.4613 16.5 32.3216 16.5 35.5391V36.7696H26.5009C26.8523 33.655 28.5137 30.8613 30.9067 29.0725C30.4369 28.6525 29.9183 28.3041 29.3787 27.9942Z" fill="#3C3C3C"/>
</g>
<defs>
<clipPath id="clip0">
<rect width="42" height="42" fill="white" transform="translate(16.5 17)"/>
</clipPath>
</defs>
</svg>
