<svg width="75" height="75" viewBox="0 0 75 75" fill="none" xmlns="http://www.w3.org/2000/svg">
<rect width="75" height="75" rx="6.46552" fill="#FBC22E"/>
<path d="M56.24 22.8783C56.1646 22.3368 55.775 21.8914 55.2483 21.745L38.3678 17.0505C38.1271 16.9835 37.8729 16.9835 37.6321 17.0505L20.7515 21.745C20.2249 21.8914 19.8352 22.3366 19.7598 22.8783C19.6619 23.5823 17.4283 40.2169 23.1574 48.4921C28.8796 56.7574 37.3211 58.8755 37.6776 58.9617C37.7836 58.9873 37.8916 59 37.9999 59C38.1083 59 38.2162 58.9872 38.3222 58.9617C38.6789 58.8755 47.1204 56.7574 52.8425 48.4921C58.5715 40.2171 56.3379 23.5825 56.24 22.8783ZM48.8857 32.5897L37.3715 44.104C37.1035 44.3719 36.7522 44.506 36.401 44.506C36.0498 44.506 35.6984 44.3721 35.4305 44.104L28.3114 36.9848C28.0539 36.7275 27.9093 36.3783 27.9093 36.0143C27.9093 35.6503 28.0541 35.3012 28.3114 35.0439L29.7249 33.6303C30.2609 33.0945 31.13 33.0943 31.6659 33.6303L36.401 38.3654L45.5312 29.2351C45.7885 28.9776 46.1377 28.833 46.5017 28.833C46.8657 28.833 47.2148 28.9776 47.4722 29.2351L48.8857 30.6486C49.4217 31.1846 49.4217 32.0537 48.8857 32.5897Z" fill="#3C3C3C"/>
</svg>
