<svg width="75" height="75" viewBox="0 0 75 75" fill="none" xmlns="http://www.w3.org/2000/svg">
<rect width="75" height="75" rx="6.46552" fill="#FBC22E"/>
<path d="M37.5 16.5918C36.7713 16.5918 36.1816 17.1815 36.1816 17.9102V21.8652C36.1816 22.5939 36.7713 23.1836 37.5 23.1836C38.2287 23.1836 38.8184 22.5939 38.8184 21.8652V17.9102C38.8184 17.1815 38.2287 16.5918 37.5 16.5918Z" fill="#3C3C3C"/>
<path d="M30.5219 24.8882L27.8852 22.2514C27.3702 21.7365 26.5359 21.7365 26.021 22.2514C25.506 22.7664 25.506 23.6007 26.021 24.1157L28.6577 26.7524C29.1726 27.2674 30.007 27.2674 30.5219 26.7524C31.0369 26.2375 31.0369 25.4031 30.5219 24.8882Z" fill="#3C3C3C"/>
<path d="M48.979 22.2514C48.464 21.7365 47.6297 21.7365 47.1147 22.2514L44.478 24.8882C43.9631 25.4031 43.9631 26.2375 44.478 26.7524C44.993 27.2674 45.8273 27.2674 46.3423 26.7524L48.979 24.1157C49.4939 23.6007 49.4939 22.7664 48.979 22.2514Z" fill="#3C3C3C"/>
<path d="M58.6816 35.0488H54.6387V53.5059H58.6816C59.4103 53.5059 60 52.9162 60 52.1875V36.3672C60 35.6385 59.4103 35.0488 58.6816 35.0488Z" fill="#3C3C3C"/>
<path d="M16.3184 35.0488C15.5897 35.0488 15 35.6385 15 36.3672V52.1875C15 52.9162 15.5897 53.5059 16.3184 53.5059H20.3613V35.0488H16.3184Z" fill="#3C3C3C"/>
<path d="M36.4932 36.3672C35.4877 36.3672 34.5839 36.9259 34.1346 37.8246L30.1216 45.8531C30.7936 46.1479 31.5043 46.2973 32.2304 46.2973C34.2376 46.2973 36.0439 45.1786 36.9438 43.3761L37.8116 41.6406H40.3633C41.0573 41.6406 41.737 41.9226 42.2275 42.4131L52.002 52.1875V36.3672H36.4932Z" fill="#3C3C3C"/>
<path d="M40.3633 44.2774H39.4415L39.3654 44.4298C38.1201 46.9203 35.6915 48.6786 32.9162 48.9055C30.8741 49.0726 29.459 48.4851 27.781 47.7219C27.0986 47.4116 26.8017 46.5963 27.1369 45.9258L31.7753 36.6466C32.6687 34.8594 34.4953 33.7305 36.4932 33.7305H42.1826C42.5478 32.9216 42.7734 32.0386 42.7734 31.0938C42.7734 30.365 42.1838 29.7754 41.4551 29.7754H31.2198C29.7213 29.7754 28.3516 30.6219 27.6815 31.9621L26.5027 34.3198C26.2793 34.7665 25.8228 35.0488 25.3232 35.0488H22.998V53.5059H29.044L32.7789 57.2408C33.8615 58.3234 35.4209 58.6652 36.7661 58.2154L48.025 54.6761C48.6979 54.4867 49.2651 54.1165 49.7278 53.6418L40.3633 44.2774Z" fill="#3C3C3C"/>
</svg>
