<svg width="75" height="75" viewBox="0 0 75 75" fill="none" xmlns="http://www.w3.org/2000/svg">
<rect width="75" height="75" rx="6.46552" fill="#FBC22E"/>
<path fill-rule="evenodd" clip-rule="evenodd" d="M56.5455 30.9091H60.9091C61.0524 30.909 61.1943 30.9372 61.3267 30.992C61.4591 31.0468 61.5794 31.1271 61.6807 31.2284C61.782 31.3297 61.8623 31.45 61.9171 31.5824C61.9719 31.7148 62.0001 31.8567 62 32V51.6364C62.0001 51.7796 61.9719 51.9215 61.9171 52.0539C61.8623 52.1863 61.782 52.3066 61.6807 52.4079C61.5794 52.5093 61.4591 52.5896 61.3267 52.6444C61.1943 52.6992 61.0524 52.7274 60.9091 52.7273H56.5455C56.4022 52.7274 56.2603 52.6992 56.1279 52.6444C55.9955 52.5896 55.8752 52.5093 55.7739 52.4079C55.6726 52.3066 55.5922 52.1863 55.5374 52.0539C55.4826 51.9215 55.4545 51.7796 55.4545 51.6364V48.3636H51.0909V53.8182C51.091 53.9615 51.0628 54.1034 51.008 54.2358C50.9533 54.3682 50.8729 54.4884 50.7716 54.5898C50.6703 54.6911 50.55 54.7714 50.4176 54.8262C50.2852 54.881 50.1433 54.9092 50 54.9091H28.1818C28.0385 54.9092 27.8966 54.881 27.7642 54.8262C27.6318 54.7714 27.5116 54.6911 27.4102 54.5898C27.3089 54.4884 27.2286 54.3682 27.1738 54.2358C27.119 54.1034 27.0908 53.9615 27.0909 53.8182V50.5455H19.4545C19.3113 50.5455 19.1694 50.5174 19.037 50.4626C18.9046 50.4078 18.7843 50.3274 18.683 50.2261C18.5816 50.1248 18.5013 50.0045 18.4465 49.8721C18.3917 49.7397 18.3636 49.5978 18.3636 49.4545V40.7273H16.1818V45.0909C16.1818 45.3802 16.0669 45.6577 15.8623 45.8623C15.6577 46.0669 15.3802 46.1818 15.0909 46.1818C14.8016 46.1818 14.5241 46.0669 14.3195 45.8623C14.1149 45.6577 14 45.3802 14 45.0909V34.1818C14 33.8925 14.1149 33.615 14.3195 33.4104C14.5241 33.2058 14.8016 33.0909 15.0909 33.0909C15.3802 33.0909 15.6577 33.2058 15.8623 33.4104C16.0669 33.615 16.1818 33.8925 16.1818 34.1818V38.5455H18.3636V29.8182C18.3636 29.6749 18.3917 29.533 18.4465 29.4006C18.5013 29.2682 18.5816 29.1479 18.683 29.0466C18.7843 28.9453 18.9046 28.8649 19.037 28.8101C19.1694 28.7553 19.3113 28.7272 19.4545 28.7273H24.9091V25.4545C24.909 25.3113 24.9372 25.1694 24.992 25.037C25.0467 24.9046 25.1271 24.7843 25.2284 24.683C25.3297 24.5816 25.45 24.5013 25.5824 24.4465C25.7148 24.3917 25.8567 24.3636 26 24.3636H34.7273V22.1818H30.3636C30.0743 22.1818 29.7968 22.0669 29.5922 21.8623C29.3877 21.6577 29.2727 21.3802 29.2727 21.0909C29.2727 20.8016 29.3877 20.5241 29.5922 20.3195C29.7968 20.1149 30.0743 20 30.3636 20H41.2727C41.5621 20 41.8395 20.1149 42.0441 20.3195C42.2487 20.5241 42.3636 20.8016 42.3636 21.0909C42.3636 21.3802 42.2487 21.6577 42.0441 21.8623C41.8395 22.0669 41.5621 22.1818 41.2727 22.1818H36.9091V24.3636H45.6364C45.7796 24.3636 45.9215 24.3917 46.0539 24.4465C46.1863 24.5013 46.3066 24.5816 46.4079 24.683C46.5093 24.7843 46.5896 24.9046 46.6444 25.037C46.6992 25.1694 46.7274 25.3113 46.7273 25.4545V28.7273H50C50.1433 28.7272 50.2852 28.7553 50.4176 28.8101C50.55 28.8649 50.6703 28.9453 50.7716 29.0466C50.8729 29.1479 50.9533 29.2682 51.008 29.4006C51.0628 29.533 51.091 29.6749 51.0909 29.8182V35.2727H55.4545V32C55.4545 31.8567 55.4826 31.7148 55.5374 31.5824C55.5922 31.45 55.6726 31.3297 55.7739 31.2284C55.8752 31.1271 55.9955 31.0468 56.1279 30.992C56.2603 30.9372 56.4022 30.909 56.5455 30.9091ZM29.0484 37.5187C29.0026 38.0041 28.8234 38.3833 28.5109 38.6562C28.1984 38.927 27.7828 39.0625 27.2641 39.0625C26.9016 39.0625 26.5818 38.977 26.3047 38.8062C26.0297 38.6333 25.8172 38.3885 25.6672 38.0718C25.5172 37.7552 25.4391 37.3875 25.4328 36.9687V36.5437C25.4328 36.1145 25.5089 35.7364 25.6609 35.4093C25.813 35.0822 26.0307 34.8302 26.3141 34.6531C26.5995 34.476 26.9286 34.3875 27.3016 34.3875C27.8036 34.3875 28.2078 34.5239 28.5141 34.7968C28.8203 35.0697 28.9984 35.4552 29.0484 35.9531H28.2609C28.2234 35.626 28.1276 35.3906 27.9734 35.2468C27.8214 35.101 27.5974 35.0281 27.3016 35.0281C26.9578 35.0281 26.6932 35.1541 26.5078 35.4062C26.3245 35.6562 26.2307 36.0239 26.2266 36.5093V36.9125C26.2266 37.4041 26.3141 37.7791 26.4891 38.0375C26.6661 38.2958 26.9245 38.425 27.2641 38.425C27.5745 38.425 27.8078 38.3552 27.9641 38.2156C28.1203 38.076 28.2193 37.8437 28.2609 37.5187H29.0484ZM33.3703 39H32.5828V36.9781H30.5484V39H29.7578V34.45H30.5484V36.3437H32.5828V34.45H33.3703V39ZM35.0984 36.9687H36.9672V36.3437H35.0984V35.0875H37.2609V34.45H34.3078V39H37.2828V38.3687H35.0984V36.9687ZM41.3984 37.5187C41.3526 38.0041 41.1734 38.3833 40.8609 38.6562C40.5484 38.927 40.1328 39.0625 39.6141 39.0625C39.2516 39.0625 38.9318 38.977 38.6547 38.8062C38.3797 38.6333 38.1672 38.3885 38.0172 38.0718C37.8672 37.7552 37.7891 37.3875 37.7828 36.9687V36.5437C37.7828 36.1145 37.8589 35.7364 38.0109 35.4093C38.163 35.0822 38.3807 34.8302 38.6641 34.6531C38.9495 34.476 39.2786 34.3875 39.6516 34.3875C40.1536 34.3875 40.5578 34.5239 40.8641 34.7968C41.1703 35.0697 41.3484 35.4552 41.3984 35.9531H40.6109C40.5734 35.626 40.4776 35.3906 40.3234 35.2468C40.1714 35.101 39.9474 35.0281 39.6516 35.0281C39.3078 35.0281 39.0432 35.1541 38.8578 35.4062C38.6745 35.6562 38.5807 36.0239 38.5766 36.5093V36.9125C38.5766 37.4041 38.6641 37.7791 38.8391 38.0375C39.0161 38.2958 39.2745 38.425 39.6141 38.425C39.9245 38.425 40.1578 38.3552 40.3141 38.2156C40.4703 38.076 40.5693 37.8437 40.6109 37.5187H41.3984ZM42.8984 37.5812L43.4141 37.0343L44.7828 39H45.7203L43.9328 36.4656L45.6234 34.45H44.6672L43.3359 36.0437L42.8984 36.5843V34.45H42.1078V39H42.8984V37.5812ZM27.2766 42.9687H25.4078V44.3687H27.5922V45H24.6172V40.45H27.5703V41.0875H25.4078V42.3437H27.2766V42.9687ZM31.0547 45H31.8453V40.45H31.0609V43.6906L29.0266 40.45H28.2359V45H29.0266V41.7718L31.0547 45ZM36.2672 44.4093C36.1026 44.6239 35.8745 44.7864 35.5828 44.8968C35.2911 45.0072 34.9599 45.0625 34.5891 45.0625C34.2078 45.0625 33.8703 44.976 33.5766 44.8031C33.2828 44.6302 33.0557 44.3833 32.8953 44.0625C32.737 43.7395 32.6547 43.3635 32.6484 42.9343V42.5781C32.6484 41.8906 32.813 41.3541 33.1422 40.9687C33.4714 40.5812 33.9307 40.3875 34.5203 40.3875C35.0266 40.3875 35.4286 40.5125 35.7266 40.7625C36.0245 41.0125 36.2036 41.3729 36.2641 41.8437H35.4891C35.4016 41.2958 35.0839 41.0218 34.5359 41.0218C34.1818 41.0218 33.912 41.15 33.7266 41.4062C33.5432 41.6604 33.4484 42.0343 33.4422 42.5281V42.8781C33.4422 43.3697 33.5453 43.752 33.7516 44.025C33.9599 44.2958 34.2484 44.4312 34.6172 44.4312C35.0214 44.4312 35.3089 44.3395 35.4797 44.1562V43.2656H34.5422V42.6656H36.2672V44.4093ZM37.1828 45H37.9703V40.45H37.1828V45ZM42.5516 45H41.7609L39.7328 41.7718V45H38.9422V40.45H39.7328L41.7672 43.6906V40.45H42.5516V45ZM44.2766 42.9687H46.1453V42.3437H44.2766V41.0875H46.4391V40.45H43.4859V45H46.4609V44.3687H44.2766V42.9687Z" fill="#3C3C3C"/>
</svg>
