<svg width="75" height="75" viewBox="0 0 75 75" fill="none" xmlns="http://www.w3.org/2000/svg">
<rect width="75" height="75" rx="9.69828" fill="#FBC22E"/>
<g clip-path="url(#clip0)">
<path d="M40.4394 49.3146L41.9986 47.6998L43.0164 49.7815C43.0164 49.7815 41.688 55.456 39.9452 55.7102C38.2017 55.9635 35.0433 53.1698 35.0433 53.1698L35.7821 51.7448L36.4909 50.377L37.8576 50.1812L38.5538 48.6979L40.3706 48.4049L40.4394 49.3146ZM33.6271 36.2648C32.2149 38.3191 30.4176 38.7044 30.4176 38.7044V42.0429C30.4176 42.0429 30.5381 42.7586 33.3081 42.1198C32.5956 41.6282 34.9083 34.4012 33.6271 36.2648ZM33.6271 42.0429C33.5164 42.0703 33.4107 42.0945 33.3077 42.1197C33.3799 42.1696 33.4841 42.1506 33.6271 42.0429ZM45.7592 34.418L43.5506 32.0885C43.5506 32.0885 42.5111 33.8189 40.7371 34.7549C42.7093 34.8317 44.1329 35.9585 44.1329 35.9585L45.7592 34.418ZM39.6968 26.4896L39.1105 25.8702C39.1105 25.8702 38.8343 26.3301 38.3631 26.5785C38.8873 26.5991 39.2654 26.8979 39.2654 26.8979L39.6968 26.4896ZM27.6165 29.3249L27.0302 28.7066C27.0302 28.7066 26.754 29.1665 26.2828 29.4149C26.8066 29.4352 27.1847 29.7343 27.1847 29.7343L27.6165 29.3249ZM40.8858 48.2858C40.8858 48.2858 40.8346 48.1516 40.8761 47.9999C40.7623 48.1119 40.6061 48.1499 40.6061 48.1499L40.7296 48.3723L40.8858 48.2858ZM39.9254 47.3019L40.1535 47.7131L40.4411 47.5529C40.4411 47.5529 40.3467 47.3036 40.4226 47.0253C40.213 47.2332 39.9254 47.3019 39.9254 47.3019ZM35.5693 48.7085C36.093 48.7279 36.4711 49.0279 36.4711 49.0279L36.903 48.6185L36.3165 47.9999C36.3164 47.9999 36.0404 48.4584 35.5693 48.7085ZM43.7976 46.2351C43.645 46.4372 43.4487 46.5518 43.3256 46.6101L46.3297 34.7174L44.1246 36.8077L43.69 36.4636C43.6848 36.459 43.6314 36.4184 43.5383 36.357L41.8878 47.1017L41.9989 47.6999L43.2025 47.1017L43.2506 46.9129L43.2789 47.1017L43.916 47.0037C43.9154 47.0037 43.7492 46.6335 43.7976 46.2351ZM52.8474 42.6659C51.7355 44.2961 50.0247 44.9063 50.0247 44.9063L50.468 47.1012L53.6141 46.4663C53.6146 46.4663 52.7001 44.6672 52.8474 42.6659ZM33.6263 41.592C33.5797 41.5593 33.5272 41.5355 33.4729 41.5205L33.5556 41.6944L33.6263 41.592ZM21.002 32.0885L16 33.7281L34.9137 50.2099L35.5693 49.995L21.002 32.0885ZM33.8881 35.3174C34.0983 35.3174 34.2954 35.4109 34.4294 35.5748C34.6778 35.8775 34.6721 36.2886 34.4574 37.4449L39.0301 47.6999H39.7051L33.975 21.5571L28.92 25.0231L33.5483 35.4045C33.6479 35.3527 33.7595 35.3174 33.8881 35.3174ZM49.9788 20.2737L45.7133 22.2L44.2212 31.9106L46.4465 34.2584L49.9788 20.2737ZM58.0001 34.628L53.8278 33.3042L43.6203 48.9674L43.941 50.5089L49.2451 44.5172L49.2385 44.4867L49.287 44.4704L58.0001 34.628ZM45.7592 42.6659L50.0247 34.0236L48.5202 34.2584L45.7592 42.6659ZM26.6497 32.0541L26.2828 32.9948L30.1819 37.3802L26.6497 32.0541ZM39.6691 33.818L40.367 27.4642L39.4829 27.9519L39.6691 33.818Z" fill="#3C3C3C"/>
</g>
<defs>
<clipPath id="clip0">
<rect width="42.0001" height="42" fill="white" transform="translate(16 17)"/>
</clipPath>
</defs>
</svg>
