<svg width="75" height="75" viewBox="0 0 75 75" fill="none" xmlns="http://www.w3.org/2000/svg">
<rect width="75" height="75" rx="6.46552" fill="#FBC22E"/>
<g clip-path="url(#clip0)">
<path d="M49.8256 20.9402C49.0216 20.1362 47.718 20.1362 46.9141 20.9402L44.6641 23.1903L54.0591 32.5493L56.3143 30.2993C57.1183 29.4952 57.1183 28.1917 56.3143 27.3877L49.8256 20.9402Z" fill="#3C3C3C"/>
<path d="M33.0586 55.2942H42.941V57.7648H33.0586V55.2942Z" fill="#3C3C3C"/>
<path d="M39.2362 35.5296C40.6007 35.5296 41.7068 34.4234 41.7068 33.059C41.7068 31.6945 40.6007 30.5884 39.2362 30.5884C37.8717 30.5884 36.7656 31.6945 36.7656 33.059C36.7656 34.4234 37.8717 35.5296 39.2362 35.5296Z" fill="#3C3C3C"/>
<path d="M34.6163 34.8145L31.8398 38.2184C33.2685 38.7333 34.2929 40.102 34.2929 41.7059C34.2929 42.3954 34.1031 43.041 33.7738 43.5946L39.2702 44.6877C38.9355 42.2758 40.9777 40.2035 43.3927 40.4993L42.5624 36.7076C41.6835 37.5099 40.5151 38 39.2341 38C37.1277 38 35.3259 36.6746 34.6163 34.8145Z" fill="#3C3C3C"/>
<path d="M30.5869 42.9413C31.2691 42.9413 31.8222 42.3882 31.8222 41.706C31.8222 41.0238 31.2691 40.4707 30.5869 40.4707C29.9046 40.4707 29.3516 41.0238 29.3516 41.706C29.3516 42.3882 29.9046 42.9413 30.5869 42.9413Z" fill="#3C3C3C"/>
<path d="M41.1838 23.1765C40.1307 23.1765 36.5714 23.1765 34.8167 23.1765L34.834 23.1938L21.9414 36.0338V45.9235L28.8415 52.8236H47.159L54.0591 45.9235V36.0366L41.1667 23.1936L41.1838 23.1765ZM44.0626 32.0055L44.0631 32.0053L44.0747 32.0577C44.0752 32.0606 44.0759 32.0634 44.0766 32.0663L46.511 43.1829C47.172 45.5551 45.3747 47.8824 42.9414 47.8824C42.5674 47.8824 42.2064 47.8261 41.8658 47.7226L30.1279 45.388L30.129 45.3822C28.3018 45.1552 26.8826 43.5938 26.8826 41.7059C26.8826 40.7907 27.2168 39.9526 27.7685 39.3053L27.7675 39.3044L35.3431 30.0165L35.3451 30.0181C36.2503 28.8625 37.6572 28.1177 39.2355 28.1177C41.5985 28.1177 43.5784 29.7855 44.0626 32.0055Z" fill="#3C3C3C"/>
<path d="M31.3353 23.1903L29.0853 20.9402C28.2813 20.1362 26.9776 20.1362 26.1737 20.9402L19.685 27.3877C18.881 28.1918 18.881 29.4952 19.685 30.2993L21.9403 32.547L31.3353 23.1903Z" fill="#3C3C3C"/>
<path d="M23.0412 20.5707L20.7059 18.2354H17V21.9412L19.3236 24.2648L23.0412 20.5707Z" fill="#3C3C3C"/>
<path d="M55.2962 18.2354L52.9609 20.5707L56.6785 24.2648L59.0021 21.9412V18.2354H55.2962Z" fill="#3C3C3C"/>
<path d="M42.9423 45.4113C43.6246 45.4113 44.1776 44.8582 44.1776 44.176C44.1776 43.4937 43.6246 42.9407 42.9423 42.9407C42.2601 42.9407 41.707 43.4937 41.707 44.176C41.707 44.8582 42.2601 45.4113 42.9423 45.4113Z" fill="#3C3C3C"/>
</g>
<defs>
<clipPath id="clip0">
<rect width="42" height="42" fill="white" transform="translate(17 17)"/>
</clipPath>
</defs>
</svg>
