<svg width="137" height="137" viewBox="0 0 137 137" fill="none" xmlns="http://www.w3.org/2000/svg">
<rect width="137" height="137" rx="6.46552" fill="#FBC22E"/>
<path d="M83.4488 47.7261C76.5193 38.3797 69.4911 30.8178 69.4212 30.7425C69.0629 30.3582 68.5609 30.1401 68.0358 30.1401C67.5103 30.1401 67.0086 30.3582 66.6503 30.7425C66.5797 30.8178 59.5512 38.3797 52.6228 47.7261C43.1579 60.4929 38.3594 70.4031 38.3594 77.1819C38.3594 93.546 51.6725 106.86 68.0364 106.86C84.4002 106.86 97.714 93.5463 97.714 77.1819C97.7128 70.4025 92.9136 60.4929 83.4488 47.7261ZM70.9994 97.2557C69.444 97.6235 67.8408 97.8097 66.2334 97.8097C54.8131 97.8097 45.5215 88.5183 45.5215 77.0977C45.5215 75.5226 46.0061 72.6707 48.3151 68.0219C48.5471 67.5544 49.0821 67.3227 49.5819 67.4714C50.0813 67.6202 50.4023 68.1073 50.3406 68.6255C50.2874 69.073 50.2608 69.494 50.2608 69.8773C50.2608 82.1187 58.9672 92.7522 70.9627 95.1606C71.4571 95.2594 71.8151 95.6899 71.824 96.1938C71.8335 96.6983 71.49 97.1396 70.9994 97.2557Z" fill="#3C3C3C"/>
</svg>
