<svg width="58" height="58" viewBox="0 0 58 58" fill="none" xmlns="http://www.w3.org/2000/svg">
<rect y="0.000488281" width="58" height="58" rx="5" fill="#FBC22E"/>
<path d="M23.8786 27.8701C23.1158 27.8701 22.4975 28.4885 22.4975 29.2512C22.4975 30.0139 23.1158 30.6323 23.8786 30.6323C24.6413 30.6323 25.2596 30.0139 25.2596 29.2512C25.2586 28.4889 24.6409 27.8711 23.8786 27.8701Z" fill="#3C3C3C"/>
<path d="M24.3383 16.9591H34.6615V14.0806C34.6587 13.5872 34.2564 13.1896 33.763 13.1925C33.7621 13.1925 33.761 13.1925 33.76 13.1925H32.1579C31.8925 13.1907 31.6644 13.0033 31.6114 12.7432C31.3964 11.7281 30.5011 11.0015 29.4635 11C28.4237 11 27.5593 11.7077 27.3122 12.7571C27.2535 13.0102 27.029 13.1903 26.7691 13.1925H25.2032C24.7268 13.191 24.3394 13.5761 24.338 14.0526C24.338 14.0619 24.338 14.0713 24.3383 14.0806V16.9591Z" fill="#3C3C3C"/>
<path d="M22.1762 39.0701H27.0588V34.3967H22.1762V39.0701ZM23.1347 36.456C23.1347 36.456 23.1348 36.4559 23.1347 36.456C23.3266 36.2148 23.6776 36.1748 23.9188 36.3666L24.3234 36.6887L25.2801 35.5956C25.4831 35.3637 25.8356 35.3402 26.0675 35.5432C26.2994 35.7461 26.3229 36.0987 26.12 36.3306L24.8128 37.8244C24.6165 38.0486 24.2787 38.079 24.0455 37.8936L23.2239 37.2401C22.9828 37.0482 22.9428 36.6971 23.1347 36.456Z" fill="#3C3C3C"/>
<path d="M34.882 27.8701C34.1193 27.8701 33.5009 28.4885 33.5009 29.2512C33.5009 30.0139 34.1193 30.6323 34.882 30.6323C35.6448 30.6323 36.2631 30.0139 36.2631 29.2512C36.2621 28.4889 35.6443 27.8711 34.882 27.8701Z" fill="#3C3C3C"/>
<path d="M39.1855 15.7036H35.7777V17.5397C35.7743 17.8389 35.5291 18.0788 35.2299 18.0754C35.2255 18.0754 35.221 18.0753 35.2166 18.0752H23.747C23.4646 18.0827 23.2296 17.8598 23.222 17.5774C23.2217 17.5649 23.2218 17.5522 23.2224 17.5397V15.7036H19.8147C18.9177 15.7036 18.2004 16.4607 18.2004 17.3576V40.4059C18.1983 41.2842 18.9085 41.9979 19.7868 42C19.7961 42 19.8054 42 19.8147 41.9998H39.1855C40.0637 42.0131 40.7863 41.3118 40.7996 40.4337C40.7997 40.4244 40.7998 40.4151 40.7998 40.4058V17.3576C40.7998 16.4607 40.0824 15.7036 39.1855 15.7036ZM28.1748 39.6283C28.1748 39.9365 27.9249 40.1863 27.6168 40.1863H21.6182C21.31 40.1863 21.0602 39.9365 21.0602 39.6283V33.839C21.0602 33.5308 21.31 33.2809 21.6182 33.2809H27.6168C27.9249 33.2809 28.1748 33.5308 28.1748 33.839V39.6283ZM37.3706 38.7216H30.1256C29.8174 38.7216 29.5676 38.4717 29.5676 38.1635C29.5676 37.8554 29.8174 37.6055 30.1256 37.6055H37.3706C37.6788 37.6055 37.9286 37.8554 37.9286 38.1635C37.9286 38.4717 37.6788 38.7216 37.3706 38.7216ZM29.5676 35.234C29.5676 34.9258 29.8174 34.676 30.1256 34.676H34.4577C34.7659 34.676 35.0157 34.9258 35.0157 35.234C35.0157 35.5421 34.7659 35.792 34.4577 35.792H30.1256C29.8174 35.792 29.5676 35.5421 29.5676 35.234ZM39.6838 27.9825C39.6838 29.0823 38.7831 30.0026 37.6833 30.0026H37.2718C36.9601 30.9792 36.007 31.7743 34.8823 31.7743C33.7576 31.7743 32.8043 30.9792 32.4924 30.0026H26.2681C25.9565 30.9792 25.0033 31.7743 23.8787 31.7743C22.754 31.7743 21.8008 30.9792 21.4892 30.0026H21.3168C20.2171 30.0026 19.3164 29.0823 19.3164 27.9825V26.7688C19.3194 25.8707 19.9216 25.0851 20.7881 24.8489L23.9322 23.9948L25.8046 21.5445C26.2757 20.9362 27.0031 20.582 27.7724 20.5862H33.3189C34.1692 20.577 34.9633 21.0102 35.4158 21.7301L36.8714 24.0364L38.5116 24.7813C39.2236 25.1055 39.6815 25.8148 39.6838 26.5971V27.9825Z" fill="#3C3C3C"/>
<path d="M38.0498 25.7994L36.2553 24.987C36.1558 24.9432 36.0716 24.871 36.0132 24.7793L34.4692 22.3225C34.2202 21.9292 33.7843 21.6941 33.3189 21.7021H27.7724C27.3512 21.6969 26.9516 21.8887 26.6922 22.2206L24.7049 24.813C24.6303 24.9106 24.5257 24.9809 24.4073 25.0132L21.0823 25.9212C20.7001 26.0259 20.4344 26.3724 20.4324 26.7687V27.9824C20.4336 28.4736 20.8258 28.8744 21.3168 28.8865H21.412C21.6269 27.5242 22.9054 26.594 24.2677 26.8089C25.3375 26.9776 26.1766 27.8167 26.3453 28.8865H32.4157C32.6306 27.5242 33.9092 26.5942 35.2714 26.8091C36.3411 26.9779 37.18 27.8169 37.3488 28.8865H37.6836C38.1745 28.8742 38.5665 28.4734 38.5677 27.9824V26.597C38.566 26.2527 38.3636 25.941 38.0498 25.7994Z" fill="#3C3C3C"/>
</svg>
