<svg width="28" height="28" viewBox="0 0 28 28" fill="none" xmlns="http://www.w3.org/2000/svg">
<g clip-path="url(#clip0)">
<path d="M10.129 18.0064C10.129 17.5165 10.5252 17.1215 11.0149 17.1215C11.5044 17.1215 11.901 17.5173 11.901 18.0064C11.901 19.0388 12.7399 19.8777 13.7702 19.8777C14.2597 19.8777 14.6561 20.2735 14.6561 20.7626C14.6561 21.2526 14.2599 21.6491 13.7702 21.6491C11.7619 21.6491 10.129 20.0147 10.129 18.0064ZM25.5385 24.3656C25.5385 27.2346 18.1397 28.0002 13.7694 28.0002C9.39783 28.0002 2 27.2334 2 24.3656C2 22.6364 4.6553 21.7285 7.26143 21.2608C6.76771 20.2759 6.46288 19.1831 6.46288 18.0084C6.46288 14.3704 12.3026 1.87949 12.9694 0.468486C13.2592 -0.156162 14.2797 -0.156162 14.5709 0.468486C15.2365 1.87949 21.0778 14.3704 21.0778 18.0084C21.0778 19.1831 20.7746 20.2759 20.2791 21.2608C22.8888 21.7319 25.5385 22.6396 25.5385 24.3656ZM8.23408 18.0064C8.23408 21.0613 10.7169 23.5429 13.7694 23.5429C16.823 23.5429 19.3056 21.0579 19.3056 18.0064C19.3056 15.6109 15.8284 7.47653 13.7694 2.95268C11.7095 7.47653 8.23408 15.6109 8.23408 18.0064ZM23.7771 24.3154C23.6436 24.1053 22.3353 23.3518 19.1787 22.8764C17.8405 24.3624 15.9225 25.3163 13.77 25.3163C11.6174 25.3163 9.70006 24.3624 8.36221 22.8764C5.20199 23.3518 3.89493 24.1121 3.7648 24.4138C4.00927 24.8785 7.23365 26.2295 13.7712 26.2295C20.3091 26.2295 23.5309 24.8785 23.7771 24.3154Z" fill="#3C3C3C"/>
<path fill-rule="evenodd" clip-rule="evenodd" d="M8.23408 18.0064C8.23408 21.0613 10.7169 23.5429 13.7694 23.5429C16.823 23.5429 19.3056 21.0579 19.3056 18.0064C19.3056 15.6109 15.8284 7.47653 13.7694 2.95268C11.7095 7.47653 8.23408 15.6109 8.23408 18.0064ZM11.0149 17.1215C10.5252 17.1215 10.129 17.5165 10.129 18.0064C10.129 20.0147 11.7619 21.6491 13.7702 21.6491C14.2599 21.6491 14.6561 21.2526 14.6561 20.7626C14.6561 20.2735 14.2597 19.8777 13.7702 19.8777C12.7399 19.8777 11.901 19.0388 11.901 18.0064C11.901 17.5173 11.5044 17.1215 11.0149 17.1215Z" fill="#3C3C3C"/>
</g>
<defs>
<clipPath id="clip0">
<rect width="28" height="28" fill="white"/>
</clipPath>
</defs>
</svg>
