<svg width="50" height="50" viewBox="0 0 50 50" fill="none" xmlns="http://www.w3.org/2000/svg">
<rect width="50" height="50" rx="6.46552" fill="#FBC22E"/>
<g clip-path="url(#clip0)">
<path d="M21.129 29.0064C21.129 28.5165 21.5252 28.1215 22.0149 28.1215C22.5044 28.1215 22.901 28.5173 22.901 29.0064C22.901 30.0388 23.7399 30.8777 24.7702 30.8777C25.2597 30.8777 25.6561 31.2735 25.6561 31.7626C25.6561 32.2526 25.2599 32.6491 24.7702 32.6491C22.7619 32.6491 21.129 31.0147 21.129 29.0064ZM36.5385 35.3656C36.5385 38.2346 29.1397 39.0002 24.7694 39.0002C20.3978 39.0002 13 38.2334 13 35.3656C13 33.6364 15.6553 32.7285 18.2614 32.2608C17.7677 31.2759 17.4629 30.1831 17.4629 29.0084C17.4629 25.3704 23.3026 12.8795 23.9694 11.4685C24.2592 10.8438 25.2797 10.8438 25.5709 11.4685C26.2365 12.8795 32.0778 25.3704 32.0778 29.0084C32.0778 30.1831 31.7746 31.2759 31.2791 32.2608C33.8888 32.7319 36.5385 33.6396 36.5385 35.3656ZM19.2341 29.0064C19.2341 32.0613 21.7169 34.5429 24.7694 34.5429C27.823 34.5429 30.3056 32.0579 30.3056 29.0064C30.3056 26.6109 26.8284 18.4765 24.7694 13.9527C22.7095 18.4765 19.2341 26.6109 19.2341 29.0064ZM34.7771 35.3154C34.6436 35.1053 33.3353 34.3518 30.1787 33.8764C28.8405 35.3624 26.9225 36.3163 24.77 36.3163C22.6174 36.3163 20.7001 35.3624 19.3622 33.8764C16.202 34.3518 14.8949 35.1121 14.7648 35.4138C15.0093 35.8785 18.2336 37.2295 24.7712 37.2295C31.3091 37.2295 34.5309 35.8785 34.7771 35.3154Z" fill="#3C3C3C"/>
<path fill-rule="evenodd" clip-rule="evenodd" d="M19.2341 29.0064C19.2341 32.0613 21.7169 34.5429 24.7694 34.5429C27.823 34.5429 30.3056 32.0579 30.3056 29.0064C30.3056 26.6109 26.8284 18.4765 24.7694 13.9527C22.7095 18.4765 19.2341 26.6109 19.2341 29.0064ZM22.0149 28.1215C21.5252 28.1215 21.129 28.5165 21.129 29.0064C21.129 31.0147 22.7619 32.6491 24.7702 32.6491C25.2599 32.6491 25.6561 32.2526 25.6561 31.7626C25.6561 31.2735 25.2597 30.8777 24.7702 30.8777C23.7399 30.8777 22.901 30.0388 22.901 29.0064C22.901 28.5173 22.5044 28.1215 22.0149 28.1215Z" fill="#3C3C3C"/>
</g>
<defs>
<clipPath id="clip0">
<rect width="28" height="28" fill="white" transform="translate(11 11)"/>
</clipPath>
</defs>
</svg>
