<svg width="36" height="36" viewBox="0 0 36 36" fill="none" xmlns="http://www.w3.org/2000/svg">
<rect width="36" height="36" rx="4.31034" fill="#FBC22E"/>
<path fill-rule="evenodd" clip-rule="evenodd" d="M26.6618 14.8362H28.7564C28.8251 14.8362 28.8932 14.8497 28.9568 14.876C29.0203 14.9023 29.0781 14.9409 29.1267 14.9895C29.1753 15.0381 29.2139 15.0959 29.2402 15.1594C29.2665 15.223 29.28 15.2911 29.28 15.3599V24.7853C29.28 24.8541 29.2665 24.9222 29.2402 24.9857C29.2139 25.0493 29.1753 25.107 29.1267 25.1557C29.0781 25.2043 29.0203 25.2429 28.9568 25.2692C28.8932 25.2955 28.8251 25.309 28.7564 25.3089H26.6618C26.593 25.309 26.5249 25.2955 26.4614 25.2692C26.3978 25.2429 26.3401 25.2043 26.2914 25.1557C26.2428 25.107 26.2042 25.0493 26.1779 24.9857C26.1516 24.9222 26.1381 24.8541 26.1382 24.7853V23.2144H24.0436V25.8326C24.0437 25.9014 24.0302 25.9695 24.0039 26.033C23.9776 26.0966 23.939 26.1543 23.8904 26.2029C23.8417 26.2516 23.784 26.2901 23.7204 26.3164C23.6569 26.3427 23.5888 26.3563 23.52 26.3562H13.0473C12.9785 26.3563 12.9104 26.3427 12.8468 26.3164C12.7833 26.2901 12.7255 26.2516 12.6769 26.2029C12.6283 26.1543 12.5897 26.0966 12.5634 26.033C12.5371 25.9695 12.5236 25.9014 12.5236 25.8326V24.2617H8.85817C8.7894 24.2617 8.72129 24.2482 8.65774 24.2219C8.59419 24.1956 8.53645 24.157 8.48781 24.1084C8.43918 24.0598 8.40061 24.002 8.37431 23.9385C8.34801 23.8749 8.33449 23.8068 8.33454 23.738V19.5489H7.28726V21.6435C7.28726 21.7824 7.23209 21.9156 7.13389 22.0138C7.03569 22.112 6.9025 22.1671 6.76363 22.1671C6.62475 22.1671 6.49156 22.112 6.39336 22.0138C6.29516 21.9156 6.23999 21.7824 6.23999 21.6435V16.4071C6.23999 16.2682 6.29516 16.1351 6.39336 16.0369C6.49156 15.9387 6.62475 15.8835 6.76363 15.8835C6.9025 15.8835 7.03569 15.9387 7.13389 16.0369C7.23209 16.1351 7.28726 16.2682 7.28726 16.4071V18.5017H8.33454V14.3126C8.33449 14.2438 8.34801 14.1757 8.37431 14.1121C8.40061 14.0486 8.43918 13.9909 8.48781 13.9422C8.53645 13.8936 8.59419 13.855 8.65774 13.8287C8.72129 13.8024 8.7894 13.7889 8.85817 13.7889H11.4764V12.218C11.4763 12.1493 11.4898 12.0811 11.5161 12.0176C11.5424 11.9541 11.581 11.8963 11.6296 11.8477C11.6783 11.799 11.736 11.7605 11.7996 11.7342C11.8631 11.7079 11.9312 11.6944 12 11.6944H16.1891V10.6471H14.0945C13.9557 10.6471 13.8225 10.592 13.7243 10.4938C13.6261 10.3956 13.5709 10.2624 13.5709 10.1235C13.5709 9.98461 13.6261 9.85142 13.7243 9.75322C13.8225 9.65502 13.9557 9.59985 14.0945 9.59985H19.3309C19.4698 9.59985 19.603 9.65502 19.7012 9.75322C19.7994 9.85142 19.8545 9.98461 19.8545 10.1235C19.8545 10.2624 19.7994 10.3956 19.7012 10.4938C19.603 10.592 19.4698 10.6471 19.3309 10.6471H17.2364V11.6944H21.4254C21.4942 11.6944 21.5623 11.7079 21.6259 11.7342C21.6894 11.7605 21.7472 11.799 21.7958 11.8477C21.8444 11.8963 21.883 11.9541 21.9093 12.0176C21.9356 12.0811 21.9491 12.1493 21.9491 12.218V13.7889H23.52C23.5888 13.7889 23.6569 13.8024 23.7204 13.8287C23.784 13.855 23.8417 13.8936 23.8904 13.9422C23.939 13.9909 23.9776 14.0486 24.0039 14.1121C24.0302 14.1757 24.0437 14.2438 24.0436 14.3126V16.9308H26.1382V15.3599C26.1381 15.2911 26.1516 15.223 26.1779 15.1594C26.2042 15.0959 26.2428 15.0381 26.2914 14.9895C26.3401 14.9409 26.3978 14.9023 26.4614 14.876C26.5249 14.8497 26.593 14.8362 26.6618 14.8362ZM18.2047 18.4449C18.2861 18.472 18.3476 18.5393 18.3674 18.6229C18.387 18.7064 18.3621 18.7941 18.3014 18.8548L15.8251 21.3311C15.7389 21.4173 15.6038 21.4276 15.5052 21.357C15.4068 21.2859 15.3744 21.1538 15.4285 21.0452L16.2914 19.3196L15.0764 18.9146C14.995 18.8875 14.9335 18.8202 14.9137 18.7366C14.8941 18.6531 14.919 18.5654 14.9797 18.5047L17.456 16.0284C17.5416 15.9423 17.677 15.9317 17.7759 16.0025C17.8743 16.0737 17.9067 16.2057 17.8526 16.3143L16.9897 18.0399L18.2047 18.4449Z" fill="#3C3C3C"/>
</svg>
