<svg width="36" height="36" viewBox="0 0 36 36" fill="none" xmlns="http://www.w3.org/2000/svg">
<rect width="36" height="36" rx="6.46552" fill="#FBC22E"/>
<g clip-path="url(#clip0)">
<path d="M15.2129 20.8845C15.2129 20.5318 15.4981 20.2474 15.8507 20.2474C16.2032 20.2474 16.4887 20.5324 16.4887 20.8845C16.4887 21.6279 17.0927 22.2319 17.8345 22.2319C18.187 22.2319 18.4723 22.5168 18.4723 22.869C18.4723 23.2218 18.1871 23.5073 17.8345 23.5073C16.3885 23.5073 15.2129 22.3305 15.2129 20.8845ZM26.3077 25.4632C26.3077 27.5288 20.9806 28.08 17.8339 28.08C14.6864 28.08 9.35999 27.528 9.35999 25.4632C9.35999 24.2181 11.2718 23.5644 13.1482 23.2277C12.7927 22.5186 12.5733 21.7318 12.5733 20.886C12.5733 18.2666 16.7778 9.27315 17.258 8.25723C17.4666 7.80749 18.2013 7.80749 18.411 8.25723C18.8903 9.27315 23.096 18.2666 23.096 20.886C23.096 21.7318 22.8777 22.5186 22.5209 23.2277C24.3999 23.5669 26.3077 24.2204 26.3077 25.4632ZM13.8485 20.8845C13.8485 23.084 15.6361 24.8708 17.8339 24.8708C20.0326 24.8708 21.82 23.0816 21.82 20.8845C21.82 19.1598 19.3164 13.303 17.8339 10.0459C16.3508 13.303 13.8485 19.1598 13.8485 20.8845ZM25.0395 25.427C24.9434 25.2758 24.0014 24.7332 21.7287 24.391C20.7651 25.4609 19.3842 26.1476 17.8344 26.1476C16.2845 26.1476 14.904 25.4609 13.9408 24.391C11.6654 24.7332 10.7243 25.2807 10.6306 25.4978C10.8067 25.8325 13.1282 26.8052 17.8352 26.8052C22.5425 26.8052 24.8622 25.8325 25.0395 25.427Z" fill="#3C3C3C"/>
<path fill-rule="evenodd" clip-rule="evenodd" d="M13.8485 20.8845C13.8485 23.084 15.6361 24.8708 17.8339 24.8708C20.0326 24.8708 21.82 23.0816 21.82 20.8845C21.82 19.1598 19.3164 13.303 17.8339 10.0459C16.3508 13.303 13.8485 19.1598 13.8485 20.8845ZM15.8507 20.2474C15.4981 20.2474 15.2129 20.5318 15.2129 20.8845C15.2129 22.3305 16.3885 23.5073 17.8345 23.5073C18.1871 23.5073 18.4723 23.2218 18.4723 22.869C18.4723 22.5168 18.187 22.2319 17.8345 22.2319C17.0927 22.2319 16.4887 21.6279 16.4887 20.8845C16.4887 20.5324 16.2032 20.2474 15.8507 20.2474Z" fill="#3C3C3C"/>
</g>
<defs>
<clipPath id="clip0">
<rect width="20.16" height="20.16" fill="white" transform="translate(7.92004 7.91992)"/>
</clipPath>
</defs>
</svg>
