<svg width="28" height="28" viewBox="0 0 28 28" fill="none" xmlns="http://www.w3.org/2000/svg">
<rect width="27.13" height="27.13" rx="5" fill="#3C3C3C"/>
<circle cx="13.565" cy="13.565" r="13.565" fill="#3C3C3C"/>
<path d="M13.9432 6.78247C11.8977 6.78247 10.2256 8.45459 10.2256 10.5001C10.2256 12.5457 11.8977 14.2178 13.9432 14.2178C15.9888 14.2178 17.6609 12.5457 17.6609 10.5001C17.6609 8.45459 15.9888 6.78247 13.9432 6.78247Z" fill="#FBC22E"/>
<path d="M20.3237 17.1886C20.2263 16.945 20.0964 16.7178 19.9503 16.5067C19.2035 15.4028 18.0509 14.6722 16.7522 14.4937C16.5898 14.4774 16.4113 14.5099 16.2814 14.6073C15.5995 15.1106 14.7878 15.3703 13.9436 15.3703C13.0994 15.3703 12.2877 15.1106 11.6059 14.6073C11.476 14.5099 11.2974 14.4612 11.1351 14.4937C9.83635 14.6722 8.6675 15.4028 7.93696 16.5067C7.79085 16.7178 7.66097 16.9613 7.56358 17.1886C7.51489 17.286 7.53111 17.3996 7.5798 17.497C7.70969 17.7243 7.87202 17.9516 8.01812 18.1464C8.2454 18.4549 8.48892 18.7308 8.76491 18.9906C8.99218 19.2178 9.25192 19.4289 9.5117 19.6399C10.7942 20.5978 12.3365 21.101 13.9274 21.101C15.5184 21.101 17.0606 20.5977 18.3431 19.6399C18.6029 19.4451 18.8626 19.2178 19.0899 18.9906C19.3497 18.7308 19.6094 18.4548 19.8367 18.1464C19.999 17.9354 20.1452 17.7243 20.275 17.497C20.3561 17.3996 20.3724 17.2859 20.3237 17.1886Z" fill="#FBC22E"/>
</svg>
