<svg width="58" height="58" viewBox="0 0 58 58" fill="none" xmlns="http://www.w3.org/2000/svg">
<rect y="-0.000244141" width="58" height="58" rx="5" fill="#FBC22E"/>
<path d="M22.8807 30.1976C22.8215 30.3283 22.8036 30.4739 22.8292 30.6151C22.8549 30.7562 22.9229 30.8862 23.0243 30.9877C23.0839 31.0479 23.1543 31.0964 23.2317 31.1309L28.7153 33.6234C28.7998 33.6634 28.8914 33.6863 28.9848 33.6905C29.0782 33.6948 29.1716 33.6804 29.2594 33.6483C29.3472 33.6161 29.4277 33.5668 29.4962 33.5032C29.5648 33.4396 29.62 33.363 29.6586 33.2778C29.6973 33.1927 29.7186 33.1007 29.7213 33.0072C29.724 32.9137 29.7081 32.8207 29.6745 32.7334C29.6409 32.6461 29.5903 32.5664 29.5255 32.4989C29.4608 32.4315 29.3833 32.3775 29.2975 32.3403L23.8141 29.8476C23.6439 29.7702 23.4499 29.7637 23.2749 29.8293C23.0999 29.895 22.9581 30.0274 22.8807 30.1976Z" fill="#3C3C3C"/>
<path d="M25.0182 28.9932C25.0779 29.0533 25.1482 29.1018 25.2256 29.1363L30.7092 31.6289C30.7935 31.6671 30.8845 31.6883 30.9769 31.6914C31.0694 31.6945 31.1616 31.6793 31.2482 31.6468C31.3348 31.6142 31.4142 31.5649 31.4817 31.5017C31.5493 31.4385 31.6038 31.3626 31.642 31.2783C31.6802 31.1941 31.7015 31.1031 31.7045 31.0106C31.7076 30.9181 31.6924 30.826 31.6599 30.7394C31.6274 30.6527 31.5781 30.5734 31.5148 30.5058C31.4516 30.4383 31.3757 30.3838 31.2915 30.3456L25.8079 27.853C25.6575 27.7846 25.488 27.7713 25.3288 27.8152C25.1696 27.8591 25.0308 27.9575 24.9368 28.0933C24.8428 28.229 24.7994 28.3935 24.8143 28.558C24.8292 28.7224 24.9014 28.8765 25.0182 28.9932Z" fill="#3C3C3C"/>
<path d="M22.0146 38.9765L25.7948 35.1963L26.7212 35.6174C26.8057 35.6571 26.8972 35.6797 26.9904 35.6838C27.0837 35.6879 27.1768 35.6734 27.2645 35.6411C27.3521 35.6089 27.4324 35.5596 27.5008 35.4961C27.5692 35.4325 27.6243 35.356 27.6628 35.271C27.7014 35.186 27.7227 35.0942 27.7255 35.0009C27.7283 34.9076 27.7125 34.8146 27.679 34.7275C27.6456 34.6403 27.5952 34.5607 27.5307 34.4932C27.4662 34.4257 27.389 34.3717 27.3034 34.3343L21.8198 31.8415C21.6695 31.7732 21.4999 31.7598 21.3407 31.8037C21.1815 31.8476 21.0428 31.946 20.9488 32.0818C20.8547 32.2176 20.8114 32.3821 20.8263 32.5465C20.8412 32.711 20.9133 32.865 21.0302 32.9817C21.0899 33.0419 21.1602 33.0904 21.2376 33.1248L21.6821 33.3269L19.0235 35.9854C18.2911 35.8808 17.5444 36.0092 16.8891 36.3526C16.2337 36.696 15.703 37.2368 15.3722 37.8986C15.0413 38.5603 14.927 39.3094 15.0456 40.0396C15.1641 40.7699 15.5093 41.4444 16.0325 41.9676C16.5556 42.4907 17.2301 42.836 17.9604 42.9545C18.6907 43.073 19.4397 42.9588 20.1015 42.6279C20.7632 42.297 21.304 41.7663 21.6474 41.111C21.9908 40.4557 22.1192 39.7089 22.0146 38.9765ZM23.053 33.95L24.4238 34.5732L21.4783 37.5187C21.2166 37.1226 20.8774 36.7834 20.4813 36.5217L23.053 33.95ZM17.0421 40.9579C16.7463 40.6621 16.5449 40.2853 16.4633 39.875C16.3817 39.4647 16.4236 39.0395 16.5836 38.653C16.7437 38.2665 17.0148 37.9362 17.3626 37.7038C17.7104 37.4714 18.1193 37.3473 18.5377 37.3473C18.956 37.3473 19.3649 37.4714 19.7127 37.7038C20.0605 37.9362 20.3316 38.2665 20.4917 38.653C20.6517 39.0395 20.6936 39.4647 20.612 39.875C20.5304 40.2853 20.329 40.6621 20.0332 40.9579C19.6362 41.354 19.0984 41.5764 18.5377 41.5764C17.9769 41.5764 17.4391 41.354 17.0421 40.9579Z" fill="#3C3C3C"/>
<path d="M17.0421 40.9579C16.7463 40.6621 16.5449 40.2853 16.4633 39.875C16.3817 39.4647 16.4236 39.0395 16.5836 38.653C16.7437 38.2665 17.0148 37.9362 17.3626 37.7038C17.7104 37.4714 18.1193 37.3473 18.5377 37.3473C18.956 37.3473 19.3649 37.4714 19.7127 37.7038C20.0605 37.9362 20.3316 38.2665 20.4917 38.653C20.6517 39.0395 20.6936 39.4647 20.612 39.875C20.5304 40.2853 20.329 40.6621 20.0332 40.9579C19.6362 41.354 19.0984 41.5764 18.5377 41.5764C17.9769 41.5764 17.4391 41.354 17.0421 40.9579Z" fill="#3C3C3C"/>
<path d="M23.053 33.95L24.4238 34.5732L21.4783 37.5187C21.2166 37.1226 20.8774 36.7834 20.4813 36.5217L23.053 33.95Z" fill="#3C3C3C"/>
<path d="M40.9706 23.0115L39.961 22.002C40.7197 21.9026 41.4247 21.5567 41.9676 21.0175C42.295 20.6902 42.5546 20.3016 42.7318 19.8739C42.9089 19.4462 43.0001 18.9878 43.0001 18.5249C43.0001 18.062 42.909 17.6036 42.7318 17.1759C42.5547 16.7482 42.295 16.3596 41.9677 16.0323C41.6404 15.7049 41.2518 15.4453 40.8241 15.2681C40.3964 15.091 39.938 14.9998 39.4751 14.9998C39.0122 14.9997 38.5538 15.0909 38.1261 15.2681C37.6985 15.4452 37.3099 15.7049 36.9825 16.0322C36.4433 16.5751 36.0974 17.2801 35.9981 18.0388L34.9885 17.0292C34.9231 16.9637 34.8454 16.9117 34.7598 16.8763C34.6743 16.8408 34.5826 16.8225 34.49 16.8225C34.3974 16.8225 34.3057 16.8408 34.2202 16.8763C34.1346 16.9117 34.0569 16.9637 33.9915 17.0292L26.0153 25.0054C25.8833 25.1377 25.8091 25.317 25.8091 25.5039C25.8091 25.6908 25.8833 25.8701 26.0153 26.0024C26.0691 26.0558 26.1309 26.1005 26.1984 26.1349L34.1745 30.123C34.307 30.1889 34.4568 30.2116 34.6028 30.1879C34.7489 30.1641 34.8838 30.0951 34.9885 29.9905L40.9706 24.0086C41.0361 23.9431 41.0881 23.8654 41.1235 23.7799C41.159 23.6943 41.1773 23.6026 41.1773 23.51C41.1773 23.4174 41.159 23.3258 41.1235 23.2402C41.0881 23.1547 41.0361 23.077 40.9706 23.0115ZM40.9706 17.0296C41.2664 17.3253 41.4678 17.7022 41.5494 18.1125C41.6311 18.5228 41.5892 18.948 41.4291 19.3345C41.269 19.721 40.9979 20.0513 40.6501 20.2837C40.3023 20.5161 39.8934 20.6401 39.4751 20.6401C39.0568 20.6401 38.6479 20.5161 38.3 20.2837C37.9522 20.0513 37.6812 19.721 37.5211 19.3345C37.361 18.948 37.3191 18.5228 37.4007 18.1125C37.4823 17.7022 37.6838 17.3253 37.9796 17.0296C38.3765 16.6334 38.9143 16.4109 39.475 16.4109C40.0358 16.4108 40.5736 16.6332 40.9706 17.0292V17.0296ZM34.3506 28.6346L27.7036 25.3115L32.4961 20.5188L37.4812 25.5039L34.3506 28.6346ZM38.4781 24.5069L33.493 19.5218L34.49 18.5247L39.4751 23.5099L38.4781 24.5069Z" fill="#3C3C3C"/>
<path d="M34.3506 28.6346L27.7036 25.3115L32.4961 20.5188L37.4812 25.5039L34.3506 28.6346Z" fill="#3C3C3C"/>
<path d="M40.9706 17.0296C41.2664 17.3253 41.4678 17.7022 41.5494 18.1125C41.6311 18.5228 41.5892 18.948 41.4291 19.3345C41.269 19.721 40.9979 20.0513 40.6501 20.2837C40.3023 20.5161 39.8934 20.6401 39.4751 20.6401C39.0568 20.6401 38.6479 20.5161 38.3 20.2837C37.9522 20.0513 37.6812 19.721 37.5211 19.3345C37.361 18.948 37.3191 18.5228 37.4007 18.1125C37.4823 17.7022 37.6838 17.3253 37.9796 17.0296C38.3765 16.6334 38.9143 16.4109 39.475 16.4109C40.0358 16.4108 40.5736 16.6332 40.9706 17.0292V17.0296Z" fill="#3C3C3C"/>
</svg>
