<svg width="58" height="58" viewBox="0 0 58 58" fill="none" xmlns="http://www.w3.org/2000/svg">
<rect y="0.000488281" width="58" height="58" rx="5" fill="#FBC22E"/>
<path d="M18.9783 39.1861C20.8821 39.1861 22.4254 37.6427 22.4254 35.7389C22.4254 33.8351 20.8821 32.2917 18.9783 32.2917C17.0745 32.2917 15.5311 33.8351 15.5311 35.7389C15.5311 37.6427 17.0745 39.1861 18.9783 39.1861Z" fill="#3C3C3C"/>
<path d="M39.1536 30.5613C39.3443 30.0423 39.4419 29.4938 39.4419 28.9408C39.4411 26.345 37.3361 24.2414 34.7403 24.2422C34.1885 24.2424 33.6409 24.3397 33.1227 24.5299V33.3512C35.5586 34.2462 38.2587 32.9971 39.1536 30.5613Z" fill="#3C3C3C"/>
<path d="M24.8134 20.032L20.4561 25.7533C20.3482 25.894 20.1972 25.9953 20.0261 26.0419L12.7356 28.033C11.7151 28.3122 11.0055 29.2371 11 30.295V32.9561C11.0106 34.2507 12.0669 35.2925 13.3615 35.285H13.9421C14.1827 32.5036 16.6326 30.4438 19.414 30.6844C21.8618 30.8962 23.803 32.8373 24.0147 35.285H31.514V18.6929H27.5155C26.4559 18.6963 25.4578 19.1909 24.8134 20.032Z" fill="#3C3C3C"/>
<path d="M44.8772 27.5504C44.5269 27.5173 44.2375 27.2629 44.1599 26.9197C43.9117 25.7728 43.4521 24.6823 42.8046 23.7037C42.6076 23.408 42.6281 23.018 42.8549 22.7444L44.2044 21.1138L42.563 19.4516L40.9395 20.7965C40.6695 21.0206 40.2853 21.0439 39.9903 20.8539C39.0058 20.2097 37.9128 19.749 36.7642 19.4941C36.4226 19.4218 36.1672 19.1364 36.1334 18.7888L35.93 16.6821H33.1228V22.8451C36.4896 21.9515 39.9434 23.9563 40.837 27.3232C41.7306 30.6901 39.7257 34.1438 36.3588 35.0374C35.2985 35.3189 34.1831 35.3189 33.1227 35.0374V41.2184H35.9299L36.1337 39.1024C36.1672 38.7535 36.4221 38.4663 36.7645 38.3916C37.9114 38.1435 39.0022 37.6838 39.9808 37.0363C40.2766 36.8393 40.6667 36.8598 40.9402 37.0866L42.5675 38.4341L44.2368 36.7648L42.8893 35.1376C42.6659 34.8671 42.6434 34.483 42.8339 34.1884C43.4794 33.2041 43.9415 32.1111 44.198 30.9623C44.2736 30.6199 44.5613 30.3651 44.9103 30.3316L46.9999 30.1283V27.7541L44.8772 27.5504Z" fill="#3C3C3C"/>
</svg>
