<svg width="22" height="22" viewBox="0 0 22 22" fill="none" xmlns="http://www.w3.org/2000/svg">
<g clip-path="url(#clip0)">
<path d="M1.93379 9.71086C1.57813 9.71086 1.28927 9.422 1.28927 9.06633C1.28927 8.71017 1.00091 8.42181 0.644742 8.42181C0.288575 8.42181 0.000217438 8.71017 0.000217438 9.06633C0.000217438 10.1325 0.86764 10.9999 1.93379 10.9999C2.99994 10.9999 3.86737 10.1325 3.86737 9.06633C3.86737 8.2261 3.32858 7.50924 2.57832 7.24287V5.84371H3.86737V2.62109C3.86737 2.26492 3.57901 1.97656 3.22284 1.97656H0.644742C0.288575 1.97656 0.000217438 2.26492 0.000217438 2.62109V5.19919C0.000217438 5.55535 0.288575 5.84371 0.644742 5.84371H1.28927V7.77729C1.28927 8.13345 1.57762 8.42181 1.93379 8.42181C2.28946 8.42181 2.57832 8.71067 2.57832 9.06633C2.57832 9.422 2.28946 9.71086 1.93379 9.71086Z" fill="#FFB800"/>
<path d="M17.4857 17.4452C16.7751 17.4452 16.1967 18.0236 16.1967 18.7342C16.1967 19.4449 16.7751 20.0233 17.4857 20.0233C18.1964 20.0233 18.7748 19.4449 18.7748 18.7342C18.7748 18.0236 18.1964 17.4452 17.4857 17.4452Z" fill="#FFB800"/>
<path d="M4.51103 17.4452C3.80038 17.4452 3.22198 18.0236 3.22198 18.7342C3.22198 19.4449 3.80038 20.0233 4.51103 20.0233C5.22169 20.0233 5.80008 19.4449 5.80008 18.7342C5.80008 18.0236 5.22169 17.4452 4.51103 17.4452Z" fill="#FFB800"/>
<path d="M7.09077 17.4452C6.38011 17.4452 5.80172 18.0236 5.80172 18.7342C5.80172 19.4449 6.38011 20.0233 7.09077 20.0233C7.80142 20.0233 8.37982 19.4449 8.37982 18.7342C8.37982 18.0236 7.80142 17.4452 7.09077 17.4452Z" fill="#FFB800"/>
<path d="M18.7756 13.5782H21.9982V12.2891H16.1975C15.8413 12.2891 15.553 12.0008 15.553 11.6446V5.84387H14.9085C14.5525 5.84387 14.2639 6.1324 14.2639 6.4884V18.7344H14.9085C14.9085 17.3126 16.0647 16.1563 17.4866 16.1563C18.9084 16.1563 20.0647 17.3126 20.0647 18.7344H21.3537C21.7097 18.7344 21.9982 18.4458 21.9982 18.0898V14.8672H18.7756C18.4194 14.8672 18.1311 14.5789 18.1311 14.2227C18.1311 13.8665 18.4194 13.5782 18.7756 13.5782Z" fill="#FFB800"/>
<path d="M16.8437 11.0001H21.7538L19.3538 6.20004C19.2445 5.98184 19.0214 5.84387 18.7774 5.84387H16.8437V11.0001Z" fill="#FFB800"/>
<path d="M9.02356 13.5781H0.644742C0.288743 13.5781 0.000217438 13.8666 0.000217438 14.2226V18.0898C0.000217438 18.4458 0.288743 18.7343 0.644742 18.7343H1.93379C1.93379 17.3125 3.09008 16.1562 4.51189 16.1562C4.98353 16.1562 5.42027 16.2927 5.80094 16.5147C6.18161 16.2927 6.61834 16.1562 7.08999 16.1562C8.5118 16.1562 9.66809 17.3125 9.66809 18.7343H12.9766V12.2891H9.02356V13.5781Z" fill="#FFB800"/>
<path d="M16.197 3.26538C15.3578 3.26538 14.6491 3.80584 14.3821 4.55443H18.0119C17.7449 3.80584 17.0362 3.26538 16.197 3.26538Z" fill="#FFB800"/>
<path d="M5.15555 8.0442L8.1113 11H12.9758V9.06671L5.15555 3.26599V8.0442Z" fill="#FFB800"/>
</g>
<defs>
<clipPath id="clip0">
<rect width="21.9998" height="21.9998" fill="white"/>
</clipPath>
</defs>
</svg>
