<svg width="40" height="40" viewBox="0 0 40 40" fill="none" xmlns="http://www.w3.org/2000/svg">
<rect width="40" height="40" rx="5" fill="#3C3C3C"/>
<circle cx="20" cy="20" r="20" fill="#3C3C3C"/>
<path d="M20.5569 10C17.541 10 15.0757 12.4653 15.0757 15.4812C15.0757 18.4971 17.541 20.9625 20.5569 20.9625C23.5728 20.9625 26.0382 18.4971 26.0382 15.4812C26.0382 12.4653 23.5728 10 20.5569 10Z" fill="#FBC22E"/>
<path d="M29.9637 25.3427C29.82 24.9837 29.6286 24.6486 29.4132 24.3374C28.3121 22.7098 26.6127 21.6327 24.6979 21.3694C24.4586 21.3455 24.1953 21.3933 24.0038 21.5369C22.9985 22.2789 21.8017 22.6619 20.557 22.6619C19.3124 22.6619 18.1156 22.2789 17.1103 21.5369C16.9188 21.3933 16.6555 21.3215 16.4162 21.3694C14.5013 21.6327 12.778 22.7098 11.7009 24.3374C11.4855 24.6486 11.294 25.0076 11.1504 25.3427C11.0786 25.4863 11.1025 25.6539 11.1743 25.7975C11.3658 26.1326 11.6052 26.4677 11.8206 26.7549C12.1557 27.2097 12.5147 27.6166 12.9216 27.9996C13.2567 28.3346 13.6397 28.6458 14.0227 28.957C15.9136 30.3692 18.1874 31.1111 20.5331 31.1111C22.8788 31.1111 25.1527 30.3691 27.0436 28.957C27.4265 28.6698 27.8095 28.3346 28.1446 27.9996C28.5276 27.6166 28.9105 27.2097 29.2457 26.7549C29.485 26.4438 29.7005 26.1326 29.8919 25.7975C30.0115 25.6539 30.0355 25.4863 29.9637 25.3427Z" fill="#FBC22E"/>
</svg>
