<svg width="58" height="58" viewBox="0 0 58 58" fill="none" xmlns="http://www.w3.org/2000/svg">
<rect width="58" height="58" rx="5" fill="#FBC22E"/>
<path d="M19.8815 24.1829C19.5608 24.7882 19.3019 25.4243 19.109 26.0817L21.8295 26.1302L19.8815 24.1829Z" fill="#3C3C3C"/>
<path d="M19.0341 31.6482C19.2195 32.3512 19.4797 33.0323 19.8102 33.6797L21.8833 31.6067L19.0341 31.6482Z" fill="#3C3C3C"/>
<path d="M25.9928 38.865L25.996 35.6831L23.7839 37.8953C24.4791 38.305 25.2206 38.6305 25.9928 38.865Z" fill="#3C3C3C"/>
<path d="M31.6267 19.0283L31.5994 21.8901L33.6798 19.8101C33.0256 19.4761 32.3372 19.214 31.6267 19.0283Z" fill="#3C3C3C"/>
<path d="M25.9979 19.1335C25.2725 19.3533 24.574 19.6534 23.9153 20.0282L25.9674 22.0804L25.9979 19.1335Z" fill="#3C3C3C"/>
<path d="M31.6514 38.9652C32.4031 38.7668 33.1296 38.4828 33.8166 38.119L31.6068 35.9092L31.6514 38.9652Z" fill="#3C3C3C"/>
<path d="M38.8743 26.0253C38.6393 25.2416 38.3105 24.4891 37.8952 23.7842L35.6736 26.0057L38.8743 26.0253Z" fill="#3C3C3C"/>
<path d="M37.9719 34.0845C38.3892 33.351 38.7138 32.5685 38.9379 31.7549L35.6704 31.7834L37.9719 34.0845Z" fill="#3C3C3C"/>
<path d="M39.6067 18.3934C33.7488 12.5356 24.2513 12.5355 18.3934 18.3934C12.5356 24.2512 12.5355 33.7487 18.3934 39.6066C24.2512 45.4645 33.7487 45.4645 39.6066 39.6067C45.4645 33.7488 45.4645 24.2513 39.6067 18.3934ZM37.0596 37.0596C32.6084 41.5107 25.3916 41.5107 20.9405 37.0596C16.4893 32.6084 16.4893 25.3916 20.9405 20.9405C25.3916 16.4893 32.6084 16.4893 37.0596 20.9405C39.1971 23.078 40.3979 25.9771 40.3979 29C40.4062 32.0246 39.2041 34.9267 37.0596 37.0596Z" fill="#3C3C3C"/>
<path d="M39.1367 27.1167V27.1166L34.3626 27.0872C34.0617 27.0854 33.8192 26.8399 33.8211 26.539C33.822 26.3956 33.8793 26.2584 33.9807 26.1569L37.2803 22.8573C36.5553 21.8847 35.6666 21.0455 34.6539 20.3775L31.4275 23.6038C31.2147 23.8166 30.8696 23.8165 30.6568 23.6037C30.5534 23.5003 30.496 23.3596 30.4973 23.2133L30.5389 18.8054C29.3939 18.6353 28.2287 18.6565 27.0906 18.868L27.0438 23.3882C27.0407 23.6891 26.7942 23.9306 26.4932 23.9274C26.3506 23.9259 26.2144 23.8686 26.1136 23.7679L22.9778 20.6321C21.9949 21.3424 21.1433 22.2187 20.4612 23.2214L23.5542 26.3146C23.711 26.4685 23.7572 26.7029 23.6704 26.9048C23.5841 27.1041 23.3863 27.232 23.1691 27.2288H23.1596L18.8552 27.1622C18.6546 28.2855 18.6392 29.434 18.8096 30.5623L23.2106 30.4985H23.2187C23.5192 30.498 23.7632 30.7413 23.7636 31.0418C23.7638 31.1866 23.7064 31.3255 23.604 31.4277L20.3777 34.6537C21.0457 35.6664 21.8848 36.5551 22.8575 37.2802L26.1572 33.9805C26.3701 33.7677 26.7151 33.7678 26.9279 33.9807C27.0302 34.083 27.0876 34.2217 27.0874 34.3664L27.0827 39.1303C28.2318 39.3449 29.4088 39.3652 30.5647 39.1904L30.4972 34.5816C30.4928 34.2807 30.7332 34.0331 31.0342 34.0288C31.1814 34.0266 31.3233 34.0841 31.4275 34.1883L34.7782 37.5391C35.7811 36.857 36.6574 36.0053 37.3678 35.0223L33.9807 31.6352C33.7678 31.4225 33.7678 31.0774 33.9805 30.8645C34.0816 30.7634 34.2183 30.7061 34.3613 30.7048L39.1747 30.6628C39.3645 29.4872 39.3516 28.2878 39.1367 27.1167ZM31.4974 31.4973C30.1182 32.8765 27.882 32.8765 26.5027 31.4973C25.1234 30.118 25.1234 27.8818 26.5027 26.5025C27.882 25.1232 30.1182 25.1232 31.4974 26.5025C32.1598 27.1648 32.5319 28.0632 32.5319 28.9999C32.5344 29.9371 32.1619 30.8364 31.4974 31.4973Z" fill="#3C3C3C"/>
<path d="M29 26.5576C27.6513 26.5576 26.558 27.6509 26.5579 28.9995C26.5579 30.3482 27.6512 31.4416 28.9998 31.4416C30.3485 31.4417 31.4419 30.3484 31.4419 28.9997C31.4419 28.352 31.1846 27.7308 30.7267 27.2729C30.2697 26.8134 29.6479 26.5559 29 26.5576Z" fill="#3C3C3C"/>
</svg>
