<svg width="75" height="75" viewBox="0 0 75 75" fill="none" xmlns="http://www.w3.org/2000/svg">
<rect width="75" height="75" rx="6.46552" fill="#FBC22E"/>
<path d="M57.5455 32.0455H53.7273C53.6019 32.0454 53.4777 32.07 53.3619 32.118C53.246 32.1659 53.1408 32.2362 53.0521 32.3249C52.9635 32.4135 52.8932 32.5188 52.8452 32.6346C52.7973 32.7505 52.7727 32.8746 52.7727 33V35.8636H48.9545V31.0909C48.9546 30.9655 48.93 30.8414 48.882 30.7255C48.8341 30.6097 48.7638 30.5044 48.6751 30.4158C48.5865 30.3271 48.4812 30.2568 48.3654 30.2089C48.2495 30.1609 48.1254 30.1363 48 30.1364H45.1364V27.2727C45.1364 27.1474 45.1118 27.0232 45.0639 26.9073C45.0159 26.7915 44.9456 26.6862 44.857 26.5976C44.7683 26.5089 44.663 26.4386 44.5472 26.3907C44.4314 26.3427 44.3072 26.3181 44.1818 26.3182H36.5455V24.4091H40.3636C40.6168 24.4091 40.8596 24.3085 41.0386 24.1295C41.2176 23.9505 41.3182 23.7077 41.3182 23.4545C41.3182 23.2014 41.2176 22.9586 41.0386 22.7796C40.8596 22.6006 40.6168 22.5 40.3636 22.5H30.8182C30.565 22.5 30.3222 22.6006 30.1432 22.7796C29.9642 22.9586 29.8636 23.2014 29.8636 23.4545C29.8636 23.7077 29.9642 23.9505 30.1432 24.1295C30.3222 24.3085 30.565 24.4091 30.8182 24.4091H34.6364V26.3182H27C26.8746 26.3181 26.7505 26.3427 26.6346 26.3907C26.5188 26.4386 26.4135 26.5089 26.3249 26.5976C26.2362 26.6862 26.1659 26.7915 26.118 26.9073C26.07 27.0232 26.0454 27.1474 26.0455 27.2727V30.1364H21.2727C21.1474 30.1363 21.0232 30.1609 20.9073 30.2089C20.7915 30.2568 20.6862 30.3271 20.5976 30.4158C20.5089 30.5044 20.4386 30.6097 20.3907 30.7255C20.3427 30.8414 20.3181 30.9655 20.3182 31.0909V38.7273H18.4091V34.9091C18.4091 34.6559 18.3085 34.4131 18.1295 34.2341C17.9505 34.0551 17.7077 33.9545 17.4545 33.9545C17.2014 33.9545 16.9586 34.0551 16.7796 34.2341C16.6006 34.4131 16.5 34.6559 16.5 34.9091V44.4545C16.5 44.7077 16.6006 44.9505 16.7796 45.1295C16.9586 45.3085 17.2014 45.4091 17.4545 45.4091C17.7077 45.4091 17.9505 45.3085 18.1295 45.1295C18.3085 44.9505 18.4091 44.7077 18.4091 44.4545V40.6364H20.3182V48.2727C20.3181 48.3981 20.3427 48.5223 20.3907 48.6381C20.4386 48.754 20.5089 48.8592 20.5976 48.9479C20.6862 49.0365 20.7915 49.1068 20.9073 49.1548C21.0232 49.2027 21.1474 49.2273 21.2727 49.2273H27.9545V52.0909C27.9545 52.2163 27.9791 52.3404 28.0271 52.4563C28.075 52.5721 28.1453 52.6774 28.234 52.766C28.3226 52.8547 28.4279 52.925 28.5437 52.9729C28.6596 53.0209 28.7837 53.0455 28.9091 53.0455H48C48.1254 53.0455 48.2495 53.0209 48.3654 52.9729C48.4812 52.925 48.5865 52.8547 48.6751 52.766C48.7638 52.6774 48.8341 52.5721 48.882 52.4563C48.93 52.3404 48.9546 52.2163 48.9545 52.0909V47.3182H52.7727V50.1818C52.7727 50.3072 52.7973 50.4314 52.8452 50.5472C52.8932 50.663 52.9635 50.7683 53.0521 50.857C53.1408 50.9456 53.246 51.0159 53.3619 51.0639C53.4777 51.1118 53.6019 51.1364 53.7273 51.1364H57.5455C57.6708 51.1364 57.795 51.1118 57.9108 51.0639C58.0267 51.0159 58.1319 50.9456 58.2206 50.857C58.3092 50.7683 58.3796 50.663 58.4275 50.5472C58.4754 50.4314 58.5001 50.3072 58.5 50.1818V33C58.5001 32.8746 58.4754 32.7505 58.4275 32.6346C58.3796 32.5188 58.3092 32.4135 58.2206 32.3249C58.1319 32.2362 58.0267 32.1659 57.9108 32.118C57.795 32.07 57.6708 32.0454 57.5455 32.0455ZM56.5909 49.2273H54.6818V46.3636C54.6819 46.2383 54.6573 46.1141 54.6093 45.9983C54.5614 45.8824 54.4911 45.7772 54.4024 45.6885C54.3138 45.5998 54.2085 45.5295 54.0927 45.4816C53.9768 45.4337 53.8526 45.409 53.7273 45.4091H48C47.8746 45.409 47.7505 45.4337 47.6346 45.4816C47.5188 45.5295 47.4135 45.5998 47.3249 45.6885C47.2362 45.7772 47.1659 45.8824 47.118 45.9983C47.07 46.1141 47.0454 46.2383 47.0455 46.3636V51.1364H29.8636V48.2727C29.8637 48.1474 29.8391 48.0232 29.7911 47.9073C29.7432 47.7915 29.6729 47.6862 29.5842 47.5976C29.4956 47.5089 29.3903 47.4386 29.2745 47.3907C29.1586 47.3427 29.0345 47.3181 28.9091 47.3182H22.2273V32.0455H27C27.1254 32.0455 27.2495 32.0209 27.3654 31.9729C27.4812 31.925 27.5865 31.8547 27.6751 31.766C27.7638 31.6774 27.8341 31.5721 27.882 31.4563C27.93 31.3404 27.9546 31.2163 27.9545 31.0909V28.2273H43.2273V31.0909C43.2272 31.2163 43.2518 31.3404 43.2998 31.4563C43.3477 31.5721 43.418 31.6774 43.5067 31.766C43.5953 31.8547 43.7006 31.925 43.8164 31.9729C43.9323 32.0209 44.0564 32.0455 44.1818 32.0455H47.0455V36.8182C47.0454 36.9436 47.07 37.0677 47.118 37.1836C47.1659 37.2994 47.2362 37.4047 47.3249 37.4933C47.4135 37.582 47.5188 37.6523 47.6346 37.7002C47.7505 37.7482 47.8746 37.7728 48 37.7727H53.7273C53.8526 37.7728 53.9768 37.7482 54.0927 37.7002C54.2085 37.6523 54.3138 37.582 54.4024 37.4933C54.4911 37.4047 54.5614 37.2994 54.6093 37.1836C54.6573 37.0677 54.6819 36.9436 54.6818 36.8182V33.9545H56.5909V49.2273Z" fill="#3C3C3C"/>
<path d="M56.5909 49.2273H54.6818V46.3636C54.6819 46.2383 54.6573 46.1141 54.6093 45.9983C54.5614 45.8824 54.4911 45.7772 54.4024 45.6885C54.3138 45.5998 54.2085 45.5295 54.0927 45.4816C53.9768 45.4337 53.8526 45.409 53.7273 45.4091H48C47.8746 45.409 47.7505 45.4337 47.6346 45.4816C47.5188 45.5295 47.4135 45.5998 47.3249 45.6885C47.2362 45.7772 47.1659 45.8824 47.118 45.9983C47.07 46.1141 47.0454 46.2383 47.0455 46.3636V51.1364H29.8636V48.2727C29.8637 48.1474 29.8391 48.0232 29.7911 47.9073C29.7432 47.7915 29.6729 47.6862 29.5842 47.5976C29.4956 47.5089 29.3903 47.4386 29.2745 47.3907C29.1586 47.3427 29.0345 47.3181 28.9091 47.3182H22.2273V32.0455H27C27.1254 32.0455 27.2495 32.0209 27.3654 31.9729C27.4812 31.925 27.5865 31.8547 27.6751 31.766C27.7638 31.6774 27.8341 31.5721 27.882 31.4563C27.93 31.3404 27.9546 31.2163 27.9545 31.0909V28.2273H43.2273V31.0909C43.2272 31.2163 43.2518 31.3404 43.2998 31.4563C43.3477 31.5721 43.418 31.6774 43.5067 31.766C43.5953 31.8547 43.7006 31.925 43.8164 31.9729C43.9323 32.0209 44.0564 32.0455 44.1818 32.0455H47.0455V36.8182C47.0454 36.9436 47.07 37.0677 47.118 37.1836C47.1659 37.2994 47.2362 37.4047 47.3249 37.4933C47.4135 37.582 47.5188 37.6523 47.6346 37.7002C47.7505 37.7482 47.8746 37.7728 48 37.7727H53.7273C53.8526 37.7728 53.9768 37.7482 54.0927 37.7002C54.2085 37.6523 54.3138 37.582 54.4024 37.4933C54.4911 37.4047 54.5614 37.2994 54.6093 37.1836C54.6573 37.0677 54.6819 36.9436 54.6818 36.8182V33.9545H56.5909V49.2273Z" fill="#3C3C3C"/>
</svg>
