<svg width="137" height="137" viewBox="0 0 137 137" fill="none" xmlns="http://www.w3.org/2000/svg">
<rect width="137" height="137" rx="6.46552" fill="#FBC22E"/>
<g clip-path="url(#clip0)">
<path d="M46.6758 58.6609V63.7892C46.6758 64.1993 47.0092 64.5312 47.4192 64.5312H49.4892C49.5355 64.3513 49.607 64.1821 49.6717 64.0101C49.7035 63.9254 49.7246 63.8369 49.7603 63.7548C49.8872 63.4638 50.0368 63.186 50.2113 62.924C50.251 62.8659 50.2999 62.8155 50.3409 62.7588C50.4851 62.559 50.6385 62.3686 50.8092 62.1913C50.8873 62.1105 50.9719 62.0406 51.0539 61.965C51.206 61.8261 51.3608 61.6938 51.5287 61.5735C51.6266 61.502 51.7271 61.4373 51.8304 61.3738C52.001 61.2666 52.177 61.1727 52.3595 61.0855C52.4693 61.0339 52.5764 60.9822 52.6888 60.9386C52.8913 60.8592 53.1001 60.7984 53.3144 60.7428C53.4177 60.7176 53.5155 60.6833 53.6199 60.6634C53.9427 60.6025 54.2721 60.5628 54.6121 60.5628C54.9521 60.5628 55.2814 60.6025 55.6042 60.6634C55.7086 60.6831 55.8066 60.7176 55.9097 60.7428C56.124 60.7984 56.333 60.8592 56.5353 60.9386C56.6477 60.9822 56.7548 61.0339 56.8646 61.0855C57.0472 61.1728 57.2231 61.2666 57.3937 61.3738C57.497 61.4373 57.5974 61.502 57.6954 61.5735C57.8633 61.6938 58.0181 61.8261 58.1702 61.965C58.2522 62.0404 58.3369 62.1105 58.4149 62.1913C58.5856 62.3686 58.739 62.559 58.8832 62.7588C58.9242 62.8157 58.9731 62.8659 59.0128 62.924C59.1874 63.186 59.3369 63.4638 59.4638 63.7548C59.4995 63.8367 59.5208 63.9254 59.5524 64.0101C59.6173 64.1821 59.6886 64.3514 59.7349 64.5312H70.6529C70.6992 64.3513 70.7707 64.1821 70.8354 64.0101C70.8672 63.9254 70.8883 63.8369 70.924 63.7548C71.0509 63.4638 71.2004 63.186 71.375 62.924C71.4147 62.8659 71.4635 62.8155 71.5046 62.7588C71.6487 62.559 71.8022 62.3686 71.9729 62.1913C72.0509 62.1105 72.1356 62.0406 72.2175 61.965C72.3696 61.8261 72.5244 61.6938 72.6924 61.5735C72.7902 61.502 72.8908 61.4373 72.994 61.3738C73.1647 61.2666 73.3406 61.1727 73.5231 61.0855C73.633 61.0339 73.7401 60.9822 73.8525 60.9386C74.0549 60.8592 74.2638 60.7984 74.4781 60.7428C74.5813 60.7176 74.6792 60.6833 74.7836 60.6634C75.1064 60.6025 75.4357 60.5628 75.7757 60.5628C76.1157 60.5628 76.4451 60.6025 76.7678 60.6634C76.8723 60.6831 76.9703 60.7176 77.0734 60.7428C77.2876 60.7984 77.4967 60.8592 77.6989 60.9386C77.8113 60.9822 77.9185 61.0339 78.0283 61.0855C78.2108 61.1728 78.3867 61.2666 78.5574 61.3738C78.6606 61.4373 78.761 61.502 78.859 61.5735C79.027 61.6938 79.1818 61.8261 79.3339 61.965C79.4159 62.0404 79.5005 62.1105 79.5786 62.1913C79.7492 62.3686 79.9027 62.559 80.0468 62.7588C80.0879 62.8157 80.1367 62.8659 80.1765 62.924C80.351 63.186 80.5006 63.4638 80.6275 63.7548C80.6631 63.8367 80.6844 63.9254 80.716 64.0101C80.7809 64.1821 80.8522 64.3514 80.8985 64.5312H82.9686C83.3787 64.5312 83.712 64.1992 83.712 63.7892V58.6609C83.712 58.2507 83.3787 57.9175 82.9686 57.9175H79.7437H50.6441H47.4192C47.0092 57.9175 46.6758 58.2507 46.6758 58.6609Z" fill="#3C3C3C"/>
<path d="M72.9653 49.3814C72.6426 48.929 72.1162 48.6592 71.5605 48.6592H66.5156V55.273H77.173L72.9653 49.3814Z" fill="#3C3C3C"/>
<path d="M63.8724 48.6592H58.8287C58.2719 48.6592 57.7453 48.929 57.4226 49.3814L53.2148 55.2729H63.8723V48.6592H63.8724Z" fill="#3C3C3C"/>
<path d="M54.6103 63.209C53.1513 63.209 51.9648 64.3954 51.9648 65.8545C51.9648 67.3135 53.1513 68.4999 54.6103 68.4999C56.0693 68.4999 57.2558 67.3135 57.2558 65.8545C57.2558 64.3954 56.0693 63.209 54.6103 63.209Z" fill="#3C3C3C"/>
<path d="M75.7744 63.209C74.3154 63.209 73.1289 64.3954 73.1289 65.8545C73.1289 67.3135 74.3154 68.4999 75.7744 68.4999C77.2334 68.4999 78.4199 67.3135 78.4199 65.8545C78.4199 64.3954 77.2334 63.209 75.7744 63.209Z" fill="#3C3C3C"/>
<path d="M74.4522 30.1401H55.9336V36.7539V38.0767H74.4509L74.4522 30.1401Z" fill="#3C3C3C"/>
<path d="M92.9726 38.0767V70.5609C94.8654 71.0861 96.642 71.8823 98.2636 72.9087V34.1084C98.2636 31.9206 96.4831 30.1401 94.2953 30.1401H77.0996V35.4311H90.3271C91.786 35.4311 92.9726 36.6177 92.9726 38.0767Z" fill="#3C3C3C"/>
<path d="M71.8446 101.569H40.0616C38.6026 101.569 37.4161 100.382 37.4161 98.9233V38.0767C37.4161 36.6177 38.6026 35.4312 40.0616 35.4312H53.2891V30.1401H36.0933C33.9041 30.1401 32.125 31.9206 32.125 34.1084V102.891C32.125 105.079 33.9041 106.86 36.0933 106.86H77.8235C75.4888 105.516 73.4584 103.71 71.8446 101.569Z" fill="#3C3C3C"/>
<path d="M40.0605 38.0767V98.9232H70.1439C68.6783 96.1574 67.8384 93.0079 67.8384 89.664C67.8384 78.7235 76.7392 69.8227 87.6797 69.8227C88.5792 69.8227 89.4575 69.9034 90.3252 70.0211V38.0767H77.0977C77.0977 39.5357 75.9099 40.7221 74.4522 40.7221H55.9336C54.4745 40.7221 53.2881 39.5357 53.2881 38.0767H40.0605ZM65.1928 93.6321H45.3516C44.6201 93.6321 44.0288 93.0408 44.0288 92.3093C44.0288 91.5778 44.6201 90.9865 45.3516 90.9865H65.1929C65.9245 90.9865 66.5158 91.5778 66.5158 92.3093C66.5158 93.0408 65.9243 93.6321 65.1928 93.6321ZM65.1928 87.0183H45.3516C44.6201 87.0183 44.0288 86.4271 44.0288 85.6955C44.0288 84.964 44.6201 84.3727 45.3516 84.3727H65.1929C65.9245 84.3727 66.5158 84.964 66.5158 85.6955C66.5156 86.4271 65.9243 87.0183 65.1928 87.0183ZM65.1928 80.4047H45.3516C44.6201 80.4047 44.0288 79.8134 44.0288 79.0819C44.0288 78.3504 44.6201 77.7591 45.3516 77.7591H65.1929C65.9245 77.7591 66.5158 78.3504 66.5158 79.0819C66.5156 79.8134 65.9243 80.4047 65.1928 80.4047ZM55.2683 47.8439C56.087 46.6983 57.4164 46.0132 58.8251 46.0132H71.5592C72.9692 46.0132 74.2986 46.6985 75.1173 47.8439L80.4228 55.2725H82.9678C84.8367 55.2725 86.3566 56.7937 86.3566 58.6613V63.7897C86.3566 65.6575 84.8367 67.1772 82.9678 67.1772H80.878C80.2868 69.4536 78.2339 71.1455 75.7748 71.1455C73.3158 71.1455 71.2629 69.4538 70.6716 67.1772H59.7139C59.1227 69.4536 57.0698 71.1455 54.6107 71.1455C52.1518 71.1455 50.0988 69.4538 49.5075 67.1772H47.4163C45.5485 67.1772 44.0288 65.6573 44.0288 63.7897V58.6613C44.0288 56.7935 45.5487 55.2725 47.4163 55.2725H49.9626L55.2683 47.8439Z" fill="#3C3C3C"/>
<path d="M87.6802 72.4688C78.1987 72.4688 70.4844 80.183 70.4844 89.6646C70.4844 99.1462 78.1986 106.86 87.6802 106.86C97.163 106.86 104.876 99.146 104.876 89.6646C104.876 80.1831 97.163 72.4688 87.6802 72.4688ZM96.7027 83.8062L88.4831 95.6171C88.2715 95.9187 87.9433 96.121 87.5783 96.1713C87.5175 96.1793 87.4566 96.1832 87.3971 96.1832C87.093 96.1832 86.7952 96.0787 86.5585 95.8829L80.2278 90.6857C79.663 90.2241 79.5809 89.3895 80.0439 88.8247C80.5083 88.2625 81.3415 88.1792 81.905 88.6422L87.1298 92.9292L94.5306 82.2942C94.9485 81.6937 95.7713 81.5443 96.3718 81.9649C96.9724 82.3828 97.1193 83.2069 96.7027 83.8062Z" fill="#3C3C3C"/>
</g>
<defs>
<clipPath id="clip0">
<rect width="76.72" height="76.72" fill="white" transform="translate(30.1406 30.1401)"/>
</clipPath>
</defs>
</svg>
