<svg width="75" height="75" viewBox="0 0 75 75" fill="none" xmlns="http://www.w3.org/2000/svg">
<rect width="75" height="75" rx="9.69828" fill="#FBC22E"/>
<g clip-path="url(#clip0)">
<path d="M24.1645 43.5781L22.7062 42.1204L17.6247 47.2009L19.8024 49.3789C19.0782 49.5984 18.4146 49.9938 17.8647 50.5447C16.9842 51.4243 16.5 52.5948 16.5 53.8397C16.5 55.0849 16.9842 56.2548 17.8647 57.1354C18.7453 58.0159 19.9152 58.5001 21.1604 58.5001C22.4053 58.5001 23.5758 58.0159 24.4554 57.1354C25.0063 56.5855 25.4017 55.9219 25.6212 55.1977L27.7992 57.3754L32.8797 52.2939L31.422 50.8356L32.657 49.6007L27.3092 40.4333L24.1645 43.5781Z" fill="#3C3C3C"/>
<path d="M29.1123 38.6306L34.46 47.7979L36.2433 46.0147L30.8955 36.8474L29.1123 38.6306Z" fill="#3C3C3C"/>
<path d="M32.6982 35.0447L38.0463 44.212L39.8292 42.4288L34.4815 33.2615L32.6982 35.0447Z" fill="#3C3C3C"/>
<path d="M36.2842 31.458L41.6322 40.6254L43.4145 38.8431L38.0668 29.6758L36.2842 31.458Z" fill="#3C3C3C"/>
<path d="M39.8701 27.8721L45.2178 37.0394L47.0001 35.2572L41.6524 26.0898L39.8701 27.8721Z" fill="#3C3C3C"/>
<path d="M55.9494 24.1235C56.3685 23.9376 56.7607 23.6745 57.1046 23.331C57.8534 22.5818 58.2274 21.5978 58.2274 20.6137C58.2274 19.6297 57.8534 18.6456 57.1046 17.8958C56.3784 17.17 55.4133 16.7704 54.3866 16.7704C53.3596 16.7704 52.3954 17.17 51.6693 17.8958C51.3258 18.2396 51.0628 18.6319 50.8769 19.051L48.3259 16.5L43.2451 21.5815L44.7037 23.0391L43.4556 24.2869L48.8037 33.4545L51.9613 30.2966L53.4189 31.7552L58.5004 26.6744L55.9494 24.1235Z" fill="#3C3C3C"/>
<path d="M28.1078 36.9082L25.9775 38.1502L27.3096 40.4333L29.1124 38.6305L28.1078 36.9082Z" fill="#3C3C3C"/>
<path d="M33.6618 51.323L35.792 50.08L34.46 47.7979L32.6572 49.6006L33.6618 51.323Z" fill="#3C3C3C"/>
<path d="M31.6934 33.3223L29.5635 34.5652L30.8952 36.8474L32.698 35.0446L31.6934 33.3223Z" fill="#3C3C3C"/>
<path d="M37.2477 47.737L39.378 46.494L38.0462 44.2119L36.2432 46.0147L37.2477 47.737Z" fill="#3C3C3C"/>
<path d="M35.2793 29.7358L33.1494 30.9791L34.4811 33.2613L36.2839 31.4582L35.2793 29.7358Z" fill="#3C3C3C"/>
<path d="M40.834 44.1509L42.9639 42.9086L41.6322 40.6255L39.8291 42.4286L40.834 44.1509Z" fill="#3C3C3C"/>
<path d="M38.8653 26.1499L36.7344 27.3929L38.0664 29.676L39.8701 27.8722L38.8653 26.1499Z" fill="#3C3C3C"/>
<path d="M44.4186 40.5656L46.5495 39.3226L45.2178 37.0396L43.4141 38.8433L44.4186 40.5656Z" fill="#3C3C3C"/>
<path d="M42.4512 22.5649L40.3213 23.8069L41.653 26.09L43.4558 24.287L42.4512 22.5649Z" fill="#3C3C3C"/>
<path d="M48.0055 36.9797L50.1358 35.7367L48.8041 33.4546L47.001 35.2574L48.0055 36.9797Z" fill="#3C3C3C"/>
</g>
<defs>
<clipPath id="clip0">
<rect width="42" height="42" fill="white" transform="translate(16.5 16.5)"/>
</clipPath>
</defs>
</svg>
