<svg width="137" height="137" viewBox="0 0 137 137" fill="none" xmlns="http://www.w3.org/2000/svg">
<rect width="137" height="137" rx="12" fill="#FBC22E"/>
<g clip-path="url(#clip0)">
<path d="M89.2779 52.5168H92.4745C95.1186 52.5168 97.2695 50.3659 97.2695 47.7218V34.9351C97.2695 32.291 95.1186 30.1401 92.4745 30.1401H89.2779C86.6337 30.1401 84.4829 32.291 84.4829 34.9351V38.2702L72.8435 39.3281C72.0826 37.6836 70.4277 36.5335 68.4995 36.5335C66.5713 36.5335 64.9166 37.6834 64.1555 39.3281L52.5161 38.2702V34.9351C52.5161 32.291 50.3653 30.1401 47.7211 30.1401H44.5245C41.8803 30.1401 39.7295 32.291 39.7295 34.9351V47.7218C39.7295 50.3659 41.8803 52.5168 44.5245 52.5168H47.7211C50.3653 52.5168 52.5161 50.3659 52.5161 47.7218V44.3868L64.1555 43.3289C64.4339 43.9307 64.8349 44.4579 65.3242 44.8939L66.4889 62.1899C65.8107 62.3748 65.3026 62.9678 65.3026 63.7051V73.2951C65.3026 74.0051 65.7722 74.5862 66.412 74.7949L65.3264 88.9078C64.3395 89.7868 63.7045 91.0524 63.7045 92.4751V93.6307L52.5161 92.6134V89.2784C52.5161 86.6342 50.3653 84.4834 47.7211 84.4834H44.5245C41.8803 84.4834 39.7295 86.6342 39.7295 89.2784V102.065C39.7295 104.709 41.8803 106.86 44.5245 106.86H47.7211C50.3653 106.86 52.5161 104.709 52.5161 102.065V98.7302L63.7045 97.7128V98.8684C63.7045 101.513 65.8554 103.663 68.4995 103.663C71.1436 103.663 73.2945 101.513 73.2945 98.8684V97.7128L84.4829 98.7301V102.065C84.4829 104.709 86.6337 106.86 89.2779 106.86H92.4745C95.1186 106.86 97.2695 104.709 97.2695 102.065V89.2785C97.2695 86.6344 95.1186 84.4835 92.4745 84.4835H89.2779C86.6337 84.4835 84.4829 86.6344 84.4829 89.2785V92.6136L73.2945 93.6307V92.4751C73.2945 91.0521 72.6592 89.7862 71.6715 88.9072L70.5756 74.7972C71.221 74.5917 71.6961 74.0091 71.6961 73.2953V63.7053C71.6961 62.9724 71.1941 62.3814 70.5221 62.1925L71.6751 44.8938C72.1641 44.4577 72.5649 43.9307 72.8433 43.3292L84.4827 44.3871V47.7221C84.4829 50.3659 86.6337 52.5168 89.2779 52.5168Z" fill="#3C3C3C"/>
</g>
<defs>
<clipPath id="clip0">
<rect width="76.72" height="76.72" fill="white" transform="translate(30.1396 30.1401)"/>
</clipPath>
</defs>
</svg>
