<svg width="75" height="75" viewBox="0 0 75 75" fill="none" xmlns="http://www.w3.org/2000/svg">
<rect width="75" height="75" rx="6.46552" fill="#FBC22E"/>
<g clip-path="url(#clip0)">
<path d="M37.5 17C25.902 17 16.5 26.402 16.5 38C16.5 49.598 25.902 59 37.5 59C49.098 59 58.5 49.598 58.5 38C58.5 26.402 49.098 17 37.5 17ZM31.1868 44.0129L28.0476 49.45C26.7155 48.3528 25.554 47.0042 24.6415 45.4238C23.7291 43.8435 23.1421 42.1632 22.8578 40.4609H29.1834C29.9938 40.499 30.6788 40.9333 31.1139 41.687C31.5024 42.3597 31.5286 43.2657 31.1868 44.0129ZM31.114 34.313C30.7256 34.9858 29.954 35.4615 29.1362 35.5391H22.8579C23.1422 33.8368 23.7292 32.1566 24.6416 30.5762C25.554 28.9958 26.7156 27.6472 28.0477 26.55L31.2105 32.0281C31.5827 32.749 31.5491 33.5593 31.114 34.313ZM37.5 52.8477C35.6751 52.8477 33.9265 52.5159 32.3101 51.9109L35.473 46.4328C35.9111 45.7501 36.6297 45.374 37.5 45.374C38.2768 45.374 39.0746 45.8043 39.5507 46.4738L42.6899 51.9109C41.0735 52.5159 39.3249 52.8477 37.5 52.8477ZM33.8086 38C33.8086 35.9646 35.4646 34.3086 37.5 34.3086C39.5354 34.3086 41.1914 35.9646 41.1914 38C41.1914 40.0354 39.5354 41.6914 37.5 41.6914C35.4646 41.6914 33.8086 40.0354 33.8086 38ZM39.527 29.5672C39.0889 30.2499 38.3703 30.626 37.5 30.626C36.7232 30.626 35.9254 30.1957 35.4493 29.5262L32.3101 24.0891C33.9265 23.4841 35.6751 23.1523 37.5 23.1523C39.3249 23.1523 41.0735 23.4841 42.6899 24.0891L39.527 29.5672ZM50.3585 45.4238C49.446 47.0042 48.2845 48.3528 46.9524 49.45L43.7895 43.9719C43.4172 43.2511 43.4508 42.4407 43.886 41.687C44.2744 41.0142 45.046 40.5385 45.8638 40.4609H52.1421C51.8579 42.1632 51.2709 43.8435 50.3585 45.4238ZM45.8166 35.5391C45.0062 35.501 44.3212 35.0667 43.8861 34.313C43.4976 33.6403 43.4715 32.7343 43.8132 31.9871L46.9524 26.55C48.2845 27.6472 49.446 28.9958 50.3585 30.5762C51.2709 32.1565 51.8579 33.8368 52.1422 35.5391H45.8166Z" fill="#3C3C3C"/>
<path d="M37.5 36.7695C36.8215 36.7695 36.2695 37.3215 36.2695 38C36.2695 38.6785 36.8215 39.2305 37.5 39.2305C38.1785 39.2305 38.7305 38.6785 38.7305 38C38.7305 37.3215 38.1785 36.7695 37.5 36.7695Z" fill="#3C3C3C"/>
</g>
<defs>
<clipPath id="clip0">
<rect width="42" height="42" fill="white" transform="translate(16.5 17)"/>
</clipPath>
</defs>
</svg>
