<svg width="16" height="16" viewBox="0 0 16 16" fill="none" xmlns="http://www.w3.org/2000/svg">
<path d="M9.42713 8.00011L15.8954 1.53216C16.0346 1.39277 16.0346 1.1669 15.8954 1.02751L14.9729 0.104504C14.906 0.0377562 14.815 0 14.7204 0C14.6257 0 14.5348 0.0377562 14.4679 0.104504L7.99981 6.57262L1.5317 0.104504C1.3977 -0.0294971 1.16054 -0.0293285 1.02688 0.104504L0.104546 1.02751C-0.0348487 1.1669 -0.0348487 1.39277 0.104546 1.53216L6.57266 8.00011L0.104546 14.4681C-0.0348487 14.6074 -0.0348487 14.8333 0.104546 14.9727L1.02705 15.8957C1.09396 15.9625 1.18481 16.0002 1.27954 16.0002C1.37427 16.0002 1.46495 15.9625 1.53187 15.8957L7.99998 9.42759L14.4681 15.8957C14.535 15.9625 14.626 16.0002 14.7206 16.0002C14.8151 16.0002 14.9062 15.9625 14.9731 15.8957L15.8956 14.9727C16.0348 14.8333 16.0348 14.6074 15.8956 14.4681L9.42713 8.00011Z" fill="#3C3C3C"/>
</svg>
