<svg width="50" height="50" viewBox="0 0 50 50" fill="none" xmlns="http://www.w3.org/2000/svg">
<rect width="50" height="50" rx="6.46552" fill="#FBC22E"/>
<path d="M21.0902 17.1399C16.0778 17.1399 12 21.2176 12 26.2298C12 31.2422 16.0778 35.3201 21.0902 35.3201C26.1025 35.3201 30.1803 31.2422 30.1803 26.2297C30.1802 21.2176 26.1024 17.1399 21.0902 17.1399ZM21.0902 32.6862C17.5246 32.6862 14.6339 29.7957 14.6339 26.2298C14.6339 22.6643 17.5246 19.7738 21.0902 19.7738C24.6558 19.7738 27.5464 22.6643 27.5464 26.2298C27.5464 29.7957 24.6558 32.6862 21.0902 32.6862Z" fill="#3C3C3C"/>
<path d="M21.0902 20.6096C17.991 20.6096 15.4697 23.1308 15.4697 26.2297C15.4697 29.3289 17.991 31.8502 21.0902 31.8502C24.1893 31.8502 26.7106 29.3289 26.7106 26.2297C26.7106 23.1308 24.1893 20.6096 21.0902 20.6096ZM21.4427 21.3289C22.5315 21.4065 23.5228 21.8399 24.3015 22.5137L22.3756 24.4396C22.1042 24.2434 21.7869 24.1084 21.4427 24.0527V21.3289ZM20.7375 21.3289V24.0527C20.3932 24.1085 20.0759 24.2436 19.8043 24.4398L17.8784 22.5139C18.6572 21.84 19.6486 21.4065 20.7375 21.3289ZM17.3792 23.0122L19.3057 24.9387C19.1096 25.2101 18.9747 25.5274 18.919 25.8716H16.1895C16.2683 24.7822 16.7036 23.7905 17.3792 23.0122ZM16.1886 26.577H18.919C18.9747 26.9211 19.1097 27.2383 19.3058 27.5097L17.374 29.4414C16.699 28.6614 16.2652 27.6679 16.1886 26.577ZM20.7375 31.1308C19.6457 31.053 18.6522 30.6175 17.8725 29.9405L19.8044 28.0084C20.0759 28.2046 20.3933 28.3395 20.7375 28.3954V31.1308ZM19.3792 26.2243C19.3792 25.2792 20.1453 24.5128 21.0902 24.5128C22.0352 24.5128 22.8013 25.2791 22.8013 26.2243C22.8013 27.1692 22.0353 27.9352 21.0902 27.9352C20.1453 27.9352 19.3792 27.1692 19.3792 26.2243ZM21.4427 31.1308V28.3954C21.7869 28.3396 22.1041 28.2046 22.3755 28.0085L24.3076 29.9406C23.528 30.6176 22.5344 31.053 21.4427 31.1308ZM24.806 29.4414L22.8743 27.5098C23.0706 27.2383 23.2055 26.9211 23.2613 26.5769H25.9916C25.915 27.6679 25.4812 28.6615 24.806 29.4414ZM23.2615 25.8716C23.2057 25.5273 23.0706 25.2099 22.8744 24.9384L24.8009 23.012C25.4768 23.7903 25.912 24.7821 25.9908 25.8716H23.2615Z" fill="#3C3C3C"/>
<path d="M38.0001 18.5573C38.0001 16.9365 37.1251 15.4291 35.7166 14.6237C35.6417 14.5808 35.5549 14.5581 35.4654 14.5581C35.1814 14.5581 34.9672 14.7797 34.9672 15.0721C34.9672 15.0721 34.9585 17.3393 34.9586 18.0951C34.9586 18.1742 34.8638 18.2686 34.8244 18.297L34.7961 18.3183C34.3428 18.6952 33.7713 19.12 33.5188 19.2513C33.5027 19.2512 33.4874 19.2508 33.471 19.2508C33.4536 19.2508 33.4371 19.2512 33.4202 19.2514C33.1639 19.1197 32.5832 18.6877 32.1235 18.3034L32.0946 18.2816C32.0935 18.2808 31.9832 18.1925 31.9832 18.0225C31.9832 17.236 31.9753 15.0738 31.9753 15.0738C31.9749 14.7332 31.7309 14.5549 31.4901 14.5549C31.397 14.5549 31.3009 14.5804 31.2185 14.6275C29.8144 15.4343 28.9421 16.94 28.9421 18.557C28.9421 20.4538 30.1146 22.0809 31.7724 22.7543L31.7722 33.7929C31.7722 34.7037 32.5133 35.4447 33.424 35.4447H33.518C34.4289 35.4447 35.1698 34.7036 35.1698 33.7929L35.1701 22.7573C35.7261 22.5325 36.2368 22.1965 36.6736 21.7597C37.5291 20.9044 38.0002 19.7669 38.0001 18.5573Z" fill="#3C3C3C"/>
</svg>
