<svg width="50" height="50" viewBox="0 0 50 50" fill="none" xmlns="http://www.w3.org/2000/svg">
<rect width="50" height="50" rx="6.46552" fill="#FBC22E"/>
<path d="M30.625 24.0625C30.6219 24.3766 30.5953 24.6899 30.5453 25H29.2188V23.125H30.5547C30.6016 23.4353 30.6251 23.7487 30.625 24.0625Z" fill="#3C3C3C"/>
<path d="M30.6251 20.3124C30.625 20.3752 30.6122 20.4374 30.5876 20.4952C31.1533 21.4518 31.4832 22.5293 31.55 23.6387C31.6168 24.748 31.4187 25.8573 30.972 26.8749H31.9751C32.322 25.9778 32.5 25.0243 32.5001 24.0624C32.5004 22.1866 31.8361 20.3715 30.6251 18.939V20.3124Z" fill="#3C3C3C"/>
<path d="M33.9062 27.8125H28.75C28.6257 27.8125 28.5065 27.7631 28.4185 27.6752C28.3306 27.5873 28.2812 27.4681 28.2812 27.3438V22.1875H27.3438V27.3438C27.3438 27.4681 27.2944 27.5873 27.2065 27.6752C27.1185 27.7631 26.9993 27.8125 26.875 27.8125H21.7188V28.75H26.875C26.9993 28.75 27.1185 28.7994 27.2065 28.8873C27.2944 28.9752 27.3438 29.0944 27.3438 29.2188V34.375H28.2812V29.2188C28.2812 29.0944 28.3306 28.9752 28.4185 28.8873C28.5065 28.7994 28.6257 28.75 28.75 28.75H33.9062V27.8125Z" fill="#3C3C3C"/>
<path d="M24.5314 17.0312C25.3908 17.0299 26.2428 17.1888 27.0439 17.5H29.0408C27.6536 16.5433 25.9986 16.0515 24.314 16.0955C22.6295 16.1395 21.0024 16.717 19.6671 17.7448C18.3317 18.7727 17.357 20.1978 16.8834 21.8149C16.4097 23.4321 16.4616 25.1579 17.0314 26.7437V25.9375C17.0314 25.8131 17.0808 25.6939 17.1687 25.606C17.2566 25.5181 17.3758 25.4687 17.5002 25.4687H17.6455C17.4342 24.4471 17.4534 23.3913 17.7017 22.378C17.95 21.3648 18.4211 20.4196 19.0807 19.6114C19.7403 18.8032 20.5718 18.1522 21.5147 17.7059C22.4576 17.2595 23.4882 17.029 24.5314 17.0312Z" fill="#3C3C3C"/>
<path d="M30.1609 29.6875H29.2188V30.5031C29.5551 30.2581 29.8702 29.9852 30.1609 29.6875Z" fill="#3C3C3C"/>
<path d="M21.5706 25.2897C21.6061 25.3754 21.6153 25.4697 21.5971 25.5607C21.5789 25.6516 21.5341 25.7351 21.4684 25.8006L20.8619 26.4062H21.25C21.3743 26.4062 21.4935 26.4556 21.5815 26.5435C21.6694 26.6315 21.7188 26.7507 21.7188 26.875H26.4062V22.1875C26.2819 22.1875 26.1627 22.1381 26.0748 22.0502C25.9869 21.9623 25.9375 21.8431 25.9375 21.7188V20.7812H25.4688C25.3444 20.7812 25.2252 20.7319 25.1373 20.644C25.0494 20.556 25 20.4368 25 20.3125V17.9922C24.8453 17.9781 24.6906 17.9688 24.5312 17.9688C24.2172 17.9714 23.9038 17.998 23.5938 18.0484V20.6688C23.5919 20.7925 23.542 20.9107 23.4544 20.9982C23.3669 21.0857 23.2488 21.1357 23.125 21.1375C23.0005 21.1379 22.8809 21.089 22.7922 21.0016L20.9453 19.1453C20.4362 19.5185 19.9872 19.9674 19.6141 20.4766L21.4703 22.3234C21.5354 22.3894 21.5794 22.4731 21.5969 22.564C21.6145 22.6549 21.6046 22.749 21.5688 22.8344C21.5343 22.9205 21.4747 22.9942 21.3978 23.046C21.3209 23.0978 21.2302 23.1254 21.1375 23.125H18.5172C18.4668 23.435 18.4402 23.7484 18.4375 24.0625C18.4403 24.3766 18.4676 24.6901 18.5191 25H21.1375C21.2303 25 21.3209 25.0275 21.398 25.0791C21.4751 25.1307 21.5352 25.204 21.5706 25.2897Z" fill="#3C3C3C"/>
<path d="M36.7001 24.5312H35.7813V23.5937H36.7048C36.6777 22.8425 36.5804 22.0955 36.4142 21.3625L35.5188 21.6015L35.2751 20.6968L36.1751 20.4578C35.9514 19.7401 35.6611 19.0449 35.3079 18.3812L34.5063 18.8453L34.0376 18.0297L34.8392 17.5703C34.4378 16.9363 33.9797 16.3401 33.4704 15.789L32.8188 16.4406L32.1532 15.775L32.8048 15.1234C32.2537 14.6142 31.6575 14.156 31.0235 13.7547L30.5642 14.5562L29.7485 14.0875L30.2126 13.2859C29.549 12.9328 28.8537 12.6424 28.136 12.4187L27.897 13.3187L26.9923 13.075L27.2313 12.1797C26.4983 12.0135 25.7513 11.9162 25.0001 11.889V12.8125H24.0626V11.889C23.3114 11.9162 22.5644 12.0135 21.8313 12.1797L22.0704 13.075L21.1657 13.3187L20.9267 12.4187C20.209 12.6424 19.5137 12.9328 18.8501 13.2859L19.3142 14.0875L18.4985 14.5562L18.0392 13.7547C17.4052 14.156 16.809 14.6142 16.2579 15.1234L16.9095 15.775L16.2438 16.4406L15.5923 15.789C15.083 16.3401 14.6249 16.9363 14.2235 17.5703L15.0251 18.0297L14.5563 18.8453L13.7548 18.3812C13.4016 19.0449 13.1113 19.7401 12.8876 20.4578L13.7876 20.6968L13.5438 21.6015L12.6485 21.3625C12.4823 22.0955 12.385 22.8425 12.3579 23.5937H13.2813V24.5312H12.3579C12.385 25.2824 12.4823 26.0294 12.6485 26.7625L13.5438 26.5234L13.7876 27.4281L12.8876 27.6672C13.1113 28.3849 13.4016 29.0801 13.7548 29.7437L14.5563 29.2797L15.0251 30.0953L14.2235 30.5547C14.6249 31.1886 15.083 31.7848 15.5923 32.3359L16.2438 31.6844L16.9095 32.35L16.2579 33.0015C16.809 33.5108 17.4052 33.9689 18.0392 34.3703L18.4985 33.5687L19.3142 34.0375L18.8501 34.839C19.5137 35.1922 20.209 35.4825 20.9267 35.7062L21.1657 34.8062L22.0704 35.05L21.8313 35.9453C22.5644 36.1115 23.3114 36.2088 24.0626 36.2359V35.3125H25.0001V36.2406C25.0026 36.1179 25.053 36.0011 25.1407 35.9152C25.2283 35.8293 25.3461 35.7812 25.4688 35.7812H25.9376V34.8437C25.9376 34.7194 25.987 34.6002 26.0749 34.5123C26.1628 34.4244 26.282 34.375 26.4063 34.375V32.7672C25.7905 32.9023 25.1618 32.9699 24.5313 32.9687C22.5554 32.9637 20.6367 32.3044 19.0751 31.0937H17.5001C17.3758 31.0937 17.2565 31.0443 17.1686 30.9564C17.0807 30.8685 17.0313 30.7493 17.0313 30.625V28.8531C16.2869 27.6879 15.8241 26.3654 15.6795 24.9902C15.535 23.6151 15.7127 22.2252 16.1986 20.9307C16.6845 19.6362 17.4652 18.4726 18.4789 17.5322C19.4925 16.5919 20.7113 15.9005 22.0386 15.5129C23.3658 15.1254 24.7651 15.0523 26.1256 15.2994C27.486 15.5466 28.7702 16.1072 29.8763 16.9368C30.9825 17.7664 31.8802 18.8423 32.4983 20.0791C33.1165 21.316 33.4381 22.6798 33.4376 24.0625C33.4379 25.0191 33.2811 25.9692 32.9735 26.875H33.9063C33.9063 26.7507 33.9557 26.6314 34.0436 26.5435C34.1315 26.4556 34.2508 26.4062 34.3751 26.4062H35.3126V25.9375C35.3126 25.8132 35.362 25.6939 35.4499 25.606C35.5378 25.5181 35.657 25.4687 35.7813 25.4687H36.6298C36.6673 25.1594 36.6907 24.85 36.7001 24.5312Z" fill="#3C3C3C"/>
<path d="M25.9375 18.4375H29.6875V19.8438H25.9375V18.4375Z" fill="#3C3C3C"/>
<path d="M36.25 26.4062H37.6562V30.1562H36.25V26.4062Z" fill="#3C3C3C"/>
<path d="M33.9063 29.6875H31.4219C30.7989 30.4495 30.0545 31.1036 29.2188 31.6234V34.375C29.3431 34.375 29.4623 34.4244 29.5502 34.5123C29.6381 34.6002 29.6875 34.7194 29.6875 34.8437V35.0922C29.8609 35.0125 30.0391 34.9281 30.2125 34.8391L29.7484 34.0375L30.5641 33.5687L31.0281 34.375C31.6624 33.9723 32.2587 33.5126 32.8094 33.0016L32.1531 32.35L32.8188 31.6844L33.475 32.3406C34.0852 31.6735 34.6197 30.941 35.0688 30.1562H34.375C34.2507 30.1562 34.1315 30.1069 34.0435 30.019C33.9556 29.931 33.9063 29.8118 33.9063 29.6875Z" fill="#3C3C3C"/>
<path d="M17.9688 26.4062H19.375V30.1562H17.9688V26.4062Z" fill="#3C3C3C"/>
<path d="M25.9375 36.7188H29.6875V38.125H25.9375V36.7188Z" fill="#3C3C3C"/>
<path d="M26.4063 31.8016V30.8359C25.5101 31.0864 24.5728 31.1553 23.6495 31.0386C22.7262 30.9219 21.8355 30.6219 21.0298 30.1562H20.3126V30.625C20.3112 30.6842 20.3001 30.7428 20.2798 30.7984C21.1842 31.3617 22.1913 31.7404 23.2428 31.9125C24.2943 32.0847 25.3695 32.047 26.4063 31.8016Z" fill="#3C3C3C"/>
<path d="M26.875 20.7812H28.75V21.7188H26.875V20.7812Z" fill="#3C3C3C"/>
<path d="M20.3125 27.3438H21.25V29.2188H20.3125V27.3438Z" fill="#3C3C3C"/>
<path d="M26.875 34.8438H28.75V35.7812H26.875V34.8438Z" fill="#3C3C3C"/>
<path d="M34.375 27.3438H35.3125V29.2188H34.375V27.3438Z" fill="#3C3C3C"/>
</svg>
