<svg width="50" height="50" viewBox="0 0 50 50" fill="none" xmlns="http://www.w3.org/2000/svg">
<rect width="50" height="50" rx="6.46552" fill="#FBC22E"/>
<path d="M22.5784 23.2368C22.5784 23.5998 22.8737 23.8952 23.2368 23.8952C23.5998 23.8952 23.8952 23.5998 23.8952 23.2368C23.8952 22.8738 23.5998 22.5784 23.2368 22.5784C22.8737 22.5784 22.5784 22.8738 22.5784 23.2368Z" fill="#3C3C3C"/>
<path d="M30.7383 23.4766C26.7341 23.4766 23.4766 26.7341 23.4766 30.7383C23.4766 34.7424 26.7341 38 30.7383 38C34.7424 38 38 34.7424 38 30.7383C38 26.7341 34.7424 23.4766 30.7383 23.4766ZM34.1096 31.8052C34.474 32.0155 34.5988 32.4814 34.3884 32.8457C34.2474 33.0901 33.9913 33.2267 33.7281 33.2267C33.5988 33.2267 33.4679 33.1938 33.3479 33.1245L31.5 32.0576V34.1915C31.5 34.6121 31.159 34.9532 30.7383 34.9532C30.3176 34.9532 29.9766 34.6121 29.9766 34.1915V32.0576L28.1286 33.1245C28.0086 33.1938 27.8777 33.2267 27.7484 33.2267C27.4852 33.2267 27.2291 33.0901 27.0881 32.8458C26.8777 32.4814 27.0025 32.0156 27.3669 31.8052L29.2148 30.7383L27.3669 29.6714C27.0026 29.461 26.8777 28.9952 27.0881 28.6309C27.2985 28.2665 27.7643 28.1416 28.1286 28.3521L29.9766 29.419V27.2852C29.9766 26.8645 30.3176 26.5234 30.7383 26.5234C31.159 26.5234 31.5 26.8645 31.5 27.2852V29.419L33.3479 28.3521C33.7122 28.1418 34.1781 28.2666 34.3884 28.6309C34.5988 28.9952 34.474 29.4611 34.1096 29.6714L32.2617 30.7383L34.1096 31.8052Z" fill="#3C3C3C"/>
<path d="M21.9598 30.4109C18.5489 29.8055 15.9504 26.8189 15.9504 23.2367C15.9504 19.219 19.219 15.9504 23.2367 15.9504C26.8189 15.9504 29.8055 18.5489 30.4109 21.9599C30.5196 21.9559 30.6286 21.9532 30.7383 21.9532C32.0696 21.9532 33.3323 22.2514 34.4641 22.7836C34.4181 21.6334 34.1983 20.5273 33.8305 19.4905L31.7044 18.9208C31.3535 18.8271 31.1451 18.4666 31.2389 18.1158C31.3326 17.765 31.6931 17.5566 32.0439 17.6503L33.1474 17.946C32.4828 16.7062 31.5925 15.6049 30.5316 14.6972L28.4111 15.2654C28.0602 15.3592 27.6998 15.1508 27.6061 14.7999C27.5124 14.4491 27.7208 14.0887 28.0716 13.9949L29.1724 13.7C28.004 12.9702 26.6927 12.4489 25.2907 12.1889L23.7331 13.7465C23.476 14.0036 23.0592 14.0036 22.8021 13.7465C22.545 13.4894 22.545 13.0726 22.8021 12.8154L23.6106 12.007C23.4864 12.0028 23.3619 12 23.2367 12C21.9236 12 20.6628 12.2271 19.4904 12.643L18.9208 14.7691C18.827 15.1199 18.4666 15.3284 18.1158 15.2346C17.7649 15.1409 17.5565 14.7805 17.6503 14.4296L17.946 13.3261C16.7062 13.9906 15.6049 14.8809 14.6972 15.9418L15.2654 18.0624C15.3591 18.4132 15.1507 18.7736 14.7999 18.8674C14.449 18.9611 14.0886 18.7527 13.9949 18.4018L13.7 17.3011C12.9701 18.4694 12.4489 19.7807 12.1888 21.1827L13.7465 22.7403C14.0036 22.9974 14.0036 23.4143 13.7465 23.6714C13.4894 23.9285 13.0726 23.9285 12.8154 23.6714L12.0069 22.8629C12.0028 22.9871 12 23.1116 12 23.2367C12 24.5498 12.2271 25.8107 12.6429 26.983L14.7691 27.5527C15.1199 27.6464 15.3283 28.0068 15.2346 28.3577C15.1408 28.7085 14.7804 28.9169 14.4296 28.8232L13.326 28.5275C13.9906 29.7673 14.8809 30.8686 15.9418 31.7763L18.0624 31.2081C18.4132 31.1143 18.7736 31.3227 18.8674 31.6736C18.9611 32.0244 18.7527 32.3848 18.4018 32.4786L17.3011 32.7735C18.4694 33.5033 19.7807 34.0246 21.1827 34.2846L22.2961 33.1713C22.073 32.3984 21.9531 31.5821 21.9531 30.7383C21.9531 30.6286 21.9559 30.5196 21.9598 30.4109Z" fill="#3C3C3C"/>
<path d="M29.0987 22.1072C28.5692 19.3539 26.1423 17.2672 23.2369 17.2672C19.9453 17.2672 17.2673 19.9451 17.2673 23.2368C17.2673 26.1423 19.354 28.5691 22.1073 29.0986C22.3983 27.5641 23.0893 26.1695 24.0679 25.028C23.8151 25.1458 23.5336 25.2119 23.2368 25.2119C22.1477 25.2119 21.2616 24.3259 21.2616 23.2368C21.2616 22.1476 22.1477 21.2616 23.2368 21.2616C24.3259 21.2616 25.212 22.1476 25.212 23.2368C25.212 23.5335 25.1458 23.8149 25.0281 24.0678C26.1696 23.0892 27.5641 22.3981 29.0987 22.1072ZM19.2864 23.8952C18.9228 23.8952 18.628 23.6004 18.628 23.2368C18.628 22.8731 18.9228 22.5783 19.2864 22.5783C19.65 22.5783 19.9448 22.8731 19.9448 23.2368C19.9448 23.6004 19.65 23.8952 19.2864 23.8952ZM20.909 26.4957C20.6519 26.7528 20.235 26.7528 19.9779 26.4957C19.7208 26.2386 19.7208 25.8217 19.9779 25.5646C20.235 25.3075 20.6519 25.3075 20.909 25.5646C21.1661 25.8217 21.1661 26.2386 20.909 26.4957ZM20.909 20.9089C20.6519 21.166 20.235 21.166 19.9779 20.9089C19.7208 20.6518 19.7208 20.2349 19.9779 19.9778C20.235 19.7207 20.6519 19.7207 20.909 19.9778C21.1661 20.235 21.1661 20.6518 20.909 20.9089ZM23.2368 19.9448C22.8742 19.9448 22.5784 19.649 22.5784 19.2863C22.5784 18.9236 22.8741 18.6279 23.2368 18.6279C23.5995 18.6279 23.8953 18.9236 23.8953 19.2863C23.8953 19.649 23.5995 19.9448 23.2368 19.9448ZM25.5646 19.9779C25.8217 19.7208 26.2387 19.7208 26.4958 19.9779C26.7529 20.235 26.7529 20.6519 26.4958 20.909C26.2387 21.1661 25.8218 21.1661 25.5646 20.909C25.3075 20.6518 25.3075 20.235 25.5646 19.9779Z" fill="#3C3C3C"/>
</svg>
