<svg width="50" height="50" viewBox="0 0 50 50" fill="none" xmlns="http://www.w3.org/2000/svg">
<rect width="50" height="50" rx="6.46552" fill="#FBC22E"/>
<path d="M16.7858 25.4688C16.5436 24.277 16.6004 23.0438 16.9511 21.8793C17.3017 20.7148 17.9353 19.6553 18.7953 18.7953C19.6553 17.9354 20.7148 17.3018 21.8793 16.9511C23.0438 16.6005 24.277 16.5437 25.4688 16.7858V12.6766C23.7356 12.4518 21.9739 12.6279 20.3195 13.1913C18.6651 13.7547 17.1621 14.6904 15.9262 15.9262C14.6904 17.1621 13.7547 18.6651 13.1913 20.3195C12.6279 21.9739 12.4518 23.7356 12.6766 25.4688H16.7858ZM21.2037 15.0125C21.3636 14.9417 21.5271 14.8736 21.6901 14.8099C21.7403 14.7902 21.7938 14.7805 21.8478 14.7815C21.9017 14.7825 21.9548 14.7941 22.0043 14.8157C22.0537 14.8373 22.0984 14.8684 22.1357 14.9073C22.1731 14.9461 22.2025 14.992 22.2221 15.0422C22.2418 15.0924 22.2513 15.146 22.2502 15.1999C22.2491 15.2538 22.2374 15.307 22.2157 15.3564C22.1941 15.4057 22.1629 15.4504 22.124 15.4877C22.0851 15.525 22.0392 15.5543 21.9889 15.5738C21.8373 15.6331 21.6849 15.6969 21.536 15.7626C21.4368 15.805 21.3249 15.8066 21.2246 15.7671C21.1242 15.7276 21.0435 15.6501 20.9998 15.5515C20.9561 15.4529 20.9531 15.3411 20.9913 15.2402C21.0295 15.1393 21.1058 15.0576 21.2039 15.0126L21.2037 15.0125ZM17.3478 17.7208C17.4687 17.5944 17.5938 17.4689 17.7203 17.3482C17.7591 17.3106 17.805 17.281 17.8553 17.2612C17.9056 17.2413 17.9593 17.2316 18.0134 17.2326C18.0675 17.2336 18.1208 17.2453 18.1703 17.267C18.2198 17.2887 18.2646 17.32 18.302 17.359C18.3394 17.3981 18.3687 17.4442 18.3882 17.4946C18.4078 17.545 18.4171 17.5988 18.4158 17.6528C18.4145 17.7069 18.4025 17.7601 18.3805 17.8095C18.3585 17.8589 18.3269 17.9035 18.2877 17.9407C18.1699 18.0534 18.0533 18.1703 17.9403 18.2881C17.8649 18.366 17.7617 18.4108 17.6534 18.4129C17.545 18.4149 17.4402 18.374 17.362 18.299C17.2837 18.2241 17.2382 18.1212 17.2356 18.0129C17.2329 17.9045 17.2732 17.7995 17.3478 17.7208ZM14.8091 21.692C14.8728 21.529 14.9411 21.3652 15.0119 21.2051C15.033 21.1549 15.064 21.1093 15.1029 21.0712C15.1418 21.033 15.188 21.003 15.2386 20.9829C15.2893 20.9628 15.3434 20.953 15.3979 20.954C15.4524 20.9551 15.5062 20.967 15.556 20.989C15.6058 21.0111 15.6508 21.0429 15.6882 21.0825C15.7256 21.1221 15.7548 21.1688 15.7739 21.2198C15.7931 21.2708 15.8019 21.3252 15.7999 21.3796C15.7978 21.4341 15.7849 21.4876 15.7619 21.537C15.6959 21.6862 15.6323 21.8389 15.5729 21.9908C15.5331 22.092 15.4549 22.1732 15.3553 22.2167C15.2557 22.2601 15.1429 22.2623 15.0418 22.2228C14.9406 22.1832 14.8592 22.1051 14.8156 22.0055C14.7719 21.906 14.7695 21.7933 14.8089 21.692H14.8091Z" fill="#3C3C3C"/>
<path d="M23.8391 24.239C23.7853 24.2391 23.7319 24.2285 23.6821 24.2079C23.6324 24.1873 23.5872 24.1571 23.5491 24.1189L21.9824 22.5545C21.2145 23.4328 20.7552 24.5384 20.6746 25.7022H22.8953C23.004 25.7022 23.1084 25.7455 23.1853 25.8224C23.2622 25.8993 23.3054 26.0036 23.3054 26.1124C23.3054 26.2212 23.2622 26.3255 23.1853 26.4024C23.1084 26.4793 23.004 26.5226 22.8953 26.5226H20.6746C20.7664 27.6823 21.2243 28.7829 21.9823 29.6655L23.5491 28.0976C23.587 28.0589 23.6322 28.0281 23.682 28.007C23.7319 27.9859 23.7855 27.9749 23.8396 27.9746C23.8937 27.9743 23.9474 27.9847 23.9975 28.0053C24.0476 28.0259 24.0931 28.0561 24.1314 28.0944C24.1697 28.1327 24.2001 28.1781 24.2207 28.2282C24.2414 28.2782 24.2519 28.3319 24.2517 28.386C24.2515 28.4401 24.2405 28.4937 24.2195 28.5436C24.1985 28.5935 24.1678 28.6387 24.1292 28.6767L22.5608 30.2425C23.4441 30.9977 24.5444 31.4527 25.703 31.5421V29.3303C25.703 29.2215 25.7462 29.1172 25.8231 29.0403C25.9001 28.9634 26.0044 28.9201 26.1132 28.9201C26.2219 28.9201 26.3263 28.9634 26.4032 29.0403C26.4801 29.1172 26.5233 29.2215 26.5233 29.3303V31.5409C27.6813 31.4479 28.78 30.9903 29.6616 30.2337L28.1053 28.6764C28.0284 28.5994 27.9853 28.4949 27.9853 28.3861C27.9854 28.2772 28.0287 28.1728 28.1058 28.0959C28.1828 28.019 28.2873 27.9758 28.3961 27.9759C28.505 27.976 28.6094 28.0193 28.6863 28.0963L30.243 29.6549C30.9966 28.7746 31.4515 27.6779 31.5422 26.5226H29.3406C29.2318 26.5226 29.1275 26.4793 29.0505 26.4024C28.9736 26.3255 28.9304 26.2212 28.9304 26.1124C28.9304 26.0036 28.9736 25.8993 29.0505 25.8224C29.1275 25.7455 29.2318 25.7022 29.3406 25.7022H31.5422C31.4517 24.5454 30.9969 23.447 30.2432 22.5648L28.6867 24.1202C28.6097 24.1971 28.5052 24.2403 28.3963 24.2402C28.2874 24.2401 28.1831 24.1968 28.1061 24.1197C28.0292 24.0427 27.986 23.9382 27.9861 23.8293C27.9862 23.7205 28.0296 23.6161 28.1066 23.5391L29.6615 21.9816C28.78 21.225 27.6813 20.7673 26.5233 20.6744V22.885C26.5233 22.9938 26.4801 23.0981 26.4032 23.175C26.3263 23.252 26.2219 23.2952 26.1132 23.2952C26.0044 23.2952 25.9001 23.252 25.8231 23.175C25.7462 23.0981 25.703 22.9938 25.703 22.885V20.6732C24.5444 20.7627 23.4441 21.2178 22.5608 21.9729L24.128 23.5389C24.1853 23.5961 24.2244 23.6691 24.2402 23.7486C24.2561 23.828 24.2481 23.9104 24.2172 23.9853C24.1863 24.0602 24.1339 24.1243 24.0666 24.1694C23.9993 24.2146 23.9202 24.2388 23.8391 24.239ZM26.1084 24.5256C26.4213 24.5256 26.7272 24.6184 26.9873 24.7922C27.2475 24.9661 27.4503 25.2132 27.57 25.5022C27.6898 25.7913 27.7211 26.1094 27.66 26.4163C27.599 26.7232 27.4483 27.0051 27.2271 27.2263C27.0058 27.4476 26.7239 27.5982 26.4171 27.6593C26.1102 27.7203 25.7921 27.689 25.503 27.5693C25.2139 27.4495 24.9668 27.2467 24.793 26.9866C24.6192 26.7264 24.5264 26.4206 24.5264 26.1077C24.5269 25.6882 24.6937 25.2861 24.9903 24.9895C25.2869 24.6929 25.689 24.5261 26.1084 24.5256Z" fill="#3C3C3C"/>
<path d="M19.381 19.3795C18.5601 20.2023 17.972 21.2281 17.6768 22.3523C17.3816 23.4765 17.3898 24.6589 17.7005 25.7789C17.7175 25.8389 17.7201 25.902 17.7082 25.9632C17.6963 26.0244 17.6701 26.082 17.6319 26.1312C17.5934 26.1809 17.5438 26.2208 17.4872 26.248C17.4305 26.2751 17.3683 26.2887 17.3055 26.2877H14.8025C14.9054 32.44 19.9372 37.4101 26.1087 37.4101C32.3443 37.4101 37.4114 32.3399 37.4114 26.1043C37.4116 19.9329 32.4416 14.9039 26.2892 14.801V17.304C26.2905 17.3668 26.2771 17.4291 26.2499 17.4858C26.2228 17.5425 26.1828 17.592 26.133 17.6305C26.0833 17.6689 26.0252 17.6951 25.9635 17.707C25.9018 17.719 25.8382 17.7163 25.7777 17.6991C24.6581 17.3883 23.4762 17.3801 22.3524 17.6753C21.2286 17.9705 20.2033 18.5586 19.381 19.3795ZM26.1086 19.8375H26.1161H26.1181C26.1192 19.8375 26.1202 19.8375 26.1212 19.8375C27.7501 19.8397 29.3137 20.478 30.4788 21.6163C30.5318 21.649 30.5763 21.6936 30.609 21.7466C31.7222 22.8913 32.3549 24.4188 32.3771 26.0154C32.3913 26.0757 32.3913 26.1385 32.3771 26.1989C32.3548 27.7953 31.7222 29.3227 30.6091 30.4674C30.5765 30.5203 30.532 30.5649 30.4791 30.5977C29.314 31.736 27.7503 32.3743 26.1214 32.3765C26.1203 32.3765 26.1193 32.3765 26.1182 32.3765H26.1163H26.1087C24.446 32.3765 22.8513 31.716 21.6755 30.5402C20.4997 29.3644 19.8392 27.7698 19.8392 26.107C19.8392 24.4442 20.4997 22.8495 21.6755 21.6738C22.8513 20.498 24.446 19.8374 26.1087 19.8374L26.1086 19.8375Z" fill="#3C3C3C"/>
<path d="M26.1084 26.8695C26.5291 26.8695 26.8701 26.5285 26.8701 26.1078C26.8701 25.6871 26.5291 25.3461 26.1084 25.3461C25.6877 25.3461 25.3467 25.6871 25.3467 26.1078C25.3467 26.5285 25.6877 26.8695 26.1084 26.8695Z" fill="#3C3C3C"/>
</svg>
