<svg width="50" height="50" viewBox="0 0 50 50" fill="none" xmlns="http://www.w3.org/2000/svg">
<rect width="50" height="50" rx="6.46552" fill="#FBC22E"/>
<path d="M37.3391 32.9675C38.3527 31.1305 38.9248 29.0752 39 26.9415H37.5636V25.9764H38.999C38.922 23.7988 38.3296 21.7508 37.3367 19.952L36.3836 20.5874L35.8482 19.7843L36.8382 19.1244C35.8 17.525 34.4338 16.1588 32.8344 15.1206L32.1745 16.1106L31.3715 15.5752L32.0069 14.6222C30.208 13.6293 28.16 13.0368 25.9824 12.9598V13.9127H25.0173V12.9598C22.8398 13.0368 20.7918 13.6293 18.9929 14.6222L19.6283 15.5752L18.8253 16.1106L18.1653 15.1206C16.5659 16.1588 15.1998 17.525 14.1616 19.1244L15.1515 19.7843L14.6162 20.5874L13.6631 19.952C12.6703 21.7508 12.0778 23.7988 12.0008 25.9764H13.4362V26.9415H12C12.0753 29.0744 12.6484 31.1293 13.6621 32.9666L14.6161 32.3306L15.1515 33.1336L14.1569 33.7966C14.5758 34.4417 15.0539 35.0534 15.5852 35.6274H16.814V36.5925H15.372H15.1251C14.726 36.5925 14.4013 36.9172 14.4013 37.3163C14.4013 37.7155 14.726 38.0401 15.1251 38.0401H18.0034L18.8253 36.8074L19.6283 37.3427L19.1634 38.0401H35.3921C35.7912 38.0401 36.1159 37.7155 36.1159 37.3163C36.1159 36.9742 35.8775 36.687 35.558 36.6116C35.5457 36.6104 35.533 36.6085 35.5203 36.6064C35.4788 36.5986 35.436 36.5925 35.3921 36.5925H32.2555V35.6274H35.4192C35.9499 35.054 36.423 34.44 36.8414 33.7957L35.8483 33.1336L36.3836 32.3306L37.3391 32.9675ZM25.4999 36.5924C19.9124 36.5924 15.3664 32.0467 15.3664 26.4589C15.3664 20.8712 19.9124 16.3254 25.4999 16.3254C31.0874 16.3254 35.6334 20.8712 35.6334 26.4589C35.6334 32.0467 31.0874 36.5924 25.4999 36.5924Z" fill="#3C3C3C"/>
<path d="M20.4609 18.8076L22.571 20.9177C22.891 20.7485 23.2251 20.6074 23.5696 20.4962V17.499C22.4426 17.7416 21.393 18.1917 20.4609 18.8076Z" fill="#3C3C3C"/>
<path d="M30.6332 27.7862C30.6883 27.573 30.8806 27.424 31.1006 27.424H34.6165C34.6499 27.1067 34.6684 26.785 34.6684 26.4589C34.6684 26.1329 34.6499 25.8112 34.6165 25.4938H31.1006C30.8806 25.4938 30.6883 25.3449 30.6332 25.1317C30.5031 24.626 30.2996 24.1447 30.0281 23.7008C29.9122 23.5106 29.941 23.2656 30.0988 23.1079L32.574 20.6328C32.1988 20.1781 31.7809 19.7601 31.3261 19.3849L28.8509 21.8601C28.7581 21.9531 28.6342 22.0015 28.5098 22.0015C28.423 22.0015 28.3364 21.9784 28.2581 21.9308C27.8138 21.6593 27.3321 21.4555 26.827 21.3252C26.614 21.2703 26.465 21.078 26.465 20.858V17.3424C26.1477 17.309 25.826 17.2905 25.5 17.2905C25.1739 17.2905 24.8522 17.309 24.5349 17.3424V20.8583C24.5349 21.0783 24.3859 21.2706 24.1725 21.3255C23.6678 21.4556 23.1866 21.6592 22.7418 21.9308C22.6635 21.9784 22.5769 22.0015 22.4901 22.0015C22.3657 22.0015 22.2418 21.9532 22.149 21.8601L19.6738 19.385C19.2191 19.7601 18.8011 20.1781 18.4259 20.6328L20.9011 23.108C21.0589 23.2656 21.0877 23.5107 20.9718 23.7008C20.7004 24.1447 20.4968 24.6261 20.3667 25.1318C20.3116 25.345 20.1193 25.4939 19.8993 25.4939H16.3834C16.3501 25.8112 16.3315 26.133 16.3315 26.459C16.3315 26.785 16.3501 27.1068 16.3834 27.4241H19.8993C20.1194 27.4241 20.3117 27.573 20.3668 27.7862C20.4968 28.2914 20.7004 28.773 20.9718 29.2172C21.0878 29.4073 21.059 29.6524 20.9012 29.81L18.426 32.2851C18.8012 32.7398 19.2191 33.1578 19.6739 33.533L22.149 31.0578C22.3064 30.8997 22.551 30.8707 22.7418 30.9871C23.1867 31.2588 23.6678 31.4624 24.1725 31.5924C24.386 31.6473 24.5349 31.8396 24.5349 32.0596V35.5755C24.8523 35.6089 25.174 35.6274 25.5 35.6274C25.826 35.6274 26.1478 35.6089 26.4651 35.5755V32.0596C26.4651 31.8396 26.614 31.6473 26.8275 31.5924C27.3322 31.4624 27.8133 31.2588 28.2582 30.9871C28.4486 30.8707 28.6932 30.8997 28.851 31.0578L31.3262 33.533C31.7809 33.1578 32.1989 32.7398 32.574 32.2851L30.0989 29.8099C29.941 29.6523 29.9122 29.4072 30.0282 29.2171C30.2995 28.7729 30.5031 28.2914 30.6332 27.7862ZM25.5 30.8019C23.1051 30.8019 21.157 28.8535 21.157 26.4589C21.157 24.0644 23.1051 22.116 25.5 22.116C27.8948 22.116 29.8429 24.0644 29.8429 26.4589C29.8429 28.8535 27.8948 30.8019 25.5 30.8019Z" fill="#3C3C3C"/>
<path d="M17.8486 21.4202C17.2327 22.3523 16.7826 23.4019 16.54 24.5288H19.537C19.6482 24.1838 19.7896 23.85 19.9587 23.5302L17.8486 21.4202Z" fill="#3C3C3C"/>
<path d="M25.4999 26.9415C25.7664 26.9415 25.9824 26.7255 25.9824 26.459C25.9824 26.1925 25.7664 25.9764 25.4999 25.9764C25.2334 25.9764 25.0173 26.1925 25.0173 26.459C25.0173 26.7255 25.2334 26.9415 25.4999 26.9415Z" fill="#3C3C3C"/>
<path d="M19.537 28.3892H16.54C16.7826 29.5161 17.2327 30.5657 17.8486 31.4978L19.9587 29.3877C19.7895 29.0677 19.6481 28.7339 19.537 28.3892Z" fill="#3C3C3C"/>
<path d="M25.4999 23.0812C23.6376 23.0812 22.1221 24.5964 22.1221 26.459C22.1221 28.3216 23.6376 29.8369 25.4999 29.8369C27.3622 29.8369 28.8777 28.3216 28.8777 26.459C28.8777 24.5964 27.3622 23.0812 25.4999 23.0812ZM25.4999 27.9067C24.7017 27.9067 24.0523 27.2573 24.0523 26.459C24.0523 25.6608 24.7017 25.0114 25.4999 25.0114C26.2982 25.0114 26.9475 25.6608 26.9475 26.459C26.9475 27.2573 26.2982 27.9067 25.4999 27.9067Z" fill="#3C3C3C"/>
<path d="M22.571 32.0002L20.4609 34.1103C21.393 34.7262 22.4426 35.1763 23.5696 35.4189V32.4218C23.2251 32.3106 22.891 32.1694 22.571 32.0002Z" fill="#3C3C3C"/>
<path d="M31.463 28.3892C31.3518 28.7339 31.2104 29.0677 31.0413 29.3877L33.1513 31.4978C33.7672 30.5657 34.2173 29.5161 34.4599 28.3892H31.463Z" fill="#3C3C3C"/>
<path d="M28.4287 32.0002C28.1088 32.1694 27.7747 32.3106 27.4302 32.4218V35.4189C28.5571 35.1763 29.6067 34.7262 30.5388 34.1103L28.4287 32.0002Z" fill="#3C3C3C"/>
<path d="M33.1513 21.4202L31.0413 23.5302C31.2105 23.85 31.3518 24.1838 31.463 24.5288H34.4599C34.2173 23.4019 33.7672 22.3523 33.1513 21.4202Z" fill="#3C3C3C"/>
<path d="M27.4302 17.499V20.4959C27.7747 20.6074 28.1088 20.7486 28.4287 20.9177L30.5388 18.8076C29.6068 18.1917 28.5571 17.7416 27.4302 17.499Z" fill="#3C3C3C"/>
</svg>
