<svg width="50" height="50" viewBox="0 0 50 50" fill="none" xmlns="http://www.w3.org/2000/svg">
<rect width="50" height="50" rx="6.46552" fill="#FBC22E"/>
<path d="M24.5312 34.7031C26.1599 34.7031 27.7519 34.2202 29.106 33.3154C30.4602 32.4106 31.5156 31.1245 32.1388 29.6199C32.7621 28.1153 32.9251 26.4596 32.6074 24.8623C32.2897 23.265 31.5054 21.7978 30.3538 20.6462C29.2022 19.4946 27.735 18.7103 26.1377 18.3926C24.5404 18.0749 22.8847 18.2379 21.3801 18.8612C19.8755 19.4844 18.5894 20.5398 17.6846 21.894C16.7798 23.2481 16.2969 24.8401 16.2969 26.4688C16.3 28.6517 17.1685 30.7444 18.7121 32.2879C20.2556 33.8315 22.3483 34.7001 24.5312 34.7031ZM24.5312 19.2031C25.9683 19.2031 27.373 19.6293 28.5678 20.4276C29.7626 21.226 30.6939 22.3607 31.2438 23.6883C31.7937 25.0159 31.9376 26.4768 31.6573 27.8862C31.3769 29.2956 30.6849 30.5902 29.6688 31.6063C28.6527 32.6224 27.3581 33.3144 25.9487 33.5948C24.5393 33.8751 23.0784 33.7312 21.7508 33.1813C20.4232 32.6314 19.2885 31.7001 18.4901 30.5053C17.6917 29.3105 17.2656 27.9058 17.2656 26.4688C17.2679 24.5425 18.0342 22.6958 19.3962 21.3337C20.7583 19.9717 22.605 19.2054 24.5312 19.2031Z" fill="#3C3C3C"/>
<path d="M21.4702 25.1998C21.4346 25.2888 21.3731 25.3649 21.2936 25.4185C21.2142 25.472 21.1204 25.5005 21.0246 25.5001H18.317C18.2072 26.1413 18.2072 26.7965 18.317 27.4376H21.0246C21.1204 27.4373 21.2142 27.4657 21.2936 27.5192C21.3731 27.5728 21.4346 27.649 21.4702 27.7379C21.5073 27.8261 21.5175 27.9234 21.4994 28.0173C21.4813 28.1113 21.4357 28.1978 21.3685 28.2659L19.4504 30.1743C19.8344 30.6988 20.2967 31.1611 20.8212 31.5451L22.7345 29.6318C22.8026 29.5646 22.8891 29.5191 22.983 29.501C23.077 29.4829 23.1742 29.493 23.2624 29.5301C23.3514 29.5657 23.4276 29.6273 23.4811 29.7067C23.5347 29.7862 23.5631 29.8799 23.5627 29.9757V32.6834C24.2039 32.7932 24.8591 32.7932 25.5002 32.6834V29.9757C25.4999 29.8799 25.5283 29.7862 25.5819 29.7067C25.6354 29.6273 25.7116 29.5657 25.8006 29.5301C25.8888 29.493 25.986 29.4829 26.08 29.501C26.1739 29.5191 26.2604 29.5646 26.3285 29.6318L28.2418 31.5451C28.7662 31.1611 29.2286 30.6988 29.6126 30.1743L27.6945 28.2659C27.6273 28.1978 27.5817 28.1113 27.5636 28.0173C27.5455 27.9234 27.5556 27.8261 27.5927 27.7379C27.6284 27.649 27.6899 27.5728 27.7694 27.5192C27.8488 27.4657 27.9425 27.4373 28.0384 27.4376H30.746C30.8558 26.7965 30.8558 26.1413 30.746 25.5001H28.0384C27.9425 25.5005 27.8488 25.472 27.7694 25.4185C27.6899 25.3649 27.6284 25.2888 27.5927 25.1998C27.5556 25.1116 27.5455 25.0144 27.5636 24.9204C27.5817 24.8264 27.6273 24.74 27.6945 24.6718L29.6126 22.7634C29.227 22.2373 28.763 21.7734 28.237 21.3878L26.3285 23.3059C26.2369 23.3963 26.1133 23.4467 25.9846 23.4464C25.8567 23.4445 25.7346 23.3929 25.6442 23.3024C25.5538 23.212 25.5021 23.0899 25.5002 22.962V20.2543C24.8591 20.1445 24.2039 20.1445 23.5627 20.2543V22.962C23.5609 23.0899 23.5092 23.212 23.4188 23.3024C23.3284 23.3929 23.2062 23.4445 23.0784 23.4464C22.9497 23.4467 22.8261 23.3963 22.7345 23.3059L20.826 21.3878C20.2999 21.7734 19.836 22.2373 19.4504 22.7634L21.3685 24.6718C21.4357 24.74 21.4813 24.8264 21.4994 24.9204C21.5175 25.0144 21.5073 25.1116 21.4702 25.1998Z" fill="#3C3C3C"/>
<path d="M11.9521 26.9532C11.9807 27.7297 12.0828 28.5017 12.2573 29.2589L13.1776 29.0118L13.4295 29.9467L12.5043 30.1937C12.7377 30.9338 13.0359 31.6518 13.3956 32.3395L14.2239 31.86L14.7082 32.7028L13.88 33.1775C14.4888 34.1481 15.227 35.0314 16.0742 35.8028C16.1467 35.8673 16.1979 35.9523 16.2213 36.0465C16.2446 36.1407 16.2389 36.2398 16.205 36.3307C16.1709 36.4219 16.1102 36.5007 16.0307 36.5569C15.9512 36.613 15.8566 36.6439 15.7593 36.6456C15.1275 36.6607 14.5266 36.9217 14.0842 37.3731C13.6419 37.8245 13.3931 38.4306 13.3907 39.0626H34.1317C34.0311 38.7803 33.8461 38.5359 33.6017 38.3626C33.3573 38.1892 33.0654 38.0954 32.7657 38.0939H31.3804C31.275 38.0936 31.1726 38.0589 31.0886 37.9951C31.0047 37.9312 30.9439 37.8418 30.9154 37.7403C30.8859 37.639 30.8908 37.5308 30.9294 37.4326C30.968 37.3345 31.038 37.2519 31.1286 37.1978C31.8292 36.767 32.4862 36.269 33.0903 35.7107L32.4073 35.0326L33.0951 34.3448L33.7732 35.0278C34.3043 34.4595 34.7796 33.8415 35.1925 33.1823L34.3545 32.7028L34.8389 31.86L35.6768 32.3443C36.0398 31.6572 36.3366 30.9371 36.5632 30.1937L35.6332 29.9467L35.8851 29.0118L36.8103 29.2589C36.9814 28.5013 37.0819 27.7294 37.1106 26.9532H36.1564V25.9845H37.1057C37.0803 25.2086 36.983 24.4368 36.8151 23.6789L35.8851 23.9259L35.6332 22.9911L36.5681 22.744C36.2299 21.6638 35.7476 20.6341 35.1343 19.6828H35.1198V19.6682C35.0229 19.5181 34.9309 19.3679 34.8292 19.2226L34.185 20.8356C34.1465 20.9327 34.0777 21.0148 33.9888 21.0696C33.8999 21.1244 33.7957 21.149 33.6916 21.1398C33.5876 21.1305 33.4894 21.0879 33.4115 21.0182C33.3337 20.9486 33.2805 20.8556 33.2598 20.7532L32.8336 18.6317L31.1964 18.22C31.1032 18.1968 31.019 18.1465 30.9545 18.0754C30.8899 18.0043 30.848 17.9156 30.834 17.8206C30.82 17.7256 30.8345 17.6286 30.8757 17.5419C30.917 17.4551 30.9831 17.3826 31.0656 17.3336L32.3201 16.5828C31.1074 15.6257 29.7279 14.9014 28.2514 14.4467L28.0092 15.367L27.0743 15.1151L27.3165 14.1948C26.5605 14.024 25.7903 13.9235 25.0157 13.8945V14.8439H24.047V13.8896C23.2708 13.9177 22.4989 14.0182 21.7414 14.19L21.9884 15.1151L21.0536 15.367L20.8065 14.437C20.0649 14.6682 19.3465 14.9682 18.6607 15.3331L19.1403 16.1614L18.2975 16.6457L17.8228 15.8175C17.1677 16.2322 16.5516 16.7056 15.9821 17.2318L16.6554 17.9051L15.9676 18.5929L15.2943 17.9196C14.7681 18.4891 14.2947 19.1052 13.88 19.7603L14.7082 20.235L14.2239 21.0778L13.3956 20.5982C13.0307 21.284 12.7307 22.0024 12.4995 22.744L13.4295 22.9911L13.1776 23.9259L12.2525 23.6789C12.0807 24.4364 11.9802 25.2083 11.9521 25.9845H12.9064V26.9532H11.9521ZM15.8126 38.5782H14.8439V37.6095H15.8126V38.5782ZM18.7189 37.1251H17.2657V36.1564H18.7189V37.1251ZM21.1407 38.5782H20.172V37.6095H21.1407V38.5782ZM25.5001 38.5782H22.5939V37.6095H25.5001V38.5782ZM28.4064 37.1251H26.4689V36.1564H28.4064V37.1251ZM29.8595 38.5782H28.8907V37.6095H29.8595V38.5782ZM24.5314 17.2657C26.3516 17.2657 28.1309 17.8055 29.6444 18.8167C31.1578 19.828 32.3374 21.2653 33.0339 22.947C33.7305 24.6286 33.9128 26.4791 33.5577 28.2643C33.2026 30.0495 32.326 31.6894 31.039 32.9765C29.7519 34.2635 28.112 35.1401 26.3268 35.4952C24.5416 35.8503 22.6911 35.668 21.0095 34.9714C19.3278 34.2749 17.8905 33.0953 16.8792 31.5819C15.868 30.0684 15.3282 28.2891 15.3282 26.4689C15.3304 24.0287 16.3007 21.6891 18.0262 19.9637C19.7516 18.2382 22.0912 17.2679 24.5314 17.2657Z" fill="#3C3C3C"/>
<path d="M35.2701 13.6571L34.7615 12.9015L34.1657 14.093C34.1373 14.1498 34.0979 14.2004 34.0498 14.242C34.0017 14.2835 33.9459 14.315 33.8856 14.3348C33.8252 14.3547 33.7616 14.3623 33.6982 14.3574C33.6349 14.3525 33.5732 14.3351 33.5166 14.3062L32.4316 13.7637L32.7513 15.6963C32.9984 15.8804 33.2405 16.079 33.473 16.2824C33.5308 16.3323 33.5758 16.3952 33.6045 16.466C33.6331 16.5367 33.6445 16.6133 33.6377 16.6893C33.6303 16.7657 33.605 16.8394 33.5637 16.9042C33.5225 16.969 33.4665 17.0232 33.4004 17.0622L32.5624 17.566L33.3665 17.7646C33.456 17.7852 33.5376 17.8314 33.6013 17.8976C33.665 17.9639 33.7079 18.0473 33.7249 18.1376L33.8896 18.9658L34.248 18.0746C34.2926 17.9577 34.3799 17.862 34.4924 17.8072C34.6048 17.7523 34.7339 17.7423 34.8535 17.7791C34.9729 17.8193 35.0719 17.9045 35.1296 18.0165C35.333 18.2635 35.5171 18.5251 35.6963 18.7866L37.4885 19.0433L36.7377 18.0407C36.6923 17.9816 36.6616 17.9126 36.6481 17.8393C36.6347 17.7661 36.6388 17.6906 36.6602 17.6193C36.6801 17.5476 36.7163 17.4815 36.7658 17.4261C36.8154 17.3706 36.877 17.3274 36.946 17.2996L38.3652 16.7329L37.3916 16.2437C37.2798 16.1884 37.194 16.0916 37.1524 15.974C37.1108 15.8565 37.1167 15.7273 37.1688 15.614L38.5541 12.4897L35.8901 13.8218C35.7844 13.8747 35.6631 13.8871 35.5489 13.8568C35.4347 13.8265 35.3356 13.7554 35.2701 13.6571Z" fill="#3C3C3C"/>
</svg>
