<svg width="75" height="75" viewBox="0 0 75 75" fill="none" xmlns="http://www.w3.org/2000/svg">
<rect width="75" height="75" rx="9.69828" fill="#FBC22E"/>
<g clip-path="url(#clip0)">
<path d="M24.1645 43.5781L22.7062 42.1204L17.6247 47.2009L19.8024 49.3789C19.0782 49.5984 18.4146 49.9938 17.8647 50.5447C16.9842 51.4243 16.5 52.5948 16.5 53.8397C16.5 55.0849 16.9842 56.2548 17.8647 57.1354C18.7453 58.0159 19.9152 58.5001 21.1604 58.5001C22.4053 58.5001 23.5758 58.0159 24.4554 57.1354C25.0063 56.5855 25.4017 55.9219 25.6212 55.1977L27.7992 57.3754L32.8797 52.2939L31.422 50.8356L32.657 49.6007L27.3092 40.4333L24.1645 43.5781Z" fill="#3C3C3C"/>
<path d="M29.1133 38.6306L34.461 47.7979L36.2442 46.0147L30.8965 36.8474L29.1133 38.6306Z" fill="#3C3C3C"/>
<path d="M32.6992 35.0447L38.0473 44.212L39.8302 42.4288L34.4824 33.2615L32.6992 35.0447Z" fill="#3C3C3C"/>
<path d="M36.2852 31.458L41.6332 40.6254L43.4155 38.8431L38.0677 29.6758L36.2852 31.458Z" fill="#3C3C3C"/>
<path d="M39.8711 27.8721L45.2188 37.0394L47.0011 35.2572L41.6534 26.0898L39.8711 27.8721Z" fill="#3C3C3C"/>
<path d="M55.9504 24.1235C56.3695 23.9376 56.7617 23.6745 57.1055 23.331C57.8544 22.5818 58.2283 21.5978 58.2283 20.6137C58.2283 19.6297 57.8544 18.6456 57.1055 17.8958C56.3794 17.17 55.4143 16.7704 54.3876 16.7704C53.3606 16.7704 52.3964 17.17 51.6703 17.8958C51.3268 18.2396 51.0637 18.6319 50.8779 19.051L48.3269 16.5L43.2461 21.5815L44.7047 23.0391L43.4566 24.2869L48.8047 33.4545L51.9622 30.2966L53.4199 31.7552L58.5013 26.6744L55.9504 24.1235Z" fill="#3C3C3C"/>
<path d="M28.1068 36.9082L25.9766 38.1502L27.3086 40.4333L29.1114 38.6305L28.1068 36.9082Z" fill="#3C3C3C"/>
<path d="M33.6608 51.323L35.7911 50.08L34.459 47.7979L32.6562 49.6006L33.6608 51.323Z" fill="#3C3C3C"/>
<path d="M31.6924 33.3223L29.5625 34.5652L30.8942 36.8474L32.697 35.0446L31.6924 33.3223Z" fill="#3C3C3C"/>
<path d="M37.2467 47.737L39.377 46.494L38.0453 44.2119L36.2422 46.0147L37.2467 47.737Z" fill="#3C3C3C"/>
<path d="M35.2784 29.7358L33.1484 30.9791L34.4802 33.2613L36.2829 31.4582L35.2784 29.7358Z" fill="#3C3C3C"/>
<path d="M40.833 44.1509L42.9629 42.9086L41.6312 40.6255L39.8281 42.4286L40.833 44.1509Z" fill="#3C3C3C"/>
<path d="M38.8653 26.1499L36.7344 27.3929L38.0664 29.676L39.8701 27.8722L38.8653 26.1499Z" fill="#3C3C3C"/>
<path d="M44.4186 40.5656L46.5495 39.3226L45.2178 37.0396L43.4141 38.8433L44.4186 40.5656Z" fill="#3C3C3C"/>
<path d="M42.4502 22.5649L40.3203 23.8069L41.652 26.09L43.4548 24.287L42.4502 22.5649Z" fill="#3C3C3C"/>
<path d="M48.0046 36.9797L50.1348 35.7367L48.8031 33.4546L47 35.2574L48.0046 36.9797Z" fill="#3C3C3C"/>
</g>
<defs>
<clipPath id="clip0">
<rect width="42" height="42" fill="white" transform="translate(16.5 16.5)"/>
</clipPath>
</defs>
</svg>
