<svg width="75" height="75" viewBox="0 0 75 75" fill="none" xmlns="http://www.w3.org/2000/svg">
<rect width="75" height="75" rx="6.46552" fill="#FBC22E"/>
<path d="M45.684 26.1274C41.8905 21.0107 38.0429 16.871 38.0046 16.8298C37.8085 16.6194 37.5337 16.5 37.2462 16.5C36.9585 16.5 36.6839 16.6194 36.4877 16.8298C36.4491 16.871 32.6014 21.0107 28.8084 26.1274C23.627 33.1165 21 38.5418 21 42.2528C21 51.2113 28.2882 58.5 37.2465 58.5C46.2049 58.5 53.4934 51.2114 53.4934 42.2528C53.4927 38.5414 50.8654 33.1165 45.684 26.1274ZM38.8686 53.2421C38.0171 53.4435 37.1395 53.5454 36.2595 53.5454C30.0075 53.5454 24.9208 48.4589 24.9208 42.2067C24.9208 41.3444 25.1861 39.7832 26.4502 37.2382C26.5772 36.9822 26.8701 36.8554 27.1437 36.9368C27.4171 37.0183 27.5928 37.285 27.5591 37.5686C27.5299 37.8136 27.5154 38.0441 27.5154 38.2539C27.5154 44.9554 32.2817 50.7767 38.8485 52.0952C39.1192 52.1492 39.3152 52.3849 39.32 52.6608C39.3252 52.937 39.1372 53.1785 38.8686 53.2421Z" fill="#3C3C3C"/>
</svg>
