<svg width="75" height="75" viewBox="0 0 75 75" fill="none" xmlns="http://www.w3.org/2000/svg">
<rect width="75" height="75" rx="6.46552" fill="#FBC22E"/>
<path d="M54.5625 34.2188C52.7532 34.2188 51.2812 35.6907 51.2812 37.5C51.2812 37.7881 51.3305 38.0624 51.4007 38.3288L42.6155 42.0938H33.5625V42.1659C32.7277 41.3128 31.5662 40.7812 30.2812 40.7812C29.0331 40.7812 27.901 41.2833 27.0722 42.0938H23.7188C23.3565 42.0938 23.0625 42.3877 23.0625 42.75V43.4062H17.1562V44.7188H23.0625V46.0312H17.1562V47.3438H23.0625V48C23.0625 48.3623 23.3565 48.6562 23.7188 48.6562H27.0722C27.7527 49.3217 28.6387 49.7745 29.625 49.9162V55.875C29.625 56.2372 29.919 56.5312 30.2812 56.5312H33.5369C33.5474 56.7058 33.5625 56.8791 33.5625 57.0556V57.1875C33.5625 57.5497 33.8565 57.8438 34.2188 57.8438H38.1562C38.5185 57.8438 38.8125 57.5497 38.8125 57.1875V57.1022C38.8125 53.6359 37.4731 50.3776 35.0469 47.9081L44.1032 47.3424C44.2121 47.3359 44.3178 47.3018 44.4097 47.244L54.7863 40.7583C56.4899 40.6408 57.8438 39.2325 57.8438 37.5C57.8438 35.6907 56.3718 34.2188 54.5625 34.2188ZM24.375 43.4062H26.137C25.8516 44.0041 25.6875 44.6695 25.6875 45.375C25.6875 46.0805 25.8516 46.7459 26.137 47.3438H24.375V43.4062ZM27 45.375C27 43.5657 28.472 42.0938 30.2812 42.0938C32.0905 42.0938 33.5625 43.5657 33.5625 45.375C33.5625 47.1843 32.0905 48.6562 30.2812 48.6562C28.472 48.6562 27 47.1843 27 45.375ZM30.9375 55.2188V50.8967L31.0635 51.0227C32.2323 52.1915 33.0139 53.6418 33.3584 55.2188H30.9375ZM34.8612 56.5312C34.7346 54.0992 33.7266 51.8299 31.9914 50.0948L31.6548 49.7581C32.458 49.5054 33.1642 49.0349 33.7108 48.42L34.0403 48.7494C36.1363 50.8455 37.3477 53.5899 37.4862 56.5312H34.8612ZM43.8558 46.0431L34.7004 46.6153C34.8113 46.2202 34.875 45.8048 34.875 45.375C34.875 44.6695 34.7109 44.0041 34.4255 43.4062H42.75C42.8386 43.4062 42.9272 43.3885 43.0086 43.3531L51.9847 39.5062C52.2525 39.8494 52.5846 40.1342 52.9658 40.3488L43.8558 46.0431ZM54.5625 39.4688C53.4771 39.4688 52.5938 38.5854 52.5938 37.5C52.5938 36.4146 53.4771 35.5312 54.5625 35.5312C55.6479 35.5312 56.5312 36.4146 56.5312 37.5C56.5312 38.5854 55.6479 39.4688 54.5625 39.4688Z" fill="#3C3C3C"/>
<path d="M43.8558 46.0431L34.7004 46.6153C34.8113 46.2202 34.875 45.8048 34.875 45.375C34.875 44.6695 34.7109 44.0041 34.4255 43.4062H42.75C42.8386 43.4062 42.9272 43.3885 43.0086 43.3531L51.9847 39.5062C52.2525 39.8494 52.5846 40.1342 52.9658 40.3488L43.8558 46.0431Z" fill="#3C3C3C"/>
<path d="M24.375 43.4062H26.137C25.8516 44.0041 25.6875 44.6695 25.6875 45.375C25.6875 46.0805 25.8516 46.7459 26.137 47.3438H24.375V43.4062Z" fill="#3C3C3C"/>
<path d="M34.8612 56.5312C34.7346 54.0992 33.7266 51.8299 31.9914 50.0948L31.6548 49.7581C32.458 49.5054 33.1642 49.0349 33.7108 48.42L34.0403 48.7494C36.1363 50.8455 37.3477 53.5899 37.4862 56.5312H34.8612Z" fill="#3C3C3C"/>
<path d="M54.5625 39.4688C53.4771 39.4688 52.5938 38.5854 52.5938 37.5C52.5938 36.4146 53.4771 35.5312 54.5625 35.5312C55.6479 35.5312 56.5312 36.4146 56.5312 37.5C56.5312 38.5854 55.6479 39.4688 54.5625 39.4688Z" fill="#3C3C3C"/>
<path d="M32.9062 45.375C32.9062 43.9273 31.7289 42.75 30.2812 42.75C28.8336 42.75 27.6562 43.9273 27.6562 45.375C27.6562 46.8227 28.8336 48 30.2812 48C31.7289 48 32.9062 46.8227 32.9062 45.375ZM28.9688 45.375C28.9688 44.6512 29.5574 44.0625 30.2812 44.0625C31.0051 44.0625 31.5938 44.6512 31.5938 45.375C31.5938 46.0988 31.0051 46.6875 30.2812 46.6875C29.5574 46.6875 28.9688 46.0988 28.9688 45.375Z" fill="#3C3C3C"/>
<path d="M44.7188 25.6875C43.2711 25.6875 42.0938 26.8648 42.0938 28.3125C42.0938 29.7602 43.2711 30.9375 44.7188 30.9375C46.1664 30.9375 47.3438 29.7602 47.3438 28.3125C47.3438 26.8648 46.1664 25.6875 44.7188 25.6875ZM44.7188 29.625C43.9949 29.625 43.4062 29.0363 43.4062 28.3125C43.4062 27.5887 43.9949 27 44.7188 27C45.4426 27 46.0312 27.5887 46.0312 28.3125C46.0312 29.0363 45.4426 29.625 44.7188 29.625Z" fill="#3C3C3C"/>
<path d="M18.4688 20.4375C18.4688 19.3521 19.3521 18.4688 20.4375 18.4688C21.5229 18.4688 22.4062 19.3521 22.4062 20.4375C22.4062 21.5229 21.5229 22.4062 20.4375 22.4062C19.3521 22.4062 18.4688 21.5229 18.4688 20.4375Z" fill="#3C3C3C"/>
<path fill-rule="evenodd" clip-rule="evenodd" d="M57.8438 27.6562V26.3438H51.9375V25.6875C51.9375 25.3252 51.6435 25.0312 51.2812 25.0312H47.9278C47.099 24.2208 45.9669 23.7188 44.7188 23.7188C43.4338 23.7188 42.2722 24.2503 41.4375 25.1034V25.0312H32.3845L23.5993 21.2663C23.6695 20.9999 23.7188 20.7256 23.7188 20.4375C23.7188 18.6282 22.2468 17.1562 20.4375 17.1562C18.6282 17.1562 17.1562 18.6282 17.1562 20.4375C17.1562 22.17 18.5101 23.5783 20.2131 23.6958L30.5897 30.1815C30.6822 30.2393 30.7872 30.2734 30.8962 30.2799L39.9524 30.8456C37.5269 33.3151 36.1875 36.5734 36.1875 40.0397V40.125C36.1875 40.4872 36.4815 40.7812 36.8438 40.7812H40.7812C41.1435 40.7812 41.4375 40.4872 41.4375 40.125V39.9931C41.4375 39.8166 41.4526 39.6433 41.4631 39.4688H44.7188C45.081 39.4688 45.375 39.1747 45.375 38.8125V32.8538C46.3613 32.712 47.2473 32.2592 47.9278 31.5938H51.2812C51.6435 31.5938 51.9375 31.2998 51.9375 30.9375V30.2812H57.8438V28.9688H51.9375V27.6562H57.8438ZM20.4375 18.4688C19.3521 18.4688 18.4688 19.3521 18.4688 20.4375C18.4688 21.5229 19.3521 22.4062 20.4375 22.4062C21.5229 22.4062 22.4062 21.5229 22.4062 20.4375C22.4062 19.3521 21.5229 18.4688 20.4375 18.4688ZM23.0153 22.4437C22.7475 22.7869 22.4154 23.0717 22.0342 23.2863L31.1442 28.9806L40.2996 29.5528C40.1887 29.1577 40.125 28.7423 40.125 28.3125C40.125 27.607 40.2891 26.9416 40.5745 26.3438H32.25C32.1614 26.3438 32.0728 26.326 31.9914 26.2906L23.0153 22.4437ZM37.5138 39.4688H40.1388C40.2654 37.0367 41.2734 34.7674 43.0086 33.0322L43.3452 32.6956C42.5413 32.4429 41.8358 31.9724 41.2892 31.3575L40.9597 31.6869C38.8643 33.783 37.6529 36.5281 37.5138 39.4688ZM43.9358 33.9602C42.7671 35.1296 41.9855 36.5793 41.6409 38.1562H44.0625V33.8342L43.9358 33.9602ZM41.4375 28.3125C41.4375 30.1218 42.9095 31.5938 44.7188 31.5938C46.528 31.5938 48 30.1218 48 28.3125C48 26.5032 46.528 25.0312 44.7188 25.0312C42.9095 25.0312 41.4375 26.5032 41.4375 28.3125ZM48.863 30.2812H50.625V26.3438H48.863C49.1484 26.9416 49.3125 27.607 49.3125 28.3125C49.3125 29.018 49.1484 29.6834 48.863 30.2812Z" fill="#3C3C3C"/>
<path d="M22.0342 23.2863C22.4154 23.0717 22.7475 22.7869 23.0153 22.4437L31.9914 26.2906C32.0728 26.326 32.1614 26.3438 32.25 26.3438H40.5745C40.2891 26.9416 40.125 27.607 40.125 28.3125C40.125 28.7423 40.1887 29.1577 40.2996 29.5528L31.1442 28.9806L22.0342 23.2863Z" fill="#3C3C3C"/>
<path d="M50.625 30.2812H48.863C49.1484 29.6834 49.3125 29.018 49.3125 28.3125C49.3125 27.607 49.1484 26.9416 48.863 26.3438H50.625V30.2812Z" fill="#3C3C3C"/>
<path d="M40.1388 39.4688H37.5138C37.6529 36.5281 38.8643 33.783 40.9597 31.6869L41.2892 31.3575C41.8358 31.9724 42.5413 32.4429 43.3452 32.6956L43.0086 33.0322C41.2734 34.7674 40.2654 37.0367 40.1388 39.4688Z" fill="#3C3C3C"/>
</svg>
