<svg width="137" height="137" viewBox="0 0 137 137" fill="none" xmlns="http://www.w3.org/2000/svg">
<rect width="137" height="137" rx="6.47" fill="#FBC22E"/>
<g clip-path="url(#clip0)">
<path d="M46.6758 58.6604V63.7887C46.6758 64.1989 47.0092 64.5308 47.4192 64.5308H49.4892C49.5355 64.3508 49.607 64.1816 49.6717 64.0096C49.7035 63.9249 49.7246 63.8364 49.7603 63.7543C49.8872 63.4633 50.0368 63.1855 50.2113 62.9235C50.251 62.8654 50.2999 62.8151 50.3409 62.7583C50.4851 62.5585 50.6385 62.3681 50.8092 62.1908C50.8873 62.11 50.9719 62.0401 51.0539 61.9645C51.206 61.8256 51.3608 61.6933 51.5287 61.573C51.6266 61.5015 51.7271 61.4368 51.8304 61.3733C52.001 61.2661 52.177 61.1722 52.3595 61.085C52.4693 61.0334 52.5764 60.9817 52.6888 60.9381C52.8913 60.8587 53.1001 60.7979 53.3144 60.7423C53.4177 60.7171 53.5155 60.6828 53.62 60.6629C53.9427 60.602 54.2721 60.5623 54.6121 60.5623C54.9521 60.5623 55.2814 60.602 55.6042 60.6629C55.7086 60.6826 55.8066 60.7171 55.9097 60.7423C56.124 60.7979 56.333 60.8587 56.5353 60.9381C56.6477 60.9817 56.7548 61.0334 56.8646 61.085C57.0472 61.1723 57.2231 61.2661 57.3937 61.3733C57.497 61.4368 57.5974 61.5015 57.6954 61.573C57.8634 61.6933 58.0181 61.8256 58.1702 61.9645C58.2522 62.0399 58.3369 62.11 58.4149 62.1908C58.5856 62.3681 58.739 62.5585 58.8832 62.7583C58.9242 62.8152 58.9731 62.8654 59.0128 62.9235C59.1874 63.1855 59.3369 63.4633 59.4638 63.7543C59.4995 63.8362 59.5208 63.9249 59.5524 64.0096C59.6173 64.1816 59.6886 64.3509 59.7349 64.5308H70.6529C70.6992 64.3508 70.7707 64.1816 70.8354 64.0096C70.8672 63.9249 70.8883 63.8364 70.924 63.7543C71.0509 63.4633 71.2004 63.1855 71.375 62.9235C71.4147 62.8654 71.4635 62.8151 71.5046 62.7583C71.6487 62.5585 71.8022 62.3681 71.9729 62.1908C72.0509 62.11 72.1356 62.0401 72.2176 61.9645C72.3696 61.8256 72.5244 61.6933 72.6924 61.573C72.7903 61.5015 72.8908 61.4368 72.994 61.3733C73.1647 61.2661 73.3406 61.1722 73.5231 61.085C73.633 61.0334 73.7401 60.9817 73.8525 60.9381C74.0549 60.8587 74.2638 60.7979 74.4781 60.7423C74.5813 60.7171 74.6792 60.6828 74.7836 60.6629C75.1064 60.602 75.4357 60.5623 75.7757 60.5623C76.1157 60.5623 76.4451 60.602 76.7678 60.6629C76.8723 60.6826 76.9703 60.7171 77.0734 60.7423C77.2876 60.7979 77.4967 60.8587 77.699 60.9381C77.8113 60.9817 77.9185 61.0334 78.0283 61.085C78.2108 61.1723 78.3867 61.2661 78.5574 61.3733C78.6606 61.4368 78.761 61.5015 78.859 61.573C79.027 61.6933 79.1818 61.8256 79.3339 61.9645C79.4159 62.0399 79.5005 62.11 79.5786 62.1908C79.7493 62.3681 79.9027 62.5585 80.0468 62.7583C80.0879 62.8152 80.1367 62.8654 80.1765 62.9235C80.351 63.1855 80.5006 63.4633 80.6275 63.7543C80.6631 63.8362 80.6844 63.9249 80.716 64.0096C80.7809 64.1816 80.8522 64.3509 80.8985 64.5308H82.9686C83.3787 64.5308 83.712 64.1987 83.712 63.7887V58.6604C83.712 58.2502 83.3787 57.917 82.9686 57.917H79.7437H50.6441H47.4192C47.0092 57.917 46.6758 58.2502 46.6758 58.6604Z" fill="#3C3C3C"/>
<path d="M72.9614 49.3804C72.6386 48.9281 72.1123 48.6582 71.5566 48.6582H66.5117V55.272H77.1692L72.9614 49.3804Z" fill="#3C3C3C"/>
<path d="M63.8763 48.6582H58.8326C58.2758 48.6582 57.7492 48.9281 57.4265 49.3804L53.2188 55.272H63.8762V48.6582H63.8763Z" fill="#3C3C3C"/>
<path d="M54.6103 63.2085C53.1513 63.2085 51.9648 64.395 51.9648 65.854C51.9648 67.313 53.1513 68.4995 54.6103 68.4995C56.0693 68.4995 57.2558 67.313 57.2558 65.854C57.2558 64.395 56.0693 63.2085 54.6103 63.2085Z" fill="#3C3C3C"/>
<path d="M75.7705 63.2085C74.3115 63.2085 73.125 64.395 73.125 65.854C73.125 67.313 74.3115 68.4995 75.7705 68.4995C77.2295 68.4995 78.4159 67.313 78.4159 65.854C78.4159 64.395 77.2295 63.2085 75.7705 63.2085Z" fill="#3C3C3C"/>
<path d="M74.4561 30.1396H55.9375V36.7534V38.0762H74.4548L74.4561 30.1396Z" fill="#3C3C3C"/>
<path d="M92.9667 38.0762V70.5604C94.8596 71.0856 96.6361 71.8818 98.2577 72.9083V34.1079C98.2577 31.9201 96.4773 30.1396 94.2894 30.1396H77.0938V35.4306H90.3213C91.7801 35.4306 92.9667 36.6172 92.9667 38.0762Z" fill="#3C3C3C"/>
<path d="M71.8446 101.568H40.0616C38.6026 101.568 37.4161 100.382 37.4161 98.9228V38.0762C37.4161 36.6172 38.6026 35.4308 40.0616 35.4308H53.2891V30.1396H36.0933C33.9041 30.1396 32.125 31.9201 32.125 34.1079V102.891C32.125 105.079 33.9041 106.859 36.0933 106.859H77.8235C75.4888 105.515 73.4584 103.71 71.8446 101.568Z" fill="#3C3C3C"/>
<path d="M40.0625 38.0762V98.9227H70.1459C68.6802 96.1569 67.8404 93.0074 67.8404 89.6635C67.8404 78.723 76.7412 69.8222 87.6817 69.8222C88.5812 69.8222 89.4594 69.9029 90.3271 70.0206V38.0762H77.0996C77.0996 39.5352 75.9118 40.7216 74.4541 40.7216H55.9355C54.4765 40.7216 53.29 39.5352 53.29 38.0762H40.0625ZM65.1947 93.6316H45.3536C44.6221 93.6316 44.0308 93.0403 44.0308 92.3088C44.0308 91.5773 44.6221 90.986 45.3536 90.986H65.1949C65.9264 90.986 66.5177 91.5773 66.5177 92.3088C66.5177 93.0403 65.9263 93.6316 65.1947 93.6316ZM65.1947 87.0178H45.3536C44.6221 87.0178 44.0308 86.4266 44.0308 85.695C44.0308 84.9635 44.6221 84.3722 45.3536 84.3722H65.1949C65.9264 84.3722 66.5177 84.9635 66.5177 85.695C66.5176 86.4266 65.9263 87.0178 65.1947 87.0178ZM65.1947 80.4042H45.3536C44.6221 80.4042 44.0308 79.813 44.0308 79.0814C44.0308 78.3499 44.6221 77.7586 45.3536 77.7586H65.1949C65.9264 77.7586 66.5177 78.3499 66.5177 79.0814C66.5176 79.813 65.9263 80.4042 65.1947 80.4042ZM55.2702 47.8434C56.0889 46.6978 57.4184 46.0127 58.827 46.0127H71.5611C72.9711 46.0127 74.3005 46.698 75.1193 47.8434L80.4248 55.272H82.9697C84.8387 55.272 86.3586 56.7932 86.3586 58.6608V63.7892C86.3586 65.657 84.8387 67.1767 82.9697 67.1767H80.88C80.2887 69.4531 78.2359 71.145 75.7768 71.145C73.3177 71.145 71.2649 69.4533 70.6736 67.1767H59.7159C59.1246 69.4531 57.0718 71.145 54.6127 71.145C52.1538 71.145 50.1008 69.4533 49.5095 67.1767H47.4183C45.5505 67.1767 44.0308 65.6568 44.0308 63.7892V58.6608C44.0308 56.793 45.5506 55.272 47.4183 55.272H49.9646L55.2702 47.8434Z" fill="#3C3C3C"/>
<path d="M87.6763 72.4688C78.1948 72.4688 70.4805 80.183 70.4805 89.6646C70.4805 99.1462 78.1947 106.86 87.6763 106.86C97.1591 106.86 104.872 99.146 104.872 89.6646C104.872 80.1831 97.1591 72.4688 87.6763 72.4688ZM96.6988 83.8062L88.4792 95.6171C88.2676 95.9187 87.9394 96.121 87.5744 96.1714C87.5136 96.1793 87.4527 96.1832 87.3932 96.1832C87.0891 96.1832 86.7913 96.0787 86.5546 95.8829L80.2239 90.6858C79.6591 90.2241 79.577 89.3895 80.04 88.8247C80.5044 88.2625 81.3376 88.1792 81.901 88.6422L87.1259 92.9292L94.5267 82.2943C94.9446 81.6937 95.7674 81.5443 96.3679 81.9649C96.9685 82.3828 97.1153 83.2069 96.6988 83.8062Z" fill="#3C3C3C"/>
</g>
<defs>
<clipPath id="clip0">
<rect width="76.72" height="76.72" fill="white" transform="translate(30.1445 30.1396)"/>
</clipPath>
</defs>
</svg>
