<svg width="75" height="75" viewBox="0 0 75 75" fill="none" xmlns="http://www.w3.org/2000/svg">
<rect width="75" height="75" rx="9.69828" fill="#FBC22E"/>
<g clip-path="url(#clip0)">
<path d="M47.2621 35.146C47.2621 35.146 44.1445 32.572 40.7125 31.657C37.2804 30.7421 29.5583 31.3426 28.0709 31.657C26.5836 31.9715 21.6072 34.231 21.6072 34.231C21.6072 34.231 17.0894 33.5158 17.6329 35.2318C18.1766 36.9478 17.3756 36.5188 17.0611 38.4065C16.7467 40.294 17.7475 41.2948 17.7475 41.2948L18.6055 41.4376L18.7201 41.8451C19.9434 41.8451 20.9844 41.8981 21.8618 41.9752C21.8585 41.9109 21.8521 41.8465 21.8521 41.7808C21.8521 39.723 23.5263 38.0484 25.5847 38.0484C27.6431 38.0484 29.3173 39.7222 29.3173 41.7808C29.3173 42.0562 29.2851 42.323 29.2288 42.5818H47.339C47.282 42.3238 47.2504 42.0562 47.2504 41.7808C47.2504 39.723 48.9242 38.0484 50.9827 38.0484C53.0411 38.0484 54.7157 39.7222 54.7157 41.7808C54.7157 42.0562 54.6835 42.323 54.6272 42.5818H57.3037C57.6181 42.067 58.3045 42.0382 58.3045 42.0382C59.0196 41.5234 59.0196 39.5213 58.9908 39.0922C58.9621 38.6631 57.9902 37.6624 57.9902 37.6624C55.4707 36.0616 47.2621 35.146 47.2621 35.146Z" fill="#3C3C3C"/>
<path d="M25.5853 38.7363C23.9028 38.7363 22.5391 40.0998 22.5391 41.7823C22.5391 41.8727 22.5582 41.9578 22.566 42.0464C22.7017 43.6028 23.9937 44.8282 25.5854 44.8282C26.9883 44.8282 28.1581 43.8736 28.5117 42.5826C28.5817 42.3259 28.6317 42.061 28.6317 41.7815C28.6308 40.0991 27.2678 38.7363 25.5853 38.7363Z" fill="#3C3C3C"/>
<path d="M50.9794 38.7363C49.2968 38.7363 47.9336 40.0998 47.9336 41.7823C47.9336 42.061 47.9825 42.3265 48.0536 42.5834C48.4069 43.8745 49.5766 44.829 50.9796 44.829C52.3826 44.829 53.5521 43.8745 53.9061 42.5834C53.9757 42.3267 54.0261 42.0619 54.0261 41.7823C54.0253 40.0991 52.6619 38.7363 50.9794 38.7363Z" fill="#3C3C3C"/>
<path d="M29 26L30.7929 27.7929C31.1834 28.1834 31.8166 28.1834 32.2071 27.7929L33.2929 26.7071C33.6834 26.3166 34.3166 26.3166 34.7071 26.7071L35.7929 27.7929C36.1834 28.1834 36.8166 28.1834 37.2071 27.7929L38.2929 26.7071C38.6834 26.3166 39.3166 26.3166 39.7071 26.7071L40.7929 27.7929C41.1834 28.1834 41.8166 28.1834 42.2071 27.7929L44 26" stroke="#3C3C3C"/>
<path d="M29 47L30.7929 48.7929C31.1834 49.1834 31.8166 49.1834 32.2071 48.7929L33.2929 47.7071C33.6834 47.3166 34.3166 47.3166 34.7071 47.7071L35.7929 48.7929C36.1834 49.1834 36.8166 49.1834 37.2071 48.7929L38.2929 47.7071C38.6834 47.3166 39.3166 47.3166 39.7071 47.7071L40.7929 48.7929C41.1834 49.1834 41.8166 49.1834 42.2071 48.7929L44 47" stroke="#3C3C3C"/>
</g>
<defs>
<clipPath id="clip0">
<rect width="42" height="42" fill="white" transform="translate(17 17)"/>
</clipPath>
</defs>
</svg>
