<svg width="75" height="75" viewBox="0 0 75 75" fill="none" xmlns="http://www.w3.org/2000/svg">
<rect width="75" height="75" rx="9.69828" fill="#FBC22E"/>
<g clip-path="url(#clip0)">
<path d="M24.4132 40.461C24.4132 42.9171 23.0481 45.1257 20.8516 46.224L21.9523 48.4254C24.9888 46.9065 26.8741 43.8544 26.8741 40.461C26.8741 37.0676 24.9888 34.0155 21.9523 32.4966L20.8516 34.698C23.0482 35.7963 24.4132 38.0049 24.4132 40.461Z" fill="#3C3C3C"/>
<path d="M18.6523 41.821L19.753 44.0224C21.1109 43.3435 21.9544 41.9785 21.9544 40.4608C21.9544 38.9431 21.1109 37.5781 19.753 36.8992L18.6523 39.1006C19.1787 39.3637 19.4935 39.872 19.4935 40.4608C19.4935 41.0496 19.1787 41.5579 18.6523 41.821Z" fill="#3C3C3C"/>
<path d="M38.8906 59C43.6395 59 47.5039 55.0536 47.5039 50.3047C47.5039 45.8923 49.6176 43.7786 52.0653 41.3309C54.5418 38.8555 57.3477 36.0485 57.3477 30.6172C57.3477 23.1539 51.2758 17 43.8125 17C36.3492 17 30.2773 23.1539 30.2773 30.6172V50.3047C30.2773 55.0536 34.1418 59 38.8906 59ZM35.1992 41.6914C36.5559 41.6914 37.6602 40.5871 37.6602 39.2305V38C37.6602 37.3211 37.1086 36.7695 36.4297 36.7695H35.1992V30.6172C35.1992 25.8683 39.0636 22.0039 43.8125 22.0039C48.5614 22.0039 52.4258 25.8683 52.4258 30.6172C52.4258 33.858 51.1088 35.3264 48.5854 37.851C45.9106 40.5271 42.582 43.8544 42.582 50.3047H40.1211C40.1211 42.8353 44.167 38.7895 46.8442 36.1122C49.215 33.7402 49.9648 32.8822 49.9648 30.6172C49.9648 27.2249 47.2047 24.4648 43.8125 24.4648C42.7518 24.4648 41.7681 24.7593 40.896 25.2339C43.3446 26.4369 45.043 28.9401 45.043 31.8477H42.582C42.582 29.5275 40.9645 27.59 38.8008 27.0725C38.0884 28.0767 37.6602 29.2953 37.6602 30.6172V34.5188C39.0925 35.0271 40.1211 36.3958 40.1211 38V39.2305C40.1211 41.945 37.9137 44.1523 35.1992 44.1523V41.6914Z" fill="#3C3C3C"/>
</g>
<defs>
<clipPath id="clip0">
<rect width="42" height="42" fill="white" transform="translate(17 17)"/>
</clipPath>
</defs>
</svg>
