<svg width="137" height="137" viewBox="0 0 137 137" fill="none" xmlns="http://www.w3.org/2000/svg">
<rect width="137" height="137" rx="6.97461" fill="#FBC22E"/>
<g clip-path="url(#clip0)">
<path d="M90.6891 53.3658C90.4866 52.688 90.2179 52.0383 89.8895 51.4249L93.6181 47.6963L89.3797 43.4586L85.6734 47.1643C85.0319 46.8113 84.3494 46.5257 83.6353 46.312V41.0786H77.6416V46.312C76.9526 46.5181 76.293 46.7914 75.6714 47.1268L71.7912 43.2467L67.5529 47.4844L71.4236 51.3558C71.0783 51.9891 70.7979 52.6622 70.5878 53.3658H65.0547V59.3596H70.5878C70.8008 60.0737 71.0871 60.7561 71.44 61.3982L67.6588 65.1795L71.8972 69.4178L75.7006 65.6138C76.314 65.9421 76.9632 66.2108 77.6416 66.4133V71.7966H83.6353V66.4133C84.3389 66.2032 85.012 65.9228 85.6453 65.5775L89.591 69.5232L93.8294 65.2848L89.8743 61.3298C90.2097 60.7081 90.4831 60.0485 90.6891 59.3596H96.2216V53.3658H90.6891ZM80.6384 60.858C78.1596 60.858 76.1431 58.8415 76.1431 56.3627C76.1431 53.8838 78.1596 51.8674 80.6384 51.8674C83.1173 51.8674 85.1338 53.8838 85.1338 56.3627C85.1338 58.8415 83.1173 60.858 80.6384 60.858Z" fill="#3C3C3C"/>
<path d="M80.6417 30.1401C72.179 30.1401 64.6412 34.1707 59.8433 40.412C59.6665 40.5812 59.0531 41.4967 59.0531 41.4967C58.5936 42.1616 33.3221 82.7154 33.27 82.8272C31.226 85.4617 30.0431 88.7969 30.1514 92.4055C30.3873 100.287 36.8194 106.673 44.7026 106.856C48.0911 106.934 51.2337 105.875 53.7764 104.035L93.8133 79.0296C101.612 74.4804 106.864 66.0236 106.864 56.3628C106.864 41.9035 95.101 30.1401 80.6417 30.1401V30.1401ZM53.9689 92.0455C53.9198 96.9336 49.9419 100.869 45.0538 100.866C39.9966 100.866 35.9092 96.6339 36.1481 91.5246C36.3617 86.9619 40.0651 83.2586 44.6283 83.0449C49.737 82.8061 53.9695 86.8935 53.9695 91.9507L53.9689 92.0455ZM59.9164 93.133C59.9475 92.7432 59.9633 92.3487 59.9633 91.9507C59.9633 83.7298 53.2753 77.0412 45.0538 77.0412C44.6628 77.0412 44.2753 77.0564 43.8925 77.0863L54.6526 59.8572C56.2148 71.5351 65.4911 80.8049 77.1731 82.3554L59.9164 93.133ZM80.6417 76.5917C69.4877 76.5917 60.4128 67.5168 60.4128 56.3628C60.4128 52.8397 61.3189 49.5244 62.9092 46.6364L64.0863 44.7517C67.7499 39.544 73.8051 36.1339 80.6417 36.1339C91.7963 36.1339 100.871 45.2088 100.871 56.3628C100.872 67.4138 91.6927 76.5923 80.6417 76.5917Z" fill="#3C3C3C"/>
</g>
<defs>
<clipPath id="clip0">
<rect width="76.72" height="76.72" fill="white" transform="translate(30.1406 30.1401)"/>
</clipPath>
</defs>
</svg>
