<svg width="29" height="29" viewBox="0 0 29 29" fill="none" xmlns="http://www.w3.org/2000/svg">
<rect width="29" height="29" rx="4.02778" fill="#FFC93D"/>
<path d="M10.4883 14.8396C9.6613 14.8396 8.98463 14.5603 8.45833 14.0018C7.94278 13.4325 7.685 12.6753 7.685 11.7301C7.685 10.7849 7.94278 10.0331 8.45833 9.47457C8.98463 8.90531 9.6613 8.62068 10.4883 8.62068C11.3154 8.62068 11.9867 8.90531 12.5022 9.47457C13.0178 10.0331 13.2756 10.7849 13.2756 11.7301C13.2756 12.6753 13.0178 13.4325 12.5022 14.0018C11.9867 14.5603 11.3154 14.8396 10.4883 14.8396ZM17.2067 8.74957H19.1239L11.4228 20.0273H9.50556L17.2067 8.74957ZM10.4883 13.5185C10.8535 13.5185 11.1381 13.3681 11.3422 13.0673C11.557 12.7666 11.6644 12.3209 11.6644 11.7301C11.6644 11.1394 11.557 10.6936 11.3422 10.3929C11.1381 10.0922 10.8535 9.94179 10.4883 9.94179C10.1339 9.94179 9.84926 10.0975 9.63444 10.409C9.41963 10.7098 9.31222 11.1501 9.31222 11.7301C9.31222 12.3101 9.41963 12.7559 9.63444 13.0673C9.84926 13.3681 10.1339 13.5185 10.4883 13.5185ZM18.1411 20.1562C17.6041 20.1562 17.1207 20.0327 16.6911 19.7857C16.2722 19.5279 15.9446 19.1627 15.7083 18.6901C15.472 18.2175 15.3539 17.6698 15.3539 17.0468C15.3539 16.4238 15.472 15.876 15.7083 15.4035C15.9446 14.9309 16.2722 14.571 16.6911 14.324C17.1207 14.0662 17.6041 13.9373 18.1411 13.9373C18.9681 13.9373 19.6394 14.222 20.155 14.7912C20.6813 15.3498 20.9444 16.1016 20.9444 17.0468C20.9444 17.992 20.6813 18.7492 20.155 19.3185C19.6394 19.877 18.9681 20.1562 18.1411 20.1562ZM18.1411 18.8351C18.5063 18.8351 18.7909 18.6848 18.995 18.384C19.2098 18.0725 19.3172 17.6268 19.3172 17.0468C19.3172 16.4668 19.2098 16.0264 18.995 15.7257C18.7909 15.4142 18.5063 15.2585 18.1411 15.2585C17.7867 15.2585 17.502 15.4088 17.2872 15.7096C17.0724 16.0103 16.965 16.456 16.965 17.0468C16.965 17.6375 17.0724 18.0833 17.2872 18.384C17.502 18.6848 17.7867 18.8351 18.1411 18.8351Z" fill="#3C3C3C"/>
</svg>
