<svg width="28" height="28" viewBox="0 0 28 28" fill="none" xmlns="http://www.w3.org/2000/svg">
<rect width="27.13" height="27.13" rx="3.77" fill="white"/>
<g clip-path="url(#clip0)">
<path d="M18.0317 11.079C19.4239 11.079 20.5566 9.94635 20.5566 8.55414C20.5566 7.16193 19.4239 6.0293 18.0317 6.0293C16.6395 6.0293 15.5068 7.16193 15.5068 8.55418C15.5068 8.81633 15.5471 9.0693 15.6215 9.30721L10.3803 12.5051C9.97681 12.1592 9.45334 11.9495 8.88149 11.9495C7.60978 11.9495 6.5752 12.9841 6.5752 14.2558C6.5752 15.5275 7.60982 16.5621 8.88149 16.5621C9.33409 16.5621 9.75631 16.4306 10.1129 16.2044L14.3409 18.6232C14.3167 18.7503 14.3034 18.8813 14.3034 19.0154C14.3034 20.1657 15.2393 21.1016 16.3896 21.1016C17.5399 21.1016 18.4758 20.1657 18.4758 19.0154C18.4758 17.865 17.5399 16.9292 16.3896 16.9292C15.8228 16.9292 15.3083 17.1567 14.932 17.5249L10.9608 15.253C11.1062 14.9511 11.1878 14.6128 11.1878 14.2559C11.1878 14.0069 11.1476 13.7672 11.0743 13.5424L16.2775 10.3677C16.7321 10.8075 17.3506 11.079 18.0317 11.079Z" fill="#3C3C3C"/>
</g>
<defs>
<clipPath id="clip0">
<rect width="15.0722" height="15.0722" fill="white" transform="translate(6.0293 6.0293)"/>
</clipPath>
</defs>
</svg>
