<svg width="36" height="36" viewBox="0 0 36 36" fill="none" xmlns="http://www.w3.org/2000/svg">
<rect width="36" height="36" rx="5" fill="#3C3C3C"/>
<g clip-path="url(#clip0)">
<path d="M23.9257 14.7007C25.7731 14.7007 27.2761 13.1977 27.2761 11.3503C27.2761 9.50295 25.7731 8 23.9257 8C22.0783 8 20.5754 9.50295 20.5754 11.3504C20.5754 11.6982 20.6288 12.0339 20.7276 12.3496L13.7728 16.593C13.2374 16.134 12.5428 15.8558 11.784 15.8558C10.0965 15.8558 8.72363 17.2286 8.72363 18.9161C8.72363 20.6036 10.0965 21.9765 11.784 21.9765C12.3845 21.9765 12.9448 21.8019 13.418 21.5018L19.0283 24.7114C18.9961 24.8801 18.9786 25.0539 18.9786 25.2318C18.9786 26.7583 20.2204 28.0001 21.7468 28.0001C23.2732 28.0001 24.5151 26.7583 24.5151 25.2318C24.5151 23.7054 23.2732 22.4636 21.7468 22.4636C20.9947 22.4636 20.312 22.7655 19.8126 23.254L14.5431 20.2394C14.736 19.8387 14.8442 19.3899 14.8442 18.9162C14.8442 18.5858 14.791 18.2677 14.6937 17.9694L21.5981 13.7568C22.2013 14.3404 23.022 14.7007 23.9257 14.7007Z" fill="#FFC93D"/>
</g>
<defs>
<clipPath id="clip0">
<rect width="20" height="20" fill="white" transform="translate(8 8)"/>
</clipPath>
</defs>
</svg>
