<svg width="28" height="28" viewBox="0 0 28 28" fill="none" xmlns="http://www.w3.org/2000/svg">
<rect width="27.13" height="27.13" rx="5" fill="#3C3C3C"/>
<circle cx="13.565" cy="13.565" r="13.565" fill="#3C3C3C"/>
<path d="M13.9432 6.78223C11.8977 6.78223 10.2256 8.45435 10.2256 10.4999C10.2256 12.5454 11.8977 14.2175 13.9432 14.2175C15.9888 14.2175 17.6609 12.5454 17.6609 10.4999C17.6609 8.45435 15.9888 6.78223 13.9432 6.78223Z" fill="#FBC22E"/>
<path d="M20.3237 17.1883C20.2263 16.9448 20.0964 16.7175 19.9503 16.5065C19.2035 15.4025 18.0509 14.672 16.7522 14.4934C16.5898 14.4772 16.4113 14.5096 16.2814 14.6071C15.5995 15.1103 14.7878 15.3701 13.9436 15.3701C13.0994 15.3701 12.2877 15.1103 11.6059 14.6071C11.476 14.5096 11.2974 14.4609 11.1351 14.4934C9.83635 14.672 8.6675 15.4025 7.93696 16.5065C7.79085 16.7175 7.66097 16.961 7.56358 17.1883C7.51489 17.2857 7.53111 17.3994 7.5798 17.4968C7.70969 17.7241 7.87202 17.9514 8.01812 18.1462C8.2454 18.4546 8.48892 18.7306 8.76491 18.9903C8.99218 19.2176 9.25192 19.4286 9.5117 19.6397C10.7942 20.5975 12.3365 21.1008 13.9274 21.1008C15.5184 21.1008 17.0606 20.5975 18.3431 19.6397C18.6029 19.4449 18.8626 19.2176 19.0899 18.9903C19.3497 18.7306 19.6094 18.4546 19.8367 18.1462C19.999 17.9351 20.1452 17.7241 20.275 17.4968C20.3561 17.3994 20.3724 17.2857 20.3237 17.1883Z" fill="#FBC22E"/>
</svg>
