<svg width="75" height="75" viewBox="0 0 75 75" fill="none" xmlns="http://www.w3.org/2000/svg">
<rect width="75" height="75" rx="6.46552" fill="#FBC22E"/>
<g clip-path="url(#clip0)">
<path d="M48.875 28.75H50.625C52.0725 28.75 53.25 27.5725 53.25 26.125V19.125C53.25 17.6775 52.0725 16.5 50.625 16.5H48.875C47.4275 16.5 46.25 17.6775 46.25 19.125V20.9508L39.8781 21.5299C39.4615 20.6296 38.5556 20 37.5 20C36.4444 20 35.5386 20.6295 35.1219 21.5299L28.75 20.9508V19.125C28.75 17.6775 27.5725 16.5 26.125 16.5H24.375C22.9275 16.5 21.75 17.6775 21.75 19.125V26.125C21.75 27.5725 22.9275 28.75 24.375 28.75H26.125C27.5725 28.75 28.75 27.5725 28.75 26.125V24.2993L35.1219 23.7201C35.2743 24.0496 35.4938 24.3382 35.7617 24.5769L36.3993 34.0455C36.028 34.1467 35.7499 34.4713 35.7499 34.875V40.125C35.7499 40.5137 36.0069 40.8318 36.3572 40.9461L35.7629 48.6721C35.2226 49.1533 34.875 49.8461 34.875 50.625V51.2576L28.75 50.7007V48.8749C28.75 47.4274 27.5725 46.2499 26.125 46.2499H24.375C22.9275 46.2499 21.75 47.4274 21.75 48.8749V55.875C21.75 57.3225 22.9275 58.5 24.375 58.5H26.125C27.5725 58.5 28.75 57.3225 28.75 55.875V54.0493L34.875 53.4923V54.1249C34.875 55.5725 36.0525 56.7499 37.5 56.7499C38.9475 56.7499 40.125 55.5725 40.125 54.1249V53.4923L46.25 54.0492V55.875C46.25 57.3225 47.4275 58.5 48.875 58.5H50.625C52.0725 58.5 53.25 57.3225 53.25 55.875V48.875C53.25 47.4275 52.0725 46.25 50.625 46.25H48.875C47.4275 46.25 46.25 47.4275 46.25 48.875V50.7008L40.125 51.2576V50.625C40.125 49.846 39.7772 49.153 39.2365 48.6718L38.6365 40.9473C38.9899 40.8348 39.25 40.5159 39.25 40.1251V34.8751C39.25 34.4739 38.9752 34.1503 38.6073 34.0469L39.2385 24.5768C39.5062 24.3381 39.7256 24.0496 39.878 23.7203L46.2499 24.2994V26.1251C46.25 27.5725 47.4275 28.75 48.875 28.75Z" fill="#3C3C3C"/>
</g>
<defs>
<clipPath id="clip0">
<rect width="42" height="42" fill="white" transform="translate(16.5 16.5)"/>
</clipPath>
</defs>
</svg>
