<svg width="75" height="75" viewBox="0 0 75 75" fill="none" xmlns="http://www.w3.org/2000/svg">
<rect width="75" height="75" rx="6.46552" fill="#FBC22E"/>
<g clip-path="url(#clip0)">
<path d="M31.6935 43.5096C31.6935 42.7747 32.2878 42.1822 33.0224 42.1822C33.7567 42.1822 34.3515 42.7759 34.3515 43.5096C34.3515 45.0582 35.6099 46.3166 37.1552 46.3166C37.8895 46.3166 38.4841 46.9103 38.4841 47.644C38.4841 48.3788 37.8898 48.9737 37.1552 48.9737C34.1428 48.9737 31.6935 46.522 31.6935 43.5096ZM54.8078 53.0484C54.8078 57.3519 43.7095 58.5002 37.154 58.5002C30.5967 58.5002 19.5 57.3501 19.5 53.0484C19.5 50.4546 23.483 49.0927 27.3921 48.3911C26.6516 46.9139 26.1943 45.2747 26.1943 43.5126C26.1943 38.0557 34.9539 19.3192 35.9541 17.2027C36.3889 16.2658 37.9195 16.2658 38.3564 17.2027C39.3548 19.3192 48.1168 38.0557 48.1168 43.5126C48.1168 45.2747 47.6619 46.9139 46.9186 48.3911C50.8332 49.0978 54.8078 50.4594 54.8078 53.0484ZM28.8511 43.5096C28.8511 48.0919 32.5753 51.8143 37.154 51.8143C41.7346 51.8143 45.4585 48.0868 45.4585 43.5096C45.4585 39.9164 40.2426 27.7148 37.154 20.929C34.0643 27.7148 28.8511 39.9164 28.8511 43.5096ZM52.1657 52.9731C51.9654 52.658 50.003 51.5277 45.2681 50.8147C43.2607 53.0436 40.3838 54.4744 37.1549 54.4744C33.9261 54.4744 31.0501 53.0436 29.0433 50.8147C24.303 51.5277 22.3424 52.6682 22.1472 53.1207C22.5139 53.8178 27.3505 55.8443 37.1567 55.8443C46.9636 55.8443 51.7963 53.8178 52.1657 52.9731Z" fill="#3C3C3C"/>
<path fill-rule="evenodd" clip-rule="evenodd" d="M28.8511 43.5096C28.8511 48.0919 32.5753 51.8143 37.154 51.8143C41.7346 51.8143 45.4585 48.0868 45.4585 43.5096C45.4585 39.9164 40.2426 27.7148 37.154 20.929C34.0643 27.7148 28.8511 39.9164 28.8511 43.5096ZM33.0224 42.1822C32.2878 42.1822 31.6935 42.7747 31.6935 43.5096C31.6935 46.522 34.1428 48.9737 37.1552 48.9737C37.8898 48.9737 38.4841 48.3788 38.4841 47.644C38.4841 46.9103 37.8895 46.3166 37.1552 46.3166C35.6099 46.3166 34.3515 45.0582 34.3515 43.5096C34.3515 42.7759 33.7567 42.1822 33.0224 42.1822Z" fill="#3C3C3C"/>
</g>
<defs>
<clipPath id="clip0">
<rect width="42" height="42" fill="white" transform="translate(16.5 16.5)"/>
</clipPath>
</defs>
</svg>
