<svg width="75" height="75" viewBox="0 0 75 75" fill="none" xmlns="http://www.w3.org/2000/svg">
<rect width="75" height="75" rx="6.46552" fill="#FBC22E"/>
<path d="M24.7339 30.7559C24.2848 31.6033 23.9224 32.4939 23.6523 33.4142L27.4611 33.4822L24.7339 30.7559Z" fill="#3C3C3C"/>
<path d="M23.5469 41.2076C23.8064 42.1917 24.1707 43.1452 24.6334 44.0517L27.5357 41.1494L23.5469 41.2076Z" fill="#3C3C3C"/>
<path d="M33.2897 51.3111L33.2943 46.8564L30.1973 49.9536C31.1706 50.5271 32.2086 50.9828 33.2897 51.3111Z" fill="#3C3C3C"/>
<path d="M41.1768 23.5396L41.1387 27.5461L44.0512 24.634C43.1354 24.1665 42.1716 23.7995 41.1768 23.5396Z" fill="#3C3C3C"/>
<path d="M33.2965 23.687C32.281 23.9947 31.3031 24.4148 30.3809 24.9396L33.2538 27.8126L33.2965 23.687Z" fill="#3C3C3C"/>
<path d="M41.211 51.4513C42.2634 51.1735 43.2804 50.776 44.2422 50.2665L41.1484 47.1729L41.211 51.4513Z" fill="#3C3C3C"/>
<path d="M51.3247 33.3353C50.9956 32.2381 50.5353 31.1847 49.9539 30.1978L46.8438 33.3078L51.3247 33.3353Z" fill="#3C3C3C"/>
<path d="M50.0599 44.6185C50.6442 43.5916 51.0986 42.496 51.4124 41.3569L46.8379 41.3968L50.0599 44.6185Z" fill="#3C3C3C"/>
<path d="M52.3493 22.6508C44.1483 14.4498 30.8518 14.4497 22.6508 22.6507C14.4498 30.8517 14.4497 44.1482 22.6507 52.3492C30.8517 60.5502 44.1482 60.5503 52.3492 52.3493C60.5502 44.1483 60.5502 30.8518 52.3493 22.6508ZM48.7834 48.7834C42.5518 55.015 32.4483 55.015 26.2167 48.7834C19.985 42.5518 19.985 32.4483 26.2167 26.2167C32.4483 19.985 42.5518 19.985 48.7834 26.2167C51.7759 29.2092 53.4571 33.2679 53.4571 37.5C53.4686 41.7344 51.7857 45.7974 48.7834 48.7834Z" fill="#3C3C3C"/>
<path d="M51.6925 34.8635V34.8634L45.0088 34.8223C44.5874 34.8198 44.2479 34.4761 44.2506 34.0547C44.2518 33.854 44.3321 33.6619 44.474 33.5199L49.0935 28.9005C48.0785 27.5387 46.8343 26.3639 45.4166 25.4287L40.8996 29.9455C40.6017 30.2434 40.1186 30.2433 39.8206 29.9454C39.6759 29.8006 39.5954 29.6036 39.5973 29.3989L39.6556 23.2277C38.0526 22.9897 36.4212 23.0193 34.8279 23.3154L34.7624 29.6437C34.758 30.065 34.4129 30.403 33.9916 30.3986C33.792 30.3965 33.6012 30.3163 33.4601 30.1752L29.07 25.7851C27.694 26.7796 26.5017 28.0063 25.5467 29.4101L29.8769 33.7406C30.0965 33.956 30.1612 34.2843 30.0397 34.5669C29.9189 34.846 29.6419 35.025 29.3378 35.0205H29.3245L23.2983 34.9272C23.0175 36.4998 22.9959 38.1078 23.2344 39.6874L29.396 39.5981H29.4072C29.828 39.5974 30.1695 39.938 30.1701 40.3587C30.1704 40.5614 30.09 40.7558 29.9466 40.899L25.4298 45.4154C26.365 46.8332 27.5399 48.0774 28.9016 49.0925L33.5211 44.4729C33.8192 44.175 34.3022 44.1751 34.6001 44.4731C34.7433 44.6164 34.8236 44.8106 34.8235 45.0132L34.8168 51.6826C36.4256 51.9831 38.0734 52.0115 39.6916 51.7667L39.5972 45.3144C39.591 44.8931 39.9276 44.5466 40.3489 44.5404C40.5551 44.5374 40.7537 44.618 40.8995 44.7638L45.5906 49.4549C46.9946 48.5 48.2215 47.3076 49.216 45.9314L44.474 41.1895C44.176 40.8916 44.1759 40.4085 44.4738 40.1105C44.6153 39.969 44.8067 39.8887 45.0069 39.887L51.7456 39.8281C52.0113 38.1823 51.9933 36.5032 51.6925 34.8635ZM40.9975 40.9964C39.0665 42.9273 35.9358 42.9273 34.0048 40.9964C32.0739 39.0654 32.0739 35.9347 34.0048 34.0037C35.9358 32.0727 39.0665 32.0727 40.9975 34.0037C41.9247 34.931 42.4457 36.1887 42.4457 37.5C42.4492 38.8121 41.9278 40.0711 40.9975 40.9964Z" fill="#3C3C3C"/>
<path d="M37.5009 34.0806C35.6128 34.0805 34.0821 35.6111 34.082 37.4993C34.0819 39.3874 35.6126 40.9181 37.5007 40.9181C39.3889 40.9182 40.9196 39.3876 40.9196 37.4995C40.9196 36.5927 40.5594 35.7231 39.9183 35.0819C39.2785 34.4387 38.408 34.0781 37.5009 34.0806Z" fill="#3C3C3C"/>
</svg>
