<svg width="75" height="75" viewBox="0 0 75 75" fill="none" xmlns="http://www.w3.org/2000/svg">
<rect width="75" height="75" rx="6.46552" fill="#FBC22E"/>
<g clip-path="url(#clip0)">
<path d="M32.707 20.5046L53.9916 28.2517L52.591 22.5025L37.4745 17L32.707 20.5046Z" fill="#3C3C3C"/>
<path d="M18.4766 59.0001H32.0543L33.1903 56.7298C34.4175 54.2766 33.6206 51.1139 31.3369 49.5909C30.1109 48.7738 29.6613 47.1546 30.2913 45.8242L31.1232 44.0669H23.3997L23.0389 44.4277C21.2012 46.2641 21.2012 49.2544 23.0389 51.0908C23.4644 51.5164 23.6977 52.0813 23.6977 52.6824C23.6977 53.2832 23.4644 53.8482 23.0389 54.2737L18.4766 59.0001Z" fill="#3C3C3C"/>
<path d="M52.8817 56.7297C53.7722 54.949 53.5847 52.7236 52.5484 51.141L41.0592 47.0984C41.0788 48.5381 41.6662 50.0265 42.7303 51.0907C43.1559 51.5162 43.3891 52.0811 43.3891 52.682C43.3891 53.2831 43.1559 53.848 42.7303 54.2736L38.168 59H51.7461L52.8817 56.7297Z" fill="#3C3C3C"/>
<path d="M43.2389 42.6736L42.3965 44.9878L49.3361 47.5115L50.1779 45.1992L43.2389 42.6736Z" fill="#3C3C3C"/>
<path d="M31.6734 38.465L30.8313 40.7783L23.8926 38.2529L24.7347 35.9397L31.6734 38.465Z" fill="#3C3C3C"/>
<path d="M24.9472 28.1574L23.2637 32.7835L53.3329 43.7282L55.0168 39.1018L50.3907 37.4182L51.2318 35.1057L55.8583 36.7892L57.5418 32.1634L27.4726 21.219L25.789 25.8451L30.4148 27.5287L29.5737 29.8412L24.9472 28.1574ZM35.0409 29.2129L46.6057 33.4218L45.7643 35.7344L34.1998 31.5251L35.0409 29.2129Z" fill="#3C3C3C"/>
</g>
<defs>
<clipPath id="clip0">
<rect width="42" height="42" fill="white" transform="translate(17 17)"/>
</clipPath>
</defs>
</svg>
