<svg width="75" height="75" viewBox="0 0 75 75" fill="none" xmlns="http://www.w3.org/2000/svg">
<rect width="75" height="75" rx="6.46552" fill="#FBC22E"/>
<path d="M35 45.8364V47.2627C35.0007 47.3116 35.0204 47.3583 35.055 47.3929C35.0896 47.4275 35.1363 47.4472 35.1852 47.4479H35.5115V45.6514H35.1852C35.1363 45.652 35.0896 45.6717 35.055 45.7063C35.0204 45.7408 35.0007 45.7875 35 45.8364Z" fill="#3C3C3C"/>
<path d="M36.332 45.6511H36.9464V47.4478H36.332V45.6511Z" fill="#3C3C3C"/>
<path d="M45.9115 41.0725H47.3378C47.3867 41.0718 47.4335 41.0521 47.468 41.0175C47.5026 40.9829 47.5224 40.9362 47.523 40.8873V40.561H45.7266V40.8875C45.7273 40.9364 45.747 40.983 45.7815 41.0175C45.8161 41.0521 45.8627 41.0718 45.9115 41.0725Z" fill="#3C3C3C"/>
<path d="M45.7266 39.1265H47.5232V39.7409H45.7266V39.1265Z" fill="#3C3C3C"/>
<path d="M37.7656 45.6511H38.38V47.4478H37.7656V45.6511Z" fill="#3C3C3C"/>
<path d="M41.1482 30.1615V28.7353C41.1475 28.6864 41.1278 28.6396 41.0932 28.605C41.0586 28.5704 41.0119 28.5507 40.963 28.55H40.6367V30.3465H40.963C41.0119 30.3459 41.0586 30.3262 41.0932 30.2916C41.1278 30.2571 41.1475 30.2104 41.1482 30.1615Z" fill="#3C3C3C"/>
<path d="M31.5156 37.9999C31.5156 41.5569 34.4252 44.4508 38.0015 44.4508C41.5778 44.4508 44.4874 41.5569 44.4874 37.9999C44.4874 34.443 41.5781 31.5491 38.0015 31.5491C34.4249 31.5491 31.5156 34.443 31.5156 37.9999ZM38.9969 33.1129C39.1251 33.05 39.2653 33.0153 39.4081 33.0112C39.5509 33.0071 39.6929 33.0336 39.8246 33.089L40.2708 33.2768C40.3914 33.3272 40.5008 33.401 40.5927 33.494C40.6846 33.5869 40.7571 33.6971 40.8062 33.8182C40.8093 33.8258 40.8124 33.8334 40.8153 33.8411C40.9502 33.8373 41.0844 33.8611 41.2098 33.9108C41.3352 33.9606 41.4492 34.0354 41.5447 34.1306L41.8873 34.4714C41.9804 34.5636 42.0541 34.6734 42.1044 34.7943C42.1546 34.9153 42.1802 35.045 42.1798 35.176C42.1798 35.1989 42.179 35.2216 42.1775 35.2442C42.3126 35.2899 42.4363 35.3642 42.5401 35.462C42.644 35.5597 42.7256 35.6786 42.7795 35.8107L42.9615 36.2574C43.0111 36.3784 43.0361 36.5081 43.0351 36.6388C43.0341 36.7696 43.0071 36.8989 42.9556 37.0191C42.9526 37.0261 42.9496 37.0329 42.9466 37.0398C43.0443 37.1323 43.122 37.2439 43.1752 37.3675C43.2284 37.4912 43.2558 37.6243 43.2558 37.7589V38.2409C43.2558 38.3834 43.2252 38.5242 43.1659 38.6537C43.1066 38.7833 43.0201 38.8986 42.9123 38.9917C42.9224 39.0124 42.9318 39.0334 42.9404 39.0549C42.99 39.1759 43.015 39.3055 43.0141 39.4362C43.0131 39.5669 42.9861 39.6961 42.9347 39.8163L42.746 40.2601C42.6932 40.384 42.6157 40.4959 42.5183 40.589C42.4209 40.682 42.3057 40.7544 42.1795 40.8015C42.1795 40.8094 42.1795 40.8172 42.1795 40.8249C42.1798 40.9556 42.154 41.0851 42.1039 41.2058C42.0537 41.3265 41.98 41.4361 41.8871 41.5281L41.5445 41.8689C41.4432 41.9695 41.3215 42.0472 41.1876 42.0968C41.0537 42.1464 40.9107 42.1668 40.7683 42.1565C40.761 42.1778 40.7528 42.1989 40.7437 42.2199C40.693 42.3409 40.6187 42.4506 40.5251 42.5427C40.4316 42.6347 40.3207 42.7072 40.1989 42.756L39.75 42.9371C39.6248 42.9876 39.4906 43.0122 39.3557 43.0094C39.2207 43.0066 39.0877 42.9764 38.9647 42.9207C38.8715 43.0184 38.7595 43.0961 38.6354 43.1492C38.5114 43.2023 38.3778 43.2296 38.2428 43.2295H37.7584C37.6156 43.2296 37.4744 43.199 37.3444 43.1399C37.2145 43.0807 37.0987 42.9944 37.005 42.8866C36.8767 42.9495 36.7365 42.9842 36.5937 42.9883C36.4509 42.9924 36.3089 42.9659 36.1773 42.9105L35.7311 42.7227C35.6105 42.6723 35.5011 42.5985 35.4092 42.5056C35.3173 42.4126 35.2447 42.3024 35.1955 42.1813C35.1925 42.1737 35.1895 42.1661 35.1865 42.1585C35.0516 42.1622 34.9174 42.1384 34.792 42.0886C34.6666 42.0388 34.5527 41.9641 34.4571 41.8689L34.1145 41.5281C34.0215 41.4359 33.9477 41.3262 33.8975 41.2052C33.8473 41.0842 33.8216 40.9545 33.8221 40.8235C33.8221 40.8006 33.8228 40.778 33.8243 40.7554C33.6892 40.7096 33.5656 40.6353 33.4617 40.5376C33.3579 40.4398 33.2762 40.3209 33.2224 40.1888L33.0403 39.7422C32.9908 39.6212 32.9657 39.4915 32.9668 39.3607C32.9678 39.2299 32.9948 39.1007 33.0463 38.9804C33.0492 38.9736 33.0522 38.9667 33.0553 38.9598C32.9576 38.8672 32.8798 38.7557 32.8266 38.632C32.7735 38.5084 32.746 38.3752 32.746 38.2406V37.7586C32.746 37.6161 32.7767 37.4753 32.836 37.3458C32.8953 37.2162 32.9817 37.101 33.0896 37.0078C33.0794 36.9872 33.0701 36.9661 33.0614 36.9446C33.0118 36.8237 32.9868 36.6941 32.9878 36.5634C32.9888 36.4326 33.0158 36.3034 33.0672 36.1833L33.2558 35.7394C33.3087 35.6155 33.3861 35.5036 33.4835 35.4105C33.5809 35.3175 33.6962 35.2452 33.8223 35.198C33.8223 35.1902 33.8223 35.1824 33.8223 35.1746C33.8221 35.0439 33.8478 34.9144 33.898 34.7937C33.9482 34.673 34.0219 34.5634 34.1148 34.4714L34.4573 34.1307C34.5586 34.0299 34.6802 33.9521 34.8142 33.9025C34.9481 33.8528 35.0911 33.8325 35.2335 33.843C35.2409 33.8217 35.2489 33.8007 35.2581 33.7797C35.3089 33.6587 35.3832 33.549 35.4767 33.4569C35.5702 33.3649 35.6812 33.2923 35.803 33.2435L36.2519 33.0624C36.3771 33.0119 36.5112 32.9873 36.6461 32.9902C36.7811 32.993 36.9141 33.0231 37.0371 33.0788C37.1302 32.9811 37.2422 32.9034 37.3663 32.8504C37.4904 32.7973 37.624 32.77 37.7589 32.77H38.2434C38.3863 32.7699 38.5275 32.8004 38.6575 32.8596C38.7875 32.9187 38.9034 33.0051 38.9971 33.1129H38.9969Z" fill="#3C3C3C"/>
<path d="M37.7656 28.55H38.38V30.3467H37.7656V28.55Z" fill="#3C3C3C"/>
<path d="M39.2012 45.6511H39.8156V47.4478H39.2012V45.6511Z" fill="#3C3C3C"/>
<path d="M37.5801 33.7647C37.5798 33.8595 37.5466 33.9513 37.4862 34.0245C37.4258 34.0976 37.3419 34.1476 37.2488 34.1658C37.1557 34.1841 37.0592 34.1695 36.9757 34.1245C36.8921 34.0796 36.8267 34.0071 36.7906 33.9194C36.7719 33.8763 36.7372 33.8421 36.6938 33.8241C36.6504 33.8061 36.6017 33.8057 36.558 33.8229L36.109 34.004C36.0875 34.0127 36.0679 34.0256 36.0514 34.0419C36.0349 34.0582 36.0218 34.0777 36.0128 34.0991C36.0039 34.1199 35.9992 34.1423 35.9989 34.165C35.9986 34.1876 36.0028 34.2101 36.0113 34.2312L36.0719 34.3799C36.1076 34.4675 36.1119 34.5647 36.0841 34.6552C36.0563 34.7456 35.9981 34.8236 35.9194 34.876C35.8406 34.9285 35.7462 34.9521 35.652 34.9428C35.5579 34.9336 35.4698 34.8921 35.4028 34.8254L35.2887 34.7118C35.2547 34.679 35.2093 34.6606 35.162 34.6606C35.1148 34.6606 35.0694 34.679 35.0354 34.7118L34.6929 35.0526C34.6604 35.0853 34.6422 35.1296 34.6422 35.1757C34.6422 35.2218 34.6604 35.266 34.6929 35.2987C34.76 35.3659 34.8018 35.4543 34.811 35.5488C34.8203 35.6434 34.7964 35.7382 34.7435 35.8171C34.6906 35.896 34.612 35.9541 34.521 35.9815C34.43 36.0089 34.3324 36.0038 34.2447 35.9672C34.2012 35.9494 34.1525 35.9492 34.1089 35.9666C34.0652 35.9841 34.0301 36.0178 34.0109 36.0607L33.8222 36.5046C33.8134 36.5255 33.8088 36.5479 33.8087 36.5706C33.8086 36.5932 33.813 36.6157 33.8217 36.6366C33.8303 36.6582 33.8431 36.6778 33.8594 36.6944C33.8756 36.7109 33.895 36.7241 33.9164 36.7331L34.0649 36.7956C34.1522 36.8323 34.2241 36.8981 34.2684 36.9818C34.3127 37.0655 34.3267 37.162 34.308 37.2548C34.2892 37.3476 34.239 37.4311 34.1657 37.4911C34.0924 37.5511 34.0006 37.5839 33.9059 37.5839H33.7445C33.6979 37.5841 33.6531 37.6025 33.6199 37.6352C33.5866 37.6679 33.5674 37.7123 33.5664 37.7589V38.2409C33.5675 38.2875 33.5866 38.3317 33.6198 38.3644C33.6529 38.3971 33.6975 38.4155 33.744 38.4159C33.839 38.4161 33.931 38.4494 34.0043 38.5099C34.0775 38.5705 34.1275 38.6546 34.1456 38.7479C34.1637 38.8412 34.1489 38.9379 34.1036 39.0214C34.0583 39.105 33.9854 39.1702 33.8974 39.206C33.876 39.2147 33.8565 39.2276 33.8401 39.2439C33.8237 39.2601 33.8106 39.2795 33.8017 39.3008C33.7927 39.3216 33.7879 39.344 33.7877 39.3667C33.7874 39.3894 33.7916 39.4119 33.8001 39.4329L33.9821 39.8795C34.0008 39.9227 34.0355 39.957 34.079 39.9751C34.1224 39.9932 34.1712 39.9937 34.215 39.9764L34.3646 39.916C34.4524 39.8804 34.5498 39.8763 34.6403 39.9044C34.7308 39.9326 34.8088 39.9911 34.861 40.0702C34.9132 40.1493 34.9364 40.244 34.9266 40.3383C34.9169 40.4325 34.8748 40.5205 34.8075 40.5873L34.6934 40.7007C34.661 40.7334 34.6427 40.7777 34.6427 40.8238C34.6427 40.8699 34.661 40.9141 34.6934 40.9468L35.036 41.2877C35.07 41.3205 35.1153 41.3387 35.1625 41.3387C35.2097 41.3387 35.255 41.3205 35.289 41.2877C35.3565 41.221 35.4451 41.1797 35.5396 41.171C35.6341 41.1622 35.7287 41.1865 35.8074 41.2398C35.886 41.293 35.9437 41.3718 35.9706 41.4629C35.9976 41.5539 35.9922 41.6514 35.9552 41.7389C35.9465 41.7599 35.9421 41.7823 35.9421 41.805C35.9421 41.8277 35.9465 41.8501 35.9552 41.8711C35.9728 41.9143 36.0067 41.9487 36.0497 41.9669L36.4958 42.1546C36.5394 42.1726 36.5882 42.1728 36.632 42.1554C36.6757 42.138 36.711 42.1042 36.7303 42.0612L36.7931 41.9136C36.8301 41.8266 36.8961 41.7551 36.9798 41.7112C37.0634 41.6672 37.1597 41.6535 37.2523 41.6724C37.3449 41.6913 37.4282 41.7415 37.488 41.8147C37.5478 41.8879 37.5805 41.9795 37.5806 42.074V42.2345C37.5816 42.2812 37.6008 42.3255 37.634 42.3582C37.6673 42.3909 37.712 42.4094 37.7586 42.4096H38.2431C38.2896 42.4093 38.3342 42.391 38.3675 42.3584C38.4007 42.3258 38.4199 42.2816 38.4211 42.235C38.4214 42.1401 38.4545 42.0483 38.5149 41.9751C38.5753 41.9019 38.6593 41.8519 38.7524 41.8337C38.8455 41.8154 38.9421 41.83 39.0256 41.875C39.1092 41.92 39.1746 41.9925 39.2106 42.0803C39.2294 42.1234 39.2641 42.1576 39.3075 42.1755C39.3509 42.1935 39.3996 42.194 39.4433 42.1768L39.8922 41.9957C39.9137 41.987 39.9332 41.9741 39.9498 41.9578C39.9663 41.9415 39.9794 41.9221 39.9884 41.9007C39.9973 41.8798 40.002 41.8574 40.0023 41.8348C40.0025 41.8121 39.9983 41.7896 39.9899 41.7686L39.9292 41.6198C39.8935 41.5322 39.8892 41.4349 39.917 41.3445C39.9447 41.254 40.0029 41.176 40.0817 41.1235C40.1604 41.0711 40.2549 41.0475 40.3491 41.0567C40.4432 41.0659 40.5313 41.1075 40.5984 41.1742L40.7125 41.2878C40.7465 41.3207 40.7919 41.339 40.8392 41.339C40.8865 41.339 40.9319 41.3207 40.9659 41.2878L41.3083 40.9471C41.3408 40.9143 41.3591 40.8701 41.3591 40.824C41.3591 40.7779 41.3408 40.7337 41.3083 40.701C41.2412 40.6338 41.1994 40.5454 41.1902 40.4508C41.1809 40.3563 41.2048 40.2615 41.2577 40.1826C41.3106 40.1037 41.3892 40.0456 41.4802 40.0182C41.5712 39.9908 41.6688 39.9959 41.7565 40.0325C41.8 40.0503 41.8487 40.0505 41.8923 40.033C41.936 40.0156 41.9711 39.9818 41.9904 39.939L42.179 39.4951C42.1877 39.4742 42.1922 39.4517 42.1922 39.4291C42.1922 39.4064 42.1877 39.384 42.179 39.363C42.1704 39.3415 42.1576 39.3219 42.1414 39.3054C42.1251 39.2888 42.1058 39.2757 42.0844 39.2666L41.9356 39.2041C41.8483 39.1673 41.7764 39.1015 41.7321 39.0178C41.6878 38.9341 41.6739 38.8376 41.6926 38.7448C41.7114 38.6519 41.7617 38.5684 41.835 38.5085C41.9083 38.4485 42.0001 38.4158 42.0949 38.4158H42.2562C42.3029 38.4156 42.3476 38.3972 42.3809 38.3645C42.4141 38.3318 42.4333 38.2874 42.4343 38.2408V37.7588C42.4332 37.7122 42.4141 37.6679 42.381 37.6353C42.3478 37.6026 42.3032 37.5841 42.2567 37.5838C42.1617 37.5835 42.0697 37.5503 41.9964 37.4898C41.9232 37.4292 41.8732 37.3451 41.8551 37.2518C41.837 37.1585 41.8518 37.0618 41.8971 36.9782C41.9424 36.8947 42.0153 36.8294 42.1033 36.7937C42.1247 36.7849 42.1442 36.7721 42.1606 36.7558C42.177 36.7396 42.1901 36.7202 42.199 36.6989C42.208 36.6781 42.2127 36.6557 42.213 36.633C42.2133 36.6104 42.209 36.5879 42.2006 36.5668L42.0186 36.1201C41.9999 36.0769 41.9652 36.0426 41.9217 36.0246C41.8783 36.0065 41.8295 36.006 41.7857 36.0233L41.6361 36.0836C41.5483 36.1191 41.4509 36.1232 41.3605 36.0951C41.27 36.067 41.1921 36.0084 41.1399 35.9293C41.0877 35.8503 41.0645 35.7556 41.0742 35.6614C41.0839 35.5671 41.126 35.4792 41.1932 35.4124L41.3073 35.299C41.3397 35.2662 41.3579 35.222 41.3579 35.1759C41.3579 35.1298 41.3397 35.0856 41.3073 35.0529L40.9648 34.712C40.9308 34.6793 40.8855 34.6611 40.8383 34.6611C40.7912 34.6611 40.7458 34.6793 40.7118 34.712C40.6443 34.7788 40.5557 34.8202 40.4612 34.8289C40.3666 34.8377 40.272 34.8134 40.1933 34.7602C40.1147 34.7069 40.057 34.628 40.03 34.537C40.003 34.4459 40.0085 34.3483 40.0455 34.2609C40.0542 34.2399 40.0587 34.2175 40.0587 34.1948C40.0587 34.1722 40.0542 34.1497 40.0455 34.1288C40.028 34.0856 39.994 34.0511 39.9511 34.0329L39.5048 33.8451C39.4613 33.8272 39.4125 33.827 39.3687 33.8444C39.325 33.8618 39.2897 33.8956 39.2704 33.9386L39.2076 34.0862C39.1706 34.1732 39.1046 34.2447 39.0209 34.2886C38.9373 34.3325 38.841 34.3462 38.7483 34.3274C38.6557 34.3085 38.5725 34.2582 38.5127 34.185C38.4529 34.1118 38.4202 34.0202 38.4201 33.9257V33.7651C38.4191 33.7185 38.3999 33.6741 38.3666 33.6414C38.3334 33.6087 38.2887 33.5903 38.242 33.5901H37.7575C37.7111 33.5905 37.6666 33.6089 37.6335 33.6415C37.6004 33.6741 37.5813 33.7182 37.5801 33.7647ZM41.0328 37.9997C41.0355 38.6 40.86 39.1876 40.5284 39.6881C40.1969 40.1886 39.7242 40.5794 39.1704 40.811C38.6165 41.0427 38.0063 41.1047 37.4172 40.9892C36.8281 40.8738 36.2865 40.586 35.861 40.1625C35.4355 39.7389 35.1453 39.1986 35.0272 38.61C34.9091 38.0214 34.9683 37.411 35.1975 36.8561C35.4266 36.3012 35.8152 35.8268 36.3142 35.493C36.8132 35.1591 37.4 34.9809 38.0004 34.9809C38.8025 34.9801 39.5722 35.2974 40.1407 35.8633C40.7092 36.4292 41.03 37.1975 41.0328 37.9997Z" fill="#3C3C3C"/>
<path d="M37.9992 40.1987C39.221 40.1987 40.2114 39.2143 40.2114 37.9999C40.2114 36.7855 39.221 35.801 37.9992 35.801C36.7775 35.801 35.7871 36.7855 35.7871 37.9999C35.7871 39.2143 36.7775 40.1987 37.9992 40.1987Z" fill="#3C3C3C"/>
<path d="M39.2012 28.55H39.8156V30.3467H39.2012V28.55Z" fill="#3C3C3C"/>
<path d="M28.625 39.1265H30.4216V39.7409H28.625V39.1265Z" fill="#3C3C3C"/>
<path d="M28.625 40.8875C28.6257 40.9364 28.6454 40.9831 28.68 41.0177C28.7145 41.0523 28.7612 41.0721 28.8101 41.0727H30.2364C30.2853 41.0721 30.332 41.0523 30.3666 41.0177C30.4012 40.9831 30.4209 40.9364 30.4216 40.8875V40.561H28.6251L28.625 40.8875Z" fill="#3C3C3C"/>
<path d="M28.625 37.6917H30.4216V38.3061H28.625V37.6917Z" fill="#3C3C3C"/>
<path d="M37.999 26.1214C40.7647 26.1179 43.4455 27.0767 45.5818 28.8333L51.8704 24.7766C51.7763 24.6789 51.6818 24.5817 51.585 24.4857C48.286 21.1889 43.8956 19.212 39.2404 18.9272L37.6973 26.1252C37.7975 26.1227 37.8981 26.1214 37.999 26.1214ZM42.3326 23.3733C42.499 22.9773 42.8152 22.6632 43.2123 22.4994C43.6094 22.3356 44.0551 22.3354 44.4524 22.4989C44.6492 22.5796 44.8281 22.6983 44.9789 22.8484C45.1297 22.9984 45.2493 23.1767 45.331 23.3731C45.4126 23.5695 45.4547 23.7801 45.4547 23.9928C45.4547 24.2056 45.4127 24.4162 45.3311 24.6126C45.1649 25.0088 44.8487 25.3231 44.4516 25.487C44.0544 25.6509 43.6085 25.651 43.2113 25.4873C43.0145 25.4066 42.8356 25.2878 42.6848 25.1378C42.534 24.9878 42.4144 24.8094 42.3327 24.613C42.251 24.4166 42.209 24.206 42.209 23.9933C42.2089 23.7806 42.2509 23.57 42.3325 23.3736L42.3326 23.3733Z" fill="#3C3C3C"/>
<path d="M43.5247 24.7285C43.7212 24.8098 43.9419 24.81 44.1386 24.7291C44.3353 24.6483 44.492 24.493 44.5747 24.2971C44.6148 24.2003 44.6354 24.0966 44.6352 23.9919C44.6351 23.8871 44.6143 23.7834 44.5739 23.6868C44.5336 23.5902 44.4745 23.5024 44.4002 23.4287C44.3258 23.355 44.2376 23.2967 44.1406 23.2571C43.944 23.1759 43.7233 23.1757 43.5266 23.2565C43.3299 23.3373 43.1732 23.4927 43.0906 23.6886C43.0502 23.7847 43.0294 23.8879 43.0293 23.9921C43.0292 24.0963 43.0498 24.1995 43.09 24.2957C43.1301 24.393 43.1892 24.4814 43.2638 24.5558C43.3385 24.6301 43.4271 24.6888 43.5247 24.7285Z" fill="#3C3C3C"/>
<path d="M28.625 36.2568H30.4216V36.8712H28.625V36.2568Z" fill="#3C3C3C"/>
<path d="M45.7266 36.2568H47.5232V36.8712H45.7266V36.2568Z" fill="#3C3C3C"/>
<path d="M45.7266 37.6917H47.5232V38.3061H45.7266V37.6917Z" fill="#3C3C3C"/>
<path d="M47.5232 35.1103C47.5226 35.0614 47.5028 35.0146 47.4682 34.98C47.4336 34.9454 47.3869 34.9257 47.338 34.925H45.9117C45.8628 34.9257 45.8161 34.9454 45.7815 34.98C45.7469 35.0146 45.7272 35.0614 45.7266 35.1103V35.4365H47.523L47.5232 35.1103Z" fill="#3C3C3C"/>
<path d="M41.1482 47.2626V45.8363C41.1475 45.7874 41.1278 45.7407 41.0932 45.7061C41.0586 45.6715 41.0119 45.6518 40.963 45.6511H40.6367V47.4476H40.963C41.0118 47.447 41.0585 47.4273 41.0931 47.3927C41.1277 47.3582 41.1475 47.3115 41.1482 47.2626Z" fill="#3C3C3C"/>
<path d="M30.2364 34.925H28.8101C28.7612 34.9257 28.7145 34.9454 28.6799 34.98C28.6453 35.0146 28.6256 35.0614 28.625 35.1103V35.4365H30.4215V35.1103C30.4208 35.0614 30.4012 35.0147 30.3666 34.9801C30.332 34.9455 30.2853 34.9257 30.2364 34.925Z" fill="#3C3C3C"/>
<path d="M36.332 28.55H36.9464V30.3467H36.332V28.55Z" fill="#3C3C3C"/>
<path d="M43.8318 51.2151C43.7264 51.2151 43.6221 51.2358 43.5247 51.2761C43.4272 51.3159 43.3385 51.3746 43.2639 51.4489C43.1892 51.5232 43.1301 51.6116 43.0899 51.709C43.0498 51.8052 43.0292 51.9084 43.0293 52.0126C43.0294 52.1168 43.0502 52.2199 43.0905 52.316C43.1731 52.512 43.3299 52.6673 43.5266 52.7481C43.7233 52.829 43.944 52.8287 44.1405 52.7475C44.2381 52.7078 44.3267 52.6491 44.4014 52.5748C44.476 52.5005 44.5351 52.4121 44.5753 52.3147C44.6154 52.2185 44.6361 52.1153 44.636 52.0111C44.6359 51.9069 44.6151 51.8038 44.5748 51.7077C44.5134 51.5614 44.41 51.4366 44.2778 51.349C44.1456 51.2613 43.9904 51.2147 43.8318 51.2151Z" fill="#3C3C3C"/>
<path d="M23.9177 43.0081C23.8124 43.0081 23.7081 43.0288 23.6107 43.069C23.5132 43.1088 23.4245 43.1675 23.3499 43.2418C23.2752 43.3161 23.2161 43.4045 23.1759 43.5019C23.1358 43.5981 23.1152 43.7012 23.1152 43.8054C23.1153 43.9097 23.1361 44.0128 23.1764 44.1089C23.259 44.3049 23.4158 44.4602 23.6125 44.541C23.8092 44.6219 24.0299 44.6217 24.2264 44.5405C24.324 44.5007 24.4126 44.442 24.4873 44.3677C24.5619 44.2934 24.621 44.205 24.6612 44.1076C24.7013 44.0114 24.722 43.9082 24.7219 43.804C24.7218 43.6998 24.7009 43.5967 24.6606 43.5006C24.5992 43.3544 24.4959 43.2296 24.3637 43.1419C24.2315 43.0543 24.0763 43.0077 23.9177 43.0081Z" fill="#3C3C3C"/>
<path d="M38 49.8784C35.2356 49.8819 32.556 48.924 30.4203 47.1689L24.1309 51.2259C24.2241 51.3227 24.318 51.4191 24.4136 51.5141C27.7129 54.8112 32.1038 56.7881 36.7593 57.0727L38.3027 49.8746C38.2021 49.8772 38.1012 49.8784 38 49.8784ZM33.6664 52.6308C33.5002 53.0269 33.184 53.3413 32.7868 53.5052C32.3897 53.6691 31.9438 53.6692 31.5466 53.5054C31.3498 53.4248 31.1708 53.306 31.0201 53.156C30.8693 53.006 30.7496 52.8276 30.668 52.6312C30.5863 52.4348 30.5443 52.2242 30.5442 52.0115C30.5442 51.7988 30.5862 51.5882 30.6678 51.3918C30.8342 50.9957 31.1504 50.6815 31.5475 50.5177C31.9446 50.3538 32.3904 50.3536 32.7876 50.5171C32.9844 50.5978 33.1634 50.7166 33.3141 50.8666C33.4649 51.0166 33.5845 51.195 33.6662 51.3913C33.7478 51.5877 33.7899 51.7983 33.7899 52.011C33.7899 52.2237 33.748 52.4343 33.6664 52.6308Z" fill="#3C3C3C"/>
<path d="M26.1209 39.1516L18.7921 37.5959C18.7894 37.7305 18.7872 37.8652 18.7872 38.0001C18.7758 42.6493 20.4771 47.1399 23.5663 50.6144L29.781 46.6056C27.7005 44.6447 26.4004 41.9968 26.1209 39.1516ZM25.4195 44.4217C25.3383 44.619 25.2187 44.7983 25.0677 44.9489C24.9166 45.0996 24.7371 45.2188 24.5395 45.2994C24.1423 45.4631 23.6964 45.463 23.2993 45.2991C22.9021 45.1353 22.5859 44.8209 22.4198 44.4247C22.3382 44.2283 22.2962 44.0177 22.2962 43.8049C22.2963 43.5922 22.3383 43.3816 22.42 43.1852C22.5017 42.9888 22.6214 42.8105 22.7722 42.6605C22.9229 42.5104 23.1019 42.3917 23.2987 42.311C23.696 42.1476 24.1417 42.1479 24.5388 42.3117C24.9358 42.4756 25.252 42.7897 25.4184 43.1857C25.5005 43.3814 25.5428 43.5914 25.543 43.8036C25.5432 44.0158 25.5012 44.2259 25.4195 44.4217Z" fill="#3C3C3C"/>
<path d="M32.4745 51.2758C32.278 51.1947 32.0573 51.1945 31.8606 51.2753C31.664 51.3562 31.5072 51.5115 31.4245 51.7074C31.3842 51.8035 31.3634 51.9066 31.3633 52.0109C31.3632 52.1151 31.3838 52.2183 31.424 52.3144C31.4641 52.4118 31.5232 52.5003 31.5978 52.5746C31.6725 52.6489 31.7612 52.7077 31.8587 52.7474C32.0553 52.8286 32.2759 52.8288 32.4726 52.7479C32.6693 52.6671 32.826 52.5118 32.9087 52.3159C32.949 52.2198 32.9698 52.1167 32.9699 52.0124C32.97 51.9082 32.9493 51.805 32.9092 51.7089C32.8691 51.6115 32.81 51.523 32.7353 51.4487C32.6607 51.3744 32.5721 51.3156 32.4745 51.2758Z" fill="#3C3C3C"/>
<path d="M39.154 49.823L37.5918 57.1083C37.7281 57.1111 37.8646 57.1132 38.0013 57.1132C42.6649 57.1277 47.1731 55.438 50.6782 52.3617L46.649 46.1785C44.6699 48.2547 42.0092 49.5485 39.154 49.823ZM45.3339 52.6285C45.2107 52.9244 45.0028 53.1772 44.7362 53.3552C44.4696 53.5332 44.1564 53.6283 43.8359 53.6285C43.5151 53.6289 43.2014 53.5345 42.9341 53.357C42.6669 53.1795 42.4582 52.927 42.3342 52.6311C42.2527 52.4347 42.2107 52.2241 42.2108 52.0115C42.2109 51.7988 42.253 51.5883 42.3346 51.3919C42.4163 51.1956 42.5359 51.0173 42.6867 50.8673C42.8374 50.7173 43.0163 50.5986 43.2131 50.5179C43.6103 50.3545 44.056 50.3548 44.4531 50.5186C44.8502 50.6825 45.1664 50.9966 45.3328 51.3926C45.4148 51.5883 45.4572 51.7983 45.4574 52.0105C45.4576 52.2227 45.4156 52.4328 45.3339 52.6286V52.6285Z" fill="#3C3C3C"/>
<path d="M51.7728 31.464C51.6753 31.5037 51.5866 31.5624 51.5119 31.6367C51.4373 31.711 51.3782 31.7994 51.338 31.8968C51.2979 31.9929 51.2773 32.0961 51.2773 32.2003C51.2774 32.3045 51.2982 32.4077 51.3385 32.5038C51.4211 32.6998 51.5779 32.8551 51.7746 32.936C51.9713 33.0168 52.192 33.0166 52.3885 32.9354C52.4861 32.8956 52.5748 32.8369 52.6494 32.7626C52.724 32.6883 52.7832 32.5999 52.8233 32.5025C52.8635 32.4063 52.8841 32.3031 52.884 32.1989C52.8839 32.0947 52.8631 31.9916 52.8228 31.8955C52.7402 31.6995 52.5834 31.5442 52.3867 31.4633C52.19 31.3825 51.9693 31.3827 51.7728 31.4639V31.464Z" fill="#3C3C3C"/>
<path d="M46.2207 29.397C48.3007 31.3588 49.6001 34.0074 49.8784 36.853L57.2067 38.4085C57.2096 38.2725 57.2117 38.1364 57.2117 37.9999C57.2231 33.352 55.5227 28.8626 52.4351 25.3884L46.2207 29.397ZM53.5789 31.5802C53.6605 31.7767 53.7024 31.9873 53.7024 32.2C53.7023 32.4127 53.6603 32.6233 53.5786 32.8196C53.4969 33.016 53.3773 33.1944 53.2265 33.3444C53.0757 33.4944 52.8967 33.6131 52.6999 33.6938C52.3027 33.8575 51.8568 33.8574 51.4597 33.6935C51.0625 33.5296 50.7463 33.2152 50.5802 32.819C50.4986 32.6226 50.4566 32.4119 50.4566 32.1992C50.4567 31.9865 50.4988 31.7759 50.5804 31.5796C50.6621 31.3832 50.7818 31.2048 50.9326 31.0548C51.0834 30.9048 51.2623 30.7861 51.4591 30.7054C51.8564 30.5419 52.3023 30.5421 52.6994 30.706C53.0966 30.8699 53.4128 31.1841 53.5792 31.5802H53.5789Z" fill="#3C3C3C"/>
<path d="M51.7727 44.5411C51.9692 44.6223 52.1899 44.6224 52.3866 44.5416C52.5833 44.4608 52.74 44.3054 52.8227 44.1095C52.8628 44.0127 52.8833 43.909 52.8832 43.8043C52.883 43.6996 52.8622 43.5959 52.8218 43.4993C52.7815 43.4026 52.7224 43.3149 52.6481 43.2412C52.5737 43.1674 52.4855 43.1091 52.3886 43.0696C52.192 42.9884 51.9713 42.9882 51.7746 43.069C51.5779 43.1499 51.4212 43.3052 51.3385 43.5011C51.2982 43.5972 51.2774 43.7004 51.2773 43.8046C51.2773 43.9088 51.2979 44.012 51.3381 44.1082C51.3782 44.2055 51.4373 44.2939 51.5119 44.3683C51.5865 44.4426 51.6751 44.5013 51.7727 44.5411Z" fill="#3C3C3C"/>
<path d="M35 28.735V30.1612C35.0006 30.2102 35.0204 30.2569 35.055 30.2915C35.0896 30.3261 35.1363 30.3458 35.1852 30.3465H35.5115V28.55H35.1852C35.1363 28.5507 35.0897 28.5704 35.0551 28.6049C35.0205 28.6395 35.0007 28.6862 35 28.735Z" fill="#3C3C3C"/>
<path d="M49.9354 38C49.9373 40.7555 48.9741 43.4246 47.2129 45.5438L51.2907 51.8013C51.3899 51.7067 51.4888 51.6114 51.5861 51.5142C54.8919 48.2472 56.8802 43.8781 57.1718 39.2394L49.9315 37.7026C49.9341 37.8015 49.9354 37.9006 49.9354 38ZM50.5815 43.186C50.7479 42.79 51.0641 42.4758 51.4612 42.312C51.8583 42.1481 52.304 42.1479 52.7013 42.3113C52.8981 42.392 53.077 42.5108 53.2278 42.6608C53.3785 42.8109 53.4982 42.9892 53.5798 43.1856C53.6615 43.382 53.7035 43.5926 53.7036 43.8053C53.7036 44.018 53.6616 44.2286 53.5801 44.425C53.4139 44.8212 53.0976 45.1355 52.7005 45.2994C52.3033 45.4633 51.8574 45.4633 51.4602 45.2996C51.2634 45.219 51.0845 45.1002 50.9337 44.9502C50.7829 44.8002 50.6633 44.6218 50.5816 44.4254C50.5 44.229 50.4579 44.0184 50.4579 43.8057C50.4579 43.593 50.4999 43.3824 50.5815 43.186Z" fill="#3C3C3C"/>
<path d="M32.4765 24.7283C32.574 24.6885 32.6627 24.6298 32.7373 24.5555C32.812 24.4812 32.8711 24.3928 32.9112 24.2955C32.9514 24.1993 32.972 24.0961 32.9719 23.9919C32.9718 23.8877 32.951 23.7845 32.9107 23.6884C32.828 23.4925 32.6713 23.3371 32.4746 23.2563C32.2779 23.1754 32.0572 23.1756 31.8607 23.2569C31.7631 23.2966 31.6745 23.3553 31.5998 23.4296C31.5252 23.504 31.4661 23.5924 31.4259 23.6897C31.3858 23.7859 31.3651 23.8891 31.3652 23.9933C31.3653 24.0975 31.3862 24.2007 31.4265 24.2968C31.5091 24.4927 31.6659 24.6481 31.8626 24.7289C32.0593 24.8098 32.28 24.8095 32.4765 24.7283Z" fill="#3C3C3C"/>
<path d="M26.0633 38.0001C26.0614 35.2456 27.024 32.5773 28.7842 30.4584L24.7063 24.2004C24.6078 24.2946 24.5094 24.3891 24.4125 24.4857C21.1055 27.7538 19.117 32.1247 18.8262 36.765L26.0669 38.3019C26.0645 38.2016 26.0633 38.101 26.0633 38.0001ZM25.4172 32.8186C25.2511 33.2149 24.9349 33.5293 24.5377 33.6932C24.1406 33.8571 23.6947 33.8572 23.2974 33.6935C23.1006 33.6128 22.9217 33.4941 22.7709 33.3441C22.6202 33.194 22.5005 33.0157 22.4189 32.8193C22.3372 32.6229 22.2952 32.4123 22.2951 32.1996C22.2951 31.9869 22.3371 31.7763 22.4187 31.5799C22.5851 31.1838 22.9013 30.8696 23.2984 30.7058C23.6955 30.5419 24.1413 30.5418 24.5385 30.7053C24.7353 30.7859 24.9142 30.9047 25.065 31.0547C25.2158 31.2048 25.3354 31.3831 25.4171 31.5795C25.4987 31.7759 25.5408 31.9865 25.5408 32.1992C25.5408 32.4119 25.4988 32.6225 25.4172 32.8189V32.8186Z" fill="#3C3C3C"/>
<path d="M26.8848 37.9998C26.8848 44.0974 31.871 49.0582 38 49.0582C44.129 49.0582 49.1152 44.0974 49.1152 37.9998C49.1152 31.9022 44.129 26.9414 38 26.9414C31.871 26.9414 26.8848 31.9022 26.8848 37.9998ZM41.9674 28.7348V30.161C41.9672 30.4276 41.8611 30.6832 41.6726 30.8717C41.4841 31.0602 41.2285 31.1663 40.9619 31.1666H40.498C41.5168 31.5372 42.4407 32.1293 43.2029 32.9003C43.9651 33.6712 44.5466 34.6018 44.9056 35.6247V35.1102C44.9058 34.8437 45.0119 34.5881 45.2004 34.3996C45.3888 34.211 45.6444 34.105 45.911 34.1047H47.3373C47.6039 34.105 47.8594 34.2111 48.048 34.3996C48.2365 34.5881 48.3425 34.8437 48.3428 35.1102V40.8873C48.3425 41.1539 48.2365 41.4095 48.048 41.598C47.8594 41.7865 47.6039 41.8925 47.3373 41.8928H45.911C45.6444 41.8925 45.3888 41.7865 45.2004 41.598C45.0119 41.4095 44.9058 41.1539 44.9056 40.8873V40.3752C44.547 41.397 43.9664 42.3266 43.2054 43.0971C42.4445 43.8675 41.5221 44.4597 40.5048 44.8309H40.9619C41.2285 44.8312 41.4841 44.9372 41.6726 45.1257C41.8611 45.3142 41.9671 45.5698 41.9674 45.8364V47.2627C41.9671 47.5293 41.8611 47.7848 41.6726 47.9733C41.4841 48.1618 41.2285 48.2678 40.9619 48.2681H35.185C34.9184 48.2678 34.6629 48.1618 34.4744 47.9733C34.2859 47.7848 34.1798 47.5293 34.1795 47.2627V45.8362C34.1798 45.5696 34.2858 45.314 34.4743 45.1255C34.6628 44.937 34.9184 44.8309 35.185 44.8306H35.4952C34.5433 44.4831 33.6739 43.942 32.9417 43.2414C32.2095 42.5409 31.6306 41.6962 31.2414 40.7606V40.8873C31.2411 41.1539 31.135 41.4094 30.9465 41.598C30.758 41.7865 30.5025 41.8925 30.2359 41.8928H28.8096C28.5431 41.8925 28.2875 41.7865 28.099 41.598C27.9105 41.4094 27.8045 41.1539 27.8042 40.8873V35.1102C27.8045 34.8436 27.9105 34.588 28.099 34.3995C28.2875 34.211 28.5431 34.1049 28.8096 34.1046H30.2359C30.5025 34.1049 30.758 34.211 30.9465 34.3995C31.135 34.588 31.2411 34.8436 31.2414 35.1102V35.239C31.631 34.3023 32.2109 33.4567 32.9443 32.7557C33.6777 32.0547 34.5486 31.5136 35.502 31.1666H35.185C34.9184 31.1663 34.6628 31.0602 34.4743 30.8717C34.2858 30.6832 34.1798 30.4276 34.1795 30.1611V28.7348C34.1798 28.4682 34.2859 28.2127 34.4744 28.0242C34.6629 27.8358 34.9185 27.7298 35.185 27.7295H40.9619C41.2285 27.7298 41.484 27.8358 41.6725 28.0242C41.861 28.2127 41.9671 28.4682 41.9674 28.7348Z" fill="#3C3C3C"/>
<path d="M36.8473 26.1769L38.4092 18.8917C38.2726 18.8889 38.1359 18.8868 37.9991 18.8868C33.3346 18.8723 28.8257 20.5627 25.3203 23.6399L29.3496 29.8231C31.3291 27.7457 33.991 26.4513 36.8473 26.1769ZM30.6665 23.376C30.7476 23.1786 30.8672 22.9994 31.0183 22.8487C31.1693 22.698 31.3489 22.5789 31.5464 22.4982C31.9437 22.3348 32.3895 22.3351 32.7866 22.499C33.1837 22.663 33.4999 22.9773 33.6662 23.3733C33.7478 23.5698 33.7898 23.7804 33.7897 23.9931C33.7897 24.2058 33.7476 24.4164 33.6659 24.6128C33.5843 24.8092 33.4646 24.9875 33.3138 25.1375C33.163 25.2876 32.9841 25.4063 32.7873 25.487C32.3901 25.6508 31.9443 25.6508 31.5471 25.4869C31.15 25.3231 30.8338 25.0088 30.6676 24.6126C30.5854 24.4168 30.543 24.2067 30.5428 23.9944C30.5426 23.7821 30.5846 23.5719 30.6665 23.376Z" fill="#3C3C3C"/>
<path d="M24.2264 31.4632C24.0299 31.382 23.8092 31.3817 23.6125 31.4626C23.4158 31.5434 23.2591 31.6987 23.1764 31.8947C23.1361 31.9908 23.1153 32.0939 23.1152 32.1981C23.1151 32.3023 23.1357 32.4055 23.1759 32.5017C23.216 32.5991 23.2752 32.6875 23.3498 32.7618C23.4244 32.8361 23.5131 32.8949 23.6106 32.9347C23.8072 33.0159 24.0279 33.0161 24.2246 32.9352C24.4213 32.8544 24.578 32.699 24.6606 32.5031C24.7007 32.4063 24.7213 32.3026 24.7212 32.1979C24.721 32.0931 24.7002 31.9895 24.6598 31.8928C24.6195 31.7962 24.5604 31.7085 24.486 31.6347C24.4117 31.561 24.3234 31.5027 24.2264 31.4632Z" fill="#3C3C3C"/>
</svg>
