<svg width="137" height="137" viewBox="0 0 137 137" fill="none" xmlns="http://www.w3.org/2000/svg">
<rect width="137" height="137" rx="6.46552" fill="#FBC22E"/>
<g clip-path="url(#clip0)">
<path d="M44.1401 79.6028L41.4763 76.9401L32.1941 86.2205L36.172 90.199C34.8492 90.5999 33.637 91.3222 32.6326 92.3284C31.0241 93.9351 30.1396 96.0733 30.1396 98.3473C30.1396 100.622 31.0241 102.759 32.6326 104.367C34.241 105.976 36.3781 106.86 38.6526 106.86C40.9266 106.86 43.0648 105.976 44.6716 104.367C45.6777 103.363 46.4 102.151 46.801 100.828L50.7795 104.806L60.0598 95.5237L57.3972 92.8599L59.653 90.604L49.8845 73.8584L44.1401 79.6028Z" fill="#3C3C3C"/>
<path d="M53.1777 70.5655L62.9463 87.3111L66.2036 84.0537L56.4351 67.3081L53.1777 70.5655Z" fill="#3C3C3C"/>
<path d="M59.7285 64.0152L69.4976 80.7608L72.7544 77.5034L62.9859 60.7578L59.7285 64.0152Z" fill="#3C3C3C"/>
<path d="M66.2783 57.4641L76.0474 74.2097L79.303 70.9541L69.5345 54.2085L66.2783 57.4641Z" fill="#3C3C3C"/>
<path d="M72.8301 50.9138L82.5986 67.6594L85.8542 64.4038L76.0857 47.6582L72.8301 50.9138Z" fill="#3C3C3C"/>
<path d="M102.201 44.0657C102.966 43.7262 103.683 43.2456 104.311 42.6181C105.679 41.2496 106.362 39.4521 106.362 37.6546C106.362 35.857 105.679 34.0595 104.311 32.6898C102.984 31.3641 101.221 30.6342 99.346 30.6342C97.47 30.6342 95.7087 31.3641 94.3824 32.6898C93.7549 33.3179 93.2744 34.0343 92.9349 34.7999L88.2751 30.1401L78.9941 39.4223L81.6586 42.0849L79.3787 44.3642L89.1478 61.1104L94.9156 55.342L97.5783 58.0064L106.86 48.7254L102.201 44.0657Z" fill="#3C3C3C"/>
<path d="M51.3434 67.4189L47.4521 69.6877L49.8854 73.8581L53.1784 70.5651L51.3434 67.4189Z" fill="#3C3C3C"/>
<path d="M61.4883 93.7502L65.3796 91.4797L62.9464 87.311L59.6533 90.6041L61.4883 93.7502Z" fill="#3C3C3C"/>
<path d="M57.8926 60.8687L54.002 63.1391L56.4346 67.3078L59.7276 64.0148L57.8926 60.8687Z" fill="#3C3C3C"/>
<path d="M68.0391 87.1999L71.9304 84.9294L69.4977 80.7607L66.2041 84.0538L68.0391 87.1999Z" fill="#3C3C3C"/>
<path d="M64.4434 54.3174L60.5527 56.5885L62.9854 60.7572L66.2784 57.4635L64.4434 54.3174Z" fill="#3C3C3C"/>
<path d="M74.5895 80.6488L78.4802 78.3794L76.0475 74.209L72.7539 77.5026L74.5895 80.6488Z" fill="#3C3C3C"/>
<path d="M70.993 47.7671L67.1006 50.0376L69.5338 54.208L72.8286 50.9132L70.993 47.7671Z" fill="#3C3C3C"/>
<path d="M81.1377 74.0996L85.0302 71.8291L82.5975 67.6587L79.3027 70.9535L81.1377 74.0996Z" fill="#3C3C3C"/>
<path d="M77.543 41.2192L73.6523 43.488L76.085 47.6584L79.378 44.3648L77.543 41.2192Z" fill="#3C3C3C"/>
<path d="M87.6885 67.55L91.5798 65.2795L89.1472 61.1108L85.8535 64.4039L87.6885 67.55Z" fill="#3C3C3C"/>
</g>
<defs>
<clipPath id="clip0">
<rect width="76.72" height="76.72" fill="white" transform="translate(30.1396 30.1401)"/>
</clipPath>
</defs>
</svg>
