<svg width="75" height="75" viewBox="0 0 75 75" fill="none" xmlns="http://www.w3.org/2000/svg">
<rect width="75" height="75" rx="6.46552" fill="#FBC22E"/>
<path d="M58.2778 37.4855L53.9135 29.92C53.4737 29.1582 52.2216 29.1582 51.7818 29.92L47.3923 37.5311C46.9368 38.4047 46.6953 39.39 46.6953 40.379C46.6953 43.7712 49.4554 46.5313 52.8477 46.5313C56.2399 46.5313 59 43.7712 59 40.379C59 39.39 58.7585 38.4047 58.2778 37.4855Z" fill="#3C3C3C"/>
<path d="M40.5279 26.4833L37.0479 23.0034C36.351 22.3064 35.4234 21.9219 34.438 21.9219C24.8226 21.9219 17 29.7445 17 39.3599V47.7617C17 49.7972 18.6559 51.4531 20.6914 51.4531H25.6133C27.2154 51.4531 28.5684 50.4213 29.078 48.9922H35.457C38.8493 48.9922 41.6094 46.2321 41.6094 42.8398V29.0932C41.6094 28.1079 41.2248 27.1802 40.5279 26.4833ZM30.5352 26.8438H32.9961C33.6762 26.8438 34.2266 27.3941 34.2266 28.0742C34.2266 28.7543 33.6762 29.3047 32.9961 29.3047H30.5352C29.855 29.3047 29.3047 28.7543 29.3047 28.0742C29.3047 27.3941 29.855 26.8438 30.5352 26.8438ZM30.5352 31.7656H32.9961C33.6762 31.7656 34.2266 32.316 34.2266 32.9961C34.2266 33.6762 33.6762 34.2266 32.9961 34.2266H30.5352C29.855 34.2266 29.3047 33.6762 29.3047 32.9961C29.3047 32.316 29.855 31.7656 30.5352 31.7656ZM39.1484 42.8398C39.1484 44.8754 37.4926 46.5312 35.457 46.5312H29.3047V39.1484H31.7656V40.3789C31.7656 42.4144 33.4215 44.0703 35.457 44.0703C36.1372 44.0703 36.6875 43.52 36.6875 42.8398C36.6875 42.1597 36.1372 41.6094 35.457 41.6094C34.7781 41.6094 34.2266 41.0578 34.2266 40.3789V39.1484H39.1484V42.8398Z" fill="#3C3C3C"/>
<path d="M19.4609 53.9141V57.7695C19.4609 58.4497 20.0113 59 20.6914 59H25.6133C26.2934 59 26.8438 58.4497 26.8438 57.7695V53.9141H19.4609Z" fill="#3C3C3C"/>
<path d="M52.8476 17H42.8398C41.8545 17 40.9268 17.3846 40.2299 18.0815L37.8301 20.4813C38.1708 20.7076 38.4922 20.9677 38.788 21.2634L42.2678 24.7433C42.5635 25.0391 42.8237 25.3605 43.0499 25.7012L44.3683 24.3828H52.8476C53.5278 24.3828 54.0781 23.8325 54.0781 23.1523V18.2305C54.0781 17.5503 53.5278 17 52.8476 17Z" fill="#3C3C3C"/>
</svg>
