<svg width="75" height="75" viewBox="0 0 75 75" fill="none" xmlns="http://www.w3.org/2000/svg">
<rect width="75" height="75" rx="6.46552" fill="#FBC22E"/>
<path d="M37.9992 59C43.1185 59 47.8084 57.063 51.4479 53.9987C48.5713 49.526 43.5674 46.6133 37.9992 46.6133C32.3842 46.6133 27.3826 49.4712 24.5176 53.9685C28.1619 57.0505 32.8639 59 37.9992 59ZM34.3078 49.0742H41.6906V51.5352H34.3078V49.0742Z" fill="#3C3C3C"/>
<path d="M24.5273 39.2305C24.7911 42.1859 26.0087 44.922 28.0255 47.1196C30.9226 45.2595 34.3314 44.1524 38.0007 44.1524C41.6446 44.1524 45.0794 45.2399 47.9825 47.1125C49.9958 44.916 51.2106 42.1826 51.474 39.2305H49.0749V36.7695H51.4733C51.2189 33.9606 50.1067 31.3968 48.3956 29.3451L46.7017 31.0389L44.9618 29.2989L46.6556 27.6051C44.6039 25.894 42.0401 24.7818 39.2311 24.5273V26.9258H36.7702V24.5273C33.9613 24.7818 31.3975 25.894 29.3457 27.6051L31.0395 29.2989L29.2996 31.0389L27.6058 29.3451C25.8946 31.3968 24.7824 33.9606 24.528 36.7695H26.9264V39.2305H24.5273ZM39.9197 34.8469C41.03 35.5234 41.6921 36.7023 41.6921 38C41.6921 40.0354 40.0361 41.6914 38.0007 41.6914C36.7029 41.6914 35.524 41.0294 34.8476 39.9191L30.5999 30.5993L39.9197 34.8469Z" fill="#3C3C3C"/>
<path d="M38 17C26.4656 17 17 26.4656 17 38C17 43.5112 19.2402 48.5163 22.7358 52.2565C23.666 50.8779 24.7741 49.6488 26.0244 48.5814C23.4279 45.6577 22.0039 41.9538 22.0039 38C22.0039 29.18 29.18 22.0039 38 22.0039C46.82 22.0039 53.9961 29.18 53.9961 38C53.9961 41.9564 52.5702 45.6622 49.9705 48.5868C51.2227 49.6545 52.3289 50.8892 53.2617 52.2593C56.7589 48.5189 59 43.5124 59 38C59 26.4656 49.5344 17 38 17Z" fill="#3C3C3C"/>
<path d="M37.9996 39.2306C38.6786 39.2306 39.2301 38.6791 39.2301 38.0001C39.2301 37.588 39.0295 37.2119 38.6892 36.9811L35.5566 35.5571L37.0169 38.7692C37.1742 39.0095 37.567 39.2306 37.9996 39.2306Z" fill="#3C3C3C"/>
</svg>
