<svg width="137" height="137" viewBox="0 0 137 137" fill="none" xmlns="http://www.w3.org/2000/svg">
<rect width="137" height="137" rx="17.7155" fill="#FBC22E"/>
<path fill-rule="evenodd" clip-rule="evenodd" d="M27.1813 94.256L39.5919 107.57L47.6576 100.052L49.4067 101.928L80.348 73.0868L64.4415 56.0221L33.5001 84.8637L35.247 86.7377L27.1813 94.256ZM82.603 65.7285L80.3494 73.0861L64.5302 56.1152L71.9404 54.2896L78.8788 47.8221L89.5414 59.261L82.603 65.7285ZM58.6589 96.6302L71.4105 84.744L76.1301 89.8071L75.6147 104.481L58.4044 103.877L58.6589 96.6302ZM91.677 54.9453L92.4269 58.6021L102.502 56.5359L101.752 52.8791L91.677 54.9453ZM106.55 55.7056L105.8 52.0488L115.875 49.9826L116.625 53.6394L106.55 55.7056ZM83.0445 45.6873L79.4494 44.6827L82.2173 34.7776L85.8125 35.7822L83.0445 45.6873ZM83.5594 31.0415L87.1545 32.0462L89.9224 22.1411L86.3273 21.1365L83.5594 31.0415ZM94.2592 41.3474L96.8045 44.0779L89.2814 51.0905L86.7361 48.3599L94.2592 41.3474ZM107.679 33.9407L105.134 31.2102L97.6105 38.2227L100.156 40.9533L107.679 33.9407Z" fill="#3C3C3C"/>
</svg>
