<svg width="75" height="75" viewBox="0 0 75 75" fill="none" xmlns="http://www.w3.org/2000/svg">
<rect width="75" height="75" rx="6.46552" fill="#FBC22E"/>
<path d="M52.3555 59H23.6445V53.2578H52.3555V59Z" fill="#3C3C3C"/>
<path d="M47.4336 50.7969H28.5664V47.5156H47.4336V50.7969Z" fill="#3C3C3C"/>
<path d="M39.2305 45.0547H36.7695C36.7695 43.69 36.3471 43.088 35.7624 42.2549C35.1146 41.3319 34.3086 40.1833 34.3086 38.0413C34.3086 35.8993 35.1146 34.7507 35.7624 33.8276C36.3471 32.9945 36.7695 32.3924 36.7695 31.0278C36.7695 29.663 36.3471 29.0609 35.7624 28.2276C35.1146 27.3046 34.3086 26.156 34.3086 24.0138C34.3086 21.8718 35.1146 20.7232 35.7624 19.8001C36.3471 18.9669 36.7695 18.3648 36.7695 17H39.2305C39.2305 19.1422 38.4244 20.2908 37.7767 21.2137C37.192 22.047 36.7695 22.649 36.7695 24.0138C36.7695 25.3787 37.192 25.9807 37.7767 26.814C38.4244 27.737 39.2305 28.8856 39.2305 31.0278C39.2305 33.1698 38.4244 34.3184 37.7767 35.2414C37.192 36.0746 36.7695 36.6766 36.7695 38.0413C36.7695 39.406 37.192 40.008 37.7767 40.8412C38.4244 41.7641 39.2305 42.9127 39.2305 45.0547Z" fill="#3C3C3C"/>
<path d="M31.8477 45.0547H29.3867C29.3867 43.69 28.9643 43.088 28.3795 42.2549C27.7318 41.3319 26.9258 40.1833 26.9258 38.0413C26.9258 35.8993 27.7318 34.7507 28.3795 33.8276C28.9643 32.9945 29.3867 32.3924 29.3867 31.0278C29.3867 29.663 28.9643 29.0609 28.3795 28.2276C27.7318 27.3046 26.9258 26.156 26.9258 24.0138C26.9258 21.8718 27.7318 20.7232 28.3795 19.8001C28.9643 18.9669 29.3867 18.3648 29.3867 17H31.8477C31.8477 19.1422 31.0416 20.2908 30.3939 21.2137C29.8092 22.047 29.3867 22.649 29.3867 24.0138C29.3867 25.3787 29.8092 25.9807 30.3939 26.814C31.0416 27.737 31.8477 28.8856 31.8477 31.0278C31.8477 33.1698 31.0416 34.3184 30.3939 35.2414C29.8092 36.0746 29.3867 36.6766 29.3867 38.0413C29.3867 39.406 29.8092 40.008 30.3939 40.8412C31.0416 41.7641 31.8477 42.9127 31.8477 45.0547Z" fill="#3C3C3C"/>
<path d="M46.6133 45.0547H44.1523C44.1523 43.69 43.7299 43.088 43.1452 42.2549C42.4974 41.3319 41.6914 40.1833 41.6914 38.0413C41.6914 35.8993 42.4974 34.7507 43.1452 33.8276C43.7299 32.9945 44.1523 32.3924 44.1523 31.0278C44.1523 29.663 43.7299 29.0609 43.1452 28.2276C42.4974 27.3046 41.6914 26.156 41.6914 24.0138C41.6914 21.8718 42.4974 20.7232 43.1452 19.8001C43.7299 18.9669 44.1523 18.3648 44.1523 17H46.6133C46.6133 19.1422 45.8072 20.2908 45.1595 21.2137C44.5748 22.047 44.1523 22.649 44.1523 24.0138C44.1523 25.3787 44.5748 25.9807 45.1595 26.814C45.8072 27.737 46.6133 28.8856 46.6133 31.0278C46.6133 33.1698 45.8072 34.3184 45.1595 35.2414C44.5748 36.0746 44.1523 36.6766 44.1523 38.0413C44.1523 39.406 44.5748 40.008 45.1595 40.8412C45.8072 41.7641 46.6133 42.9127 46.6133 45.0547Z" fill="#3C3C3C"/>
</svg>
