<svg width="75" height="75" viewBox="0 0 75 75" fill="none" xmlns="http://www.w3.org/2000/svg">
<rect width="75" height="75" rx="6.46552" fill="#FBC22E"/>
<g clip-path="url(#clip0)">
<path d="M58.4402 34.5069C58.1787 33.2994 57.1104 32.4375 55.8748 32.4375H41.4374H37.5V29.8125H40.1249C41.5746 29.8125 42.7499 28.6371 42.7499 27.1875C42.7499 25.7378 41.5746 24.5625 40.1249 24.5625H29.6249C28.1753 24.5625 27 25.7378 27 27.1875C27 28.6371 28.1753 29.8125 29.6249 29.8125H32.25V32.4375H27C26.0168 32.4375 25.1699 32.9846 24.7202 33.7849C24.606 33.7697 24.4932 33.75 24.375 33.75C20.0324 33.75 16.5 37.2825 16.5 41.6249C16.5 45.9674 20.0325 49.4999 24.375 49.4999C24.4932 49.4999 24.606 49.4802 24.7202 49.465C25.1699 50.2652 26.0168 50.8124 27 50.8124H41.4374C42.8871 50.8124 44.0625 49.6371 44.0625 48.1874V43.3152L56.9612 37.4522C58.0858 36.9409 58.7017 35.7143 58.4402 34.5069ZM21.7501 41.625C21.7501 40.1773 22.8985 39 24.3751 39V44.25C22.8985 44.25 21.7501 43.0727 21.7501 41.625Z" fill="#3C3C3C"/>
<path d="M52.192 43.4737C51.7106 44.1293 49.3125 47.506 49.3125 49.6189C49.3125 51.7242 51.0787 53.4372 53.25 53.4372C55.4213 53.4372 57.1875 51.7242 57.1875 49.6189C57.1875 47.506 54.7894 44.1293 54.308 43.4737C53.8146 42.7995 52.6854 42.7995 52.192 43.4737Z" fill="#3C3C3C"/>
</g>
<defs>
<clipPath id="clip0">
<rect width="42" height="42" fill="white" transform="translate(16.5 18)"/>
</clipPath>
</defs>
</svg>
