<svg width="75" height="75" viewBox="0 0 75 75" fill="none" xmlns="http://www.w3.org/2000/svg">
<rect width="75" height="75" rx="6.46552" fill="#FBC22E"/>
<g clip-path="url(#clip0)">
<path d="M32.5153 30.7922L30.7748 32.5326C30.2938 33.0136 30.2938 33.7921 30.7748 34.273L41.2175 44.7157C41.6985 45.1968 42.477 45.1968 42.9579 44.7157L44.6984 42.9753C45.1794 42.4943 45.1794 41.7158 44.6984 41.2349L34.2557 30.7922C33.7747 30.3111 32.9962 30.3111 32.5153 30.7922Z" fill="#3C3C3C"/>
<path d="M23.8128 55.1583C24.2938 55.6393 25.0723 55.6393 25.5532 55.1583L26.4235 54.288L21.2021 49.0667C21.0268 49.2419 18.4161 51.8526 18.5914 51.6773C17.1518 53.1169 17.1518 55.4591 18.5914 56.8987L20.3318 58.6391C20.8129 59.1202 21.5913 59.1202 22.0723 58.6391C22.5533 58.1581 22.5533 57.3797 22.0723 56.8987L20.3318 55.1583C19.8517 54.6781 19.8517 53.898 20.3318 53.4178L21.2021 52.5476L23.8128 55.1583Z" fill="#3C3C3C"/>
<path d="M28.1602 38.6238L29.9003 36.8836L38.6013 45.5845L36.8611 47.3247L28.1602 38.6238Z" fill="#3C3C3C"/>
<path d="M30.774 53.4179L31.6442 52.5476L22.942 43.8455L22.0717 44.7157C21.5907 45.1967 21.5907 45.9752 22.0717 46.4561L29.0335 53.4179C29.5146 53.8989 30.293 53.8989 30.774 53.4179Z" fill="#3C3C3C"/>
<path d="M24.6797 42.1038L26.4199 40.3636L35.1208 49.0645L33.3806 50.8047L24.6797 42.1038Z" fill="#3C3C3C"/>
<path d="M47.6858 19.1012L36.8652 29.9219L45.5675 38.6241L56.3881 27.8034C56.8692 27.3224 56.8692 26.544 56.3881 26.063L49.4263 19.1012C48.9453 18.6202 48.1668 18.6202 47.6858 19.1012Z" fill="#3C3C3C"/>
<path d="M52.0371 18.231L57.2585 23.4524L58.1287 22.5822C58.6098 22.1011 58.6098 21.3227 58.1287 20.8417L54.6478 17.3608C54.1668 16.8797 53.3883 16.8797 52.9074 17.3608L52.0371 18.231Z" fill="#3C3C3C"/>
</g>
<defs>
<clipPath id="clip0">
<rect width="42" height="42" fill="white" transform="translate(17 17)"/>
</clipPath>
</defs>
</svg>
