<svg width="75" height="75" viewBox="0 0 75 75" fill="none" xmlns="http://www.w3.org/2000/svg">
<rect width="75" height="75" rx="6.46552" fill="#FBC22E"/>
<g clip-path="url(#clip0)">
<path d="M25.123 36.4497C24.4442 36.4497 23.8926 37.0013 23.8926 37.6802C23.8926 38.3591 24.4442 38.9106 25.123 38.9106C25.8019 38.9106 26.3535 38.3591 26.3535 37.6802C26.3535 37.0012 25.8019 36.4497 25.123 36.4497Z" fill="#3C3C3C"/>
<path d="M57.5736 43.0337L47.9065 20.2141C46.3794 16.6647 41.9683 15.3882 38.7801 17.5801L20.254 30.5752C17.9096 32.1842 16.5098 34.8398 16.5098 37.6805C16.5098 40.7722 18.1812 43.643 20.8717 45.1726L41.932 57.0543C46.2313 59.4967 51.6889 58.809 55.2389 55.2591C58.4676 52.0315 59.3832 47.2322 57.5736 43.0337ZM41.3893 21.7836C41.8698 21.3029 42.6489 21.3029 43.1294 21.7836C43.61 22.2641 43.61 23.0431 43.1294 23.5237C42.6489 24.0042 41.8698 24.0042 41.3893 23.5237C40.9088 23.0431 40.9089 22.264 41.3893 21.7836ZM21.4316 37.6805C21.4316 35.6449 23.0875 33.9891 25.123 33.9891C27.1586 33.9891 28.8144 35.6449 28.8144 37.6805C28.8144 39.716 27.1586 41.3719 25.123 41.3719C23.0875 41.3719 21.4316 39.716 21.4316 37.6805ZM37.1677 51.5149L27.2807 45.9863C30.9824 45.0217 33.7363 41.6797 33.7363 37.6804C33.7363 33.4314 30.6357 29.9132 26.583 29.2148L36.1441 22.3727C36.0721 24.0543 36.6599 25.7541 37.909 27.0032C40.2607 29.355 44.2041 29.422 46.6099 27.0032C47.0043 26.6088 47.3252 26.1667 47.5928 25.7008L52.5978 37.7042C48.4101 35.4748 43.102 36.0731 39.5768 39.5982C36.3308 42.8537 35.6069 47.5461 37.1677 51.5149ZM51.7589 51.7779C49.3604 54.1764 45.4565 54.1764 43.058 51.7779C40.6596 49.3795 40.6596 45.4766 43.058 43.0781C45.4553 40.6808 49.3593 40.6784 51.7589 43.0781C54.1598 45.4765 54.1684 49.3685 51.7589 51.7779Z" fill="#3C3C3C"/>
<path d="M50.0195 44.8185C48.58 43.3789 46.2381 43.3789 44.7984 44.8185C43.3562 46.2607 43.3562 48.5961 44.7984 50.0384C46.238 51.4791 48.58 51.4767 50.0195 50.0384C51.4588 48.5991 51.4646 46.2637 50.0195 44.8185ZM48.2793 48.2983C47.7987 48.7789 47.0197 48.7789 46.5391 48.2983C46.0585 47.8178 46.0585 47.0388 46.5391 46.5582C47.0197 46.0777 47.7987 46.0777 48.2793 46.5582C48.7598 47.0388 48.7598 47.8179 48.2793 48.2983Z" fill="#3C3C3C"/>
</g>
<line x1="28.674" y1="20.9056" x2="32.6193" y2="26.9405" stroke="#FBC22E" stroke-width="4"/>
<defs>
<clipPath id="clip0">
<rect width="42" height="42" fill="white" transform="translate(16.5 16.5)"/>
</clipPath>
</defs>
</svg>
