<svg width="137" height="137" viewBox="0 0 137 137" fill="none" xmlns="http://www.w3.org/2000/svg">
<rect width="137" height="137" rx="6.46552" fill="#FBC22E"/>
<g clip-path="url(#clip0)">
<path d="M45.8902 66.5815C44.6501 66.5815 43.6426 67.5891 43.6426 68.8292C43.6426 70.0693 44.6501 71.0769 45.8902 71.0769C47.1303 71.0769 48.1379 70.0693 48.1379 68.8292C48.1379 67.5889 47.1303 66.5815 45.8902 66.5815Z" fill="#3C3C3C"/>
<path d="M105.168 78.6084L87.5096 36.9245C84.7201 30.4409 76.6624 28.1092 70.8388 32.1132L36.9977 55.8509C32.7153 58.7899 30.1582 63.6408 30.1582 68.8298C30.1582 74.4774 33.2114 79.7213 38.126 82.5154L76.5962 104.219C84.4495 108.681 94.4187 107.425 100.903 100.94C106.801 95.0443 108.474 86.2775 105.168 78.6084ZM75.6048 39.7914C76.4826 38.9135 77.9057 38.9135 78.7835 39.7914C79.6612 40.6692 79.6612 42.0923 78.7835 42.9701C77.9057 43.8479 76.4826 43.8479 75.6048 42.9701C74.727 42.0923 74.7272 40.6691 75.6048 39.7914ZM39.1488 68.8298C39.1488 65.1115 42.1736 62.0868 45.8918 62.0868C49.61 62.0868 52.6347 65.1115 52.6347 68.8298C52.6347 72.548 49.61 75.5727 45.8918 75.5727C42.1736 75.5727 39.1488 72.548 39.1488 68.8298ZM67.8934 94.1007L49.8331 84.0019C56.5949 82.2399 61.6253 76.1351 61.6253 68.8296C61.6253 61.0682 55.9615 54.6415 48.5587 53.3658L66.0235 40.8676C65.8921 43.9393 66.9658 47.0443 69.2474 49.326C73.5433 53.6218 80.7466 53.7443 85.1412 49.326C85.8616 48.6055 86.4477 47.798 86.9366 46.9469L96.079 68.8732C88.4295 64.8008 78.7333 65.8936 72.294 72.3328C66.3646 78.2796 65.0422 86.851 67.8934 94.1007ZM94.5467 94.5811C90.1654 98.9624 83.0342 98.9624 78.6529 94.5811C74.2718 90.2 74.2718 83.0707 78.6529 78.6895C83.032 74.3104 90.1633 74.3061 94.5467 78.6895C98.9323 83.0706 98.9479 90.1799 94.5467 94.5811Z" fill="#3C3C3C"/>
<path d="M91.3684 81.8683C88.7389 79.2386 84.461 79.2386 81.8313 81.8683C79.1969 84.5027 79.1969 88.7688 81.8313 91.4033C84.4609 94.035 88.7389 94.0307 91.3684 91.4033C93.9975 88.7741 94.0082 84.5083 91.3684 81.8683ZM88.1896 88.2248C87.3118 89.1026 85.8887 89.1026 85.0109 88.2248C84.133 87.347 84.133 85.924 85.0109 85.0462C85.8887 84.1684 87.3118 84.1684 88.1896 85.0462C89.0674 85.924 89.0674 87.3472 88.1896 88.2248Z" fill="#3C3C3C"/>
</g>
<defs>
<clipPath id="clip0">
<rect width="76.72" height="76.72" fill="white" transform="translate(30.1406 30.1401)"/>
</clipPath>
</defs>
</svg>
