<svg width="137" height="137" viewBox="0 0 137 137" fill="none" xmlns="http://www.w3.org/2000/svg">
<rect width="137" height="137" rx="5.14986" fill="#FBC22E"/>
<g clip-path="url(#clip0)">
<path d="M50.3638 39.2778C47.5639 40.7827 44.9525 42.6372 42.6016 44.7897L45.6374 48.105C47.7136 46.2038 50.0199 44.5661 52.492 43.2375L50.3638 39.2778Z" fill="#3C3C3C"/>
<path d="M65.5274 34.8413C62.3449 35.0856 59.2051 35.726 56.1953 36.7449L57.6367 41.0029C60.2917 40.1041 63.0622 39.5391 65.8713 39.3234L65.5274 34.8413Z" fill="#3C3C3C"/>
<path d="M31.3133 63.6392C30.5352 66.7113 30.1406 69.8899 30.1406 73.087H34.6359C34.6359 70.2618 34.9842 67.4546 35.6711 64.7429L31.3133 63.6392Z" fill="#3C3C3C"/>
<path d="M86.9988 39.4756L84.8281 43.4121C87.2869 44.7679 89.5762 46.4309 91.6322 48.3546L94.7034 45.0721C92.3756 42.894 89.7833 41.011 86.9988 39.4756Z" fill="#3C3C3C"/>
<path d="M38.2847 49.4536C36.3178 51.965 34.6698 54.7136 33.3867 57.6229L37.4998 59.4368C38.6323 56.8691 40.087 54.4428 41.8237 52.2254L38.2847 49.4536Z" fill="#3C3C3C"/>
<path d="M98.971 49.7812L95.4023 52.5149C97.1143 54.7496 98.5422 57.1901 99.6465 59.7685L103.779 57.9985C102.527 55.0772 100.91 52.3124 98.971 49.7812Z" fill="#3C3C3C"/>
<path d="M105.787 64.0337L101.418 65.0911C102.048 67.6933 102.367 70.3838 102.367 73.0877H106.862C106.862 70.0279 106.501 66.9816 105.787 64.0337Z" fill="#3C3C3C"/>
<path d="M71.8792 34.8745L71.4883 39.3529C74.2943 39.5979 77.0586 40.1922 79.7044 41.1194L81.1911 36.877C78.1914 35.8259 75.0585 35.152 71.8792 34.8745Z" fill="#3C3C3C"/>
<path d="M62.5078 41.021V59.0022H74.4953V41.021H62.5078ZM70 54.5069H67.0031V45.5163H70V54.5069Z" fill="#3C3C3C"/>
<path d="M55.8235 70.4141L54.6367 74.6936H56.9562L55.8235 70.4141Z" fill="#3C3C3C"/>
<path d="M90.3634 53.9295C87.2424 50.3702 83.3293 47.6533 78.9884 45.9722V63.4976H58.0103V45.9729C53.5451 47.7039 49.5319 50.5315 46.3785 54.2263C41.8976 59.4771 39.4297 66.1754 39.4297 73.0876C39.4297 89.1167 52.4703 102.157 68.4994 102.157C84.5285 102.157 97.5691 89.1167 97.5691 73.0876C97.5691 66.0324 95.01 59.2285 90.3634 53.9295ZM58.283 79.5309L57.5098 77.0315H54.1114L53.3562 79.5309H49.634L54.3991 66.7642H57.2401L61.9873 79.5309H58.283ZM66.4285 79.5309H62.6705L71.9308 66.7642H75.7069L66.4285 79.5309ZM86.4865 77.9305C86.1207 78.3023 85.7043 78.6138 85.2368 78.8656C84.7693 79.1173 84.2716 79.3091 83.7443 79.441C83.2167 79.5727 82.7014 79.6388 82.1979 79.6388C81.3107 79.6388 80.4957 79.45 79.7525 79.0723C79.0091 78.6947 78.3708 78.1944 77.8376 77.5709C77.3039 76.9477 76.8873 76.2403 76.5878 75.4491C76.2881 74.658 76.1383 73.8549 76.1383 73.0396C76.1383 72.2605 76.276 71.4933 76.552 70.738C76.8275 69.9828 77.2321 69.3057 77.7657 68.7062C78.299 68.1069 78.9463 67.6214 79.7077 67.2497C80.4687 66.8782 81.335 66.6923 82.306 66.6923C83.4448 66.6923 84.4396 66.9471 85.2909 67.4565C86.142 67.9661 86.7713 68.6404 87.1791 69.4794L84.4998 71.3854C84.3918 71.0737 84.2508 70.8161 84.0773 70.6122C83.9033 70.4085 83.7145 70.2467 83.5109 70.1267C83.3069 70.007 83.0912 69.923 82.8636 69.8749C82.6356 69.8271 82.4259 69.803 82.2344 69.803C81.7907 69.803 81.4099 69.9019 81.0925 70.0997C80.7747 70.2975 80.5109 70.5554 80.3014 70.8729C80.0916 71.1907 79.9386 71.5503 79.8428 71.9518C79.7467 72.3535 79.699 72.7519 79.699 73.1475C79.699 73.5912 79.7556 74.0168 79.8698 74.4242C79.9837 74.8319 80.1514 75.1915 80.3733 75.5031C80.5949 75.8149 80.8646 76.0636 81.1823 76.2493C81.4998 76.4353 81.8626 76.528 82.2702 76.528C82.4738 76.528 82.6839 76.501 82.8995 76.4471C83.1153 76.3931 83.3221 76.3032 83.52 76.1774C83.7177 76.0515 83.8976 75.8897 84.0595 75.6919C84.2213 75.4941 84.3499 75.2513 84.4461 74.9636L87.3051 76.6719C87.1248 77.1394 86.8521 77.5591 86.4865 77.9305Z" fill="#3C3C3C"/>
</g>
<defs>
<clipPath id="clip0">
<rect width="76.72" height="76.72" fill="white" transform="translate(30.1406 30.1396)"/>
</clipPath>
</defs>
</svg>
